<svg id="Layer_1" data-name="Layer 1" xmlns="http://www.w3.org/2000/svg" xmlns:xlink="http://www.w3.org/1999/xlink" viewBox="0 0 240.34 377.49"><defs><style>.cls-1{fill:url(#linear-gradient);}.cls-2{fill:#754c24;}.cls-3{fill:url(#linear-gradient-2);}.cls-4{fill:url(#linear-gradient-3);}.cls-5{fill:url(#linear-gradient-4);}.cls-6{fill:#f7d7ae;}.cls-7{fill:#ca8c1f;}.cls-8{fill:#e44616;}.cls-9{fill:#42210b;}.cls-10{fill:#5d6f83;}.cls-11{fill:url(#linear-gradient-5);}.cls-12{fill:url(#linear-gradient-6);}.cls-13{fill:url(#linear-gradient-7);}.cls-14{fill:#bc391b;}.cls-15{fill:#a2bfc5;}</style><linearGradient id="linear-gradient" x1="145.61" y1="416.42" x2="145.61" y2="261.26" gradientUnits="userSpaceOnUse"><stop offset="0" stop-color="#754c24"/><stop offset="0.62" stop-color="#ca8c1f"/><stop offset="0.99" stop-color="#edc796"/></linearGradient><linearGradient id="linear-gradient-2" x1="316.5" y1="246.94" x2="316.5" y2="433.07" gradientUnits="userSpaceOnUse"><stop offset="0" stop-color="#ca8c1f"/><stop offset="0.42" stop-color="#c88b1f"/><stop offset="0.58" stop-color="#c1851e"/><stop offset="0.68" stop-color="#b67c1c"/><stop offset="0.77" stop-color="#a56f1a"/><stop offset="0.85" stop-color="#8f5d16"/><stop offset="0.91" stop-color="#734812"/><stop offset="0.97" stop-color="#542f0e"/><stop offset="1" stop-color="#42210b"/></linearGradient><linearGradient id="linear-gradient-3" x1="293.21" y1="81.81" x2="293.21" y2="214.36" gradientUnits="userSpaceOnUse"><stop offset="0" stop-color="#8c6239"/><stop offset="0.21" stop-color="#a17030"/><stop offset="0.49" stop-color="#b88027"/><stop offset="0.76" stop-color="#c58921"/><stop offset="1" stop-color="#ca8c1f"/></linearGradient><linearGradient id="linear-gradient-4" x1="238.82" y1="421.86" x2="238.82" y2="200.61" gradientUnits="userSpaceOnUse"><stop offset="0" stop-color="#8c6239"/><stop offset="0.05" stop-color="#936736"/><stop offset="0.26" stop-color="#ab772c"/><stop offset="0.48" stop-color="#bd8325"/><stop offset="0.71" stop-color="#c78a20"/><stop offset="1" stop-color="#ca8c1f"/></linearGradient><linearGradient id="linear-gradient-5" x1="210.04" y1="436.06" x2="210.04" y2="314.82" gradientUnits="userSpaceOnUse"><stop offset="0" stop-color="#754c24"/><stop offset="0.06" stop-color="#835623"/><stop offset="0.21" stop-color="#a26e21"/><stop offset="0.36" stop-color="#b87e20"/><stop offset="0.5" stop-color="#c5891f"/><stop offset="0.62" stop-color="#ca8c1f"/></linearGradient><linearGradient id="linear-gradient-6" x1="264" y1="331.56" x2="264" y2="255.65" gradientTransform="matrix(0.99, -0.16, 0.12, 0.72, -29.77, 107.99)" gradientUnits="userSpaceOnUse"><stop offset="0" stop-color="#8c6239"/><stop offset="0.01" stop-color="#8f6438"/><stop offset="0.1" stop-color="#a5732f"/><stop offset="0.2" stop-color="#b67e28"/><stop offset="0.33" stop-color="#c18623"/><stop offset="0.5" stop-color="#c88b20"/><stop offset="1" stop-color="#ca8c1f"/></linearGradient><linearGradient id="linear-gradient-7" x1="269.07" y1="323.09" x2="269.07" y2="441.98" gradientUnits="userSpaceOnUse"><stop offset="0.02" stop-color="#ca8c1f"/><stop offset="0.34" stop-color="#ca8c1f"/><stop offset="0.63" stop-color="#c88b1f"/><stop offset="0.74" stop-color="#c1851e"/><stop offset="0.81" stop-color="#b67c1d"/><stop offset="0.87" stop-color="#a56e1b"/><stop offset="0.93" stop-color="#8f5d18"/><stop offset="0.97" stop-color="#744815"/><stop offset="1" stop-color="#603813"/></linearGradient></defs><path class="cls-1" d="M172.48,261.88c-28.87,42.28,5.62,154.54-2.51,154.54s-37.46-47.39-37.06-54c1.49-25.21-20.91-24.54-12.12-70.4C128,254.32,172.48,261.88,172.48,261.88Z" transform="translate(-118.74 -64.49)"/><path class="cls-2" d="M298.79,361c0,33.49-23.74,60.63-53,60.63s-53.55-25-44.59-57.26c9.39-33.79,15.3-64,44.59-64S298.79,327.49,298.79,361Z" transform="translate(-118.74 -64.49)"/><path class="cls-2" d="M298.87,369c-4.4,18.73-6,22.25-9.53,30.92-1.6,3.95,59.67,5.78,55.49,22.14-.28,1.1-70.19-.32-73.46-3.21-8.34-7.38,11.33-32,11.33-51.3,0-28.26-18.1-64-11.88-64,3.11,0,32.48,16.8,34.51,26.06S302.92,351.75,298.87,369Z" transform="translate(-118.74 -64.49)"/><path class="cls-3" d="M320.08,339.86c-10.85,33.56-3.61,49-7.12,64.77-1.59,7.16,19.62,13.08,17.1,25.65-.38,1.94-24,5.86-25.65-1.51-3.47-15.83-.5-56.51-.5-91.54,0-51.32-1.32-90.29,4.9-90.29,3.11,0,15.7,4.56,17.73,21.38S329.06,312.08,320.08,339.86Z" transform="translate(-118.74 -64.49)"/><path class="cls-4" d="M342.61,141.32c0,34.24-30.44,70.92-57.72,70.92-15.11,0-40.29,7.94-31.52-6.91,11.23-19-9.56-48.74-9.56-64,0-34.25,21.16-60.63,48.42-59.47,45.25,1.91,22.15,28.5,31.09,39.72S342.61,124.2,342.61,141.32Z" transform="translate(-118.74 -64.49)"/><path class="cls-5" d="M314.47,282.27c4.34,85.6-31,52.9-69.48,113.91-25.74,40.8-96.86,30.5-79.47-13.35,22.27-56.15,49.15-183,77.88-182.22C291,201.86,311.45,222.54,314.47,282.27Z" transform="translate(-118.74 -64.49)"/><path class="cls-6" d="M334.34,207.58l-15.14,9.08c-5.14,0-37.71-11-37.71-16.11V139.66c0-5.14,18.94-10.84,24.08-10.84l3-38.36,12.62,35.33c5.13,0,37.86,8.5,37.86,13.63l-8.58,69.67C350.5,214.23,339.48,207.58,334.34,207.58Z" transform="translate(-118.74 -64.49)"/><path class="cls-7" d="M260.52,154.33l-3.45-.9c-4-.85-2.56,0-5.7-4.85,0,0-11-24.79-1.81-28.1,3.89-1.39,22-18.12,21.12-14.08C270.68,106.4,266.3,148.77,260.52,154.33Z" transform="translate(-118.74 -64.49)"/><polygon class="cls-8" points="203.73 34.59 161.88 35.98 123.82 70.23 119.67 61.58 126.59 19.72 145.27 0 182.98 2.08 203.04 22.49 203.73 34.59"/><polygon class="cls-9" points="222.18 97.21 233.27 78.64 211.09 78.64 222.18 97.21"/><circle class="cls-10" cx="179.46" cy="57.62" r="15.58"/><circle class="cls-10" cx="211.76" cy="52.91" r="12.88"/><path class="cls-11" d="M259.8,375.44c0,33.48-23.75,60.62-53,60.62s-53.54-25-44.58-57.25c9.38-33.79,15.29-64,44.58-64S259.8,342,259.8,375.44Z" transform="translate(-118.74 -64.49)"/><path class="cls-12" d="M291.83,270.89c1.73,10.62-6.08,29.88-20.42,33.21-31,7.19-31.47-13.46-33.2-24.08s18.69-29.57,33.25-31.95S290.11,260.27,291.83,270.89Z" transform="translate(-118.74 -64.49)"/><path class="cls-13" d="M260.76,388.55c-4.39,18.73-6,22.25-9.53,30.92-1.59,3.95,59.67,5.77,55.5,22.13-.28,1.1-70.19-.31-73.46-3.2-8.34-7.38,11.33-32,11.33-51.3,0-28.26-18.1-64-11.88-64,3.11,0,32.47,16.8,34.51,26.06S264.82,371.28,260.76,388.55Z" transform="translate(-118.74 -64.49)"/><polygon class="cls-14" points="203.87 34.75 162.01 36.13 123.95 70.38 119.8 61.73 154.98 23.7 203.17 22.64 203.87 34.75"/><path class="cls-15" d="M301.7,137.28a15.16,15.16,0,0,1-5.54.28c-.14,0,5.33-30.09,5.42-30.63,0-.16,4.12,1.06,5.11,2.11C307.22,109.61,302,137.17,301.7,137.28Z" transform="translate(-118.74 -64.49)"/><path class="cls-15" d="M333.22,130a12.33,12.33,0,0,1-4.6.23c-.12,0,4.42-25,4.5-25.42a11.07,11.07,0,0,1,4.24,1.75C337.8,107,333.5,129.89,333.22,130Z" transform="translate(-118.74 -64.49)"/></svg>