<?xml version="1.0" encoding="utf-8"?>
<!-- Generator: Adobe Illustrator 26.0.1, SVG Export Plug-In . SVG Version: 6.00 Build 0)  -->
<svg version="1.1" id="Layer_1" xmlns="http://www.w3.org/2000/svg" xmlns:xlink="http://www.w3.org/1999/xlink" x="0px" y="0px"
	 viewBox="0 0 465 71.3" style="enable-background:new 0 0 465 71.3;" xml:space="preserve">
<style type="text/css">
	.st0{enable-background:new    ;}
	.st1{fill:#F7C74F;}
</style>
<g id="Layer_2_00000112635026455228960940000006644898806919565456_">
	<g id="Layer_1-2">
		<g>
			<g class="st0">
				<path class="st1" d="M29.9,16.9H16.1v7.4h12.6v9.7H16.1v17.3H4.6V7.2h25.2V16.9z"/>
			</g>
			<g class="st0">
				<path class="st1" d="M61.9,43.6H45.5l-2.6,7.7H30.7L47.4,7.2h12.5l16.8,44.1H64.5L61.9,43.6z M58.8,34.9l-5.1-14.7l-5.1,14.7
					H58.8z"/>
				<path class="st1" d="M93.2,7.2v44.1H81.7V7.2H93.2z"/>
				<path class="st1" d="M119.1,16.9v34.4h-11.5V16.9h-9.4V7.2h30.3v9.7H119.1z"/>
				<path class="st1" d="M145.1,24.2h16.5v-17h11.5v44.1h-11.5V33.1h-16.5v18.2h-11.5V7.2h11.5V24.2z"/>
				<path class="st1" d="M177.7,31.2h16.8V40h-16.8V31.2z"/>
				<path class="st1" d="M197.1,29.2c0-3.3,0.6-6.3,1.8-9.1c1.2-2.8,2.9-5.3,5-7.4c2.1-2.1,4.7-3.7,7.7-4.9c3-1.2,6.3-1.8,9.8-1.8
					c3.5,0,6.8,0.6,9.8,1.8c3,1.2,5.6,2.8,7.7,4.9c2.2,2.1,3.8,4.6,5.1,7.4c1.2,2.8,1.8,5.9,1.8,9.1c0,3.3-0.6,6.3-1.8,9.1
					c-1.2,2.8-2.9,5.3-5.1,7.4c-2.2,2.1-4.7,3.7-7.7,4.9c-3,1.2-6.3,1.8-9.8,1.8c-3.6,0-6.9-0.6-9.8-1.8c-3-1.2-5.5-2.8-7.7-4.9
					c-2.1-2.1-3.8-4.6-5-7.4C197.7,35.5,197.1,32.5,197.1,29.2z M209.1,29.2c0,1.8,0.3,3.4,1,4.8c0.7,1.5,1.6,2.8,2.7,3.9
					c1.1,1.1,2.4,1.9,3.9,2.5c1.5,0.6,3.1,0.9,4.8,0.9c1.7,0,3.3-0.3,4.8-0.9c1.5-0.6,2.8-1.5,4-2.5c1.1-1.1,2.1-2.4,2.7-3.9
					c0.7-1.5,1-3.1,1-4.8s-0.3-3.4-1-4.8c-0.7-1.5-1.6-2.8-2.7-3.9c-1.1-1.1-2.5-1.9-4-2.5c-1.5-0.6-3.1-0.9-4.8-0.9
					c-1.7,0-3.3,0.3-4.8,0.9c-1.5,0.6-2.8,1.5-3.9,2.5c-1.1,1.1-2,2.4-2.7,3.9C209.4,25.8,209.1,27.5,209.1,29.2z"/>
				<path class="st1" d="M248.5,31.2h16.8V40h-16.8V31.2z"/>
				<path class="st1" d="M267.9,51.2l7.5-44.1h11.3l8.8,23.5l8.8-23.5h11.3l7.5,44.1h-11.4l-3.8-25.4l-10.4,25.4H293l-9.9-25.4
					l-3.8,25.4H267.9z"/>
				<path class="st1" d="M355.4,16.9h-13.6v7.4h12.9v9.7h-12.9v7.6h13.6v9.7h-25.1V7.2h25.1V16.9z"/>
				<path class="st1" d="M380.4,16.9v34.4h-11.5V16.9h-9.4V7.2h30.3v9.7H380.4z"/>
				<path class="st1" d="M419.9,16.9h-13.6v7.4h12.9v9.7h-12.9v7.6h13.6v9.7h-25.1V7.2h25.1V16.9z"/>
				<path class="st1" d="M464.8,51.2h-14.3l-10.9-16.9v16.9h-11.5V7.2H446c2.5,0,4.6,0.4,6.4,1.1c1.8,0.7,3.3,1.7,4.5,3
					c1.2,1.2,2.1,2.7,2.7,4.3c0.6,1.6,0.9,3.4,0.9,5.3c0,3.4-0.8,6.1-2.4,8.2c-1.6,2.1-4,3.5-7.2,4.2L464.8,51.2z M439.6,26.9h2.2
					c2.3,0,4-0.5,5.2-1.4c1.2-0.9,1.8-2.3,1.8-4c0-1.8-0.6-3.1-1.8-4c-1.2-0.9-2.9-1.4-5.2-1.4h-2.2V26.9z"/>
			</g>
		</g>
	</g>
</g>
</svg>
