<?xml version="1.0" encoding="utf-8"?>
<!-- Generator: Adobe Illustrator 26.0.1, SVG Export Plug-In . SVG Version: 6.00 Build 0)  -->
<svg version="1.1" id="Layer_1" xmlns="http://www.w3.org/2000/svg" xmlns:xlink="http://www.w3.org/1999/xlink" x="0px" y="0px"
	 viewBox="0 0 65 65" style="enable-background:new 0 0 65 65;" xml:space="preserve">
<style type="text/css">
	.st0{fill:#FE997B;}
	.st1{enable-background:new    ;}
	.st2{fill:#F7C74F;}
</style>
<g id="Layer_2_00000128472094839003266150000001109695124041443476_">
	<g id="Layer_1-2">
		<circle class="st0" cx="32.5" cy="32.5" r="32.5"/>
		<g class="st1">
			<path class="st2" d="M27.3,20.5V45H19V27.9h-5.1v-5l5.4-2.3H27.3z"/>
			<path class="st2" d="M50.9,32.8c0,8.2-4,12.9-10.5,12.9c-6.5,0-10.5-4.8-10.5-12.9c0-8.2,4.1-12.9,10.5-12.9
				C46.9,19.9,50.9,24.6,50.9,32.8z M42.9,32.8c0-3.3-0.7-5.4-2.5-5.4c-1.8,0-2.5,2.1-2.5,5.4c0,3.3,0.7,5.4,2.5,5.4
				C42.2,38.2,42.9,36.1,42.9,32.8z"/>
		</g>
	</g>
</g>
</svg>
