<?xml version="1.0" encoding="utf-8"?>
<!-- Generator: Adobe Illustrator 26.0.1, SVG Export Plug-In . SVG Version: 6.00 Build 0)  -->
<svg version="1.1" id="Layer_1" xmlns="http://www.w3.org/2000/svg" xmlns:xlink="http://www.w3.org/1999/xlink" x="0px" y="0px"
	 viewBox="0 0 65 65.6" style="enable-background:new 0 0 65 65.6;" xml:space="preserve">
<style type="text/css">
	.st0{fill:#FE997B;}
	.st1{enable-background:new    ;}
	.st2{fill:#F7C74F;}
</style>
<g id="Layer_2_00000052800070846054238440000001380548608764453304_">
	<g id="Layer_1-2">
		<ellipse class="st0" cx="32.5" cy="32.8" rx="32.5" ry="32.8"/>
		<g class="st1">
			<path class="st2" d="M27.8,21.8v24.5h-8.3V29.2h-5.1v-5l5.5-2.3H27.8z"/>
		</g>
		<g class="st1">
			<path class="st2" d="M50.7,38.8c-0.8,6.5-5.6,8.2-10.6,8.2C35.2,47,30,44.6,30,38.2c2.8,0,8.4,0,8.4,0c0,1.4,0.4,2.2,1.5,2.2
				c0.9,0,1.3-0.7,1.3-2c0-1.4-0.5-2-2.6-2c-2.2,0-7.3,0-7.3,0L32,21.8h16.8v7h-8.9l-0.1,2.6c0,0,0.2,0,0.2,0c1.9-0.6,4.3-0.6,6-0.2
				C49.3,32,51.1,35.1,50.7,38.8z"/>
		</g>
	</g>
</g>
</svg>
