<?xml version="1.0" encoding="utf-8"?>
<!-- Generator: Adobe Illustrator 26.0.1, SVG Export Plug-In . SVG Version: 6.00 Build 0)  -->
<svg version="1.1" id="Layer_1" xmlns="http://www.w3.org/2000/svg" xmlns:xlink="http://www.w3.org/1999/xlink" x="0px" y="0px"
	 viewBox="0 0 65 65.1" style="enable-background:new 0 0 65 65.1;" xml:space="preserve">
<style type="text/css">
	.st0{fill:#FE997B;}
	.st1{enable-background:new    ;}
	.st2{fill:#F7C74F;}
</style>
<g id="Layer_2_00000101098084040714901550000003877872542407767972_">
	<g id="Layer_1-2">
		<ellipse class="st0" cx="32.5" cy="32.5" rx="32.5" ry="32.5"/>
		<g class="st1">
			<path class="st2" d="M20.6,38.4H32v7H11v-4.8c0-5.2,3-7.2,5.5-8.5c2.3-1.2,6.1-1.5,6.1-3.9c0-0.9-0.5-1.3-1.3-1.3
				c-1.1,0-1.5,0.7-1.5,2.1c0,0-5.6,0-8.5,0c0-6.4,5.2-8.7,10.1-8.7c3.9,0,10.3,0.8,10.5,7.2C32.3,37.7,21.4,35.6,20.6,38.4z"/>
		</g>
		<g class="st1">
			<path class="st2" d="M54.8,37.9c-0.8,6.5-5.6,8.2-10.6,8.2c-4.9,0-10.1-2.4-10.1-8.8c2.8,0,8.4,0,8.4,0c0,1.4,0.4,2.2,1.5,2.2
				c0.9,0,1.3-0.7,1.3-2c0-1.4-0.5-2-2.6-2c-2.2,0-7.3,0-7.3,0l0.7-14.6h16.8v7H44l-0.1,2.6c0,0,0.2,0,0.2,0c1.9-0.6,4.3-0.6,6-0.2
				C53.4,31.1,55.3,34.2,54.8,37.9z"/>
		</g>
	</g>
</g>
</svg>
