<?xml version="1.0" encoding="utf-8"?>
<!-- Generator: Adobe Illustrator 26.0.1, SVG Export Plug-In . SVG Version: 6.00 Build 0)  -->
<svg version="1.1" id="Layer_1" xmlns="http://www.w3.org/2000/svg" xmlns:xlink="http://www.w3.org/1999/xlink" x="0px" y="0px"
	 viewBox="0 0 65.6 65" style="enable-background:new 0 0 65.6 65;" xml:space="preserve">
<style type="text/css">
	.st0{fill:#FE997B;}
	.st1{enable-background:new    ;}
	.st2{fill:#F7C74F;}
</style>
<g id="Layer_2_00000162335308503476877110000007356117093648441784_">
	<g id="Layer_1-2">
		<ellipse class="st0" cx="32.8" cy="32.5" rx="32.8" ry="32.5"/>
		<g class="st1">
			<path class="st2" d="M21.3,39.1h11.4v7h-21v-4.8c0-5.2,3-7.2,5.5-8.5c2.3-1.2,6.1-1.5,6.1-3.9c0-0.9-0.5-1.3-1.3-1.3
				c-1.1,0-1.5,0.7-1.5,2.1c0,0-5.6,0-8.5,0c0-6.4,5.2-8.7,10.1-8.7c3.9,0,10.3,0.8,10.5,7.2C33.1,38.3,22.2,36.2,21.3,39.1z"/>
			<path class="st2" d="M54.5,21.6c0,0,0,5.5,0,7.7c-2.7,1.8-7.2,8.8-7.2,16.8c-1.4,0-6,0-8.6,0c0-8.3,3.8-14,6.7-17.1v-0.4
				c-2.5,0-10.3,0-10.3,0v-7H54.5z"/>
		</g>
	</g>
</g>
</svg>
