<?xml version="1.0" encoding="utf-8"?>
<!-- Generator: Adobe Illustrator 26.0.1, SVG Export Plug-In . SVG Version: 6.00 Build 0)  -->
<svg version="1.1" id="Layer_1" xmlns="http://www.w3.org/2000/svg" xmlns:xlink="http://www.w3.org/1999/xlink" x="0px" y="0px"
	 viewBox="0 0 65 65.1" style="enable-background:new 0 0 65 65.1;" xml:space="preserve">
<style type="text/css">
	.st0{fill:#FE997B;}
	.st1{enable-background:new    ;}
	.st2{fill:#F7C74F;}
</style>
<g id="Layer_2_00000052795164326977901110000014263622697215643583_">
	<g id="Layer_1-2">
		<ellipse class="st0" cx="32.5" cy="32.5" rx="32.5" ry="32.5"/>
		<g class="st1">
			<path class="st2" d="M31,39.4c-0.5,6.2-6.2,7.2-10.5,7.2c-4.9,0-10.1-2.4-10.1-8.8c2.8,0,8.4,0,8.4,0c0,1.4,0.4,2.2,1.5,2.2
				c0.9,0,1.3-0.7,1.3-2c0-1.4-0.5-2-2.6-2s-4.4,0-4.4,0v-4.2l5.8-3.1v-0.2h-8.6v-7h18.2v7.5l-6.6,3.2v0.2
				C26.7,32.2,31.5,32.9,31,39.4z"/>
			<path class="st2" d="M53.8,38.4c-0.8,6.5-5.6,8.2-10.6,8.2c-4.9,0-10.1-2.4-10.1-8.8c2.8,0,8.4,0,8.4,0c0,1.4,0.4,2.2,1.5,2.2
				c0.9,0,1.3-0.7,1.3-2c0-1.4-0.5-2-2.6-2c-2.2,0-7.3,0-7.3,0l0.7-14.6h16.8v7H43l-0.1,2.6c0,0,0.2,0,0.2,0c1.9-0.6,4.3-0.6,6-0.2
				C52.4,31.6,54.2,34.7,53.8,38.4z"/>
		</g>
	</g>
</g>
</svg>
