<?xml version="1.0" encoding="utf-8"?>
<!-- Generator: Adobe Illustrator 26.0.1, SVG Export Plug-In . SVG Version: 6.00 Build 0)  -->
<svg version="1.1" id="Layer_1" xmlns="http://www.w3.org/2000/svg" xmlns:xlink="http://www.w3.org/1999/xlink" x="0px" y="0px"
	 viewBox="0 0 65.6 65" style="enable-background:new 0 0 65.6 65;" xml:space="preserve">
<style type="text/css">
	.st0{fill:#FE997B;}
	.st1{enable-background:new    ;}
	.st2{fill:#F7C74F;}
</style>
<g id="Layer_2_00000055684893806786653620000001289662822049082249_">
	<g id="Layer_1-2">
		<ellipse class="st0" cx="32.8" cy="32.5" rx="32.8" ry="32.5"/>
		<g class="st1">
			<path class="st2" d="M32.2,39.6c-0.5,6.2-6.2,7.2-10.5,7.2c-4.9,0-10.1-2.4-10.1-8.8c2.8,0,8.4,0,8.4,0c0,1.4,0.4,2.2,1.5,2.2
				c0.9,0,1.3-0.7,1.3-2c0-1.4-0.5-2-2.6-2s-4.4,0-4.4,0V32l5.8-3.1v-0.2H13v-7h18.2v7.5l-6.6,3.2v0.2C28,32.3,32.8,33.1,32.2,39.6z
				"/>
		</g>
		<g class="st1">
			<path class="st2" d="M44.9,46.8c-5,0-10.4-2.1-10.4-8.6c2.9,0,8.6,0,8.6,0c0,1.4,0.5,2.1,1.6,2.1c1.2,0,2.1-1.1,2.1-4.7h-0.2
				c-1.5,1.4-4,2.1-6.9,1.6c-3.4-0.6-5.8-3.5-5.8-7.2c0-6.7,4-9.1,10.2-9.1s10.8,3.6,11,9.8C55.9,45.7,48.9,46.8,44.9,46.8z
				 M46.6,29.3c0-1.2-0.9-2.2-2.2-2.2c-1.2,0-2.2,1-2.2,2.2s0.8,2.2,2.2,2.2S46.6,30.5,46.6,29.3z"/>
		</g>
	</g>
</g>
</svg>
