<?xml version="1.0" encoding="utf-8"?>
<!-- Generator: Adobe Illustrator 26.0.1, SVG Export Plug-In . SVG Version: 6.00 Build 0)  -->
<svg version="1.1" id="Layer_1" xmlns="http://www.w3.org/2000/svg" xmlns:xlink="http://www.w3.org/1999/xlink" x="0px" y="0px"
	 viewBox="0 0 65 65.6" style="enable-background:new 0 0 65 65.6;" xml:space="preserve">
<style type="text/css">
	.st0{fill:#FE997B;}
	.st1{enable-background:new    ;}
	.st2{fill:#F7C74F;}
</style>
<g id="Layer_2_00000181766261874574416800000013684640980156129169_">
	<g id="Layer_1-2">
		<ellipse class="st0" cx="32.5" cy="32.8" rx="32.5" ry="32.8"/>
		<g class="st1">
			<path class="st2" d="M32,35.1v7h-2.3v4.1H21v-4.1H11v-6.3l6.3-14.1h8.3l-5.6,13.4H22l2.5-5.7h5.3v5.7H32z"/>
			<path class="st2" d="M54.6,38.7c-0.8,6.5-5.6,8.2-10.6,8.2c-4.9,0-10.1-2.4-10.1-8.8c2.8,0,8.4,0,8.4,0c0,1.4,0.4,2.2,1.5,2.2
				c0.9,0,1.3-0.7,1.3-2c0-1.4-0.5-2-2.6-2c-2.2,0-7.3,0-7.3,0l0.7-14.6h16.8v7h-8.9l-0.1,2.6c0,0,0.2,0,0.2,0
				c1.9-0.6,4.3-0.6,6-0.2C53.2,31.9,55.1,35,54.6,38.7z"/>
		</g>
	</g>
</g>
</svg>
