<?xml version="1.0" encoding="utf-8"?>
<!-- Generator: Adobe Illustrator 26.0.1, SVG Export Plug-In . SVG Version: 6.00 Build 0)  -->
<svg version="1.1" id="Layer_1" xmlns="http://www.w3.org/2000/svg" xmlns:xlink="http://www.w3.org/1999/xlink" x="0px" y="0px"
	 viewBox="0 0 65 65.6" style="enable-background:new 0 0 65 65.6;" xml:space="preserve">
<style type="text/css">
	.st0{fill:#FE997B;}
	.st1{enable-background:new    ;}
	.st2{fill:#F7C74F;}
</style>
<g id="Layer_2_00000165193100501746547500000012522300455010156172_">
	<g id="Layer_1-2">
		<ellipse class="st0" cx="32.5" cy="32.8" rx="32.5" ry="32.8"/>
		<g class="st1">
			<path class="st2" d="M31.7,35.2v7h-2.3v4.1h-8.7v-4.1h-10v-6.3l6.3-14.1h8.3l-5.6,13.4h1.9l2.5-5.7h5.3v5.7H31.7z"/>
		</g>
		<g class="st1">
			<path class="st2" d="M44.2,46.9c-5,0-10.4-2.1-10.4-8.6c2.9,0,8.6,0,8.6,0c0,1.4,0.5,2.1,1.6,2.1c1.2,0,2.1-1.1,2.1-4.7H46
				c-1.5,1.4-4,2.1-6.9,1.6c-3.4-0.6-5.8-3.5-5.8-7.2c0-6.7,4-9.1,10.2-9.1c6.2,0,10.8,3.6,11,9.8C55.2,45.9,48.2,46.9,44.2,46.9z
				 M45.9,29.5c0-1.2-0.9-2.2-2.2-2.2c-1.2,0-2.2,1-2.2,2.2s0.8,2.2,2.2,2.2S45.9,30.7,45.9,29.5z"/>
		</g>
	</g>
</g>
</svg>
