<?xml version="1.0" encoding="utf-8"?>
<!-- Generator: Adobe Illustrator 26.0.1, SVG Export Plug-In . SVG Version: 6.00 Build 0)  -->
<svg version="1.1" id="Layer_1" xmlns="http://www.w3.org/2000/svg" xmlns:xlink="http://www.w3.org/1999/xlink" x="0px" y="0px"
	 viewBox="0 0 65.6 65.8" style="enable-background:new 0 0 65.6 65.8;" xml:space="preserve">
<style type="text/css">
	.st0{display:none;fill:#F7D7AE;}
	.st1{fill:#FE997B;}
	.st2{enable-background:new    ;}
	.st3{fill:#F7C74F;}
</style>
<g id="Layer_2_00000168838511082351339920000014857883831210723764_">
	<g id="Layer_1-2">
		<ellipse class="st0" cx="32.6" cy="33.1" rx="33" ry="32.9"/>
		<ellipse class="st1" cx="32.8" cy="32.9" rx="32.7" ry="32.9"/>
		<g class="st2">
			<path class="st3" d="M32.9,39.3c-0.8,6.5-5.6,8.2-10.7,8.2c-4.9,0-10.2-2.4-10.2-8.8c2.8,0,8.4,0,8.4,0c0,1.4,0.4,2.2,1.5,2.2
				c0.9,0,1.3-0.7,1.3-2c0-1.4-0.5-2-2.6-2c-2.2,0-7.3,0-7.3,0l0.7-14.6H31v7h-9L22,31.9h0.2c1.9-0.6,4.3-0.6,6-0.2
				C31.5,32.5,33.4,35.6,32.9,39.3z"/>
		</g>
		<g class="st2">
			<path class="st3" d="M53.3,22.2c0,0,0,5.5,0,7.7c-2.7,1.8-7.2,8.8-7.2,16.8c-1.4,0-6,0-8.6,0c0-8.3,3.8-14,6.7-17.1v-0.4
				c-2.5,0-10.4,0-10.4,0v-7H53.3z"/>
		</g>
	</g>
</g>
</svg>
