<?xml version="1.0" encoding="utf-8"?>
<!-- Generator: Adobe Illustrator 26.0.1, SVG Export Plug-In . SVG Version: 6.00 Build 0)  -->
<svg version="1.1" id="Layer_1" xmlns="http://www.w3.org/2000/svg" xmlns:xlink="http://www.w3.org/1999/xlink" x="0px" y="0px"
	 viewBox="0 0 65.6 65" style="enable-background:new 0 0 65.6 65;" xml:space="preserve">
<style type="text/css">
	.st0{fill:#FE997B;}
	.st1{enable-background:new    ;}
	.st2{fill:#F7C74F;}
</style>
<g id="Layer_2_00000005956736115409104620000011983972587732963749_">
	<g id="Layer_1-2">
		<ellipse class="st0" cx="32.8" cy="32.5" rx="32.8" ry="32.5"/>
		<g class="st1">
			<path class="st2" d="M32.4,37.9c-0.2,6.7-4,9.1-10.2,9.1c-6.2,0-10.7-3.6-11-9.8c-0.6-15,6.3-16.1,10.3-16.1
				c5,0,10.4,2.1,10.4,8.6c-2.9,0-8.7,0-8.7,0c0-1.4-0.4-2.1-1.6-2.1s-2.1,1.1-2.1,4.7h0.2c1.5-1.4,4-2.1,6.9-1.6
				C30.3,31.3,32.5,34.2,32.4,37.9z M24.2,38.6c0-1.2-0.8-2.2-2.2-2.2s-2.2,1-2.2,2.2c0,1.2,1,2.2,2.2,2.2
				C23.2,40.8,24.2,39.8,24.2,38.6z"/>
		</g>
		<g class="st1">
			<path class="st2" d="M54.8,39.8C54.3,46,48.6,47,44.3,47c-4.9,0-10.1-2.4-10.1-8.8c2.8,0,8.4,0,8.4,0c0,1.4,0.4,2.2,1.5,2.2
				c0.9,0,1.3-0.7,1.3-2c0-1.4-0.5-2-2.6-2c-2.2,0-4.4,0-4.4,0v-4.2l5.8-3.1v-0.2h-8.6v-7h18.2v7.5l-6.6,3.2v0.2
				C50.6,32.5,55.4,33.3,54.8,39.8z"/>
		</g>
	</g>
</g>
</svg>
