<?xml version="1.0" encoding="utf-8"?>
<!-- Generator: Adobe Illustrator 26.0.1, SVG Export Plug-In . SVG Version: 6.00 Build 0)  -->
<svg version="1.1" id="Layer_1" xmlns="http://www.w3.org/2000/svg" xmlns:xlink="http://www.w3.org/1999/xlink" x="0px" y="0px"
	 viewBox="0 0 65 65.6" style="enable-background:new 0 0 65 65.6;" xml:space="preserve">
<style type="text/css">
	.st0{fill:#FE997B;}
	.st1{enable-background:new    ;}
	.st2{fill:#F7C74F;}
</style>
<g id="Layer_2_00000036942241383142356280000001395169890234963384_">
	<g id="Layer_1-2">
		<ellipse class="st0" cx="32.5" cy="32.8" rx="32.5" ry="32.8"/>
		<g class="st1">
			<path class="st2" d="M31.9,37.3c-0.2,6.7-4,9.1-10.2,9.1c-6.2,0-10.7-3.6-11-9.8c-0.6-15,6.3-16.1,10.3-16.1
				c5,0,10.4,2.1,10.4,8.6c-2.9,0-8.7,0-8.7,0c0-1.4-0.4-2.1-1.6-2.1s-2.1,1.1-2.1,4.7h0.2c1.5-1.4,4-2.1,6.9-1.6
				C29.8,30.7,32,33.7,31.9,37.3z M23.7,38c0-1.2-0.8-2.2-2.2-2.2s-2.2,1-2.2,2.2s1,2.2,2.2,2.2C22.7,40.3,23.7,39.3,23.7,38z"/>
		</g>
		<g class="st1">
			<path class="st2" d="M54.4,38.2c-0.8,6.5-5.6,8.2-10.6,8.2c-4.9,0-10.1-2.4-10.1-8.8c2.8,0,8.4,0,8.4,0c0,1.4,0.4,2.2,1.5,2.2
				c0.9,0,1.3-0.7,1.3-2c0-1.4-0.5-2-2.6-2c-2.2,0-7.3,0-7.3,0l0.7-14.6h16.8v7h-8.9l-0.1,2.6c0,0,0.2,0,0.2,0
				c1.9-0.6,4.3-0.6,6-0.2C53,31.4,54.8,34.5,54.4,38.2z"/>
		</g>
	</g>
</g>
</svg>
