<?xml version="1.0" encoding="utf-8"?>
<!-- Generator: Adobe Illustrator 26.0.1, SVG Export Plug-In . SVG Version: 6.00 Build 0)  -->
<svg version="1.1" id="Layer_1" xmlns="http://www.w3.org/2000/svg" xmlns:xlink="http://www.w3.org/1999/xlink" x="0px" y="0px"
	 viewBox="0 0 65 65.6" style="enable-background:new 0 0 65 65.6;" xml:space="preserve">
<style type="text/css">
	.st0{fill:#FE997B;}
	.st1{enable-background:new    ;}
	.st2{fill:#F7C74F;}
</style>
<g id="Layer_2_00000110449601591593572670000002251248141262402202_">
	<g id="Layer_1-2">
		<ellipse class="st0" cx="32.5" cy="32.8" rx="32.5" ry="32.8"/>
		<g class="st1">
			<path class="st2" d="M32.2,37.7c-0.2,6.7-4,9.1-10.2,9.1c-6.2,0-10.7-3.6-11-9.8c-0.6-15,6.3-16.1,10.3-16.1
				c5,0,10.4,2.1,10.4,8.6c-2.9,0-8.7,0-8.7,0c0-1.4-0.4-2.1-1.6-2.1s-2.1,1.1-2.1,4.7h0.2c1.5-1.4,4-2.1,6.9-1.6
				C30,31.1,32.3,34,32.2,37.7z M23.9,38.4c0-1.2-0.8-2.2-2.2-2.2s-2.2,1-2.2,2.2c0,1.2,1,2.2,2.2,2.2
				C22.9,40.6,23.9,39.6,23.9,38.4z"/>
			<path class="st2" d="M45.2,46.7c-5,0-10.4-2.1-10.4-8.6c2.9,0,8.6,0,8.6,0c0,1.4,0.5,2.1,1.6,2.1c1.2,0,2.1-1.1,2.1-4.7H47
				c-1.5,1.4-4,2.1-6.9,1.6c-3.4-0.6-5.8-3.5-5.8-7.2c0-6.7,4-9.1,10.2-9.1c6.2,0,10.8,3.6,11,9.8C56.1,45.7,49.2,46.7,45.2,46.7z
				 M46.9,29.3c0-1.2-0.9-2.2-2.2-2.2c-1.2,0-2.2,1-2.2,2.2s0.8,2.2,2.2,2.2S46.9,30.5,46.9,29.3z"/>
		</g>
	</g>
</g>
</svg>
