<?xml version="1.0" encoding="utf-8"?>
<!-- Generator: Adobe Illustrator 26.0.1, SVG Export Plug-In . SVG Version: 6.00 Build 0)  -->
<svg version="1.1" id="Layer_1" xmlns="http://www.w3.org/2000/svg" xmlns:xlink="http://www.w3.org/1999/xlink" x="0px" y="0px"
	 viewBox="0 0 65 65" style="enable-background:new 0 0 65 65;" xml:space="preserve">
<style type="text/css">
	.st0{fill:#FE997B;}
	.st1{enable-background:new    ;}
	.st2{fill:#F7C74F;}
</style>
<g id="Layer_2_00000027573062755572633640000000254088597564833422_">
	<g id="Layer_1-2">
		<circle class="st0" cx="32.5" cy="32.5" r="32.5"/>
		<g class="st1">
			<path class="st2" d="M31.3,21.9c0,0,0,5.5,0,7.7c-2.8,1.8-7.2,8.8-7.2,16.8c-1.4,0-6,0-8.7,0c0-8.3,3.8-14,6.8-17.1v-0.4
				c-2.5,0-10.4,0-10.4,0v-7H31.3z"/>
		</g>
		<g class="st1">
			<path class="st2" d="M53.1,38.8c-0.8,6.5-5.6,8.2-10.7,8.2c-4.9,0-10.2-2.4-10.2-8.8c2.8,0,8.5,0,8.5,0c0,1.4,0.4,2.2,1.5,2.2
				c0.9,0,1.3-0.7,1.3-2c0-1.4-0.5-2-2.7-2c-2.2,0-7.4,0-7.4,0l0.7-14.6h17v7h-9L42,31.5c0,0,0.2,0,0.2,0c1.9-0.6,4.3-0.6,6-0.2
				C51.6,32.1,53.5,35.1,53.1,38.8z"/>
		</g>
	</g>
</g>
</svg>
