<?xml version="1.0" encoding="utf-8"?>
<!-- Generator: Adobe Illustrator 26.0.1, SVG Export Plug-In . SVG Version: 6.00 Build 0)  -->
<svg version="1.1" id="Layer_1" xmlns="http://www.w3.org/2000/svg" xmlns:xlink="http://www.w3.org/1999/xlink" x="0px" y="0px"
	 viewBox="0 0 65 65.1" style="enable-background:new 0 0 65 65.1;" xml:space="preserve">
<style type="text/css">
	.st0{fill:#FE997B;}
	.st1{enable-background:new    ;}
	.st2{fill:#F7C74F;}
</style>
<g id="Layer_2_00000079455302989614615690000006926060820257073841_">
	<g id="Layer_1-2">
		<ellipse class="st0" cx="32.5" cy="32.5" rx="32.5" ry="32.5"/>
		<g class="st1">
			<path class="st2" d="M35.6,40c0,4.6-4.3,7.2-11,7.2s-11-2.6-11-7.2c0-3.5,1.8-5.6,4.6-6.1v-0.2C16,33,14.4,31,14.6,28
				c0.2-4.8,4-6.6,10-6.6s9.8,1.9,10,6.6c0.1,3-1.5,5-3.6,5.7v0.2C33.7,34.4,35.6,36.5,35.6,40z M27.3,39.2c0-1.3-1.2-2.3-2.7-2.3
				c-1.5,0-2.7,1.1-2.7,2.3c0,1.3,1.1,2.3,2.7,2.3C26.3,41.5,27.3,40.5,27.3,39.2z M22.3,29c0,1.1,0.9,2,2.3,2s2.3-0.9,2.3-2
				c0-1.1-1-1.9-2.3-1.9C23.3,27.1,22.3,28,22.3,29z"/>
		</g>
		<g class="st1">
			<path class="st2" d="M50.6,22v24.5h-8.4V29.4H37v-5l5.6-2.3H50.6z"/>
		</g>
	</g>
</g>
</svg>
