<?xml version="1.0" encoding="utf-8"?>
<!-- Generator: Adobe Illustrator 26.0.1, SVG Export Plug-In . SVG Version: 6.00 Build 0)  -->
<svg version="1.1" id="Layer_1" xmlns="http://www.w3.org/2000/svg" xmlns:xlink="http://www.w3.org/1999/xlink" x="0px" y="0px"
	 viewBox="0 0 65 65.1" style="enable-background:new 0 0 65 65.1;" xml:space="preserve">
<style type="text/css">
	.st0{fill:#FE997B;}
	.st1{enable-background:new    ;}
	.st2{fill:#F7C74F;}
</style>
<g id="Layer_2_00000016064372926213737830000004970195462176239746_">
	<g id="Layer_1-2">
		<ellipse class="st0" cx="32.5" cy="32.5" rx="32.5" ry="32.5"/>
		<g class="st1">
			<path class="st2" d="M32.4,39.2c0,4.6-4.3,7.2-11,7.2s-11-2.6-11-7.2c0-3.5,1.8-5.6,4.6-6.1v-0.2c-2.1-0.7-3.7-2.7-3.6-5.7
				c0.2-4.8,4-6.6,10-6.6s9.8,1.9,10,6.6c0.1,3-1.5,5-3.6,5.7v0.2C30.6,33.6,32.4,35.7,32.4,39.2z M24.1,38.4c0-1.3-1.2-2.3-2.7-2.3
				c-1.5,0-2.7,1-2.7,2.3c0,1.3,1.1,2.3,2.7,2.3C23.1,40.7,24.1,39.6,24.1,38.4z M19.1,28.2c0,1.1,0.9,2,2.3,2s2.3-0.9,2.3-2
				c0-1.1-1-1.9-2.3-1.9S19.1,27.2,19.1,28.2z"/>
		</g>
		<g class="st1">
			<path class="st2" d="M55,38.2c-0.8,6.5-5.6,8.2-10.7,8.2c-4.9,0-10.2-2.4-10.2-8.8c2.8,0,8.5,0,8.5,0c0,1.4,0.4,2.2,1.5,2.2
				c0.9,0,1.3-0.7,1.3-2c0-1.4-0.5-2-2.7-2c-2.2,0-7.4,0-7.4,0l0.7-14.6h17v7h-9L44,30.9c0,0,0.2,0,0.2,0c1.9-0.6,4.3-0.6,6-0.2
				C53.6,31.4,55.5,34.5,55,38.2z"/>
		</g>
	</g>
</g>
</svg>
