<?xml version="1.0" encoding="utf-8"?>
<!-- Generator: Adobe Illustrator 26.0.1, SVG Export Plug-In . SVG Version: 6.00 Build 0)  -->
<svg version="1.1" id="Layer_1" xmlns="http://www.w3.org/2000/svg" xmlns:xlink="http://www.w3.org/1999/xlink" x="0px" y="0px"
	 viewBox="0 0 65 65.6" style="enable-background:new 0 0 65 65.6;" xml:space="preserve">
<style type="text/css">
	.st0{fill:#FE997B;}
	.st1{enable-background:new    ;}
	.st2{fill:#F7C74F;}
</style>
<g id="Layer_2_00000155125670427216321580000005298788460526748081_">
	<g id="Layer_1-2">
		<ellipse class="st0" cx="32.5" cy="32.8" rx="32.5" ry="32.8"/>
		<g class="st1">
			<path class="st2" d="M33.2,39.6c0,4.6-4.3,7.2-11,7.2s-11-2.6-11-7.2c0-3.5,1.8-5.6,4.6-6.1v-0.2c-2.1-0.7-3.7-2.7-3.6-5.7
				c0.2-4.8,4-6.6,10-6.6s9.8,1.9,10,6.6c0.1,3-1.5,5-3.6,5.7v0.2C31.4,34,33.2,36,33.2,39.6z M25,38.7c0-1.3-1.2-2.3-2.7-2.3
				c-1.5,0-2.7,1-2.7,2.3c0,1.3,1.1,2.3,2.7,2.3C23.9,41,25,40,25,38.7z M19.9,28.6c0,1.1,0.9,2,2.3,2s2.3-0.9,2.3-2
				c0-1.1-1-1.9-2.3-1.9C21,26.6,19.9,27.5,19.9,28.6z"/>
		</g>
		<g class="st1">
			<path class="st2" d="M54.4,21.6c0,0,0,5.5,0,7.7c-2.8,1.8-7.2,8.8-7.2,16.8c-1.5,0-6,0-8.7,0c0-8.3,3.8-14,6.8-17.1v-0.4
				c-2.5,0-10.4,0-10.4,0v-7H54.4z"/>
		</g>
	</g>
</g>
</svg>
