<?xml version="1.0" encoding="utf-8"?>
<!-- Generator: Adobe Illustrator 26.0.1, SVG Export Plug-In . SVG Version: 6.00 Build 0)  -->
<svg version="1.1" id="Layer_1" xmlns="http://www.w3.org/2000/svg" xmlns:xlink="http://www.w3.org/1999/xlink" x="0px" y="0px"
	 viewBox="0 0 65 65" style="enable-background:new 0 0 65 65;" xml:space="preserve">
<style type="text/css">
	.st0{fill:#FE997B;}
	.st1{enable-background:new    ;}
	.st2{fill:#F7C74F;}
</style>
<g id="Layer_2_00000137816103680117956540000002033170301483800497_">
	<g id="Layer_1-2">
		<circle class="st0" cx="32.5" cy="32.5" r="32.5"/>
		<g class="st1">
			<path class="st2" d="M24.7,47.2c-5.1,0-10.5-2.1-10.5-8.6c2.9,0,8.7,0,8.7,0c0,1.4,0.5,2.1,1.6,2.1c1.2,0,2.1-1.1,2.2-4.7h-0.2
				c-1.5,1.4-4.1,2.1-7,1.6c-3.5-0.6-5.8-3.5-5.8-7.2c0-6.7,4-9.1,10.3-9.1s10.9,3.6,11.1,9.8C35.8,46.2,28.7,47.2,24.7,47.2z
				 M26.4,29.8c0-1.2-1-2.2-2.2-2.2c-1.2,0-2.2,1-2.2,2.2s0.8,2.2,2.2,2.2C25.6,32,26.4,31,26.4,29.8z"/>
			<path class="st2" d="M50.5,22.1v24.5h-8.4V29.4h-5.2v-5l5.6-2.3H50.5z"/>
		</g>
	</g>
</g>
</svg>
