<?xml version="1.0" encoding="utf-8"?>
<!-- Generator: Adobe Illustrator 26.0.1, SVG Export Plug-In . SVG Version: 6.00 Build 0)  -->
<svg version="1.1" id="Layer_1" xmlns="http://www.w3.org/2000/svg" xmlns:xlink="http://www.w3.org/1999/xlink" x="0px" y="0px"
	 viewBox="0 0 65 65.1" style="enable-background:new 0 0 65 65.1;" xml:space="preserve">
<style type="text/css">
	.st0{fill:#FE997B;}
	.st1{enable-background:new    ;}
	.st2{fill:#F7C74F;}
</style>
<g id="Layer_2_00000130623594456248770830000011223263844979829655_">
	<g id="Layer_1-2">
		<ellipse class="st0" cx="32.5" cy="32.5" rx="32.5" ry="32.5"/>
		<g class="st1">
			<path class="st2" d="M21.6,46.2c-5.1,0-10.5-2.1-10.5-8.6c2.9,0,8.7,0,8.7,0c0,1.4,0.5,2.1,1.6,2.1c1.2,0,2.1-1.1,2.2-4.7h-0.2
				c-1.5,1.4-4.1,2.1-7,1.6c-3.5-0.6-5.8-3.5-5.8-7.2c0-6.7,4-9.1,10.3-9.1S31.7,24,32,30.1C32.7,45.2,25.6,46.2,21.6,46.2z
				 M23.3,28.7c0-1.2-1-2.2-2.2-2.2c-1.2,0-2.2,1-2.2,2.2s0.8,2.2,2.2,2.2C22.4,31,23.3,30,23.3,28.7z"/>
			<path class="st2" d="M45.2,46.2c-5.1,0-10.5-2.1-10.5-8.6c2.9,0,8.7,0,8.7,0c0,1.4,0.5,2.1,1.6,2.1c1.2,0,2.1-1.1,2.2-4.7H47
				c-1.5,1.4-4.1,2.1-7,1.6c-3.5-0.6-5.8-3.5-5.8-7.2c0-6.7,4-9.1,10.3-9.1s10.9,3.6,11.1,9.8C56.2,45.2,49.2,46.2,45.2,46.2z
				 M46.9,28.7c0-1.2-1-2.2-2.2-2.2c-1.2,0-2.2,1-2.2,2.2s0.8,2.2,2.2,2.2C46,31,46.9,30,46.9,28.7z"/>
		</g>
	</g>
</g>
</svg>
