<svg id="Layer_1" data-name="Layer 1" xmlns="http://www.w3.org/2000/svg" viewBox="0 0 421.94 1282"><defs><style>.cls-1{fill:#f7d7ae;}</style></defs><circle class="cls-1" cx="65.55" cy="66.17" r="65.55"/><circle class="cls-1" cx="209.76" cy="65.93" r="65.55"/><circle class="cls-1" cx="354.75" cy="65.55" r="65.55"/><circle class="cls-1" cx="66.98" cy="353.64" r="65.55"/><circle class="cls-1" cx="211.19" cy="353.4" r="65.55"/><circle class="cls-1" cx="356.17" cy="353.02" r="65.55"/><circle class="cls-1" cx="66.8" cy="641.55" r="65.55"/><circle class="cls-1" cx="211.01" cy="641.31" r="65.55"/><circle class="cls-1" cx="356" cy="640.93" r="65.55"/><circle class="cls-1" cx="67.19" cy="931.73" r="65.55"/><circle class="cls-1" cx="211.4" cy="931.49" r="65.55"/><circle class="cls-1" cx="356.38" cy="931.11" r="65.55"/><circle class="cls-1" cx="139.61" cy="209.27" r="65.55"/><circle class="cls-1" cx="283.82" cy="209.03" r="65.55"/><circle class="cls-1" cx="141.71" cy="496.64" r="65.55"/><circle class="cls-1" cx="285.92" cy="496.4" r="65.55"/><circle class="cls-1" cx="141.71" cy="786.11" r="65.55"/><circle class="cls-1" cx="285.92" cy="785.87" r="65.55"/><circle class="cls-1" cx="141.71" cy="1077.67" r="65.55"/><circle class="cls-1" cx="285.92" cy="1077.43" r="65.55"/><circle class="cls-1" cx="216.23" cy="1216.45" r="65.55"/></svg>