<svg id="Layer_2" data-name="Layer 2" xmlns="http://www.w3.org/2000/svg" viewBox="0 0 422.41 1280.64"><defs><style>.cls-1{fill:#f7d7ae;}.cls-2{fill:#fe997b;}.cls-3{font-size:75.37px;fill:#f7c74f;font-family:MADESoulmaze, MADE Soulmaze;}</style></defs><circle class="cls-1" cx="65.84" cy="66.19" r="65.57"/><circle class="cls-1" cx="210.1" cy="65.95" r="65.57"/><circle class="cls-1" cx="355.14" cy="65.57" r="65.57"/><circle class="cls-1" cx="67.27" cy="353.76" r="65.57"/><circle class="cls-1" cx="211.53" cy="353.52" r="65.57"/><circle class="cls-1" cx="356.56" cy="353.14" r="65.57"/><circle class="cls-1" cx="67.1" cy="641.77" r="65.57"/><circle class="cls-1" cx="211.36" cy="641.53" r="65.57"/><circle class="cls-1" cx="356.39" cy="641.15" r="65.57"/><circle class="cls-1" cx="67.48" cy="932.04" r="65.57"/><circle class="cls-1" cx="211.74" cy="931.8" r="65.57"/><circle class="cls-1" cx="356.78" cy="931.43" r="65.57"/><circle class="cls-1" cx="139.93" cy="209.35" r="65.57"/><circle class="cls-1" cx="284.19" cy="209.11" r="65.57"/><circle class="cls-1" cx="142.03" cy="496.81" r="65.57"/><circle class="cls-1" cx="286.29" cy="496.57" r="65.57"/><circle class="cls-1" cx="142.03" cy="786.38" r="65.57"/><circle class="cls-1" cx="286.29" cy="786.13" r="65.57"/><circle class="cls-1" cx="142.03" cy="1078.04" r="65.57"/><circle class="cls-1" cx="286.29" cy="1077.8" r="65.57"/><circle class="cls-2" cx="210.11" cy="65.6" r="65.49"/><text class="cls-3" transform="translate(184.33 91.35)">5</text><circle class="cls-2" cx="65.49" cy="66.21" r="65.49"/><text class="cls-3" transform="translate(39.72 91.97)">2</text><circle class="cls-2" cx="356.92" cy="352.77" r="65.49"/><text class="cls-3" transform="translate(318.48 379.53)">17</text><circle class="cls-1" cx="214.15" cy="1215.16" r="65.48"/></svg>