<?xml version="1.0" encoding="utf-8"?>
<!-- Generator: Adobe Illustrator 26.0.1, SVG Export Plug-In . SVG Version: 6.00 Build 0)  -->
<svg version="1.1" id="Layer_1" xmlns="http://www.w3.org/2000/svg" xmlns:xlink="http://www.w3.org/1999/xlink" x="0px" y="0px"
	 viewBox="0 0 65.6 65" style="enable-background:new 0 0 65.6 65;" xml:space="preserve">
<style type="text/css">
	.st0{fill:#FE997B;}
	.st1{enable-background:new    ;}
	.st2{fill:#F7C74F;}
</style>
<g id="Layer_2_00000022539963591023277310000013242365896633205689_">
	<g id="Layer_1-2">
		<ellipse class="st0" cx="32.8" cy="32.5" rx="32.8" ry="32.5"/>
		<g class="st1">
			<path class="st2" d="M20.5,38.1H32v7H11v-4.8c0-5.2,3-7.2,5.5-8.5c2.3-1.2,6.1-1.5,6.1-3.9c0-0.9-0.5-1.3-1.3-1.3
				c-1.1,0-1.5,0.7-1.5,2.1c0,0-5.6,0-8.5,0c0-6.4,5.2-8.7,10.1-8.7c3.9,0,10.3,0.8,10.5,7.2C32.3,37.4,21.4,35.3,20.5,38.1z"/>
		</g>
		<g class="st1">
			<path class="st2" d="M54.7,38.6c-0.5,6.2-6.2,7.2-10.5,7.2c-4.9,0-10.1-2.4-10.1-8.8c2.8,0,8.4,0,8.4,0c0,1.4,0.4,2.2,1.5,2.2
				c0.9,0,1.3-0.7,1.3-2c0-1.4-0.5-2-2.6-2c-2.2,0-4.4,0-4.4,0V31l5.8-3.1v-0.2h-8.6v-7h18.2v7.5l-6.6,3.2v0.2
				C50.5,31.3,55.3,32.1,54.7,38.6z"/>
		</g>
	</g>
</g>
</svg>
