<?xml version="1.0" encoding="utf-8"?>
<!-- Generator: Adobe Illustrator 26.0.1, SVG Export Plug-In . SVG Version: 6.00 Build 0)  -->
<svg version="1.1" id="Layer_1" xmlns="http://www.w3.org/2000/svg" xmlns:xlink="http://www.w3.org/1999/xlink" x="0px" y="0px"
	 viewBox="0 0 65 65.6" style="enable-background:new 0 0 65 65.6;" xml:space="preserve">
<style type="text/css">
	.st0{fill:#FE997B;}
	.st1{enable-background:new    ;}
	.st2{fill:#F7C74F;}
</style>
<g id="Layer_2_00000100379576269122998860000001398935838846316167_">
	<g id="Layer_1-2">
		<ellipse class="st0" cx="32.5" cy="32.8" rx="32.5" ry="32.8"/>
		<g class="st1">
			<path class="st2" d="M34.5,39.7C34,46,28.3,46.9,24,46.9c-4.9,0-10.1-2.4-10.1-8.8c2.8,0,8.4,0,8.4,0c0,1.4,0.4,2.2,1.5,2.2
				c0.9,0,1.3-0.7,1.3-2c0-1.4-0.5-2-2.6-2s-4.4,0-4.4,0v-4.2l5.8-3.1v-0.2h-8.6v-7h18.2v7.5l-6.6,3.2v0.2
				C30.3,32.5,35.1,33.2,34.5,39.7z"/>
		</g>
		<g class="st1">
			<path class="st2" d="M49.5,21.8v24.5h-8.3V29.1H36v-5l5.5-2.3H49.5z"/>
		</g>
	</g>
</g>
</svg>
