<?xml version="1.0" encoding="utf-8"?>
<!-- Generator: Adobe Illustrator 26.0.1, SVG Export Plug-In . SVG Version: 6.00 Build 0)  -->
<svg version="1.1" id="Layer_1" xmlns="http://www.w3.org/2000/svg" xmlns:xlink="http://www.w3.org/1999/xlink" x="0px" y="0px"
	 viewBox="0 0 65 65" style="enable-background:new 0 0 65 65;" xml:space="preserve">
<style type="text/css">
	.st0{fill:#FE997B;}
	.st1{enable-background:new    ;}
	.st2{fill:#F7C74F;}
</style>
<g id="Layer_2_00000183949478013457295830000007883043121376011702_">
	<g id="Layer_1-2">
		<circle class="st0" cx="32.5" cy="32.5" r="32.5"/>
		<g class="st1">
			<path class="st2" d="M31.1,21.1c0,0,0,5.5,0,7.7c-2.8,1.8-7.2,8.8-7.2,16.8c-1.4,0-6,0-8.7,0c0-8.3,3.8-14,6.8-17.1v-0.4
				c-2.5,0-10.4,0-10.4,0v-7H31.1z"/>
			<path class="st2" d="M44,46.2c-5.1,0-10.5-2.1-10.5-8.6c2.9,0,8.7,0,8.7,0c0,1.4,0.5,2.1,1.6,2.1c1.2,0,2.1-1.1,2.2-4.7h-0.2
				c-1.5,1.4-4.1,2.1-7,1.6C35.4,36,33,33.2,33,29.5c0-6.7,4-9.1,10.3-9.1s10.9,3.6,11.1,9.8C55.1,45.2,48.1,46.2,44,46.2z
				 M45.7,28.8c0-1.2-1-2.2-2.2-2.2c-1.2,0-2.2,1-2.2,2.2s0.8,2.2,2.2,2.2C44.9,31,45.7,30,45.7,28.8z"/>
		</g>
	</g>
</g>
</svg>
