<?xml version="1.0" encoding="utf-8"?>
<!-- Generator: Adobe Illustrator 26.0.1, SVG Export Plug-In . SVG Version: 6.00 Build 0)  -->
<svg version="1.1" id="Layer_1" xmlns="http://www.w3.org/2000/svg" xmlns:xlink="http://www.w3.org/1999/xlink" x="0px" y="0px"
	 viewBox="0 0 65 65.1" style="enable-background:new 0 0 65 65.1;" xml:space="preserve">
<style type="text/css">
	.st0{fill:#FE997B;}
	.st1{enable-background:new    ;}
	.st2{fill:#F7C74F;}
</style>
<g id="Layer_2_00000111167774616131301000000018397083260987366037_">
	<g id="Layer_1-2">
		<ellipse class="st0" cx="32.5" cy="32.5" rx="32.5" ry="32.5"/>
		<g class="st1">
			<path class="st2" d="M32.4,39.2c0,4.6-4.3,7.2-11,7.2s-11-2.6-11-7.2c0-3.5,1.8-5.6,4.6-6.1v-0.2c-2.1-0.7-3.7-2.7-3.6-5.7
				c0.2-4.8,4-6.6,10-6.6s9.8,1.9,10,6.6c0.1,3-1.5,5-3.6,5.7v0.2C30.6,33.6,32.4,35.7,32.4,39.2z M24.1,38.4c0-1.3-1.2-2.3-2.7-2.3
				c-1.5,0-2.7,1-2.7,2.3c0,1.3,1.1,2.3,2.7,2.3C23.1,40.7,24.1,39.6,24.1,38.4z M19.1,28.2c0,1.1,0.9,2,2.3,2s2.3-0.9,2.3-2
				c0-1.1-1-1.9-2.3-1.9S19.1,27.2,19.1,28.2z"/>
		</g>
		<g class="st1">
			<path class="st2" d="M45.2,46.4c-5.1,0-10.5-2.1-10.5-8.6c2.9,0,8.7,0,8.7,0c0,1.4,0.5,2.1,1.6,2.1c1.2,0,2.1-1.1,2.2-4.7H47
				c-1.5,1.4-4.1,2.1-7,1.6c-3.5-0.6-5.8-3.5-5.8-7.2c0-6.7,4-9.1,10.3-9.1s10.9,3.6,11.1,9.8C56.2,45.4,49.2,46.4,45.2,46.4z
				 M46.9,28.9c0-1.2-1-2.2-2.2-2.2c-1.2,0-2.2,1-2.2,2.2s0.8,2.2,2.2,2.2S46.9,30.2,46.9,28.9z"/>
		</g>
	</g>
</g>
</svg>
