<?xml version="1.0" encoding="utf-8"?>
<!-- Generator: Adobe Illustrator 26.0.1, SVG Export Plug-In . SVG Version: 6.00 Build 0)  -->
<svg version="1.1" id="Layer_1" xmlns="http://www.w3.org/2000/svg" xmlns:xlink="http://www.w3.org/1999/xlink" x="0px" y="0px"
	 viewBox="0 0 1920 1080" style="enable-background:new 0 0 1920 1080;" xml:space="preserve">
<style type="text/css">
	.st0{fill:url(#SVGID_1_);}
	.st1{fill:url(#SVGID_00000173158938761187990240000013024929199353694608_);}
	.st2{fill:url(#SVGID_00000043447560698703894800000013203507951173109899_);}
	.st3{fill:url(#SVGID_00000129924791363743102950000012922032632155367086_);}
	.st4{fill:url(#SVGID_00000003069765910804961540000006172814538123567497_);}
	.st5{fill:url(#SVGID_00000147919711935405766630000012000713422462703009_);}
	.st6{fill:#F4D5A9;}
	.st7{fill:#FE997B;}
	.st8{fill:none;stroke:#ED6336;stroke-width:3;stroke-miterlimit:10;}
	.st9{fill:#F7D7AE;}
	.st10{fill:#8DB5AD;}
	.st11{fill:url(#SVGID_00000179605827968493693240000006097649907766881666_);}
	.st12{fill:#754C24;}
	.st13{fill:url(#SVGID_00000153684247539291393330000008064796930377784981_);}
	.st14{fill:url(#SVGID_00000070802745600639374590000012964374275665173651_);}
	.st15{fill:url(#SVGID_00000011740143548695445920000000754760120192537506_);}
	.st16{fill:#CA8C1F;}
	.st17{fill:#E44616;}
	.st18{fill:#42210B;}
	.st19{fill:#8C6339;}
	.st20{fill:#EAE0D6;}
	.st21{fill:#5D6F83;}
	.st22{fill:url(#SVGID_00000003800730671300487350000013497270527451843479_);}
	.st23{fill:url(#SVGID_00000083056826008586293990000003356858929744534677_);}
	.st24{fill:url(#SVGID_00000072981346340307095860000007081891686464814212_);}
	.st25{fill:#BC391B;}
	.st26{fill:#A2BFC5;}
	.st27{fill:url(#SVGID_00000171697222602737205780000017989810807410178998_);}
	.st28{fill:url(#SVGID_00000051361339115166487310000009531280229146390156_);}
	.st29{fill:url(#SVGID_00000171713283039856859600000012497175866158995333_);}
	.st30{fill:url(#SVGID_00000054241937257999680940000004089750050090898865_);}
	.st31{fill:url(#SVGID_00000042001578176398640490000018108208203086621863_);}
	.st32{fill:url(#SVGID_00000160165913913533069230000004739097426336414628_);}
	.st33{fill:url(#SVGID_00000139995447265431084500000016233184654897249158_);}
	.st34{enable-background:new    ;}
</style>
<g id="Layer_3">
	
		<radialGradient id="SVGID_1_" cx="958.6564" cy="573.5092" r="1004.8954" gradientTransform="matrix(0.99 3.000000e-02 2.000000e-02 -0.51 -0.54 803.73)" gradientUnits="userSpaceOnUse">
		<stop  offset="0" style="stop-color:#C8C9AB"/>
		<stop  offset="0.21" style="stop-color:#C4C7AA"/>
		<stop  offset="0.42" style="stop-color:#B9C2A7"/>
		<stop  offset="0.62" style="stop-color:#A5B9A1"/>
		<stop  offset="0.82" style="stop-color:#8AAC9A"/>
		<stop  offset="1" style="stop-color:#6B9D91"/>
	</radialGradient>
	<rect class="st0" width="1920" height="1080"/>
</g>
<g id="Layer_4">
	
		<radialGradient id="SVGID_00000101794078649437805150000007688185042397192093_" cx="960.28" cy="83.2554" r="700.85" gradientTransform="matrix(0.98 0 0 -0.79 21.98 1044.8)" gradientUnits="userSpaceOnUse">
		<stop  offset="0" style="stop-color:#FE997B"/>
		<stop  offset="0.35" style="stop-color:#FB9375"/>
		<stop  offset="0.83" style="stop-color:#F18364"/>
		<stop  offset="1" style="stop-color:#EC7B5C"/>
	</radialGradient>
	<rect y="877.1" style="fill:url(#SVGID_00000101794078649437805150000007688185042397192093_);" width="1920" height="202.9"/>
</g>
<g id="Layer_1_00000147216474882238459540000006526917294807518901_">
	
		<linearGradient id="SVGID_00000043459244300447724180000014669926257667385276_" gradientUnits="userSpaceOnUse" x1="758.51" y1="82.42" x2="758.51" y2="279.59" gradientTransform="matrix(1 0 0 -1 0 1079)">
		<stop  offset="0" style="stop-color:#CA8C1F"/>
		<stop  offset="0.38" style="stop-color:#C8891F"/>
		<stop  offset="0.64" style="stop-color:#C2801F"/>
		<stop  offset="0.86" style="stop-color:#B7711F"/>
		<stop  offset="1" style="stop-color:#AD631F"/>
	</linearGradient>
	<polygon style="fill:url(#SVGID_00000043459244300447724180000014669926257667385276_);" points="755.3,996.6 702.5,996.6 
		702.5,799.4 814.5,799.4 	"/>
	
		<linearGradient id="SVGID_00000128451081174457874280000008332676125932659903_" gradientUnits="userSpaceOnUse" x1="1320.37" y1="82.13" x2="1320.37" y2="279.3" gradientTransform="matrix(1 0 0 -1 0 1079)">
		<stop  offset="0" style="stop-color:#CA8C1F"/>
		<stop  offset="0.38" style="stop-color:#C8891F"/>
		<stop  offset="0.64" style="stop-color:#C2801F"/>
		<stop  offset="0.86" style="stop-color:#B7711F"/>
		<stop  offset="1" style="stop-color:#AD631F"/>
	</linearGradient>
	<polygon style="fill:url(#SVGID_00000128451081174457874280000008332676125932659903_);" points="1323.6,996.9 1376.4,996.9 
		1376.4,799.7 1264.4,799.7 	"/>
	
		<linearGradient id="SVGID_00000086670580216397684950000006874843297263666818_" gradientUnits="userSpaceOnUse" x1="1038.8201" y1="279.12" x2="1038.8201" y2="986.01" gradientTransform="matrix(1 0 0 -1 0 1079)">
		<stop  offset="0" style="stop-color:#E44616"/>
		<stop  offset="0.47" style="stop-color:#E14416"/>
		<stop  offset="0.75" style="stop-color:#D93F16"/>
		<stop  offset="0.99" style="stop-color:#CA3616"/>
		<stop  offset="1" style="stop-color:#CA3616"/>
	</linearGradient>
	
		<rect x="551.8" y="93" style="fill:url(#SVGID_00000086670580216397684950000006874843297263666818_);" width="973.9" height="706.9"/>
	
		<linearGradient id="SVGID_00000041262339036079004440000001390270210611373219_" gradientUnits="userSpaceOnUse" x1="1451.2999" y1="279.09" x2="1451.2999" y2="986.03" gradientTransform="matrix(1 0 0 -1 0 1079)">
		<stop  offset="0" style="stop-color:#F7C74F"/>
		<stop  offset="0.59" style="stop-color:#F5C64E"/>
		<stop  offset="0.81" style="stop-color:#EEC149"/>
		<stop  offset="0.96" style="stop-color:#E3B841"/>
		<stop  offset="1" style="stop-color:#DEB53E"/>
	</linearGradient>
	
		<rect x="1376.4" y="93" style="fill:url(#SVGID_00000041262339036079004440000001390270210611373219_);" width="149.8" height="706.9"/>
	<circle class="st6" cx="1450" cy="192.2" r="52.6"/>
	<circle class="st7" cx="1450.2" cy="192.9" r="41"/>
	<line class="st8" x1="1376.3" y1="587" x2="1526.2" y2="586.9"/>
	<line class="st8" x1="1376.2" y1="658.4" x2="1526.1" y2="658.3"/>
	<line class="st8" x1="1376.2" y1="729.4" x2="1526.1" y2="729.3"/>
	<line class="st8" x1="1376.2" y1="516.3" x2="1526.1" y2="516.2"/>
	<line class="st8" x1="1376.2" y1="445.2" x2="1526.1" y2="445.1"/>
	<circle class="st7" cx="1450.5" cy="332.2" r="52.6"/>
	<circle class="st6" cx="1450.7" cy="332.8" r="41"/>
	
		<image style="overflow:visible;enable-background:new    ;" width="846" height="741" xlink:href="D6B8C021E948203D.png"  transform="matrix(1 0 0 1 538 78)">
	</image>
	<path class="st9" d="M622.5,150.6H1299c6.6,0,12,5.4,12,12v571.1c0,6.6-5.4,12-12,12H622.5c-6.6,0-12-5.4-12-12V162.6
		C610.5,156,615.9,150.6,622.5,150.6z"/>
</g>
<g id="Layer_8">
	<path class="st10" d="M739.5,272.6c-9.2-9-18.6-17.9-28.2-26.7c6.5-1.3,13-2.5,19.5-3.6c4.8,4.7,9.6,9.5,14.4,14.3
		c2.9-6.1,5.9-12.1,8.9-18.1c6.5-1,13-2,19.5-2.9c-6.2,11.5-12.2,22.9-18.1,34.5l4.6,28.6c-5.2,0.8-10.4,1.7-15.6,2.6
		C742.8,291.7,741.1,282.2,739.5,272.6z"/>
	<path class="st10" d="M776.2,265.6c-0.7-4.3-0.4-8.6,0.8-12.8c1.1-4,3.1-7.8,5.7-11c2.8-3.4,6.2-6.1,10.1-8.1
		c8.7-4.4,18.7-5.6,28.2-3.3c4.3,1.1,8.3,3,11.8,5.6c6.8,5.2,11.2,13,11.9,21.6c0.8,8.5-1.9,16.9-7.4,23.4c-2.8,3.2-6.2,5.9-10,7.8
		c-8.4,4.2-17.9,5.3-27,3.2c-4.1-1-8-2.8-11.4-5.3c-3.3-2.5-6.2-5.5-8.3-9.1C778.2,273.9,776.8,269.9,776.2,265.6z M793,263.3
		c0.3,2.3,1,4.5,2.2,6.4c1.1,1.9,2.6,3.5,4.4,4.8c1.8,1.3,3.8,2.2,5.9,2.8c6.7,1.7,13.8-0.4,18.3-5.6c1.4-1.7,2.5-3.6,3.2-5.7
		c0.7-2.2,1-4.5,0.7-6.8c-0.2-2.3-0.9-4.5-2.1-6.4c-1.1-1.9-2.6-3.5-4.4-4.9c-1.8-1.3-3.8-2.3-6-2.8c-2.2-0.6-4.6-0.7-6.9-0.5
		c-2.3,0.2-4.6,0.9-6.6,2c-2,1-3.7,2.4-5.2,4.1c-1.4,1.7-2.5,3.6-3.1,5.7C792.9,258.7,792.7,261,793,263.3z"/>
	<path class="st10" d="M868.8,225.4c0.8,10.9,1.5,21.8,2.3,32.7c0.1,1.8,0.3,3.5,0.6,5.4c0.2,1.7,0.8,3.4,1.6,4.9
		c0.8,1.5,2,2.6,3.5,3.4c2,0.9,4.1,1.3,6.3,1c2.1,0,4.2-0.6,6-1.8c1.3-1,2.4-2.3,3-3.8c0.6-1.6,1-3.3,1-5.1c0-1.8,0-3.6-0.1-5.4
		c-0.6-10.9-1.2-21.8-1.8-32.8c5.5-0.3,10.9-0.6,16.4-0.8l1.5,34.9c0.4,9.4-1.5,16.3-5.6,20.8s-10.6,7-19.6,7.6s-15.7-1.1-20.4-5.1
		s-7.5-10.6-8.2-20c-1-11.6-1.9-23.2-2.9-34.8C857.8,226.2,863.3,225.8,868.8,225.4z"/>
	<path class="st10" d="M960.1,222c3.7,13,7.3,26,10.8,39c4.4-13,9-25.9,13.7-38.8c4.4,0.1,8.8,0.2,13.1,0.3
		c4.2,13.1,8.2,26.2,12.1,39.3c4-12.9,8.1-25.7,12.3-38.5c5.8,0.3,11.5,0.5,17.3,0.9c-7.4,19.7-14.6,39.5-21.4,59.3
		c-5.3-0.2-10.7-0.4-16.1-0.6c-3.6-11.8-7.4-23.5-11.2-35.2c-4.3,11.6-8.5,23.2-12.6,34.8c-5.3-0.1-10.7-0.1-16.1-0.1
		c-6.1-20.1-12.4-40.1-19.1-60.1C948.6,222.1,954.3,222,960.1,222z"/>
	<path class="st10" d="M1040,254.3c0.4-8.6,4.4-16.6,11.1-22c3.4-2.8,7.3-4.8,11.5-6c9.4-2.6,19.4-1.8,28.2,2.4
		c4,1.9,7.5,4.5,10.4,7.8c5.7,6.4,8.4,15,7.3,23.5c-0.4,4.3-1.8,8.4-3.9,12.2c-2,3.6-4.8,6.8-8.1,9.3c-3.4,2.6-7.2,4.5-11.3,5.7
		c-9,2.4-18.5,1.6-27-2.3c-3.8-1.8-7.3-4.3-10.1-7.5c-2.8-3.1-4.9-6.6-6.3-10.5C1040.3,262.9,1039.7,258.6,1040,254.3z
		 M1056.8,255.4c-0.2,2.3,0.1,4.6,0.9,6.7c0.8,2,1.9,3.9,3.4,5.5c1.5,1.6,3.3,2.9,5.2,3.9c2,1,4.2,1.6,6.5,1.8
		c2.3,0.2,4.5,0,6.7-0.7c2.1-0.6,4.1-1.7,5.8-3c1.7-1.3,3.2-3,4.3-4.9c1.1-2,1.8-4.2,2-6.5c0.2-2.3,0-4.6-0.8-6.7
		c-0.7-2.1-1.9-4-3.3-5.6c-1.5-1.7-3.3-3-5.3-4c-4.2-2-9-2.4-13.5-1.1c-2.1,0.6-4.1,1.6-5.9,3c-1.7,1.4-3.1,3.1-4.2,5
		C1057.6,250.8,1057,253.1,1056.8,255.4L1056.8,255.4z"/>
	<path class="st10" d="M1115.2,291.1l7-59.9c5.5,0.7,10.9,1.3,16.4,2c8.5,13.5,16.7,27.1,24.7,40.7l5.6-36.5
		c5.4,0.8,10.9,1.7,16.3,2.6c-3.3,19.8-6.6,39.7-9.9,59.5c-5.2-0.9-10.4-1.7-15.5-2.5c-7.8-13.6-15.8-27.2-24.2-40.7
		c-1.6,12.2-3.2,24.4-4.8,36.6C1125.7,292.4,1120.5,291.8,1115.2,291.1z"/>
	<path class="st10" d="M1188.9,294.2c0.2-1.2,0.7-2.4,1.3-3.5c0.7-1,1.5-1.9,2.5-2.6c1-0.7,2.2-1.2,3.4-1.4c2.5-0.5,5.1,0,7.3,1.3
		c3.2,2,4.9,5.8,4.1,9.6c-0.2,1.2-0.7,2.4-1.4,3.4c-0.7,1-1.5,1.9-2.6,2.6c-1,0.7-2.2,1.2-3.3,1.4c-2.5,0.5-5.1,0-7.2-1.3
		c-1-0.7-1.9-1.5-2.6-2.5C1189.1,299.2,1188.5,296.6,1188.9,294.2L1188.9,294.2z M1193,281.9c2.3-13.1,4.7-26.2,7-39.2
		c5.2,0.9,10.4,1.9,15.6,2.9l-7.4,39.1C1203.1,283.7,1198.1,282.8,1193,281.9z"/>
</g>
<g id="Layer_9">
	
		<linearGradient id="SVGID_00000004537770415286494890000011156683798475746711_" gradientUnits="userSpaceOnUse" x1="112.5554" y1="84.17" x2="112.5554" y2="366.7892" gradientTransform="matrix(1 0 0 -1 0 1079)">
		<stop  offset="0" style="stop-color:#754C24"/>
		<stop  offset="0.62" style="stop-color:#CA8C1F"/>
		<stop  offset="0.99" style="stop-color:#EDC796"/>
	</linearGradient>
	<path style="fill:url(#SVGID_00000004537770415286494890000011156683798475746711_);" d="M161.5,713.3
		c-52.6,77,10.2,281.5-4.6,281.5s-68.2-86.3-67.5-98.4c2.7-45.9-38.1-44.7-22.1-128.2C80.5,699.6,161.5,713.3,161.5,713.3z"/>
	<path class="st12" d="M391.6,893.8c0,61-43.2,110.4-96.6,110.4s-97.5-45.5-81.2-104.2c17.1-61.6,27.9-116.6,81.2-116.6
		S391.6,832.8,391.6,893.8z"/>
	<path class="st12" d="M391.7,908.5c-8,34.1-11,40.5-17.4,56.3c-2.9,7.2,108.7,10.5,101.1,40.3c-0.5,2-127.9-0.6-133.8-5.8
		c-15.2-13.4,20.6-58.3,20.6-93.4c0-51.5-33-116.6-21.6-116.6c5.7,0,59.1,30.6,62.9,47.5S399.1,877,391.7,908.5z"/>
	
		<linearGradient id="SVGID_00000090984927533212716870000014161167977353119623_" gradientUnits="userSpaceOnUse" x1="423.7844" y1="392.86" x2="423.7844" y2="53.8221" gradientTransform="matrix(1 0 0 -1 0 1079)">
		<stop  offset="0" style="stop-color:#CA8C1F"/>
		<stop  offset="0.42" style="stop-color:#C88B1F"/>
		<stop  offset="0.58" style="stop-color:#C1851E"/>
		<stop  offset="0.68" style="stop-color:#B67C1C"/>
		<stop  offset="0.77" style="stop-color:#A56F1A"/>
		<stop  offset="0.85" style="stop-color:#8F5D16"/>
		<stop  offset="0.91" style="stop-color:#734812"/>
		<stop  offset="0.97" style="stop-color:#542F0E"/>
		<stop  offset="1" style="stop-color:#42210B"/>
	</linearGradient>
	<path style="fill:url(#SVGID_00000090984927533212716870000014161167977353119623_);" d="M430.3,855.4c-19.8,61.1-6.6,89.3-13,118
		c-2.9,13.1,35.7,23.8,31.1,46.7c-0.7,3.5-43.8,10.7-46.7-2.8c-6.3-28.8-0.9-102.9-0.9-166.7c0-93.5-2.4-164.5,8.9-164.5
		c5.7,0,28.6,8.3,32.3,39S446.7,804.8,430.3,855.4z"/>
	
		<linearGradient id="SVGID_00000005243118651998784280000008401137302123142802_" gradientUnits="userSpaceOnUse" x1="381.18" y1="693.6763" x2="381.18" y2="452.2441" gradientTransform="matrix(1 0 0 -1 0 1079)">
		<stop  offset="0" style="stop-color:#8C6239"/>
		<stop  offset="0.21" style="stop-color:#A17030"/>
		<stop  offset="0.49" style="stop-color:#B88027"/>
		<stop  offset="0.76" style="stop-color:#C58921"/>
		<stop  offset="1" style="stop-color:#CA8C1F"/>
	</linearGradient>
	<path style="fill:url(#SVGID_00000005243118651998784280000008401137302123142802_);" d="M470.9,544.9c0,62.4-55,78-104.7,78
		c-27.5,0-73.4,14.5-57.4-12.6c20.5-34.6-17.4-88.8-17.4-116.6c0-62.4,38.5-110.4,88.2-108.3c82.4,3.5,43.4,49.8,56.6,72.4
		C451.5,483.8,470.9,513.7,470.9,544.9z"/>
	
		<linearGradient id="SVGID_00000109712114175972597670000005488117976287248521_" gradientUnits="userSpaceOnUse" x1="282.3369" y1="74.2213" x2="282.3369" y2="477.2361" gradientTransform="matrix(1 0 0 -1 0 1079)">
		<stop  offset="0" style="stop-color:#8C6239"/>
		<stop  offset="5.000000e-02" style="stop-color:#936736"/>
		<stop  offset="0.26" style="stop-color:#AB772C"/>
		<stop  offset="0.48" style="stop-color:#BD8325"/>
		<stop  offset="0.71" style="stop-color:#C78A20"/>
		<stop  offset="1" style="stop-color:#CA8C1F"/>
	</linearGradient>
	<path style="fill:url(#SVGID_00000109712114175972597670000005488117976287248521_);" d="M420.1,750.5
		c7.9,155.9-56.5,96.4-126.6,207.5c-46.9,74.3-176.4,55.5-144.7-24.3c40.6-102.3,89.5-333.3,141.8-331.9
		C377.4,604,414.6,641.7,420.1,750.5z"/>
	<path class="st9" d="M441.8,640.1l-27.6,16.5c-9.4,0-68.7-20-68.7-29.3V516.4c0-9.4,34.5-19.7,43.9-19.7l5.5-69.9l23,64.4
		c9.4,0,69,15.5,69,24.8l-15.6,126.9C471.2,652.2,451.2,640.1,441.8,640.1z"/>
	<path class="st16" d="M321.9,517.4l-6.3-1.6c-7.4-1.5-4.7-0.1-10.4-8.8c0,0-20.1-45.2-3.3-51.2c7.1-2.5,40-33,38.5-25.7
		C340.4,430.1,332.4,507.3,321.9,517.4z"/>
	<polygon class="st17" points="434.7,416.8 358.5,419.3 289.1,481.7 281.6,466 294.2,389.7 328.2,353.8 396.9,357.6 433.5,394.8 	
		"/>
	<polygon class="st18" points="439.7,560 459.9,526.2 419.5,526.2 	"/>
	<path class="st19" d="M394.9,454.1c0,10.4-37.5,46.7-39.2,38.5c-3.6-16.7-3.9-24.3-2.8-26.9c5.8-14.7,13.2-14.1,18.5-21.3
		c7.1-9.7,6.9-16.9,13.8-16.9C393.6,427.5,394.9,443.8,394.9,454.1z"/>
	<path class="st19" d="M430.5,458.4c1.1,5.7-2.7,15.6-7.4,16.1c-8.8,1-16.8-13.4-17.9-19.1c-1.2-6.3,0.6-19.3,4.8-21.3
		c3-1.4,10.3,2.5,13.7,7.4C427.9,447.5,429.8,455.2,430.5,458.4z"/>
	<path class="st20" d="M395.1,481.6c0,18-9.1,32.7-20.4,32.7s-20.4-14.6-20.4-32.7s40.6-27.5,40.6-27.5S395.1,463.5,395.1,481.6z"/>
	<path class="st20" d="M417.2,489.9c3.6,6.2,23.7,2.9,23.7,2.9s-3.6-19.1-10.5-34.4c-1.3-2.9-25.2-3-25.2-3S409.3,476.4,417.2,489.9
		z"/>
	<path class="st18" d="M383.8,467.5c0,11.3-7.2,25.4-16.4,25.4s-13.4-12-11.5-17.1c4-10.4,26.3-17.8,26.3-17.8
		S383.8,456.2,383.8,467.5z"/>
	<path class="st18" d="M408.7,469.9c2.2,7.5,7.9,11.8,11.3,11.2c5.5-1.1,10.6-21.4,5.5-24.2c-4-2.2-20.3-1.5-20.3-1.5
		S407,464.4,408.7,469.9z"/>
	<circle class="st21" cx="393.3" cy="507.3" r="28.4"/>
	<circle class="st21" cx="449.9" cy="498.7" r="23.5"/>
	
		<linearGradient id="SVGID_00000074405188510352152950000008097779589664247433_" gradientUnits="userSpaceOnUse" x1="229.915" y1="48.4" x2="229.915" y2="269.24" gradientTransform="matrix(1 0 0 -1 0 1079)">
		<stop  offset="0" style="stop-color:#754C24"/>
		<stop  offset="6.000000e-02" style="stop-color:#835623"/>
		<stop  offset="0.21" style="stop-color:#A26E21"/>
		<stop  offset="0.36" style="stop-color:#B87E20"/>
		<stop  offset="0.5" style="stop-color:#C5891F"/>
		<stop  offset="0.62" style="stop-color:#CA8C1F"/>
	</linearGradient>
	<path style="fill:url(#SVGID_00000074405188510352152950000008097779589664247433_);" d="M320.5,920.2c0,61-43.2,110.4-96.6,110.4
		s-97.5-45.5-81.2-104.3c17.1-61.5,27.9-116.5,81.2-116.5S320.5,859.2,320.5,920.2z"/>
	
		<linearGradient id="SVGID_00000163751879916067933510000011349202911796217997_" gradientUnits="userSpaceOnUse" x1="313.0262" y1="346.071" x2="313.0262" y2="484.4617" gradientTransform="matrix(0.99 -0.16 -0.12 -0.72 70.46 1090.36)">
		<stop  offset="0" style="stop-color:#8C6239"/>
		<stop  offset="1.000000e-02" style="stop-color:#8F6438"/>
		<stop  offset="0.1" style="stop-color:#A5732F"/>
		<stop  offset="0.2" style="stop-color:#B67E28"/>
		<stop  offset="0.33" style="stop-color:#C18623"/>
		<stop  offset="0.5" style="stop-color:#C88B20"/>
		<stop  offset="1" style="stop-color:#CA8C1F"/>
	</linearGradient>
	<path style="fill:url(#SVGID_00000163751879916067933510000011349202911796217997_);" d="M378.9,729.7
		c3.1,19.3-11.1,54.4-37.2,60.5c-56.4,13.1-57.3-24.5-60.5-43.9s34-53.9,60.6-58.2S375.8,710.4,378.9,729.7z"/>
	
		<linearGradient id="SVGID_00000175296115741664243100000015378187393844875706_" gradientUnits="userSpaceOnUse" x1="337.4343" y1="254.18" x2="337.4343" y2="37.6239" gradientTransform="matrix(1 0 0 -1 0 1079)">
		<stop  offset="2.000000e-02" style="stop-color:#CA8C1F"/>
		<stop  offset="0.34" style="stop-color:#CA8C1F"/>
		<stop  offset="0.63" style="stop-color:#C88B1F"/>
		<stop  offset="0.74" style="stop-color:#C1851E"/>
		<stop  offset="0.81" style="stop-color:#B67C1D"/>
		<stop  offset="0.87" style="stop-color:#A56E1B"/>
		<stop  offset="0.93" style="stop-color:#8F5D18"/>
		<stop  offset="0.97" style="stop-color:#744815"/>
		<stop  offset="1" style="stop-color:#603813"/>
	</linearGradient>
	<path style="fill:url(#SVGID_00000175296115741664243100000015378187393844875706_);" d="M322.3,944.1c-8,34.1-11,40.5-17.4,56.3
		c-2.9,7.2,108.7,10.5,101.1,40.3c-0.5,2-127.9-0.6-133.8-5.8c-15.2-13.4,20.6-58.3,20.6-93.4c0-51.5-33-116.6-21.6-116.6
		c5.7,0,59.1,30.6,62.9,47.5S329.7,912.6,322.3,944.1z"/>
	<polygon class="st25" points="435,417.1 358.7,419.6 289.4,482 281.8,466.2 345.9,397 433.7,395 	"/>
	<path class="st26" d="M399.7,534.9c-3.3,0.8-6.7,1-10.1,0.5c-0.3,0,9.7-54.8,9.9-55.8c0-0.3,7.5,1.9,9.3,3.8
		C409.8,484.5,400.3,534.7,399.7,534.9z"/>
	<path class="st26" d="M454.8,521.6c-2.7,0.7-5.6,0.8-8.4,0.4c-0.2,0,8-45.5,8.2-46.3c0-0.2,6.2,1.6,7.7,3.2
		C463.2,479.8,455.4,521.5,454.8,521.6z"/>
</g>
<g id="Layer_10">
	
		<linearGradient id="SVGID_00000097473377477553551240000005825531115625656754_" gradientUnits="userSpaceOnUse" x1="114.9994" y1="84" x2="114.9994" y2="366.86" gradientTransform="matrix(1 0 0 -1 0 1079)">
		<stop  offset="0" style="stop-color:#754C24"/>
		<stop  offset="0.62" style="stop-color:#CA8C1F"/>
		<stop  offset="0.99" style="stop-color:#EDC796"/>
	</linearGradient>
	<path style="fill:url(#SVGID_00000097473377477553551240000005825531115625656754_);" d="M164,713.3
		c-52.7,77.1,10.2,281.7-4.6,281.7s-68.3-86.4-67.6-98.5c2.7-46-38.1-44.7-22.1-128.3C82.9,699.5,164,713.3,164,713.3z"/>
	<path class="st12" d="M394.2,893.9c0,61-43.3,110.5-96.7,110.5s-97.6-45.6-81.3-104.4c17.1-61.6,27.9-116.6,81.3-116.6
		S394.2,832.9,394.2,893.9z"/>
	<path class="st12" d="M394.3,908.6c-8,34.1-11,40.6-17.4,56.4c-2.9,7.2,108.8,10.5,101.2,40.3c-0.5,2-128-0.6-133.9-5.8
		c-15.2-13.5,20.7-58.3,20.7-93.5c0-51.5-33-116.7-21.7-116.7c5.7,0,59.2,30.6,62.9,47.5S401.7,877.1,394.3,908.6z"/>
	
		<linearGradient id="SVGID_00000166667964639246001180000012027301702473146777_" gradientUnits="userSpaceOnUse" x1="426.4466" y1="392.97" x2="426.4466" y2="53.6879" gradientTransform="matrix(1 0 0 -1 0 1079)">
		<stop  offset="0" style="stop-color:#CA8C1F"/>
		<stop  offset="0.42" style="stop-color:#C88B1F"/>
		<stop  offset="0.58" style="stop-color:#C1851E"/>
		<stop  offset="0.68" style="stop-color:#B67C1C"/>
		<stop  offset="0.77" style="stop-color:#A56F1A"/>
		<stop  offset="0.85" style="stop-color:#8F5D16"/>
		<stop  offset="0.91" style="stop-color:#734812"/>
		<stop  offset="0.97" style="stop-color:#542F0E"/>
		<stop  offset="1" style="stop-color:#42210B"/>
	</linearGradient>
	<path style="fill:url(#SVGID_00000166667964639246001180000012027301702473146777_);" d="M433,855.4c-19.8,61.2-6.6,89.4-13,118.1
		c-2.9,13.1,35.8,23.8,31.2,46.8c-0.7,3.5-43.8,10.7-46.8-2.8c-6.3-28.9-0.9-103-0.9-166.9c0-93.5-2.4-164.6,8.9-164.6
		c5.7,0,28.6,8.3,32.3,39S449.4,804.8,433,855.4z"/>
	
		<linearGradient id="SVGID_00000098193445208619348750000010321897708526299027_" gradientUnits="userSpaceOnUse" x1="383.805" y1="693.9662" x2="383.805" y2="452.3617" gradientTransform="matrix(1 0 0 -1 0 1079)">
		<stop  offset="0" style="stop-color:#8C6239"/>
		<stop  offset="0.21" style="stop-color:#A17030"/>
		<stop  offset="0.49" style="stop-color:#B88027"/>
		<stop  offset="0.76" style="stop-color:#C58921"/>
		<stop  offset="1" style="stop-color:#CA8C1F"/>
	</linearGradient>
	<path style="fill:url(#SVGID_00000098193445208619348750000010321897708526299027_);" d="M473.6,544.7c0,62.4-55,78.1-104.8,78.1
		c-27.5,0-73.5,14.5-57.5-12.6c20.5-34.6-17.4-88.8-17.4-116.7c0-62.4,38.6-110.5,88.3-108.4c82.5,3.5,43.4,49.9,56.7,72.4
		C454.2,483.5,473.6,513.5,473.6,544.7z"/>
	
		<linearGradient id="SVGID_00000119833527433530922520000014054263629127169973_" gradientUnits="userSpaceOnUse" x1="284.8876" y1="74.1184" x2="284.8876" y2="477.4262" gradientTransform="matrix(1 0 0 -1 0 1079)">
		<stop  offset="0" style="stop-color:#8C6239"/>
		<stop  offset="5.000000e-02" style="stop-color:#936736"/>
		<stop  offset="0.26" style="stop-color:#AB772C"/>
		<stop  offset="0.48" style="stop-color:#BD8325"/>
		<stop  offset="0.71" style="stop-color:#C78A20"/>
		<stop  offset="1" style="stop-color:#CA8C1F"/>
	</linearGradient>
	<path style="fill:url(#SVGID_00000119833527433530922520000014054263629127169973_);" d="M422.8,750.4
		c7.9,156-56.5,96.4-126.7,207.6c-46.9,74.4-176.6,55.6-144.9-24.3c40.6-102.3,89.6-333.5,142-332.2
		C380,603.9,417.3,641.5,422.8,750.4z"/>
	<path class="st9" d="M444.5,640l-27.6,16.6c-9.4,0-68.8-20-68.8-29.4v-111c0-9.4,34.5-19.7,43.9-19.7l5.5-69.9l23,64.4
		c9.4,0,69,15.5,69,24.8l-15.6,127C473.9,652.1,453.9,640,444.5,640z"/>
	<path class="st16" d="M324.4,517.2l-6.3-1.6c-7.4-1.5-4.7,0-10.4-8.8c0,0-20.1-45.2-3.3-51.2c7.1-2.5,40-33,38.5-25.7
		C343,429.9,335,507.1,324.4,517.2z"/>
	<polygon class="st17" points="437.4,416.5 361.1,419 291.7,481.5 284.1,465.7 296.7,389.4 330.8,353.5 399.5,357.2 436.1,394.5 	
		"/>
	<polygon class="st18" points="442.4,559.8 462.6,526 422.2,526 	"/>
	<path class="st19" d="M396,471.6c0,10.4-36,29.1-37.8,20.9c-3.6-16.7-3.2-24.1-2.8-26.9c1.9-14.9,8.3-25.8,15.3-25.8
		C379.1,439.7,396,461.2,396,471.6z"/>
	<path class="st19" d="M437.7,469.3c1.1,5.7-2.7,15.6-7.4,16.1c-8.8,1-16.1-5.8-15.1-19.5c0.5-6.4,2-21.8,6.6-22.8
		C430.4,441.5,437.1,466.1,437.7,469.3z"/>
	<path class="st20" d="M397.7,481.4c0,18.1-9.1,32.7-20.4,32.7S357,499.4,357,481.4s17.5-19.9,21-20.5
		C383.9,459.8,397.7,463.3,397.7,481.4z"/>
	<path class="st20" d="M419.9,489.7c3.6,6.2,23.8,2.9,23.8,2.9s0.5-10.6-6.4-26c-1.3-2.9-2.3-5.8-12-4.3
		C416.2,463.7,411.9,476.1,419.9,489.7z"/>
	<path class="st18" d="M385.9,489.6c0,11.3-1.7,22-10.8,22s-14.8-9.3-15.2-14.8c-0.8-10.7,5.6-20.8,13.6-20.6
		C380.2,476.4,385.9,478.2,385.9,489.6z"/>
	<path class="st18" d="M418.8,487c2.2,7.5,8.9,11.5,12.2,10.9c5.5-1.1,5.4-6.8,4.5-15.2c-0.7-6.6-6.4-10.1-13.2-9.5
		C418.7,473.5,417.1,481.5,418.8,487z"/>
	<path class="st18" d="M407.9,624.7c-0.7-1,7,1.9,14.6-3.3s20.2-1.3,20.9-1.1c1.3,0.5-4.2,1.8-10.7,6.3
		C427,630.4,408.5,625.7,407.9,624.7z"/>
	<circle class="st21" cx="396" cy="507.1" r="28.4"/>
	<circle class="st21" cx="452.6" cy="498.5" r="23.5"/>
	
		<linearGradient id="SVGID_00000002362631985412729500000001788953082168516245_" gradientUnits="userSpaceOnUse" x1="232.4275" y1="48.23" x2="232.4275" y2="269.24" gradientTransform="matrix(1 0 0 -1 0 1079)">
		<stop  offset="0" style="stop-color:#754C24"/>
		<stop  offset="6.000000e-02" style="stop-color:#835623"/>
		<stop  offset="0.21" style="stop-color:#A26E21"/>
		<stop  offset="0.36" style="stop-color:#B87E20"/>
		<stop  offset="0.5" style="stop-color:#C5891F"/>
		<stop  offset="0.62" style="stop-color:#CA8C1F"/>
	</linearGradient>
	<path style="fill:url(#SVGID_00000002362631985412729500000001788953082168516245_);" d="M323.1,920.3c0,61-43.3,110.5-96.7,110.5
		s-97.6-45.6-81.3-104.4c17.1-61.6,27.9-116.6,81.3-116.6S323.1,859.2,323.1,920.3z"/>
	
		<linearGradient id="SVGID_00000061471636772271363130000006673337967766272169_" gradientUnits="userSpaceOnUse" x1="315.5728" y1="345.511" x2="315.5728" y2="483.9968" gradientTransform="matrix(0.99 -0.16 -0.12 -0.72 70.46 1090.36)">
		<stop  offset="0" style="stop-color:#8C6239"/>
		<stop  offset="1.000000e-02" style="stop-color:#8F6438"/>
		<stop  offset="0.1" style="stop-color:#A5732F"/>
		<stop  offset="0.2" style="stop-color:#B67E28"/>
		<stop  offset="0.33" style="stop-color:#C18623"/>
		<stop  offset="0.5" style="stop-color:#C88B20"/>
		<stop  offset="1" style="stop-color:#CA8C1F"/>
	</linearGradient>
	<path style="fill:url(#SVGID_00000061471636772271363130000006673337967766272169_);" d="M381.5,729.7
		c3.1,19.3-11.1,54.5-37.2,60.5c-56.5,13.1-57.4-24.5-60.5-43.9s34.1-53.9,60.6-58.2S378.4,710.3,381.5,729.7z"/>
	
		<linearGradient id="SVGID_00000022532851199045961430000015924482702404886189_" gradientUnits="userSpaceOnUse" x1="340.0228" y1="254.17" x2="340.0228" y2="37.4538" gradientTransform="matrix(1 0 0 -1 0 1079)">
		<stop  offset="2.000000e-02" style="stop-color:#CA8C1F"/>
		<stop  offset="0.34" style="stop-color:#CA8C1F"/>
		<stop  offset="0.63" style="stop-color:#C88B1F"/>
		<stop  offset="0.74" style="stop-color:#C1851E"/>
		<stop  offset="0.81" style="stop-color:#B67C1D"/>
		<stop  offset="0.87" style="stop-color:#A56E1B"/>
		<stop  offset="0.93" style="stop-color:#8F5D18"/>
		<stop  offset="0.97" style="stop-color:#744815"/>
		<stop  offset="1" style="stop-color:#603813"/>
	</linearGradient>
	<path style="fill:url(#SVGID_00000022532851199045961430000015924482702404886189_);" d="M324.9,944.2c-8,34.1-11,40.6-17.4,56.4
		c-2.9,7.2,108.8,10.5,101.2,40.4c-0.5,2-127.9-0.6-133.9-5.8c-15.2-13.5,20.6-58.3,20.6-93.5c0-51.5-33-116.7-21.6-116.7
		c5.7,0,59.2,30.6,62.9,47.5S332.3,912.7,324.9,944.2z"/>
	<polygon class="st25" points="437.6,416.8 361.3,419.3 291.9,481.8 284.4,466 348.5,396.7 436.3,394.7 	"/>
	<path class="st26" d="M402.4,534.7c-3.3,0.8-6.7,1-10.1,0.5c-0.2,0,9.7-54.8,9.9-55.8c0-0.3,7.5,1.9,9.3,3.9
		C412.4,484.3,403,534.5,402.4,534.7z"/>
	<path class="st26" d="M457.5,521.4c-2.7,0.7-5.6,0.8-8.4,0.4c-0.2,0,8.1-45.5,8.2-46.3c0-0.2,6.2,1.6,7.7,3.2
		C465.9,479.6,458,521.3,457.5,521.4z"/>
</g>
<g id="Layer_11">
	<g class="st34">
		<path class="st18" d="M753.1,376.9l3.9,14.6l4.8-14.6h4.7l4.8,14.6l3.9-14.6h6.1l-6.8,22.6h-6l-4.4-13.1l-4.4,13.1h-6l-6.8-22.6
			H753.1z"/>
	</g>
	<g class="st34">
		<path class="st18" d="M781.5,391.7c0-1.1,0.2-2.2,0.7-3.2c0.5-1,1.1-1.8,1.9-2.6c0.8-0.7,1.8-1.3,2.9-1.7s2.4-0.6,3.7-0.6
			c1.3,0,2.5,0.2,3.7,0.6s2.1,1,2.9,1.7c0.8,0.7,1.5,1.6,1.9,2.6c0.5,1,0.7,2.1,0.7,3.3s-0.2,2.3-0.7,3.3c-0.5,1-1.1,1.9-1.9,2.6
			c-0.8,0.7-1.8,1.3-3,1.7c-1.2,0.4-2.4,0.6-3.7,0.6c-1.3,0-2.5-0.2-3.7-0.6c-1.1-0.4-2.1-1-2.9-1.7c-0.8-0.7-1.4-1.6-1.9-2.7
			C781.7,394.1,781.5,393,781.5,391.7z M787.2,391.8c0,0.5,0.1,1,0.3,1.4c0.2,0.4,0.4,0.8,0.8,1.1s0.7,0.6,1.1,0.8
			c0.4,0.2,0.9,0.3,1.4,0.3s0.9-0.1,1.4-0.3c0.4-0.2,0.8-0.4,1.1-0.8c0.3-0.3,0.6-0.7,0.8-1.1c0.2-0.4,0.3-0.9,0.3-1.4
			c0-0.5-0.1-0.9-0.3-1.4c-0.2-0.4-0.4-0.8-0.8-1.1c-0.3-0.3-0.7-0.6-1.1-0.8c-0.4-0.2-0.9-0.3-1.4-0.3s-0.9,0.1-1.4,0.3
			c-0.4,0.2-0.8,0.4-1.1,0.8c-0.3,0.3-0.6,0.7-0.8,1.1C787.3,390.8,787.2,391.3,787.2,391.8z"/>
	</g>
	<g class="st34">
		<path class="st18" d="M806.5,384.2l3.7,8.1l3.8-8.1h3.4l3.8,8.3l3.9-8.3h6l-8,15.4h-3.6l-3.8-8.4l-3.7,8.4h-3.7l-7.9-15.4H806.5z"
			/>
	</g>
	<g class="st34">
		<path class="st18" d="M833.5,393.8h5.1l-5.5,9.9h-3.5L833.5,393.8z"/>
		<path class="st18" d="M858.6,376.9v22.6h-5.9v-22.6H858.6z"/>
		<path class="st18" d="M866,376.9h5.1l-5.5,10h-3.5L866,376.9z"/>
		<path class="st18" d="M874.6,384.2h5.4v1.9c1.5-1.4,3.1-2.1,5-2.1c2.3,0,4,1,5.2,2.9c1.2-1.9,3-2.9,5.2-2.9c0.7,0,1.4,0.1,2,0.3
			c0.6,0.2,1.2,0.5,1.6,1c0.5,0.5,0.8,1,1.1,1.8c0.3,0.7,0.4,1.6,0.4,2.6v10h-5.4V392c0-0.8-0.1-1.4-0.2-1.9
			c-0.1-0.5-0.3-0.9-0.5-1.2s-0.5-0.5-0.7-0.6c-0.3-0.1-0.6-0.2-0.9-0.2c-1.7,0-2.6,1.3-2.6,3.8v7.6h-5.4V392c0-0.8-0.1-1.4-0.1-1.9
			c-0.1-0.5-0.2-0.9-0.4-1.2c-0.2-0.3-0.4-0.5-0.7-0.6c-0.3-0.1-0.7-0.2-1.1-0.2c-0.3,0-0.7,0-1,0.1c-0.3,0.1-0.6,0.3-0.8,0.6
			c-0.2,0.3-0.4,0.7-0.5,1.2c-0.1,0.5-0.2,1.2-0.2,2v7.6h-5.4V384.2z"/>
		<path class="st18" d="M914.5,384.2h5.4v1.9c1.5-1.4,3.1-2.1,5-2.1c2.3,0,4,1,5.2,2.9c1.2-1.9,3-2.9,5.2-2.9c0.7,0,1.4,0.1,2,0.3
			c0.6,0.2,1.2,0.5,1.6,1c0.5,0.5,0.8,1,1.1,1.8c0.3,0.7,0.4,1.6,0.4,2.6v10h-5.4V392c0-0.8-0.1-1.4-0.2-1.9
			c-0.1-0.5-0.3-0.9-0.5-1.2s-0.5-0.5-0.7-0.6c-0.3-0.1-0.6-0.2-0.9-0.2c-1.7,0-2.6,1.3-2.6,3.8v7.6h-5.4V392c0-0.8-0.1-1.4-0.1-1.9
			c-0.1-0.5-0.2-0.9-0.4-1.2c-0.2-0.3-0.4-0.5-0.7-0.6c-0.3-0.1-0.7-0.2-1.1-0.2c-0.3,0-0.7,0-1,0.1c-0.3,0.1-0.6,0.3-0.8,0.6
			c-0.2,0.3-0.4,0.7-0.5,1.2c-0.1,0.5-0.2,1.2-0.2,2v7.6h-5.4V384.2z"/>
		<path class="st18" d="M943.9,378.2c0-0.4,0.1-0.8,0.2-1.2c0.2-0.4,0.4-0.7,0.7-1c0.3-0.3,0.6-0.5,1-0.7c0.4-0.2,0.8-0.2,1.2-0.2
			s0.8,0.1,1.2,0.2c0.4,0.2,0.7,0.4,1,0.7c0.3,0.3,0.5,0.6,0.7,1c0.2,0.4,0.2,0.8,0.2,1.2s-0.1,0.8-0.2,1.2c-0.2,0.4-0.4,0.7-0.7,1
			c-0.3,0.3-0.6,0.5-1,0.7c-0.4,0.2-0.8,0.2-1.2,0.2s-0.8-0.1-1.2-0.2c-0.4-0.2-0.7-0.4-1-0.7c-0.3-0.3-0.5-0.6-0.7-1
			C944,379.1,943.9,378.7,943.9,378.2z M949.7,384.2v15.4h-5.4v-15.4H949.7z"/>
		<path class="st18" d="M958.9,374.6v24.9h-5.4v-24.9H958.9z"/>
		<path class="st18" d="M974.5,374.6h5.5v24.9h-5.5v-1.7c-1.2,1.5-2.7,2.2-4.7,2.2c-1.1,0-2.1-0.2-3.1-0.6s-1.8-1-2.5-1.7
			s-1.2-1.6-1.6-2.6s-0.6-2.1-0.6-3.2c0-1.1,0.2-2.1,0.6-3.1s0.9-1.9,1.6-2.6s1.5-1.3,2.4-1.8c0.9-0.4,2-0.6,3.1-0.6
			c1.9,0,3.5,0.7,4.8,2V374.6z M967.6,391.8c0,0.5,0.1,1,0.3,1.4s0.4,0.8,0.7,1.1c0.3,0.3,0.7,0.6,1.1,0.8c0.4,0.2,0.9,0.3,1.4,0.3
			c0.5,0,0.9-0.1,1.4-0.3c0.4-0.2,0.8-0.4,1.1-0.8c0.3-0.3,0.6-0.7,0.8-1.1c0.2-0.4,0.3-0.9,0.3-1.3c0-0.5-0.1-0.9-0.3-1.4
			c-0.2-0.4-0.4-0.8-0.8-1.1c-0.3-0.3-0.7-0.6-1.1-0.8c-0.4-0.2-0.9-0.3-1.4-0.3c-0.5,0-0.9,0.1-1.4,0.3c-0.4,0.2-0.8,0.4-1.1,0.8
			c-0.3,0.3-0.6,0.7-0.8,1.1C967.7,390.9,967.6,391.3,967.6,391.8z"/>
	</g>
	<g class="st34">
		<path class="st18" d="M989,374.6v24.9h-5.4v-24.9H989z"/>
	</g>
	<g class="st34">
		<path class="st18" d="M998.7,397.4l-7.4-13.3h6.3l4.1,7.9l4-7.9h6.2l-12.4,23.1h-6.1L998.7,397.4z"/>
		<path class="st18" d="M1023.5,378.2c0-0.4,0.1-0.8,0.2-1.2c0.2-0.4,0.4-0.7,0.7-1s0.6-0.5,1-0.7c0.4-0.2,0.8-0.2,1.2-0.2
			s0.8,0.1,1.2,0.2c0.4,0.2,0.7,0.4,1,0.7s0.5,0.6,0.7,1c0.2,0.4,0.2,0.8,0.2,1.2s-0.1,0.8-0.2,1.2c-0.2,0.4-0.4,0.7-0.7,1
			s-0.6,0.5-1,0.7c-0.4,0.2-0.8,0.2-1.2,0.2s-0.8-0.1-1.2-0.2c-0.4-0.2-0.7-0.4-1-0.7s-0.5-0.6-0.7-1
			C1023.6,379.1,1023.5,378.7,1023.5,378.2z M1029.3,384.2v15.4h-5.4v-15.4H1029.3z"/>
	</g>
	<g class="st34">
		<path class="st18" d="M1033.1,384.2h5.4v1.9c1.5-1.4,3.1-2.1,5-2.1c2.3,0,4,1,5.2,2.9c1.2-1.9,3-2.9,5.2-2.9c0.7,0,1.4,0.1,2,0.3
			c0.6,0.2,1.2,0.5,1.6,1c0.5,0.5,0.8,1,1.1,1.8c0.3,0.7,0.4,1.6,0.4,2.6v10h-5.4V392c0-0.8-0.1-1.4-0.2-1.9
			c-0.1-0.5-0.3-0.9-0.5-1.2s-0.5-0.5-0.7-0.6c-0.3-0.1-0.6-0.2-0.9-0.2c-1.7,0-2.6,1.3-2.6,3.8v7.6h-5.4V392c0-0.8,0-1.4-0.1-1.9
			c-0.1-0.5-0.2-0.9-0.4-1.2s-0.4-0.5-0.7-0.6c-0.3-0.1-0.7-0.2-1.1-0.2c-0.3,0-0.7,0-1,0.1c-0.3,0.1-0.6,0.3-0.8,0.6
			c-0.2,0.3-0.4,0.7-0.5,1.2s-0.2,1.2-0.2,2v7.6h-5.4V384.2z"/>
	</g>
	<g class="st34">
		<path class="st18" d="M1068.8,407.2h-5.4v-23.1h5.4v1.7c1.2-1.5,2.7-2.2,4.7-2.2c1.1,0,2.1,0.2,3.1,0.6c0.9,0.4,1.8,1,2.5,1.8
			c0.7,0.7,1.2,1.6,1.6,2.6c0.4,1,0.6,2.1,0.6,3.2c0,1.1-0.2,2.2-0.6,3.2c-0.4,1-0.9,1.8-1.6,2.6c-0.7,0.7-1.5,1.3-2.4,1.7
			c-0.9,0.4-2,0.6-3.1,0.6c-1.9,0-3.5-0.7-4.8-2V407.2z M1075.6,391.9c0-0.5-0.1-0.9-0.3-1.4c-0.2-0.4-0.4-0.8-0.7-1.1
			c-0.3-0.3-0.7-0.6-1.1-0.8c-0.4-0.2-0.9-0.3-1.4-0.3c-0.5,0-0.9,0.1-1.4,0.3s-0.8,0.4-1.1,0.8c-0.3,0.3-0.6,0.7-0.8,1.1
			c-0.2,0.4-0.3,0.9-0.3,1.4c0,0.5,0.1,0.9,0.3,1.3s0.4,0.8,0.8,1.1c0.3,0.3,0.7,0.6,1.1,0.8c0.4,0.2,0.9,0.3,1.4,0.3
			c0.5,0,0.9-0.1,1.3-0.3c0.4-0.2,0.8-0.4,1.1-0.8c0.3-0.3,0.6-0.7,0.8-1.1C1075.5,392.8,1075.6,392.4,1075.6,391.9z"/>
	</g>
	<g class="st34">
		<path class="st18" d="M1084.4,384.2h5.4v2.5c0.6-0.9,1.3-1.6,2.1-2.1c0.8-0.5,1.8-0.7,2.9-0.7c0.1,0,0.3,0,0.5,0
			c0.2,0,0.4,0,0.6,0.1v5.2c-0.7-0.4-1.5-0.5-2.3-0.5c-1.3,0-2.2,0.4-2.8,1.1c-0.6,0.8-0.9,1.8-0.9,3.3v6.6h-5.4V384.2z"/>
	</g>
	<g class="st34">
		<path class="st18" d="M1103.4,392.8c0,2.3,1.1,3.5,3.3,3.5c1.2,0,2.1-0.5,2.7-1.4h5.2c-1.1,3.5-3.7,5.3-8,5.3
			c-1.3,0-2.5-0.2-3.6-0.6c-1.1-0.4-2-0.9-2.8-1.7c-0.8-0.7-1.4-1.6-1.8-2.6s-0.6-2.1-0.6-3.4c0-1.3,0.2-2.4,0.6-3.5
			c0.4-1,1-1.9,1.7-2.6s1.6-1.3,2.7-1.7c1-0.4,2.2-0.6,3.6-0.6c1.3,0,2.5,0.2,3.5,0.6s1.9,1,2.6,1.7c0.7,0.7,1.3,1.6,1.6,2.7
			s0.6,2.3,0.6,3.6v0.6H1103.4z M1109.8,389.6c-0.2-0.8-0.5-1.4-1.1-1.8c-0.6-0.5-1.2-0.7-2-0.7c-0.8,0-1.5,0.2-2.1,0.7
			c-0.5,0.4-0.9,1.1-1,1.9H1109.8z"/>
		<path class="st18" d="M1128.2,388.1c-1-0.5-2-0.8-2.9-0.8c-0.5,0-0.9,0.1-1.2,0.3c-0.3,0.2-0.5,0.5-0.5,0.8c0,0.2,0,0.3,0.1,0.4
			c0,0.1,0.2,0.2,0.3,0.3c0.2,0.1,0.4,0.2,0.8,0.3c0.3,0.1,0.8,0.2,1.3,0.3c1.5,0.3,2.6,0.8,3.4,1.6s1.1,1.8,1.1,3
			c0,0.9-0.2,1.7-0.5,2.4s-0.9,1.3-1.5,1.8c-0.6,0.5-1.4,0.9-2.3,1.1c-0.9,0.3-1.9,0.4-3,0.4c-2.1,0-4.1-0.6-6.1-1.8l2-3.8
			c1.5,1,3,1.6,4.3,1.6c0.5,0,0.9-0.1,1.2-0.3c0.3-0.2,0.5-0.5,0.5-0.8c0-0.2,0-0.4-0.1-0.5s-0.2-0.2-0.3-0.4
			c-0.2-0.1-0.4-0.2-0.7-0.3c-0.3-0.1-0.7-0.2-1.2-0.3c-1.7-0.3-2.9-0.8-3.5-1.5c-0.7-0.7-1-1.6-1-2.8c0-0.9,0.2-1.6,0.5-2.3
			c0.3-0.7,0.8-1.3,1.4-1.8c0.6-0.5,1.3-0.8,2.2-1.1c0.8-0.3,1.8-0.4,2.8-0.4c1.7,0,3.3,0.3,5,1L1128.2,388.1z"/>
		<path class="st18" d="M1143.4,388.1c-1-0.5-2-0.8-2.9-0.8c-0.5,0-0.9,0.1-1.2,0.3c-0.3,0.2-0.5,0.5-0.5,0.8c0,0.2,0,0.3,0.1,0.4
			c0,0.1,0.2,0.2,0.3,0.3c0.2,0.1,0.4,0.2,0.8,0.3c0.3,0.1,0.8,0.2,1.3,0.3c1.5,0.3,2.6,0.8,3.4,1.6s1.1,1.8,1.1,3
			c0,0.9-0.2,1.7-0.5,2.4s-0.9,1.3-1.5,1.8c-0.6,0.5-1.4,0.9-2.3,1.1c-0.9,0.3-1.9,0.4-3,0.4c-2.1,0-4.1-0.6-6.1-1.8l2-3.8
			c1.5,1,3,1.6,4.3,1.6c0.5,0,0.9-0.1,1.2-0.3c0.3-0.2,0.5-0.5,0.5-0.8c0-0.2,0-0.4-0.1-0.5s-0.2-0.2-0.3-0.4
			c-0.2-0.1-0.4-0.2-0.7-0.3c-0.3-0.1-0.7-0.2-1.2-0.3c-1.7-0.3-2.9-0.8-3.5-1.5c-0.7-0.7-1-1.6-1-2.8c0-0.9,0.2-1.6,0.5-2.3
			c0.3-0.7,0.8-1.3,1.4-1.8c0.6-0.5,1.3-0.8,2.2-1.1c0.8-0.3,1.8-0.4,2.8-0.4c1.7,0,3.3,0.3,5,1L1143.4,388.1z"/>
		<path class="st18" d="M1153.4,392.8c0,2.3,1.1,3.5,3.3,3.5c1.2,0,2.1-0.5,2.7-1.4h5.2c-1.1,3.5-3.7,5.3-8,5.3
			c-1.3,0-2.5-0.2-3.6-0.6c-1.1-0.4-2-0.9-2.8-1.7c-0.8-0.7-1.4-1.6-1.8-2.6s-0.6-2.1-0.6-3.4c0-1.3,0.2-2.4,0.6-3.5s1-1.9,1.7-2.6
			c0.7-0.7,1.6-1.3,2.7-1.7s2.2-0.6,3.6-0.6c1.3,0,2.5,0.2,3.5,0.6c1,0.4,1.9,1,2.6,1.7s1.3,1.6,1.6,2.7c0.4,1.1,0.6,2.3,0.6,3.6
			v0.6H1153.4z M1159.7,389.6c-0.2-0.8-0.5-1.4-1.1-1.8c-0.6-0.5-1.2-0.7-2-0.7c-0.8,0-1.5,0.2-2.1,0.7c-0.5,0.4-0.9,1.1-1,1.9
			H1159.7z"/>
		<path class="st18" d="M1179.8,374.6h5.5v24.9h-5.5v-1.7c-1.2,1.5-2.7,2.2-4.7,2.2c-1.1,0-2.2-0.2-3.1-0.6c-0.9-0.4-1.8-1-2.5-1.7
			s-1.2-1.6-1.6-2.6s-0.6-2.1-0.6-3.2c0-1.1,0.2-2.1,0.6-3.1s0.9-1.9,1.6-2.6c0.7-0.7,1.5-1.3,2.4-1.8c1-0.4,2-0.6,3.1-0.6
			c1.9,0,3.5,0.7,4.8,2V374.6z M1172.9,391.8c0,0.5,0.1,1,0.3,1.4s0.4,0.8,0.7,1.1s0.7,0.6,1.1,0.8c0.4,0.2,0.9,0.3,1.4,0.3
			c0.5,0,0.9-0.1,1.4-0.3c0.4-0.2,0.8-0.4,1.1-0.8c0.3-0.3,0.6-0.7,0.8-1.1c0.2-0.4,0.3-0.9,0.3-1.3c0-0.5-0.1-0.9-0.3-1.4
			c-0.2-0.4-0.4-0.8-0.8-1.1c-0.3-0.3-0.7-0.6-1.1-0.8s-0.9-0.3-1.4-0.3c-0.5,0-0.9,0.1-1.4,0.3c-0.4,0.2-0.8,0.4-1.1,0.8
			c-0.3,0.3-0.6,0.7-0.8,1.1C1173,390.9,1172.9,391.3,1172.9,391.8z"/>
	</g>
	<g class="st34">
		<path class="st18" d="M731.3,424.7v10.9h-5.4v-10.9h-1.8v-4.5h1.8v-4.6h5.4v4.6h3.1v4.5H731.3z"/>
	</g>
	<g class="st34">
		<path class="st18" d="M737.2,410.6h5.4v11.5c0.7-0.9,1.5-1.5,2.2-1.8c0.8-0.3,1.6-0.5,2.7-0.5c1.9,0,3.4,0.5,4.4,1.6
			c1,1.1,1.5,2.5,1.5,4.3v9.8H748v-7.8c0-0.8-0.1-1.4-0.2-1.9c-0.1-0.5-0.3-0.8-0.6-1.1c-0.5-0.4-1.1-0.6-1.7-0.6
			c-0.9,0-1.6,0.3-2.1,0.8c-0.5,0.6-0.7,1.3-0.7,2.4v8.2h-5.4V410.6z"/>
		<path class="st18" d="M769,420.2h5.5v15.4H769v-1.7c-1.2,1.5-2.7,2.2-4.7,2.2c-1.1,0-2.1-0.2-3.1-0.6c-0.9-0.4-1.8-1-2.5-1.7
			c-0.7-0.7-1.2-1.6-1.6-2.6c-0.4-1-0.6-2.1-0.6-3.3c0-1.1,0.2-2.1,0.6-3.1c0.4-1,0.9-1.9,1.6-2.6c0.7-0.7,1.5-1.3,2.4-1.8
			c0.9-0.4,2-0.6,3.1-0.6c1.9,0,3.5,0.7,4.8,2V420.2z M762.1,427.8c0,0.5,0.1,1,0.3,1.4c0.2,0.4,0.4,0.8,0.7,1.1s0.7,0.6,1.1,0.8
			c0.4,0.2,0.9,0.3,1.4,0.3c0.5,0,0.9-0.1,1.4-0.3c0.4-0.2,0.8-0.4,1.1-0.8s0.6-0.7,0.8-1.1s0.3-0.9,0.3-1.3c0-0.5-0.1-0.9-0.3-1.4
			c-0.2-0.4-0.4-0.8-0.8-1.1c-0.3-0.3-0.7-0.6-1.1-0.8s-0.9-0.3-1.4-0.3c-0.5,0-1,0.1-1.4,0.3c-0.4,0.2-0.8,0.4-1.1,0.8
			c-0.3,0.3-0.6,0.7-0.7,1.1C762.2,426.9,762.1,427.3,762.1,427.8z"/>
		<path class="st18" d="M784.2,424.7v10.9h-5.4v-10.9h-1.8v-4.5h1.8v-4.6h5.4v4.6h3.1v4.5H784.2z"/>
	</g>
	<g class="st34">
		<path class="st18" d="M805.1,433.4l-7.4-13.3h6.3l4.1,7.9l4-7.9h6.2l-12.4,23.1h-6.1L805.1,433.4z"/>
	</g>
	<g class="st34">
		<path class="st18" d="M818.7,427.7c0-1.1,0.2-2.2,0.7-3.2c0.5-1,1.1-1.8,1.9-2.6c0.8-0.7,1.8-1.3,2.9-1.7s2.4-0.6,3.7-0.6
			c1.3,0,2.5,0.2,3.7,0.6s2.1,1,2.9,1.7c0.8,0.7,1.5,1.6,1.9,2.6c0.5,1,0.7,2.1,0.7,3.3s-0.2,2.3-0.7,3.3c-0.5,1-1.1,1.9-1.9,2.6
			c-0.8,0.7-1.8,1.3-3,1.7c-1.2,0.4-2.4,0.6-3.7,0.6c-1.3,0-2.5-0.2-3.7-0.6c-1.1-0.4-2.1-1-2.9-1.7c-0.8-0.7-1.4-1.6-1.9-2.7
			C818.9,430.1,818.7,429,818.7,427.7z M824.5,427.8c0,0.5,0.1,1,0.3,1.4c0.2,0.4,0.4,0.8,0.8,1.1s0.7,0.6,1.1,0.8
			c0.4,0.2,0.9,0.3,1.4,0.3s0.9-0.1,1.4-0.3c0.4-0.2,0.8-0.4,1.1-0.8c0.3-0.3,0.6-0.7,0.8-1.1c0.2-0.4,0.3-0.9,0.3-1.4
			c0-0.5-0.1-0.9-0.3-1.4c-0.2-0.4-0.4-0.8-0.8-1.1c-0.3-0.3-0.7-0.6-1.1-0.8c-0.4-0.2-0.9-0.3-1.4-0.3s-0.9,0.1-1.4,0.3
			c-0.4,0.2-0.8,0.4-1.1,0.8c-0.3,0.3-0.6,0.7-0.8,1.1C824.5,426.8,824.5,427.3,824.5,427.8z"/>
	</g>
	<g class="st34">
		<path class="st18" d="M845.8,420.2v8.7c0,1.9,0.9,2.8,2.8,2.8c1.8,0,2.8-0.9,2.8-2.8v-8.7h5.4v9.7c0,2.1-0.7,3.6-2.1,4.7
			c-1.4,1-3.4,1.6-6.1,1.6s-4.8-0.5-6.1-1.6c-1.4-1-2.1-2.6-2.1-4.7v-9.7H845.8z"/>
	</g>
	<g class="st34">
		<path class="st18" d="M864.4,412.9h5.1l-5.5,10h-3.5L864.4,412.9z"/>
	</g>
	<g class="st34">
		<path class="st18" d="M877.4,420.2l3.7,7.9l3.7-7.9h6.1l-8,15.4h-3.6l-7.9-15.4H877.4z"/>
	</g>
	<g class="st34">
		<path class="st18" d="M896.8,428.8c0,2.3,1.1,3.5,3.3,3.5c1.2,0,2.1-0.5,2.7-1.4h5.2c-1.1,3.5-3.7,5.3-8,5.3
			c-1.3,0-2.5-0.2-3.6-0.6c-1.1-0.4-2-0.9-2.8-1.7c-0.8-0.7-1.4-1.6-1.8-2.6s-0.6-2.1-0.6-3.4c0-1.3,0.2-2.4,0.6-3.5
			c0.4-1,1-1.9,1.7-2.6s1.6-1.3,2.7-1.7c1.1-0.4,2.2-0.6,3.6-0.6c1.3,0,2.5,0.2,3.5,0.6s1.9,1,2.6,1.7c0.7,0.7,1.3,1.6,1.6,2.7
			s0.6,2.3,0.6,3.6v0.6H896.8z M903.2,425.6c-0.2-0.8-0.6-1.4-1.1-1.8c-0.6-0.5-1.2-0.7-2-0.7c-0.8,0-1.5,0.2-2.1,0.7
			c-0.5,0.4-0.9,1.1-1,1.9H903.2z"/>
		<path class="st18" d="M933.4,420.2h5.5v15.4h-5.5v-1.7c-1.2,1.5-2.7,2.2-4.7,2.2c-1.1,0-2.1-0.2-3.1-0.6c-0.9-0.4-1.8-1-2.5-1.7
			c-0.7-0.7-1.2-1.6-1.6-2.6c-0.4-1-0.6-2.1-0.6-3.3c0-1.1,0.2-2.1,0.6-3.1c0.4-1,0.9-1.9,1.6-2.6c0.7-0.7,1.5-1.3,2.4-1.8
			c0.9-0.4,2-0.6,3.1-0.6c1.9,0,3.5,0.7,4.8,2V420.2z M926.6,427.8c0,0.5,0.1,1,0.3,1.4c0.2,0.4,0.4,0.8,0.7,1.1s0.7,0.6,1.1,0.8
			c0.4,0.2,0.9,0.3,1.4,0.3c0.5,0,0.9-0.1,1.4-0.3c0.4-0.2,0.8-0.4,1.1-0.8s0.6-0.7,0.8-1.1s0.3-0.9,0.3-1.3c0-0.5-0.1-0.9-0.3-1.4
			c-0.2-0.4-0.4-0.8-0.8-1.1c-0.3-0.3-0.7-0.6-1.1-0.8s-0.9-0.3-1.4-0.3c-0.5,0-1,0.1-1.4,0.3c-0.4,0.2-0.8,0.4-1.1,0.8
			c-0.3,0.3-0.6,0.7-0.7,1.1C926.7,426.9,926.6,427.3,926.6,427.8z"/>
		<path class="st18" d="M954.2,425.1c-0.9-0.6-1.9-1-2.9-1c-0.5,0-1,0.1-1.5,0.3c-0.5,0.2-0.8,0.4-1.2,0.8c-0.3,0.3-0.6,0.7-0.8,1.2
			c-0.2,0.5-0.3,1-0.3,1.5c0,0.5,0.1,1,0.3,1.5c0.2,0.5,0.4,0.8,0.8,1.2s0.7,0.6,1.2,0.8c0.5,0.2,0.9,0.3,1.5,0.3c1,0,2-0.3,2.9-1
			v4.6c-1.3,0.6-2.6,0.9-3.8,0.9c-1.1,0-2.2-0.2-3.2-0.6s-1.9-0.9-2.7-1.6c-0.8-0.7-1.4-1.6-1.8-2.6c-0.5-1-0.7-2.1-0.7-3.3
			s0.2-2.3,0.7-3.3s1-1.9,1.8-2.6c0.8-0.7,1.7-1.3,2.7-1.7c1-0.4,2.2-0.6,3.4-0.6c1.3,0,2.5,0.3,3.7,0.8V425.1z"/>
		<path class="st18" d="M963.3,424.7v10.9h-5.4v-10.9h-1.8v-4.5h1.8v-4.6h5.4v4.6h3.1v4.5H963.3z"/>
		<path class="st18" d="M973.9,420.2v8.7c0,1.9,0.9,2.8,2.8,2.8s2.8-0.9,2.8-2.8v-8.7h5.4v9.7c0,2.1-0.7,3.6-2.1,4.7
			c-1.4,1-3.4,1.6-6.1,1.6s-4.8-0.5-6.1-1.6c-1.4-1-2.1-2.6-2.1-4.7v-9.7H973.9z"/>
		<path class="st18" d="M1000.4,420.2h5.5v15.4h-5.5v-1.7c-1.2,1.5-2.7,2.2-4.7,2.2c-1.1,0-2.1-0.2-3.1-0.6c-0.9-0.4-1.8-1-2.5-1.7
			c-0.7-0.7-1.2-1.6-1.6-2.6s-0.6-2.1-0.6-3.3c0-1.1,0.2-2.1,0.6-3.1c0.4-1,0.9-1.9,1.6-2.6c0.7-0.7,1.5-1.3,2.4-1.8
			c0.9-0.4,2-0.6,3.1-0.6c1.9,0,3.5,0.7,4.8,2V420.2z M993.6,427.8c0,0.5,0.1,1,0.3,1.4s0.4,0.8,0.7,1.1c0.3,0.3,0.7,0.6,1.1,0.8
			c0.4,0.2,0.9,0.3,1.4,0.3c0.5,0,0.9-0.1,1.4-0.3c0.4-0.2,0.8-0.4,1.1-0.8c0.3-0.3,0.6-0.7,0.8-1.1c0.2-0.4,0.3-0.9,0.3-1.3
			c0-0.5-0.1-0.9-0.3-1.4c-0.2-0.4-0.4-0.8-0.8-1.1c-0.3-0.3-0.7-0.6-1.1-0.8c-0.4-0.2-0.9-0.3-1.4-0.3c-0.5,0-1,0.1-1.4,0.3
			c-0.4,0.2-0.8,0.4-1.1,0.8c-0.3,0.3-0.6,0.7-0.7,1.1C993.7,426.9,993.6,427.3,993.6,427.8z"/>
		<path class="st18" d="M1015,410.6v24.9h-5.4v-24.9H1015z"/>
	</g>
	<g class="st34">
		<path class="st18" d="M1024.2,410.6v24.9h-5.4v-24.9H1024.2z"/>
	</g>
	<g class="st34">
		<path class="st18" d="M1033.8,433.4l-7.4-13.3h6.3l4.1,7.9l4-7.9h6.2l-12.4,23.1h-6.1L1033.8,433.4z"/>
		<path class="st18" d="M1059,420.2h5.4v1.9c1.5-1.4,3.1-2.1,5-2.1c2.3,0,4,1,5.2,2.9c1.2-1.9,3-2.9,5.2-2.9c0.7,0,1.4,0.1,2,0.3
			s1.2,0.5,1.7,1c0.5,0.5,0.8,1,1.1,1.8c0.3,0.7,0.4,1.6,0.4,2.6v10h-5.4V428c0-0.8-0.1-1.4-0.2-1.9c-0.1-0.5-0.3-0.9-0.5-1.2
			s-0.5-0.5-0.7-0.6c-0.3-0.1-0.6-0.2-0.9-0.2c-1.7,0-2.6,1.3-2.6,3.8v7.6h-5.4V428c0-0.8-0.1-1.4-0.2-1.9c-0.1-0.5-0.2-0.9-0.4-1.2
			c-0.2-0.3-0.4-0.5-0.7-0.6c-0.3-0.1-0.7-0.2-1-0.2c-0.3,0-0.7,0-1,0.1c-0.3,0.1-0.6,0.3-0.8,0.6c-0.2,0.3-0.4,0.7-0.5,1.2
			c-0.1,0.5-0.2,1.2-0.2,2v7.6h-5.4V420.2z"/>
		<path class="st18" d="M1100.7,420.2h5.5v15.4h-5.5v-1.7c-1.2,1.5-2.7,2.2-4.7,2.2c-1.1,0-2.2-0.2-3.1-0.6c-0.9-0.4-1.8-1-2.5-1.7
			c-0.7-0.7-1.2-1.6-1.6-2.6c-0.4-1-0.6-2.1-0.6-3.3c0-1.1,0.2-2.1,0.6-3.1s0.9-1.9,1.6-2.6s1.5-1.3,2.4-1.8c0.9-0.4,2-0.6,3.1-0.6
			c1.9,0,3.5,0.7,4.8,2V420.2z M1093.8,427.8c0,0.5,0.1,1,0.3,1.4c0.2,0.4,0.4,0.8,0.7,1.1c0.3,0.3,0.7,0.6,1.1,0.8
			c0.4,0.2,0.9,0.3,1.4,0.3c0.5,0,0.9-0.1,1.4-0.3c0.4-0.2,0.8-0.4,1.1-0.8c0.3-0.3,0.6-0.7,0.8-1.1c0.2-0.4,0.3-0.9,0.3-1.3
			c0-0.5-0.1-0.9-0.3-1.4c-0.2-0.4-0.4-0.8-0.8-1.1c-0.3-0.3-0.7-0.6-1.1-0.8c-0.4-0.2-0.9-0.3-1.4-0.3c-0.5,0-1,0.1-1.4,0.3
			c-0.4,0.2-0.8,0.4-1.1,0.8c-0.3,0.3-0.6,0.7-0.7,1.1C1093.9,426.9,1093.8,427.3,1093.8,427.8z"/>
		<path class="st18" d="M1109.8,420.2h5.4v1.9c0.7-0.9,1.5-1.5,2.2-1.8c0.8-0.3,1.6-0.5,2.7-0.5c1.1,0,2,0.2,2.8,0.5
			c0.8,0.4,1.4,0.8,2,1.5c0.4,0.5,0.7,1.1,0.9,1.7s0.2,1.4,0.2,2.2v9.8h-5.4v-7.8c0-0.8-0.1-1.4-0.2-1.8c-0.1-0.5-0.3-0.8-0.6-1.1
			c-0.2-0.2-0.5-0.4-0.8-0.5c-0.3-0.1-0.6-0.2-1-0.2c-0.9,0-1.6,0.3-2.1,0.8c-0.5,0.6-0.7,1.3-0.7,2.4v8.2h-5.4V420.2z"/>
		<path class="st18" d="M1141.6,420.2h5.5v15.4h-5.5v-1.7c-1.2,1.5-2.7,2.2-4.7,2.2c-1.1,0-2.2-0.2-3.1-0.6c-0.9-0.4-1.8-1-2.5-1.7
			c-0.7-0.7-1.2-1.6-1.6-2.6c-0.4-1-0.6-2.1-0.6-3.3c0-1.1,0.2-2.1,0.6-3.1s0.9-1.9,1.6-2.6s1.5-1.3,2.4-1.8c0.9-0.4,2-0.6,3.1-0.6
			c1.9,0,3.5,0.7,4.8,2V420.2z M1134.8,427.8c0,0.5,0.1,1,0.3,1.4c0.2,0.4,0.4,0.8,0.7,1.1c0.3,0.3,0.7,0.6,1.1,0.8
			c0.4,0.2,0.9,0.3,1.4,0.3c0.5,0,0.9-0.1,1.4-0.3c0.4-0.2,0.8-0.4,1.1-0.8c0.3-0.3,0.6-0.7,0.8-1.1c0.2-0.4,0.3-0.9,0.3-1.3
			c0-0.5-0.1-0.9-0.3-1.4c-0.2-0.4-0.4-0.8-0.8-1.1c-0.3-0.3-0.7-0.6-1.1-0.8c-0.4-0.2-0.9-0.3-1.4-0.3c-0.5,0-1,0.1-1.4,0.3
			c-0.4,0.2-0.8,0.4-1.1,0.8c-0.3,0.3-0.6,0.7-0.7,1.1C1134.9,426.9,1134.8,427.3,1134.8,427.8z"/>
	</g>
	<g class="st34">
		<path class="st18" d="M1168,420.2v14.3c0,0.9-0.1,1.6-0.2,2.3c-0.1,0.7-0.2,1.3-0.4,1.8c-0.2,0.7-0.6,1.3-1.1,1.8
			c-0.5,0.6-1.1,1.1-1.8,1.5c-0.7,0.4-1.5,0.8-2.4,1s-1.9,0.4-3,0.4c-1.2,0-2.3-0.2-3.3-0.5s-1.9-0.7-2.6-1.2
			c-0.8-0.5-1.4-1.2-1.8-1.9c-0.5-0.7-0.8-1.5-1-2.3h6.1c0.4,1,1.2,1.5,2.6,1.5c1.1,0,2-0.3,2.6-1c0.6-0.6,0.9-1.5,0.9-2.7v-1.5
			c-0.4,0.4-0.8,0.7-1.2,0.9c-0.4,0.2-0.7,0.5-1.1,0.6c-0.4,0.2-0.8,0.3-1.2,0.3c-0.4,0.1-0.9,0.1-1.4,0.1c-1.1,0-2.1-0.2-3-0.6
			c-0.9-0.4-1.7-0.9-2.4-1.6c-0.7-0.7-1.2-1.5-1.6-2.4s-0.6-2-0.6-3.2c0-1.2,0.2-2.3,0.6-3.3s0.9-1.9,1.6-2.6
			c0.7-0.8,1.5-1.3,2.5-1.8c0.9-0.4,2-0.6,3.1-0.6c1.8,0,3.3,0.7,4.6,2v-1.6H1168z M1155.8,427.8c0,0.5,0.1,1,0.3,1.4
			c0.2,0.4,0.4,0.8,0.7,1.1c0.3,0.3,0.7,0.6,1.1,0.8c0.4,0.2,0.9,0.3,1.4,0.3c0.5,0,0.9-0.1,1.4-0.3c0.4-0.2,0.8-0.4,1.1-0.8
			c0.3-0.3,0.6-0.7,0.8-1.1c0.2-0.4,0.3-0.9,0.3-1.4c0-0.5-0.1-1-0.3-1.4c-0.2-0.4-0.4-0.8-0.8-1.1c-0.3-0.3-0.7-0.6-1.1-0.8
			c-0.4-0.2-0.9-0.3-1.3-0.3c-0.5,0-0.9,0.1-1.4,0.3s-0.8,0.4-1.1,0.8c-0.3,0.3-0.6,0.7-0.8,1.1S1155.8,427.3,1155.8,427.8z"/>
	</g>
	<g class="st34">
		<path class="st18" d="M1176.9,428.8c0,2.3,1.1,3.5,3.3,3.5c1.2,0,2.1-0.5,2.7-1.4h5.2c-1.1,3.5-3.7,5.3-8,5.3
			c-1.3,0-2.5-0.2-3.6-0.6c-1.1-0.4-2-0.9-2.8-1.7c-0.8-0.7-1.4-1.6-1.8-2.6s-0.6-2.1-0.6-3.4c0-1.3,0.2-2.4,0.6-3.5
			c0.4-1,1-1.9,1.7-2.6c0.7-0.7,1.6-1.3,2.7-1.7c1.1-0.4,2.2-0.6,3.6-0.6c1.3,0,2.5,0.2,3.5,0.6s1.9,1,2.6,1.7
			c0.7,0.7,1.3,1.6,1.7,2.7s0.6,2.3,0.6,3.6v0.6H1176.9z M1183.3,425.6c-0.2-0.8-0.6-1.4-1.1-1.8s-1.2-0.7-2-0.7
			c-0.8,0-1.5,0.2-2.1,0.7c-0.5,0.4-0.9,1.1-1,1.9H1183.3z"/>
		<path class="st18" d="M1203.3,410.6h5.5v24.9h-5.5v-1.7c-1.2,1.5-2.7,2.2-4.7,2.2c-1.1,0-2.1-0.2-3.1-0.6s-1.8-1-2.5-1.7
			s-1.2-1.6-1.6-2.6s-0.6-2.1-0.6-3.2c0-1.1,0.2-2.1,0.6-3.1s0.9-1.9,1.6-2.6s1.5-1.3,2.4-1.8c0.9-0.4,2-0.6,3.1-0.6
			c1.9,0,3.5,0.7,4.8,2V410.6z M1196.5,427.8c0,0.5,0.1,1,0.3,1.4s0.4,0.8,0.7,1.1c0.3,0.3,0.7,0.6,1.1,0.8c0.4,0.2,0.9,0.3,1.4,0.3
			c0.5,0,0.9-0.1,1.4-0.3c0.4-0.2,0.8-0.4,1.1-0.8c0.3-0.3,0.6-0.7,0.8-1.1c0.2-0.4,0.3-0.9,0.3-1.3c0-0.5-0.1-0.9-0.3-1.4
			c-0.2-0.4-0.4-0.8-0.8-1.1c-0.3-0.3-0.7-0.6-1.1-0.8c-0.4-0.2-0.9-0.3-1.4-0.3c-0.5,0-0.9,0.1-1.4,0.3c-0.4,0.2-0.8,0.4-1.1,0.8
			c-0.3,0.3-0.6,0.7-0.8,1.1C1196.6,426.9,1196.5,427.3,1196.5,427.8z"/>
	</g>
	<g class="st34">
		<path class="st18" d="M827,460.7v10.9h-5.4v-10.9h-1.8v-4.5h1.8v-4.6h5.4v4.6h3.1v4.5H827z"/>
	</g>
	<g class="st34">
		<path class="st18" d="M831.8,463.7c0-1.1,0.2-2.2,0.7-3.2c0.5-1,1.1-1.8,1.9-2.6c0.8-0.7,1.8-1.3,2.9-1.7s2.4-0.6,3.7-0.6
			c1.3,0,2.5,0.2,3.7,0.6s2.1,1,2.9,1.7s1.5,1.6,1.9,2.6c0.5,1,0.7,2.1,0.7,3.3s-0.2,2.3-0.7,3.3s-1.1,1.9-1.9,2.6
			c-0.8,0.7-1.8,1.3-3,1.7c-1.2,0.4-2.4,0.6-3.7,0.6c-1.3,0-2.5-0.2-3.7-0.6c-1.1-0.4-2.1-1-2.9-1.7c-0.8-0.7-1.4-1.6-1.9-2.7
			S831.8,465,831.8,463.7z M837.5,463.8c0,0.5,0.1,1,0.3,1.4c0.2,0.4,0.4,0.8,0.8,1.1c0.3,0.3,0.7,0.6,1.1,0.8
			c0.4,0.2,0.9,0.3,1.4,0.3c0.5,0,0.9-0.1,1.4-0.3c0.4-0.2,0.8-0.4,1.1-0.8c0.3-0.3,0.6-0.7,0.8-1.1c0.2-0.4,0.3-0.9,0.3-1.4
			c0-0.5-0.1-0.9-0.3-1.4c-0.2-0.4-0.4-0.8-0.8-1.1c-0.3-0.3-0.7-0.6-1.1-0.8c-0.4-0.2-0.9-0.3-1.4-0.3c-0.5,0-0.9,0.1-1.4,0.3
			c-0.4,0.2-0.8,0.4-1.1,0.8c-0.3,0.3-0.6,0.7-0.8,1.1C837.6,462.8,837.5,463.3,837.5,463.8z"/>
	</g>
	<g class="st34">
		<path class="st18" d="M869.6,460.7v10.9h-5.4v-10.9h-1.8v-4.5h1.8v-4.6h5.4v4.6h3.1v4.5H869.6z"/>
	</g>
	<g class="st34">
		<path class="st18" d="M886.9,456.2h5.5v15.4h-5.5v-1.7c-1.2,1.5-2.7,2.2-4.7,2.2c-1.1,0-2.1-0.2-3.1-0.6c-0.9-0.4-1.8-1-2.5-1.7
			c-0.7-0.7-1.2-1.6-1.6-2.6c-0.4-1-0.6-2.1-0.6-3.3c0-1.1,0.2-2.1,0.6-3.1c0.4-1,0.9-1.9,1.6-2.6c0.7-0.7,1.5-1.3,2.4-1.8
			c0.9-0.4,2-0.6,3.1-0.6c1.9,0,3.5,0.7,4.8,2V456.2z M880.1,463.8c0,0.5,0.1,1,0.3,1.4c0.2,0.4,0.4,0.8,0.7,1.1s0.7,0.6,1.1,0.8
			c0.4,0.2,0.9,0.3,1.4,0.3c0.5,0,0.9-0.1,1.4-0.3c0.4-0.2,0.8-0.4,1.1-0.8s0.6-0.7,0.8-1.1s0.3-0.9,0.3-1.3c0-0.5-0.1-0.9-0.3-1.4
			c-0.2-0.4-0.4-0.8-0.8-1.1c-0.3-0.3-0.7-0.6-1.1-0.8s-0.9-0.3-1.4-0.3c-0.5,0-1,0.1-1.4,0.3c-0.4,0.2-0.8,0.4-1.1,0.8
			c-0.3,0.3-0.6,0.7-0.7,1.1C880.2,462.9,880.1,463.3,880.1,463.8z"/>
	</g>
	<g class="st34">
		<path class="st18" d="M907.7,461.1c-0.9-0.6-1.9-1-2.9-1c-0.5,0-1,0.1-1.5,0.3c-0.5,0.2-0.8,0.4-1.2,0.8c-0.3,0.3-0.6,0.7-0.8,1.2
			c-0.2,0.5-0.3,1-0.3,1.5c0,0.5,0.1,1,0.3,1.5c0.2,0.5,0.4,0.8,0.8,1.2s0.7,0.6,1.2,0.8c0.5,0.2,0.9,0.3,1.5,0.3c1,0,2-0.3,2.9-1
			v4.6c-1.3,0.6-2.6,0.9-3.8,0.9c-1.1,0-2.2-0.2-3.2-0.6s-1.9-0.9-2.7-1.6c-0.8-0.7-1.4-1.6-1.8-2.6c-0.5-1-0.7-2.1-0.7-3.3
			s0.2-2.3,0.7-3.3s1-1.9,1.8-2.6c0.8-0.7,1.7-1.3,2.7-1.7c1-0.4,2.2-0.6,3.4-0.6c1.3,0,2.5,0.3,3.7,0.8V461.1z"/>
	</g>
	<g class="st34">
		<path class="st18" d="M917,446.6v15.1l5.7-5.5h7.4l-7.7,7.1l8.2,8.3h-7.6l-6-6.3v6.3h-5.4v-24.9H917z"/>
		<path class="st18" d="M937.9,446.6v24.9h-5.4v-24.9H937.9z"/>
		<path class="st18" d="M946.5,464.8c0,2.3,1.1,3.5,3.3,3.5c1.2,0,2.1-0.5,2.7-1.4h5.2c-1.1,3.5-3.7,5.3-8,5.3
			c-1.3,0-2.5-0.2-3.6-0.6c-1.1-0.4-2-0.9-2.8-1.7c-0.8-0.7-1.4-1.6-1.8-2.6s-0.6-2.1-0.6-3.4c0-1.3,0.2-2.4,0.6-3.5
			c0.4-1,1-1.9,1.7-2.6s1.6-1.3,2.7-1.7c1.1-0.4,2.2-0.6,3.6-0.6c1.3,0,2.5,0.2,3.5,0.6s1.9,1,2.6,1.7c0.7,0.7,1.3,1.6,1.6,2.7
			s0.6,2.3,0.6,3.6v0.6H946.5z M952.9,461.6c-0.2-0.8-0.6-1.4-1.1-1.8c-0.6-0.5-1.2-0.7-2-0.7c-0.8,0-1.5,0.2-2.1,0.7
			c-0.5,0.4-0.9,1.1-1,1.9H952.9z"/>
	</g>
	<g class="st34">
		<path class="st18" d="M977.3,460.7v10.9h-5.4v-10.9h-1.8v-4.5h1.8v-4.6h5.4v4.6h3.1v4.5H977.3z"/>
	</g>
	<g class="st34">
		<path class="st18" d="M983.1,446.6h5.4v11.5c0.7-0.9,1.5-1.5,2.2-1.8c0.8-0.3,1.7-0.5,2.7-0.5c1.9,0,3.4,0.5,4.4,1.6
			c1,1.1,1.5,2.5,1.5,4.3v9.8h-5.4v-7.8c0-0.8-0.1-1.4-0.2-1.9c-0.1-0.5-0.3-0.8-0.6-1.1c-0.5-0.4-1.1-0.6-1.7-0.6
			c-0.9,0-1.6,0.3-2.1,0.8c-0.5,0.6-0.7,1.3-0.7,2.4v8.2h-5.4V446.6z"/>
		<path class="st18" d="M1002.7,450.2c0-0.4,0.1-0.8,0.2-1.2c0.2-0.4,0.4-0.7,0.7-1s0.6-0.5,1-0.7c0.4-0.2,0.8-0.2,1.2-0.2
			s0.8,0.1,1.2,0.2c0.4,0.2,0.7,0.4,1,0.7s0.5,0.6,0.7,1c0.2,0.4,0.2,0.8,0.2,1.2s-0.1,0.8-0.2,1.2c-0.2,0.4-0.4,0.7-0.7,1
			s-0.6,0.5-1,0.7c-0.4,0.2-0.8,0.2-1.2,0.2s-0.8-0.1-1.2-0.2c-0.4-0.2-0.7-0.4-1-0.7s-0.5-0.6-0.7-1
			C1002.8,451.1,1002.7,450.7,1002.7,450.2z M1008.5,456.2v15.4h-5.4v-15.4H1008.5z"/>
		<path class="st18" d="M1022.4,460.1c-1-0.5-2-0.8-2.9-0.8c-0.5,0-0.9,0.1-1.2,0.3c-0.3,0.2-0.5,0.5-0.5,0.8c0,0.2,0,0.3,0.1,0.4
			c0,0.1,0.2,0.2,0.3,0.3c0.2,0.1,0.4,0.2,0.8,0.3c0.3,0.1,0.8,0.2,1.3,0.3c1.5,0.3,2.6,0.8,3.4,1.6c0.7,0.8,1.1,1.8,1.1,3
			c0,0.9-0.2,1.7-0.5,2.4c-0.4,0.7-0.9,1.3-1.5,1.8c-0.6,0.5-1.4,0.9-2.3,1.1c-0.9,0.3-1.9,0.4-3,0.4c-2.1,0-4.1-0.6-6.1-1.8l2-3.8
			c1.5,1,3,1.6,4.3,1.6c0.5,0,0.9-0.1,1.2-0.3c0.3-0.2,0.5-0.5,0.5-0.8c0-0.2,0-0.4-0.1-0.5s-0.2-0.2-0.3-0.4
			c-0.2-0.1-0.4-0.2-0.7-0.3c-0.3-0.1-0.7-0.2-1.2-0.3c-1.7-0.3-2.9-0.8-3.5-1.5c-0.7-0.7-1-1.6-1-2.8c0-0.9,0.2-1.6,0.5-2.3
			c0.3-0.7,0.8-1.3,1.4-1.8c0.6-0.5,1.3-0.8,2.2-1.1c0.8-0.3,1.8-0.4,2.8-0.4c1.7,0,3.3,0.3,5,1L1022.4,460.1z"/>
	</g>
	<g class="st34">
		<path class="st18" d="M1043.7,460.7v10.9h-5.4v-10.9h-1.8v-4.5h1.8v-4.6h5.4v4.6h3.1v4.5H1043.7z"/>
	</g>
	<g class="st34">
		<path class="st18" d="M1061,456.2h5.5v15.4h-5.5v-1.7c-1.2,1.5-2.7,2.2-4.7,2.2c-1.1,0-2.2-0.2-3.1-0.6c-0.9-0.4-1.8-1-2.5-1.7
			c-0.7-0.7-1.2-1.6-1.6-2.6c-0.4-1-0.6-2.1-0.6-3.3c0-1.1,0.2-2.1,0.6-3.1s0.9-1.9,1.6-2.6c0.7-0.7,1.5-1.3,2.4-1.8
			c0.9-0.4,2-0.6,3.1-0.6c1.9,0,3.5,0.7,4.8,2V456.2z M1054.2,463.8c0,0.5,0.1,1,0.3,1.4c0.2,0.4,0.4,0.8,0.7,1.1
			c0.3,0.3,0.7,0.6,1.1,0.8c0.4,0.2,0.9,0.3,1.4,0.3c0.5,0,0.9-0.1,1.4-0.3c0.4-0.2,0.8-0.4,1.1-0.8s0.6-0.7,0.8-1.1
			s0.3-0.9,0.3-1.3c0-0.5-0.1-0.9-0.3-1.4c-0.2-0.4-0.4-0.8-0.8-1.1c-0.3-0.3-0.7-0.6-1.1-0.8c-0.4-0.2-0.9-0.3-1.4-0.3
			c-0.5,0-1,0.1-1.4,0.3s-0.8,0.4-1.1,0.8c-0.3,0.3-0.6,0.7-0.7,1.1C1054.3,462.9,1054.2,463.3,1054.2,463.8z"/>
		<path class="st18" d="M1080.4,460.1c-1-0.5-2-0.8-2.9-0.8c-0.5,0-0.9,0.1-1.2,0.3c-0.3,0.2-0.5,0.5-0.5,0.8c0,0.2,0,0.3,0.1,0.4
			c0,0.1,0.2,0.2,0.3,0.3c0.2,0.1,0.4,0.2,0.8,0.3c0.3,0.1,0.8,0.2,1.3,0.3c1.5,0.3,2.6,0.8,3.4,1.6c0.7,0.8,1.1,1.8,1.1,3
			c0,0.9-0.2,1.7-0.5,2.4c-0.4,0.7-0.9,1.3-1.5,1.8c-0.6,0.5-1.4,0.9-2.3,1.1c-0.9,0.3-1.9,0.4-3,0.4c-2.1,0-4.1-0.6-6.1-1.8l2-3.8
			c1.5,1,3,1.6,4.3,1.6c0.5,0,0.9-0.1,1.2-0.3c0.3-0.2,0.5-0.5,0.5-0.8c0-0.2,0-0.4-0.1-0.5c0-0.1-0.2-0.2-0.3-0.4
			c-0.2-0.1-0.4-0.2-0.7-0.3s-0.7-0.2-1.2-0.3c-1.7-0.3-2.9-0.8-3.5-1.5c-0.7-0.7-1-1.6-1-2.8c0-0.9,0.2-1.6,0.5-2.3
			c0.3-0.7,0.8-1.3,1.4-1.8c0.6-0.5,1.3-0.8,2.2-1.1c0.9-0.3,1.8-0.4,2.8-0.4c1.7,0,3.3,0.3,5,1L1080.4,460.1z"/>
	</g>
	<g class="st34">
		<path class="st18" d="M1090.9,446.6v15.1l5.7-5.5h7.4l-7.7,7.1l8.2,8.3h-7.6l-6-6.3v6.3h-5.4v-24.9H1090.9z"/>
	</g>
	<g class="st34">
		<path class="st18" d="M1106.4,468.7c0-0.5,0.1-0.9,0.3-1.4c0.2-0.4,0.4-0.8,0.8-1.1c0.3-0.3,0.7-0.6,1.1-0.8s0.9-0.3,1.4-0.3
			s0.9,0.1,1.4,0.3c0.4,0.2,0.8,0.4,1.1,0.8c0.3,0.3,0.6,0.7,0.8,1.1c0.2,0.4,0.3,0.9,0.3,1.4c0,0.5-0.1,0.9-0.3,1.4
			c-0.2,0.4-0.4,0.8-0.8,1.1c-0.3,0.3-0.7,0.6-1.1,0.8c-0.4,0.2-0.9,0.3-1.4,0.3s-0.9-0.1-1.4-0.3c-0.4-0.2-0.8-0.4-1.1-0.8
			c-0.3-0.3-0.6-0.7-0.8-1.1C1106.5,469.6,1106.4,469.1,1106.4,468.7z"/>
	</g>
	<g class="st34">
		<path class="st18" d="M780.4,484.9v22.6h-5.9v-22.6H780.4z"/>
		<path class="st18" d="M794.8,482.6h5.4v11.5c0.7-0.9,1.5-1.5,2.2-1.8c0.8-0.3,1.6-0.5,2.7-0.5c1.9,0,3.4,0.5,4.4,1.6
			c1,1.1,1.5,2.5,1.5,4.3v9.8h-5.4v-7.8c0-0.8-0.1-1.4-0.2-1.9c-0.1-0.5-0.3-0.8-0.6-1.1c-0.5-0.4-1.1-0.6-1.7-0.6
			c-0.9,0-1.6,0.3-2.1,0.8c-0.5,0.6-0.7,1.3-0.7,2.4v8.2h-5.4V482.6z"/>
		<path class="st18" d="M814.1,499.7c0-1.1,0.2-2.2,0.7-3.2c0.5-1,1.1-1.8,1.9-2.6c0.8-0.7,1.8-1.3,2.9-1.7s2.4-0.6,3.7-0.6
			c1.3,0,2.5,0.2,3.7,0.6s2.1,1,2.9,1.7c0.8,0.7,1.5,1.6,1.9,2.6c0.5,1,0.7,2.1,0.7,3.3s-0.2,2.3-0.7,3.3c-0.5,1-1.1,1.9-1.9,2.6
			c-0.8,0.7-1.8,1.3-3,1.7c-1.2,0.4-2.4,0.6-3.7,0.6c-1.3,0-2.5-0.2-3.7-0.6c-1.1-0.4-2.1-1-2.9-1.7c-0.8-0.7-1.4-1.6-1.9-2.7
			C814.4,502.1,814.1,501,814.1,499.7z M819.9,499.8c0,0.5,0.1,1,0.3,1.4c0.2,0.4,0.4,0.8,0.8,1.1s0.7,0.6,1.1,0.8
			c0.4,0.2,0.9,0.3,1.4,0.3s0.9-0.1,1.4-0.3c0.4-0.2,0.8-0.4,1.1-0.8c0.3-0.3,0.6-0.7,0.8-1.1c0.2-0.4,0.3-0.9,0.3-1.4
			c0-0.5-0.1-0.9-0.3-1.4c-0.2-0.4-0.4-0.8-0.8-1.1c-0.3-0.3-0.7-0.6-1.1-0.8c-0.4-0.2-0.9-0.3-1.4-0.3s-0.9,0.1-1.4,0.3
			c-0.4,0.2-0.8,0.4-1.1,0.8c-0.3,0.3-0.6,0.7-0.8,1.1C820,498.8,819.9,499.3,819.9,499.8z"/>
		<path class="st18" d="M841.2,515.2h-5.4v-23.1h5.4v1.7c1.2-1.5,2.7-2.2,4.7-2.2c1.1,0,2.1,0.2,3.1,0.6c0.9,0.4,1.8,1,2.5,1.8
			c0.7,0.7,1.2,1.6,1.6,2.6c0.4,1,0.6,2.1,0.6,3.2c0,1.1-0.2,2.2-0.6,3.2c-0.4,1-0.9,1.8-1.6,2.6c-0.7,0.7-1.5,1.3-2.4,1.7
			c-0.9,0.4-2,0.6-3.1,0.6c-1.9,0-3.5-0.7-4.8-2V515.2z M848,499.9c0-0.5-0.1-0.9-0.3-1.4c-0.2-0.4-0.4-0.8-0.7-1.1
			c-0.3-0.3-0.7-0.6-1.1-0.8c-0.4-0.2-0.9-0.3-1.4-0.3c-0.5,0-0.9,0.1-1.4,0.3s-0.8,0.4-1.1,0.8c-0.3,0.3-0.6,0.7-0.8,1.1
			c-0.2,0.4-0.3,0.9-0.3,1.4c0,0.5,0.1,0.9,0.3,1.3c0.2,0.4,0.4,0.8,0.8,1.1c0.3,0.3,0.7,0.6,1.1,0.8c0.4,0.2,0.9,0.3,1.4,0.3
			s0.9-0.1,1.4-0.3c0.4-0.2,0.8-0.4,1.1-0.8c0.3-0.3,0.6-0.7,0.8-1.1C847.9,500.8,848,500.4,848,499.9z"/>
		<path class="st18" d="M861.7,500.8c0,2.3,1.1,3.5,3.3,3.5c1.2,0,2.1-0.5,2.7-1.4h5.2c-1.1,3.5-3.7,5.3-8,5.3
			c-1.3,0-2.5-0.2-3.6-0.6c-1.1-0.4-2-0.9-2.8-1.7c-0.8-0.7-1.4-1.6-1.8-2.6s-0.6-2.1-0.6-3.4c0-1.3,0.2-2.4,0.6-3.5
			c0.4-1,1-1.9,1.7-2.6s1.6-1.3,2.7-1.7c1.1-0.4,2.2-0.6,3.6-0.6c1.3,0,2.5,0.2,3.5,0.6s1.9,1,2.6,1.7c0.7,0.7,1.3,1.6,1.6,2.7
			s0.6,2.3,0.6,3.6v0.6H861.7z M868,497.6c-0.2-0.8-0.6-1.4-1.1-1.8c-0.6-0.5-1.2-0.7-2-0.7c-0.8,0-1.5,0.2-2.1,0.7
			c-0.5,0.4-0.9,1.1-1,1.9H868z"/>
		<path class="st18" d="M886,486.2c0-0.4,0.1-0.8,0.2-1.2c0.2-0.4,0.4-0.7,0.7-1c0.3-0.3,0.6-0.5,1-0.7c0.4-0.2,0.8-0.2,1.2-0.2
			s0.8,0.1,1.2,0.2c0.4,0.2,0.7,0.4,1,0.7c0.3,0.3,0.5,0.6,0.7,1c0.2,0.4,0.2,0.8,0.2,1.2s-0.1,0.8-0.2,1.2c-0.2,0.4-0.4,0.7-0.7,1
			c-0.3,0.3-0.6,0.5-1,0.7c-0.4,0.2-0.8,0.2-1.2,0.2s-0.8-0.1-1.2-0.2c-0.4-0.2-0.7-0.4-1-0.7c-0.3-0.3-0.5-0.6-0.7-1
			C886.1,487.1,886,486.7,886,486.2z M891.8,492.2v15.4h-5.4v-15.4H891.8z"/>
		<path class="st18" d="M901.6,496.7v10.9h-5.4v-10.9h-1.8v-4.5h1.8v-4.6h5.4v4.6h3.1v4.5H901.6z"/>
		<path class="st18" d="M916.9,492.2h5.4v1.9c1.5-1.4,3.1-2.1,5-2.1c2.3,0,4,1,5.2,2.9c1.2-1.9,3-2.9,5.2-2.9c0.7,0,1.4,0.1,2,0.3
			c0.6,0.2,1.2,0.5,1.6,1c0.5,0.5,0.8,1,1.1,1.8c0.3,0.7,0.4,1.6,0.4,2.6v10h-5.4V500c0-0.8-0.1-1.4-0.2-1.9
			c-0.1-0.5-0.3-0.9-0.5-1.2s-0.5-0.5-0.7-0.6c-0.3-0.1-0.6-0.2-0.9-0.2c-1.7,0-2.6,1.3-2.6,3.8v7.6h-5.4V500c0-0.8-0.1-1.4-0.1-1.9
			c-0.1-0.5-0.2-0.9-0.4-1.2c-0.2-0.3-0.4-0.5-0.7-0.6c-0.3-0.1-0.7-0.2-1.1-0.2c-0.3,0-0.7,0-1,0.1c-0.3,0.1-0.6,0.3-0.8,0.6
			c-0.2,0.3-0.4,0.7-0.5,1.2c-0.1,0.5-0.2,1.2-0.2,2v7.6h-5.4V492.2z"/>
		<path class="st18" d="M958.6,492.2h5.5v15.4h-5.5v-1.7c-1.2,1.5-2.7,2.2-4.7,2.2c-1.1,0-2.1-0.2-3.1-0.6c-0.9-0.4-1.8-1-2.5-1.7
			c-0.7-0.7-1.2-1.6-1.6-2.6c-0.4-1-0.6-2.1-0.6-3.3c0-1.1,0.2-2.1,0.6-3.1c0.4-1,0.9-1.9,1.6-2.6c0.7-0.7,1.5-1.3,2.4-1.8
			c0.9-0.4,2-0.6,3.1-0.6c1.9,0,3.5,0.7,4.8,2V492.2z M951.7,499.8c0,0.5,0.1,1,0.3,1.4c0.2,0.4,0.4,0.8,0.7,1.1s0.7,0.6,1.1,0.8
			c0.4,0.2,0.9,0.3,1.4,0.3c0.5,0,0.9-0.1,1.4-0.3c0.4-0.2,0.8-0.4,1.1-0.8s0.6-0.7,0.8-1.1s0.3-0.9,0.3-1.3c0-0.5-0.1-0.9-0.3-1.4
			c-0.2-0.4-0.4-0.8-0.8-1.1c-0.3-0.3-0.7-0.6-1.1-0.8s-0.9-0.3-1.4-0.3c-0.5,0-1,0.1-1.4,0.3c-0.4,0.2-0.8,0.4-1.1,0.8
			c-0.3,0.3-0.6,0.7-0.7,1.1C951.8,498.9,951.7,499.3,951.7,499.8z"/>
	</g>
	<g class="st34">
		<path class="st18" d="M973.2,482.6v15.1l5.7-5.5h7.4l-7.7,7.1l8.2,8.3h-7.6l-6-6.3v6.3h-5.4v-24.9H973.2z"/>
	</g>
	<g class="st34">
		<path class="st18" d="M992.6,500.8c0,2.3,1.1,3.5,3.3,3.5c1.2,0,2.1-0.5,2.7-1.4h5.2c-1.1,3.5-3.7,5.3-8,5.3
			c-1.3,0-2.5-0.2-3.6-0.6c-1.1-0.4-2-0.9-2.8-1.7c-0.8-0.7-1.4-1.6-1.8-2.6s-0.6-2.1-0.6-3.4c0-1.3,0.2-2.4,0.6-3.5s1-1.9,1.7-2.6
			c0.7-0.7,1.6-1.3,2.7-1.7s2.2-0.6,3.6-0.6c1.3,0,2.5,0.2,3.5,0.6s1.9,1,2.6,1.7s1.3,1.6,1.6,2.7s0.6,2.3,0.6,3.6v0.6H992.6z
			 M999,497.6c-0.2-0.8-0.5-1.4-1.1-1.8c-0.6-0.5-1.2-0.7-2-0.7c-0.8,0-1.5,0.2-2.1,0.7c-0.5,0.4-0.9,1.1-1,1.9H999z"/>
		<path class="st18" d="M1017.3,496.1c-1-0.5-2-0.8-2.9-0.8c-0.5,0-0.9,0.1-1.2,0.3c-0.3,0.2-0.5,0.5-0.5,0.8c0,0.2,0,0.3,0.1,0.4
			c0,0.1,0.2,0.2,0.3,0.3c0.2,0.1,0.4,0.2,0.8,0.3c0.3,0.1,0.8,0.2,1.3,0.3c1.5,0.3,2.6,0.8,3.4,1.6c0.7,0.8,1.1,1.8,1.1,3
			c0,0.9-0.2,1.7-0.5,2.4c-0.4,0.7-0.9,1.3-1.5,1.8c-0.6,0.5-1.4,0.9-2.3,1.1c-0.9,0.3-1.9,0.4-3,0.4c-2.1,0-4.1-0.6-6.1-1.8l2-3.8
			c1.5,1,3,1.6,4.3,1.6c0.5,0,0.9-0.1,1.2-0.3c0.3-0.2,0.5-0.5,0.5-0.8c0-0.2,0-0.4-0.1-0.5s-0.2-0.2-0.3-0.4
			c-0.2-0.1-0.4-0.2-0.7-0.3c-0.3-0.1-0.7-0.2-1.2-0.3c-1.7-0.3-2.9-0.8-3.5-1.5c-0.7-0.7-1-1.6-1-2.8c0-0.9,0.2-1.6,0.5-2.3
			c0.3-0.7,0.8-1.3,1.4-1.8c0.6-0.5,1.3-0.8,2.2-1.1c0.8-0.3,1.8-0.4,2.8-0.4c1.7,0,3.3,0.3,5,1L1017.3,496.1z"/>
	</g>
	<g class="st34">
		<path class="st18" d="M1038.2,505.4l-7.4-13.3h6.3l4.1,7.9l4-7.9h6.2l-12.4,23.1h-6.1L1038.2,505.4z"/>
	</g>
	<g class="st34">
		<path class="st18" d="M1051.8,499.7c0-1.1,0.2-2.2,0.7-3.2c0.5-1,1.1-1.8,1.9-2.6c0.8-0.7,1.8-1.3,2.9-1.7s2.4-0.6,3.7-0.6
			c1.3,0,2.5,0.2,3.7,0.6s2.1,1,2.9,1.7s1.5,1.6,1.9,2.6c0.5,1,0.7,2.1,0.7,3.3s-0.2,2.3-0.7,3.3c-0.5,1-1.1,1.9-1.9,2.6
			c-0.8,0.7-1.8,1.3-3,1.7c-1.2,0.4-2.4,0.6-3.7,0.6c-1.3,0-2.5-0.2-3.7-0.6c-1.1-0.4-2.1-1-2.9-1.7c-0.8-0.7-1.4-1.6-1.9-2.7
			S1051.8,501,1051.8,499.7z M1057.6,499.8c0,0.5,0.1,1,0.3,1.4c0.2,0.4,0.4,0.8,0.8,1.1c0.3,0.3,0.7,0.6,1.1,0.8
			c0.4,0.2,0.9,0.3,1.4,0.3s0.9-0.1,1.4-0.3c0.4-0.2,0.8-0.4,1.1-0.8s0.6-0.7,0.8-1.1c0.2-0.4,0.3-0.9,0.3-1.4
			c0-0.5-0.1-0.9-0.3-1.4c-0.2-0.4-0.4-0.8-0.8-1.1c-0.3-0.3-0.7-0.6-1.1-0.8c-0.4-0.2-0.9-0.3-1.4-0.3s-0.9,0.1-1.4,0.3
			c-0.4,0.2-0.8,0.4-1.1,0.8c-0.3,0.3-0.6,0.7-0.8,1.1C1057.7,498.8,1057.6,499.3,1057.6,499.8z"/>
		<path class="st18" d="M1078.9,492.2v8.7c0,1.9,0.9,2.8,2.8,2.8c1.8,0,2.8-0.9,2.8-2.8v-8.7h5.4v9.7c0,2.1-0.7,3.6-2.1,4.7
			c-1.4,1-3.4,1.6-6.1,1.6s-4.8-0.5-6.1-1.6c-1.4-1-2.1-2.6-2.1-4.7v-9.7H1078.9z"/>
	</g>
	<g class="st34">
		<path class="st18" d="M1109.6,496.7v10.9h-5.4v-10.9h-2v-4.5h2v-2.3c0-1.3,0.1-2.3,0.4-3.1c0.2-0.6,0.5-1.2,1-1.8
			c0.4-0.5,1-1,1.5-1.4s1.2-0.7,1.9-0.9c0.7-0.2,1.4-0.3,2-0.3c0.5,0,0.9,0.1,1.3,0.2c0.4,0.1,0.8,0.2,1.2,0.4v4.7
			c-0.4-0.2-0.7-0.3-1-0.4c-0.3-0.1-0.6-0.1-1-0.1c-0.2,0-0.4,0-0.7,0.1c-0.2,0.1-0.4,0.2-0.6,0.4c-0.2,0.2-0.3,0.5-0.4,0.9
			c-0.1,0.4-0.1,1-0.1,1.7v1.9h3.8v4.5H1109.6z"/>
	</g>
	<g class="st34">
		<path class="st18" d="M1120.7,500.8c0,2.3,1.1,3.5,3.3,3.5c1.2,0,2.1-0.5,2.7-1.4h5.2c-1.1,3.5-3.7,5.3-8,5.3
			c-1.3,0-2.5-0.2-3.6-0.6c-1.1-0.4-2-0.9-2.8-1.7c-0.8-0.7-1.4-1.6-1.8-2.6s-0.6-2.1-0.6-3.4c0-1.3,0.2-2.4,0.6-3.5s1-1.9,1.7-2.6
			c0.7-0.7,1.6-1.3,2.7-1.7s2.2-0.6,3.6-0.6c1.3,0,2.5,0.2,3.5,0.6s1.9,1,2.6,1.7s1.3,1.6,1.6,2.7s0.6,2.3,0.6,3.6v0.6H1120.7z
			 M1127,497.6c-0.2-0.8-0.5-1.4-1.1-1.8c-0.6-0.5-1.2-0.7-2-0.7c-0.8,0-1.5,0.2-2.1,0.7c-0.5,0.4-0.9,1.1-1,1.9H1127z"/>
		<path class="st18" d="M1140.1,500.8c0,2.3,1.1,3.5,3.3,3.5c1.2,0,2.1-0.5,2.7-1.4h5.2c-1.1,3.5-3.7,5.3-8,5.3
			c-1.3,0-2.5-0.2-3.6-0.6c-1.1-0.4-2-0.9-2.8-1.7c-0.8-0.7-1.4-1.6-1.8-2.6s-0.6-2.1-0.6-3.4c0-1.3,0.2-2.4,0.6-3.5
			c0.4-1,1-1.9,1.7-2.6c0.7-0.7,1.6-1.3,2.7-1.7c1.1-0.4,2.2-0.6,3.6-0.6c1.3,0,2.5,0.2,3.5,0.6s1.9,1,2.6,1.7
			c0.7,0.7,1.3,1.6,1.7,2.7s0.6,2.3,0.6,3.6v0.6H1140.1z M1146.4,497.6c-0.2-0.8-0.6-1.4-1.1-1.8s-1.2-0.7-2-0.7
			c-0.8,0-1.5,0.2-2.1,0.7c-0.5,0.4-0.9,1.1-1,1.9H1146.4z"/>
		<path class="st18" d="M1160,482.6v24.9h-5.4v-24.9H1160z"/>
	</g>
	<g class="st34">
		<path class="st18" d="M757.8,528.2h5.5v15.4h-5.5v-1.7c-1.2,1.5-2.7,2.2-4.7,2.2c-1.1,0-2.1-0.2-3.1-0.6c-0.9-0.4-1.8-1-2.5-1.7
			c-0.7-0.7-1.2-1.6-1.6-2.6c-0.4-1-0.6-2.1-0.6-3.3c0-1.1,0.2-2.1,0.6-3.1c0.4-1,0.9-1.9,1.6-2.6c0.7-0.7,1.5-1.3,2.4-1.8
			c0.9-0.4,2-0.6,3.1-0.6c1.9,0,3.5,0.7,4.8,2V528.2z M751,535.8c0,0.5,0.1,1,0.3,1.4c0.2,0.4,0.4,0.8,0.7,1.1s0.7,0.6,1.1,0.8
			c0.4,0.2,0.9,0.3,1.4,0.3c0.5,0,0.9-0.1,1.4-0.3c0.4-0.2,0.8-0.4,1.1-0.8s0.6-0.7,0.8-1.1s0.3-0.9,0.3-1.3c0-0.5-0.1-0.9-0.3-1.4
			c-0.2-0.4-0.4-0.8-0.8-1.1c-0.3-0.3-0.7-0.6-1.1-0.8s-0.9-0.3-1.4-0.3c-0.5,0-1,0.1-1.4,0.3c-0.4,0.2-0.8,0.4-1.1,0.8
			c-0.3,0.3-0.6,0.7-0.7,1.1C751.1,534.9,751,535.3,751,535.8z"/>
		<path class="st18" d="M782.6,518.6v11c1.3-1.3,2.9-2,4.8-2c1.1,0,2.2,0.2,3.1,0.6c0.9,0.4,1.8,1,2.4,1.7c0.7,0.7,1.2,1.6,1.6,2.6
			c0.4,1,0.6,2,0.6,3.2c0,1.1-0.2,2.2-0.6,3.2c-0.4,1-0.9,1.9-1.6,2.6c-0.7,0.7-1.5,1.3-2.5,1.8c-1,0.4-2,0.6-3.1,0.6
			c-2,0-3.6-0.7-4.7-2.2v1.7h-5.4v-24.9H782.6z M789.4,535.9c0-0.5-0.1-0.9-0.3-1.4c-0.2-0.4-0.4-0.8-0.8-1.1
			c-0.3-0.3-0.7-0.6-1.1-0.8c-0.4-0.2-0.9-0.3-1.4-0.3c-0.5,0-0.9,0.1-1.4,0.3s-0.8,0.4-1.1,0.8c-0.3,0.3-0.6,0.7-0.8,1.1
			c-0.2,0.4-0.3,0.9-0.3,1.4c0,0.5,0.1,0.9,0.3,1.3c0.2,0.4,0.4,0.8,0.8,1.1c0.3,0.3,0.7,0.6,1.1,0.8c0.4,0.2,0.9,0.3,1.4,0.3
			s0.9-0.1,1.4-0.3c0.4-0.2,0.8-0.4,1.1-0.8c0.3-0.3,0.6-0.7,0.8-1.1C789.4,536.8,789.4,536.4,789.4,535.9z"/>
		<path class="st18" d="M797.8,522.2c0-0.4,0.1-0.8,0.2-1.2c0.2-0.4,0.4-0.7,0.7-1c0.3-0.3,0.6-0.5,1-0.7c0.4-0.2,0.8-0.2,1.2-0.2
			s0.8,0.1,1.2,0.2c0.4,0.2,0.7,0.4,1,0.7c0.3,0.3,0.5,0.6,0.7,1c0.2,0.4,0.2,0.8,0.2,1.2s-0.1,0.8-0.2,1.2c-0.2,0.4-0.4,0.7-0.7,1
			c-0.3,0.3-0.6,0.5-1,0.7c-0.4,0.2-0.8,0.2-1.2,0.2s-0.8-0.1-1.2-0.2c-0.4-0.2-0.7-0.4-1-0.7c-0.3-0.3-0.5-0.6-0.7-1
			C797.9,523.1,797.8,522.7,797.8,522.2z M803.6,528.2v15.4h-5.4v-15.4H803.6z"/>
		<path class="st18" d="M813.4,532.7v10.9H808v-10.9h-1.8v-4.5h1.8v-4.6h5.4v4.6h3.1v4.5H813.4z"/>
		<path class="st18" d="M834.2,518.6v11c1.3-1.3,2.9-2,4.8-2c1.1,0,2.2,0.2,3.1,0.6c0.9,0.4,1.8,1,2.4,1.7c0.7,0.7,1.2,1.6,1.6,2.6
			c0.4,1,0.6,2,0.6,3.2c0,1.1-0.2,2.2-0.6,3.2c-0.4,1-0.9,1.9-1.6,2.6c-0.7,0.7-1.5,1.3-2.5,1.8c-1,0.4-2,0.6-3.1,0.6
			c-2,0-3.6-0.7-4.7-2.2v1.7h-5.4v-24.9H834.2z M841,535.9c0-0.5-0.1-0.9-0.3-1.4c-0.2-0.4-0.4-0.8-0.8-1.1
			c-0.3-0.3-0.7-0.6-1.1-0.8c-0.4-0.2-0.9-0.3-1.4-0.3c-0.5,0-0.9,0.1-1.4,0.3s-0.8,0.4-1.1,0.8c-0.3,0.3-0.6,0.7-0.8,1.1
			c-0.2,0.4-0.3,0.9-0.3,1.4c0,0.5,0.1,0.9,0.3,1.3c0.2,0.4,0.4,0.8,0.8,1.1c0.3,0.3,0.7,0.6,1.1,0.8c0.4,0.2,0.9,0.3,1.4,0.3
			s0.9-0.1,1.4-0.3c0.4-0.2,0.8-0.4,1.1-0.8c0.3-0.3,0.6-0.7,0.8-1.1C840.9,536.8,841,536.4,841,535.9z"/>
	</g>
	<g class="st34">
		<path class="st18" d="M854.7,536.8c0,2.3,1.1,3.5,3.3,3.5c1.2,0,2.1-0.5,2.7-1.4h5.2c-1.1,3.5-3.7,5.3-8,5.3
			c-1.3,0-2.5-0.2-3.6-0.6c-1.1-0.4-2-0.9-2.8-1.7c-0.8-0.7-1.4-1.6-1.8-2.6s-0.6-2.1-0.6-3.4c0-1.3,0.2-2.4,0.6-3.5
			c0.4-1,1-1.9,1.7-2.6s1.6-1.3,2.7-1.7c1.1-0.4,2.2-0.6,3.6-0.6c1.3,0,2.5,0.2,3.5,0.6s1.9,1,2.6,1.7c0.7,0.7,1.3,1.6,1.6,2.7
			s0.6,2.3,0.6,3.6v0.6H854.7z M861,533.6c-0.2-0.8-0.6-1.4-1.1-1.8c-0.6-0.5-1.2-0.7-2-0.7c-0.8,0-1.5,0.2-2.1,0.7
			c-0.5,0.4-0.9,1.1-1,1.9H861z"/>
	</g>
	<g class="st34">
		<path class="st18" d="M875.5,532.7v10.9H870v-10.9h-1.8v-4.5h1.8v-4.6h5.4v4.6h3.1v4.5H875.5z"/>
	</g>
	<g class="st34">
		<path class="st18" d="M887.5,532.7v10.9H882v-10.9h-1.8v-4.5h1.8v-4.6h5.4v4.6h3.1v4.5H887.5z"/>
	</g>
	<g class="st34">
		<path class="st18" d="M897.8,536.8c0,2.3,1.1,3.5,3.3,3.5c1.2,0,2.1-0.5,2.7-1.4h5.2c-1.1,3.5-3.7,5.3-8,5.3
			c-1.3,0-2.5-0.2-3.6-0.6c-1.1-0.4-2-0.9-2.8-1.7c-0.8-0.7-1.4-1.6-1.8-2.6s-0.6-2.1-0.6-3.4c0-1.3,0.2-2.4,0.6-3.5
			c0.4-1,1-1.9,1.7-2.6s1.6-1.3,2.7-1.7c1.1-0.4,2.2-0.6,3.6-0.6c1.3,0,2.5,0.2,3.5,0.6s1.9,1,2.6,1.7c0.7,0.7,1.3,1.6,1.6,2.7
			s0.6,2.3,0.6,3.6v0.6H897.8z M904.1,533.6c-0.2-0.8-0.6-1.4-1.1-1.8c-0.6-0.5-1.2-0.7-2-0.7c-0.8,0-1.5,0.2-2.1,0.7
			c-0.5,0.4-0.9,1.1-1,1.9H904.1z"/>
		<path class="st18" d="M912.3,528.2h5.4v2.5c0.6-0.9,1.3-1.6,2.1-2.1c0.8-0.5,1.8-0.7,2.9-0.7c0.1,0,0.3,0,0.5,0
			c0.2,0,0.4,0,0.6,0.1v5.2c-0.7-0.4-1.5-0.5-2.3-0.5c-1.3,0-2.2,0.4-2.8,1.1c-0.6,0.8-0.9,1.8-0.9,3.3v6.6h-5.4V528.2z"/>
	</g>
	<g class="st34">
		<path class="st18" d="M942.5,532.7v10.9h-5.4v-10.9h-1.8v-4.5h1.8v-4.6h5.4v4.6h3.1v4.5H942.5z"/>
	</g>
	<g class="st34">
		<path class="st18" d="M948.3,518.6h5.4v11.5c0.7-0.9,1.5-1.5,2.2-1.8c0.8-0.3,1.6-0.5,2.7-0.5c1.9,0,3.4,0.5,4.4,1.6
			c1,1.1,1.5,2.5,1.5,4.3v9.8h-5.4v-7.8c0-0.8-0.1-1.4-0.2-1.9c-0.1-0.5-0.3-0.8-0.6-1.1c-0.5-0.4-1.1-0.6-1.7-0.6
			c-0.9,0-1.6,0.3-2.1,0.8c-0.5,0.6-0.7,1.3-0.7,2.4v8.2h-5.4V518.6z"/>
		<path class="st18" d="M980.1,528.2h5.5v15.4h-5.5v-1.7c-1.2,1.5-2.7,2.2-4.7,2.2c-1.1,0-2.1-0.2-3.1-0.6c-0.9-0.4-1.8-1-2.5-1.7
			c-0.7-0.7-1.2-1.6-1.6-2.6s-0.6-2.1-0.6-3.3c0-1.1,0.2-2.1,0.6-3.1c0.4-1,0.9-1.9,1.6-2.6c0.7-0.7,1.5-1.3,2.4-1.8
			c0.9-0.4,2-0.6,3.1-0.6c1.9,0,3.5,0.7,4.8,2V528.2z M973.3,535.8c0,0.5,0.1,1,0.3,1.4s0.4,0.8,0.7,1.1c0.3,0.3,0.7,0.6,1.1,0.8
			c0.4,0.2,0.9,0.3,1.4,0.3c0.5,0,0.9-0.1,1.4-0.3c0.4-0.2,0.8-0.4,1.1-0.8c0.3-0.3,0.6-0.7,0.8-1.1c0.2-0.4,0.3-0.9,0.3-1.3
			c0-0.5-0.1-0.9-0.3-1.4c-0.2-0.4-0.4-0.8-0.8-1.1c-0.3-0.3-0.7-0.6-1.1-0.8c-0.4-0.2-0.9-0.3-1.4-0.3c-0.5,0-1,0.1-1.4,0.3
			c-0.4,0.2-0.8,0.4-1.1,0.8c-0.3,0.3-0.6,0.7-0.7,1.1C973.4,534.9,973.3,535.3,973.3,535.8z"/>
		<path class="st18" d="M989.3,528.2h5.4v1.9c0.7-0.9,1.5-1.5,2.2-1.8c0.8-0.3,1.7-0.5,2.7-0.5c1.1,0,2,0.2,2.8,0.5
			c0.8,0.4,1.4,0.8,2,1.5c0.4,0.5,0.7,1.1,0.9,1.7c0.2,0.6,0.2,1.4,0.2,2.2v9.8h-5.4v-7.8c0-0.8-0.1-1.4-0.2-1.8
			c-0.1-0.5-0.3-0.8-0.6-1.1c-0.2-0.2-0.5-0.4-0.8-0.5c-0.3-0.1-0.6-0.2-1-0.2c-0.9,0-1.6,0.3-2.1,0.8c-0.5,0.6-0.7,1.3-0.7,2.4v8.2
			h-5.4V528.2z"/>
	</g>
	<g class="st34">
		<path class="st18" d="M1024.3,536.8c0,2.3,1.1,3.5,3.3,3.5c1.2,0,2.1-0.5,2.7-1.4h5.2c-1.1,3.5-3.7,5.3-8,5.3
			c-1.3,0-2.5-0.2-3.6-0.6c-1.1-0.4-2-0.9-2.8-1.7c-0.8-0.7-1.4-1.6-1.8-2.6s-0.6-2.1-0.6-3.4c0-1.3,0.2-2.4,0.6-3.5s1-1.9,1.7-2.6
			c0.7-0.7,1.6-1.3,2.7-1.7s2.2-0.6,3.6-0.6c1.3,0,2.5,0.2,3.5,0.6s1.9,1,2.6,1.7s1.3,1.6,1.6,2.7s0.6,2.3,0.6,3.6v0.6H1024.3z
			 M1030.6,533.6c-0.2-0.8-0.5-1.4-1.1-1.8c-0.6-0.5-1.2-0.7-2-0.7c-0.8,0-1.5,0.2-2.1,0.7c-0.5,0.4-0.9,1.1-1,1.9H1030.6z"/>
		<path class="st18" d="M1041.8,528.2l3.7,7.9l3.7-7.9h6.1l-8,15.4h-3.6l-7.9-15.4H1041.8z"/>
	</g>
	<g class="st34">
		<path class="st18" d="M1061.8,536.8c0,2.3,1.1,3.5,3.3,3.5c1.2,0,2.1-0.5,2.7-1.4h5.2c-1.1,3.5-3.7,5.3-8,5.3
			c-1.3,0-2.5-0.2-3.6-0.6c-1.1-0.4-2-0.9-2.8-1.7c-0.8-0.7-1.4-1.6-1.8-2.6s-0.6-2.1-0.6-3.4c0-1.3,0.2-2.4,0.6-3.5s1-1.9,1.7-2.6
			s1.6-1.3,2.7-1.7c1.1-0.4,2.2-0.6,3.6-0.6c1.3,0,2.5,0.2,3.5,0.6s1.9,1,2.6,1.7c0.7,0.7,1.3,1.6,1.7,2.7s0.6,2.3,0.6,3.6v0.6
			H1061.8z M1068.2,533.6c-0.2-0.8-0.6-1.4-1.1-1.8c-0.6-0.5-1.2-0.7-2-0.7c-0.8,0-1.5,0.2-2.1,0.7c-0.5,0.4-0.9,1.1-1,1.9H1068.2z"
			/>
	</g>
	<g class="st34">
		<path class="st18" d="M1076.3,528.2h5.4v2.5c0.6-0.9,1.3-1.6,2.1-2.1c0.8-0.5,1.8-0.7,2.9-0.7c0.1,0,0.3,0,0.5,0s0.4,0,0.6,0.1
			v5.2c-0.7-0.4-1.5-0.5-2.3-0.5c-1.3,0-2.2,0.4-2.8,1.1s-0.9,1.8-0.9,3.3v6.6h-5.4V528.2z"/>
	</g>
	<g class="st34">
		<path class="st18" d="M1096.8,541.4l-7.4-13.3h6.3l4.1,7.9l4-7.9h6.2l-12.4,23.1h-6.1L1096.8,541.4z"/>
	</g>
	<g class="st34">
		<path class="st18" d="M1110.5,535.7c0-1.1,0.2-2.2,0.7-3.2c0.5-1,1.1-1.8,1.9-2.6c0.8-0.7,1.8-1.3,2.9-1.7s2.4-0.6,3.7-0.6
			c1.3,0,2.5,0.2,3.7,0.6s2.1,1,2.9,1.7c0.8,0.7,1.5,1.6,1.9,2.6c0.5,1,0.7,2.1,0.7,3.3s-0.2,2.3-0.7,3.3s-1.1,1.9-1.9,2.6
			c-0.8,0.7-1.8,1.3-3,1.7c-1.2,0.4-2.4,0.6-3.7,0.6c-1.3,0-2.5-0.2-3.7-0.6c-1.1-0.4-2.1-1-2.9-1.7c-0.8-0.7-1.4-1.6-1.9-2.7
			C1110.7,538.1,1110.5,537,1110.5,535.7z M1116.2,535.8c0,0.5,0.1,1,0.3,1.4c0.2,0.4,0.4,0.8,0.8,1.1c0.3,0.3,0.7,0.6,1.1,0.8
			c0.4,0.2,0.9,0.3,1.4,0.3s0.9-0.1,1.4-0.3c0.4-0.2,0.8-0.4,1.1-0.8c0.3-0.3,0.6-0.7,0.8-1.1c0.2-0.4,0.3-0.9,0.3-1.4
			c0-0.5-0.1-0.9-0.3-1.4c-0.2-0.4-0.4-0.8-0.8-1.1c-0.3-0.3-0.7-0.6-1.1-0.8c-0.4-0.2-0.9-0.3-1.4-0.3s-0.9,0.1-1.4,0.3
			c-0.4,0.2-0.8,0.4-1.1,0.8c-0.3,0.3-0.6,0.7-0.8,1.1C1116.3,534.8,1116.2,535.3,1116.2,535.8z"/>
		<path class="st18" d="M1132.1,528.2h5.4v1.9c0.7-0.9,1.5-1.5,2.2-1.8c0.8-0.3,1.7-0.5,2.7-0.5c1.1,0,2,0.2,2.8,0.5
			c0.8,0.4,1.4,0.8,2,1.5c0.4,0.5,0.7,1.1,0.9,1.7c0.2,0.6,0.2,1.4,0.2,2.2v9.8h-5.4v-7.8c0-0.8-0.1-1.4-0.2-1.8
			c-0.1-0.5-0.3-0.8-0.6-1.1c-0.2-0.2-0.5-0.4-0.8-0.5c-0.3-0.1-0.6-0.2-1-0.2c-0.9,0-1.6,0.3-2.1,0.8c-0.5,0.6-0.7,1.3-0.7,2.4v8.2
			h-5.4V528.2z"/>
		<path class="st18" d="M1156.9,536.8c0,2.3,1.1,3.5,3.3,3.5c1.2,0,2.1-0.5,2.7-1.4h5.2c-1.1,3.5-3.7,5.3-8,5.3
			c-1.3,0-2.5-0.2-3.6-0.6c-1.1-0.4-2-0.9-2.8-1.7c-0.8-0.7-1.4-1.6-1.8-2.6s-0.6-2.1-0.6-3.4c0-1.3,0.2-2.4,0.6-3.5
			c0.4-1,1-1.9,1.7-2.6s1.6-1.3,2.7-1.7c1-0.4,2.2-0.6,3.6-0.6c1.3,0,2.5,0.2,3.5,0.6s1.9,1,2.6,1.7c0.7,0.7,1.3,1.6,1.6,2.7
			s0.6,2.3,0.6,3.6v0.6H1156.9z M1163.2,533.6c-0.2-0.8-0.5-1.4-1.1-1.8c-0.6-0.5-1.2-0.7-2-0.7c-0.8,0-1.5,0.2-2.1,0.7
			c-0.5,0.4-0.9,1.1-1,1.9H1163.2z"/>
		<path class="st18" d="M1171.1,540.7c0-0.5,0.1-0.9,0.3-1.4c0.2-0.4,0.4-0.8,0.8-1.1c0.3-0.3,0.7-0.6,1.1-0.8
			c0.4-0.2,0.9-0.3,1.4-0.3c0.5,0,0.9,0.1,1.4,0.3s0.8,0.4,1.1,0.8c0.3,0.3,0.6,0.7,0.8,1.1c0.2,0.4,0.3,0.9,0.3,1.4
			c0,0.5-0.1,0.9-0.3,1.4c-0.2,0.4-0.4,0.8-0.8,1.1c-0.3,0.3-0.7,0.6-1.1,0.8c-0.4,0.2-0.9,0.3-1.4,0.3c-0.5,0-0.9-0.1-1.4-0.3
			c-0.4-0.2-0.8-0.4-1.1-0.8c-0.3-0.3-0.6-0.7-0.8-1.1C1171.2,541.6,1171.1,541.1,1171.1,540.7z"/>
	</g>
</g>
</svg>
