<?xml version="1.0" encoding="utf-8"?>
<!-- Generator: Adobe Illustrator 26.0.1, SVG Export Plug-In . SVG Version: 6.00 Build 0)  -->
<svg version="1.1" id="Layer_1" xmlns="http://www.w3.org/2000/svg" xmlns:xlink="http://www.w3.org/1999/xlink" x="0px" y="0px"
	 viewBox="0 0 65 65" style="enable-background:new 0 0 65 65;" xml:space="preserve">
<style type="text/css">
	.st0{fill:#FE997B;}
	.st1{enable-background:new    ;}
	.st2{fill:#F7C74F;}
</style>
<g id="Layer_2_00000018944922768148956390000003108380927713360303_">
	<g id="Layer_1-2">
		<circle class="st0" cx="32.5" cy="32.5" r="32.5"/>
		<g class="st1">
			<path class="st2" d="M35.2,37.2c-0.2,6.7-4,9.1-10.3,9.1c-6.2,0-10.9-3.6-11.1-9.8c-0.6-15,6.4-16.1,10.4-16.1
				c5.1,0,10.5,2.1,10.5,8.6c-2.9,0-8.8,0-8.8,0c0-1.4-0.4-2.1-1.6-2.1s-2.1,1.1-2.2,4.7h0.2c1.5-1.4,4.1-2.1,7-1.6
				C33,30.6,35.3,33.5,35.2,37.2z M26.9,37.9c0-1.2-0.8-2.2-2.2-2.2c-1.3,0-2.2,1-2.2,2.2c0,1.2,1,2.2,2.2,2.2S26.9,39.1,26.9,37.9z
				"/>
			<path class="st2" d="M50.6,21.1v24.5h-8.4V28.4H37v-5l5.6-2.3H50.6z"/>
		</g>
	</g>
</g>
</svg>
