<?xml version="1.0" encoding="utf-8"?>
<!-- Generator: Adobe Illustrator 26.0.1, SVG Export Plug-In . SVG Version: 6.00 Build 0)  -->
<svg version="1.1" id="Layer_1" xmlns="http://www.w3.org/2000/svg" xmlns:xlink="http://www.w3.org/1999/xlink" x="0px" y="0px"
	 viewBox="0 0 1920 1080" style="enable-background:new 0 0 1920 1080;" xml:space="preserve">
<style type="text/css">
	.st0{fill:url(#SVGID_1_);}
	.st1{fill:url(#SVGID_00000132785287587612692390000000927197387257726903_);}
	.st2{fill:url(#SVGID_00000115516804119195305390000012336555309759684757_);}
	.st3{fill:url(#SVGID_00000012443044905046499770000013325209515744544144_);}
	.st4{fill:url(#SVGID_00000001638374236644663960000001831577143312185993_);}
	.st5{fill:url(#SVGID_00000066493651550455457330000012538050113093532348_);}
	.st6{fill:#F4D5A9;}
	.st7{fill:#FE997B;}
	.st8{fill:none;stroke:#ED6336;stroke-width:3;stroke-miterlimit:10;}
	.st9{fill:#F7D7AE;}
	.st10{fill:#ED6336;}
	.st11{fill:url(#SVGID_00000005970621124009666640000009430479254550365580_);}
	.st12{fill:#754C24;}
	.st13{fill:url(#SVGID_00000165940486202090476940000001062586205519990702_);}
	.st14{fill:url(#SVGID_00000003105570504028270590000009563585223193269423_);}
	.st15{fill:url(#SVGID_00000140707898612979594660000006770399469916063386_);}
	.st16{fill:#CA8C1F;}
	.st17{fill:#E44616;}
	.st18{fill:#42210B;}
	.st19{fill:#8C6339;}
	.st20{fill:#EAE0D6;}
	.st21{fill:#5D6F83;}
	.st22{fill:url(#SVGID_00000111892824365797806210000013500804856305318029_);}
	.st23{fill:url(#SVGID_00000091716759157179439440000001637078254053761447_);}
	.st24{fill:url(#SVGID_00000079478605556994600510000008015764007541886349_);}
	.st25{fill:#BC391B;}
	.st26{fill:#A2BFC5;}
	.st27{enable-background:new    ;}
</style>
<g id="Layer_3">
	
		<radialGradient id="SVGID_1_" cx="970.3331" cy="573.5098" r="1004.9055" gradientTransform="matrix(0.99 3.000000e-02 2.000000e-02 -0.51 -12.1 803.38)" gradientUnits="userSpaceOnUse">
		<stop  offset="0" style="stop-color:#C8C9AB"/>
		<stop  offset="0.21" style="stop-color:#C4C7AA"/>
		<stop  offset="0.42" style="stop-color:#B9C2A7"/>
		<stop  offset="0.62" style="stop-color:#A5B9A1"/>
		<stop  offset="0.82" style="stop-color:#8AAC9A"/>
		<stop  offset="1" style="stop-color:#6B9D91"/>
	</radialGradient>
	<rect class="st0" width="1920" height="1080"/>
</g>
<g id="Layer_4">
	
		<radialGradient id="SVGID_00000088129821963358955220000005430785423524872068_" cx="960.28" cy="83.2554" r="700.85" gradientTransform="matrix(0.98 0 0 -0.79 21.98 1044.8)" gradientUnits="userSpaceOnUse">
		<stop  offset="0" style="stop-color:#FE997B"/>
		<stop  offset="0.35" style="stop-color:#FB9375"/>
		<stop  offset="0.83" style="stop-color:#F18364"/>
		<stop  offset="1" style="stop-color:#EC7B5C"/>
	</radialGradient>
	<rect y="877.1" style="fill:url(#SVGID_00000088129821963358955220000005430785423524872068_);" width="1920" height="202.9"/>
</g>
<g id="Layer_1_00000183216203519280251180000006663116572629807510_">
	
		<linearGradient id="SVGID_00000031170029863176181290000005376938757052606082_" gradientUnits="userSpaceOnUse" x1="758.51" y1="82.42" x2="758.51" y2="279.59" gradientTransform="matrix(1 0 0 -1 0 1079)">
		<stop  offset="0" style="stop-color:#CA8C1F"/>
		<stop  offset="0.38" style="stop-color:#C8891F"/>
		<stop  offset="0.64" style="stop-color:#C2801F"/>
		<stop  offset="0.86" style="stop-color:#B7711F"/>
		<stop  offset="1" style="stop-color:#AD631F"/>
	</linearGradient>
	<polygon style="fill:url(#SVGID_00000031170029863176181290000005376938757052606082_);" points="755.3,996.6 702.5,996.6 
		702.5,799.4 814.5,799.4 	"/>
	
		<linearGradient id="SVGID_00000122689676575835801890000004852959033314144191_" gradientUnits="userSpaceOnUse" x1="1320.37" y1="82.13" x2="1320.37" y2="279.3" gradientTransform="matrix(1 0 0 -1 0 1079)">
		<stop  offset="0" style="stop-color:#CA8C1F"/>
		<stop  offset="0.38" style="stop-color:#C8891F"/>
		<stop  offset="0.64" style="stop-color:#C2801F"/>
		<stop  offset="0.86" style="stop-color:#B7711F"/>
		<stop  offset="1" style="stop-color:#AD631F"/>
	</linearGradient>
	<polygon style="fill:url(#SVGID_00000122689676575835801890000004852959033314144191_);" points="1323.6,996.9 1376.4,996.9 
		1376.4,799.7 1264.4,799.7 	"/>
	
		<linearGradient id="SVGID_00000093167611914497435190000000337685905657138837_" gradientUnits="userSpaceOnUse" x1="1038.8201" y1="279.12" x2="1038.8201" y2="986.01" gradientTransform="matrix(1 0 0 -1 0 1079)">
		<stop  offset="0" style="stop-color:#E44616"/>
		<stop  offset="0.47" style="stop-color:#E14416"/>
		<stop  offset="0.75" style="stop-color:#D93F16"/>
		<stop  offset="0.99" style="stop-color:#CA3616"/>
		<stop  offset="1" style="stop-color:#CA3616"/>
	</linearGradient>
	
		<rect x="551.8" y="93" style="fill:url(#SVGID_00000093167611914497435190000000337685905657138837_);" width="973.9" height="706.9"/>
	
		<linearGradient id="SVGID_00000025415282989408287080000007938081454361192342_" gradientUnits="userSpaceOnUse" x1="1451.2999" y1="279.09" x2="1451.2999" y2="986.03" gradientTransform="matrix(1 0 0 -1 0 1079)">
		<stop  offset="0" style="stop-color:#F7C74F"/>
		<stop  offset="0.59" style="stop-color:#F5C64E"/>
		<stop  offset="0.81" style="stop-color:#EEC149"/>
		<stop  offset="0.96" style="stop-color:#E3B841"/>
		<stop  offset="1" style="stop-color:#DEB53E"/>
	</linearGradient>
	
		<rect x="1376.4" y="93" style="fill:url(#SVGID_00000025415282989408287080000007938081454361192342_);" width="149.8" height="706.9"/>
	<circle class="st6" cx="1450" cy="192.2" r="52.6"/>
	<circle class="st7" cx="1450.2" cy="192.9" r="41"/>
	<line class="st8" x1="1376.3" y1="587" x2="1526.2" y2="586.9"/>
	<line class="st8" x1="1376.2" y1="658.4" x2="1526.1" y2="658.3"/>
	<line class="st8" x1="1376.2" y1="729.4" x2="1526.1" y2="729.3"/>
	<line class="st8" x1="1376.2" y1="516.3" x2="1526.1" y2="516.2"/>
	<line class="st8" x1="1376.2" y1="445.2" x2="1526.1" y2="445.1"/>
	<circle class="st7" cx="1450.5" cy="332.2" r="52.6"/>
	<circle class="st6" cx="1450.7" cy="332.8" r="41"/>
	
		<image style="overflow:visible;enable-background:new    ;" width="846" height="741" xlink:href="45706B5DD588703C.png"  transform="matrix(1 0 0 1 538 78)">
	</image>
	<path class="st9" d="M622.5,150.6H1299c6.6,0,12,5.4,12,12v571.1c0,6.6-5.4,12-12,12H622.5c-6.6,0-12-5.4-12-12V162.6
		C610.5,156,615.9,150.6,622.5,150.6z"/>
</g>
<g id="Layer_8">
	<path class="st10" d="M735.2,266.1c10.6-1.8,21.2-3.4,31.8-4.9c0.4,2.9,0.7,5.8,0.8,8.7c0.1,2.5-0.1,5-0.6,7.4
		c-0.6,3.1-1.8,6.2-3.4,9c-1.6,2.6-3.5,5-5.9,7c-2.4,2-5.1,3.7-7.9,5c-3,1.4-6.2,2.3-9.5,2.9c-4.4,0.8-8.8,0.8-13.2-0.1
		c-8-1.5-15.1-6.4-19.4-13.3c-2.4-3.8-4-7.9-4.8-12.3c-0.9-4.3-0.9-8.8-0.1-13.1c0.8-4,2.4-7.8,4.9-11.1c2.5-3.4,5.7-6.2,9.3-8.3
		c4.1-2.4,8.6-3.9,13.3-4.6c6-1.1,12.1-0.7,17.8,1.3c5.5,2.1,10.2,5.8,13.5,10.8c-4.8,2.8-9.6,5.6-14.4,8.4
		c-1.5-2.7-3.9-4.8-6.7-6.1c-2.6-1.1-5.4-1.4-8.1-0.9c-2.3,0.3-4.4,1.2-6.4,2.4c-1.8,1.2-3.3,2.7-4.4,4.6c-1.2,2-1.9,4.1-2.3,6.4
		c-0.4,2.6-0.3,5.2,0.2,7.8c0.4,2.4,1.2,4.7,2.3,6.8c1,1.9,2.3,3.7,4,5.1c1.6,1.3,3.6,2.3,5.6,2.8c2.3,0.5,4.8,0.6,7.1,0.1
		c1.5-0.2,3-0.7,4.4-1.3c1.3-0.5,2.6-1.3,3.6-2.3c1-0.9,1.9-2.1,2.4-3.4c0.6-1.5,0.9-3.1,0.8-4.7c-4.4,0.7-8.7,1.4-13,2.1
		C736.6,274.1,735.9,270.1,735.2,266.1z"/>
	<path class="st10" d="M815.3,278.5c-7.5,0.8-15.1,1.7-22.6,2.7c-0.8,3.6-1.5,7.2-2.3,10.9c-5.6,0.7-11.1,1.5-16.7,2.3
		c4.8-21,9.9-42,15.4-62.9c6-0.7,11.9-1.5,17.9-2.1c10.3,19.1,20.2,38.3,29.8,57.5c-5.6,0.5-11.2,1.1-16.8,1.7
		C818.4,285.2,816.9,281.9,815.3,278.5z M809.7,267.2c-3.1-6.4-6.3-12.8-9.5-19.1c-1.6,6.9-3.2,13.9-4.8,20.8
		C800.2,268.3,805,267.7,809.7,267.2L809.7,267.2z"/>
	<path class="st10" d="M840.9,286.5c1.6-20.3,3.3-40.7,5.1-61c5.4-0.5,10.8-0.9,16.2-1.3c5,10.4,9.9,20.8,14.8,31.2
		c3.4-11,6.9-21.9,10.5-32.9c5.4-0.3,10.8-0.6,16.3-0.8c4.5,19.9,8.8,39.9,13,59.8c-5.2,0.2-10.5,0.4-15.7,0.7
		c-2.3-11.5-4.7-22.9-7.1-34.4c-4.3,11.8-8.4,23.6-12.5,35.5l-6.3,0.4c-5.3-11.2-10.8-22.4-16.3-33.6c-0.9,11.7-1.7,23.3-2.5,35
		C851.4,285.5,846.2,286,840.9,286.5z"/>
	<path class="st10" d="M961,233.5c-6.5,0-12.9,0.1-19.4,0.2c0.1,3.4,0.1,6.7,0.2,10.1c6.1-0.1,12.1-0.2,18.2-0.2l0.1,13.3
		c-6,0-12,0.1-18,0.2c0.1,3.5,0.1,6.9,0.2,10.4c6.3-0.1,12.6-0.2,18.9-0.2c0,4.4,0,8.9,0.1,13.3c-11.5,0.1-23,0.3-34.5,0.6
		l-1.8-60.3c12-0.4,24-0.6,36-0.7C961,224.6,961,229.1,961,233.5z"/>
	<path class="st10" d="M997.9,250.6c0.1-8.6,3.8-16.7,10.2-22.4c3.3-2.9,7.1-5.1,11.2-6.4c9.3-2.9,19.2-2.5,28.2,1.2
		c4,1.7,7.7,4.2,10.7,7.4c5.9,6.2,8.9,14.7,8.3,23.2c-0.3,4.3-1.4,8.5-3.4,12.3c-1.9,3.7-4.5,7-7.7,9.6c-3.3,2.7-7,4.8-11.1,6.1
		c-8.9,2.8-18.5,2.4-27.1-1.2c-3.9-1.7-7.4-4.1-10.4-7.1c-2.9-3-5.2-6.5-6.7-10.3C998.5,259.2,997.8,254.9,997.9,250.6z
		 M1014.7,251.1c-0.1,2.3,0.3,4.6,1.2,6.7c0.8,2,2,3.9,3.6,5.4c1.5,1.6,3.4,2.8,5.4,3.7c4.2,1.8,8.9,2,13.2,0.6
		c2.1-0.7,4-1.8,5.7-3.2c1.7-1.4,3.1-3.1,4.1-5.1c2.1-4.1,2.4-8.9,0.7-13.3c-0.8-2-2-3.9-3.6-5.5c-1.6-1.6-3.4-2.9-5.5-3.8
		c-4.3-1.9-9.1-2.1-13.5-0.6c-2.1,0.7-4.1,1.8-5.7,3.3c-1.7,1.4-3,3.2-4,5.1C1015.3,246.5,1014.8,248.8,1014.7,251.1L1014.7,251.1z"
		/>
	<path class="st10" d="M1087.2,225c4.1,12.6,8,25.2,11.9,37.9c6.1-11.7,12.3-23.4,18.7-35.1c5.9,0.6,11.9,1.3,17.8,1.9
		c-11.1,19-21.9,38-32.4,57.2c-4.2-0.4-8.3-0.8-12.5-1.1c-6.7-20.8-13.8-41.5-21.3-62.2C1075.3,224,1081.3,224.5,1087.2,225z"/>
	<path class="st10" d="M1176,248.3c-6.4-0.9-12.8-1.8-19.2-2.7c-0.4,3.3-0.9,6.7-1.3,10c6,0.8,12,1.6,18,2.5
		c-0.6,4.4-1.3,8.8-1.9,13.1c-5.9-0.9-11.9-1.7-17.9-2.5l-1.3,10.3c6.3,0.8,12.5,1.7,18.8,2.6c-0.7,4.4-1.3,8.8-1.9,13.1
		c-11.4-1.6-22.8-3.2-34.3-4.5l7.2-59.9c11.9,1.4,23.9,3,35.8,4.7C1177.3,239.6,1176.7,244,1176,248.3z"/>
	<path class="st10" d="M1230.4,305.1c-6.5-1.2-12.9-2.4-19.4-3.5c-3.6-8.5-7.3-17-11.1-25.4l-3.8,22.9c-5.2-0.9-10.4-1.7-15.6-2.5
		c3.1-19.9,6.1-39.7,9.1-59.6c8.5,1.3,16.9,2.7,25.3,4.1c3.1,0.5,6.1,1.5,8.9,3.1c2.3,1.3,4.2,3,5.7,5.1c1.4,2,2.3,4.2,2.7,6.5
		c0.5,2.4,0.5,4.9,0,7.3c-0.8,4.5-2.7,8-5.4,10.4s-6.4,3.7-11,3.9C1220.8,286.6,1225.7,295.9,1230.4,305.1z M1201.6,266.1l3,0.5
		c3.2,0.5,5.7,0.3,7.6-0.7c3.4-2,4.6-6.4,2.6-9.8c-0.2-0.4-0.5-0.7-0.7-1c-1.5-1.6-3.8-2.6-7-3.1l-3-0.5
		C1203.2,256.4,1202.4,261.2,1201.6,266.1L1201.6,266.1z"/>
</g>
<g id="Layer_9">
	
		<linearGradient id="SVGID_00000108282780133857548790000009398421252019617692_" gradientUnits="userSpaceOnUse" x1="112.5554" y1="84.17" x2="112.5554" y2="366.7892" gradientTransform="matrix(1 0 0 -1 0 1079)">
		<stop  offset="0" style="stop-color:#754C24"/>
		<stop  offset="0.62" style="stop-color:#CA8C1F"/>
		<stop  offset="0.99" style="stop-color:#EDC796"/>
	</linearGradient>
	<path style="fill:url(#SVGID_00000108282780133857548790000009398421252019617692_);" d="M161.5,713.3
		c-52.6,77,10.2,281.5-4.6,281.5s-68.2-86.3-67.5-98.4c2.7-45.9-38.1-44.7-22.1-128.2C80.5,699.6,161.5,713.3,161.5,713.3z"/>
	<path class="st12" d="M391.6,893.8c0,61-43.2,110.4-96.6,110.4s-97.5-45.5-81.2-104.2c17.1-61.6,27.9-116.6,81.2-116.6
		S391.6,832.8,391.6,893.8z"/>
	<path class="st12" d="M391.7,908.5c-8,34.1-11,40.5-17.4,56.3c-2.9,7.2,108.7,10.5,101.1,40.3c-0.5,2-127.9-0.6-133.8-5.8
		c-15.2-13.4,20.6-58.3,20.6-93.4c0-51.5-33-116.6-21.6-116.6c5.7,0,59.1,30.6,62.9,47.5S399.1,877,391.7,908.5z"/>
	
		<linearGradient id="SVGID_00000125568823926810014800000012123731822643744186_" gradientUnits="userSpaceOnUse" x1="423.7844" y1="392.86" x2="423.7844" y2="53.8221" gradientTransform="matrix(1 0 0 -1 0 1079)">
		<stop  offset="0" style="stop-color:#CA8C1F"/>
		<stop  offset="0.42" style="stop-color:#C88B1F"/>
		<stop  offset="0.58" style="stop-color:#C1851E"/>
		<stop  offset="0.68" style="stop-color:#B67C1C"/>
		<stop  offset="0.77" style="stop-color:#A56F1A"/>
		<stop  offset="0.85" style="stop-color:#8F5D16"/>
		<stop  offset="0.91" style="stop-color:#734812"/>
		<stop  offset="0.97" style="stop-color:#542F0E"/>
		<stop  offset="1" style="stop-color:#42210B"/>
	</linearGradient>
	<path style="fill:url(#SVGID_00000125568823926810014800000012123731822643744186_);" d="M430.3,855.4c-19.8,61.1-6.6,89.3-13,118
		c-2.9,13.1,35.7,23.8,31.1,46.7c-0.7,3.5-43.8,10.7-46.7-2.8c-6.3-28.8-0.9-102.9-0.9-166.7c0-93.5-2.4-164.5,8.9-164.5
		c5.7,0,28.6,8.3,32.3,39S446.7,804.8,430.3,855.4z"/>
	
		<linearGradient id="SVGID_00000157295081274980972820000017598234304042815381_" gradientUnits="userSpaceOnUse" x1="381.18" y1="693.6763" x2="381.18" y2="452.2441" gradientTransform="matrix(1 0 0 -1 0 1079)">
		<stop  offset="0" style="stop-color:#8C6239"/>
		<stop  offset="0.21" style="stop-color:#A17030"/>
		<stop  offset="0.49" style="stop-color:#B88027"/>
		<stop  offset="0.76" style="stop-color:#C58921"/>
		<stop  offset="1" style="stop-color:#CA8C1F"/>
	</linearGradient>
	<path style="fill:url(#SVGID_00000157295081274980972820000017598234304042815381_);" d="M470.9,544.9c0,62.4-55,78-104.7,78
		c-27.5,0-73.4,14.5-57.4-12.6c20.5-34.6-17.4-88.8-17.4-116.6c0-62.4,38.5-110.4,88.2-108.3c82.4,3.5,43.4,49.8,56.6,72.4
		C451.5,483.8,470.9,513.7,470.9,544.9z"/>
	
		<linearGradient id="SVGID_00000022562013105343055620000015428636055496878721_" gradientUnits="userSpaceOnUse" x1="282.3369" y1="74.2213" x2="282.3369" y2="477.2361" gradientTransform="matrix(1 0 0 -1 0 1079)">
		<stop  offset="0" style="stop-color:#8C6239"/>
		<stop  offset="5.000000e-02" style="stop-color:#936736"/>
		<stop  offset="0.26" style="stop-color:#AB772C"/>
		<stop  offset="0.48" style="stop-color:#BD8325"/>
		<stop  offset="0.71" style="stop-color:#C78A20"/>
		<stop  offset="1" style="stop-color:#CA8C1F"/>
	</linearGradient>
	<path style="fill:url(#SVGID_00000022562013105343055620000015428636055496878721_);" d="M420.1,750.5
		c7.9,155.9-56.5,96.4-126.6,207.5c-46.9,74.3-176.4,55.5-144.7-24.3c40.6-102.3,89.5-333.3,141.8-331.9
		C377.4,604,414.6,641.7,420.1,750.5z"/>
	<path class="st9" d="M441.8,640.1l-27.6,16.5c-9.4,0-68.7-20-68.7-29.3V516.4c0-9.4,34.5-19.7,43.9-19.7l5.5-69.9l23,64.4
		c9.4,0,69,15.5,69,24.8l-15.6,126.9C471.2,652.2,451.2,640.1,441.8,640.1z"/>
	<path class="st16" d="M321.9,517.4l-6.3-1.6c-7.4-1.5-4.7-0.1-10.4-8.8c0,0-20.1-45.2-3.3-51.2c7.1-2.5,40-33,38.5-25.7
		C340.4,430.1,332.4,507.3,321.9,517.4z"/>
	<polygon class="st17" points="434.7,416.8 358.5,419.3 289.1,481.7 281.6,466 294.2,389.7 328.2,353.8 396.9,357.6 433.5,394.8 	
		"/>
	<polygon class="st18" points="439.7,560 459.9,526.2 419.5,526.2 	"/>
	<path class="st19" d="M394.9,454.1c0,10.4-37.5,46.7-39.2,38.5c-3.6-16.7-3.9-24.3-2.8-26.9c5.8-14.7,13.2-14.1,18.5-21.3
		c7.1-9.7,6.9-16.9,13.8-16.9C393.6,427.5,394.9,443.8,394.9,454.1z"/>
	<path class="st19" d="M430.5,458.4c1.1,5.7-2.7,15.6-7.4,16.1c-8.8,1-16.8-13.4-17.9-19.1c-1.2-6.3,0.6-19.3,4.8-21.3
		c3-1.4,10.3,2.5,13.7,7.4C427.9,447.5,429.8,455.2,430.5,458.4z"/>
	<path class="st20" d="M395.1,481.6c0,18-9.1,32.7-20.4,32.7s-20.4-14.6-20.4-32.7s40.6-27.5,40.6-27.5S395.1,463.5,395.1,481.6z"/>
	<path class="st20" d="M417.2,489.9c3.6,6.2,23.7,2.9,23.7,2.9s-3.6-19.1-10.5-34.4c-1.3-2.9-25.2-3-25.2-3S409.3,476.4,417.2,489.9
		z"/>
	<path class="st18" d="M383.8,467.5c0,11.3-7.2,25.4-16.4,25.4s-13.4-12-11.5-17.1c4-10.4,26.3-17.8,26.3-17.8
		S383.8,456.2,383.8,467.5z"/>
	<path class="st18" d="M408.7,469.9c2.2,7.5,7.9,11.8,11.3,11.2c5.5-1.1,10.6-21.4,5.5-24.2c-4-2.2-20.3-1.5-20.3-1.5
		S407,464.4,408.7,469.9z"/>
	<circle class="st21" cx="393.3" cy="507.3" r="28.4"/>
	<circle class="st21" cx="449.9" cy="498.7" r="23.5"/>
	
		<linearGradient id="SVGID_00000105421018726987058970000013155473173311906445_" gradientUnits="userSpaceOnUse" x1="229.915" y1="48.4" x2="229.915" y2="269.24" gradientTransform="matrix(1 0 0 -1 0 1079)">
		<stop  offset="0" style="stop-color:#754C24"/>
		<stop  offset="6.000000e-02" style="stop-color:#835623"/>
		<stop  offset="0.21" style="stop-color:#A26E21"/>
		<stop  offset="0.36" style="stop-color:#B87E20"/>
		<stop  offset="0.5" style="stop-color:#C5891F"/>
		<stop  offset="0.62" style="stop-color:#CA8C1F"/>
	</linearGradient>
	<path style="fill:url(#SVGID_00000105421018726987058970000013155473173311906445_);" d="M320.5,920.2c0,61-43.2,110.4-96.6,110.4
		s-97.5-45.5-81.2-104.3c17.1-61.5,27.9-116.5,81.2-116.5S320.5,859.2,320.5,920.2z"/>
	
		<linearGradient id="SVGID_00000151531645188989111140000005663581110032397192_" gradientUnits="userSpaceOnUse" x1="313.0262" y1="346.071" x2="313.0262" y2="484.4617" gradientTransform="matrix(0.99 -0.16 -0.12 -0.72 70.46 1090.36)">
		<stop  offset="0" style="stop-color:#8C6239"/>
		<stop  offset="1.000000e-02" style="stop-color:#8F6438"/>
		<stop  offset="0.1" style="stop-color:#A5732F"/>
		<stop  offset="0.2" style="stop-color:#B67E28"/>
		<stop  offset="0.33" style="stop-color:#C18623"/>
		<stop  offset="0.5" style="stop-color:#C88B20"/>
		<stop  offset="1" style="stop-color:#CA8C1F"/>
	</linearGradient>
	<path style="fill:url(#SVGID_00000151531645188989111140000005663581110032397192_);" d="M378.9,729.7
		c3.1,19.3-11.1,54.4-37.2,60.5c-56.4,13.1-57.3-24.5-60.5-43.9s34-53.9,60.6-58.2S375.8,710.4,378.9,729.7z"/>
	
		<linearGradient id="SVGID_00000163063394090564249580000016237380644588441788_" gradientUnits="userSpaceOnUse" x1="337.4343" y1="254.18" x2="337.4343" y2="37.6239" gradientTransform="matrix(1 0 0 -1 0 1079)">
		<stop  offset="2.000000e-02" style="stop-color:#CA8C1F"/>
		<stop  offset="0.34" style="stop-color:#CA8C1F"/>
		<stop  offset="0.63" style="stop-color:#C88B1F"/>
		<stop  offset="0.74" style="stop-color:#C1851E"/>
		<stop  offset="0.81" style="stop-color:#B67C1D"/>
		<stop  offset="0.87" style="stop-color:#A56E1B"/>
		<stop  offset="0.93" style="stop-color:#8F5D18"/>
		<stop  offset="0.97" style="stop-color:#744815"/>
		<stop  offset="1" style="stop-color:#603813"/>
	</linearGradient>
	<path style="fill:url(#SVGID_00000163063394090564249580000016237380644588441788_);" d="M322.3,944.1c-8,34.1-11,40.5-17.4,56.3
		c-2.9,7.2,108.7,10.5,101.1,40.3c-0.5,2-127.9-0.6-133.8-5.8c-15.2-13.4,20.6-58.3,20.6-93.4c0-51.5-33-116.6-21.6-116.6
		c5.7,0,59.1,30.6,62.9,47.5S329.7,912.6,322.3,944.1z"/>
	<polygon class="st25" points="435,417.1 358.7,419.6 289.4,482 281.8,466.2 345.9,397 433.7,395 	"/>
	<path class="st26" d="M399.7,534.9c-3.3,0.8-6.7,1-10.1,0.5c-0.3,0,9.7-54.8,9.9-55.8c0-0.3,7.5,1.9,9.3,3.8
		C409.8,484.5,400.3,534.7,399.7,534.9z"/>
	<path class="st26" d="M454.8,521.6c-2.7,0.7-5.6,0.8-8.4,0.4c-0.2,0,8-45.5,8.2-46.3c0-0.2,6.2,1.6,7.7,3.2
		C463.2,479.8,455.4,521.5,454.8,521.6z"/>
</g>
<g id="Layer_10">
	<g class="st27">
		<path class="st18" d="M812,357.8v17.6h-5.9v-17.6h-4.8v-5h15.5v5H812z"/>
		<path class="st18" d="M818.9,350.5h5.4V362c0.7-0.9,1.5-1.5,2.2-1.8c0.8-0.3,1.6-0.5,2.7-0.5c1.9,0,3.4,0.5,4.4,1.6
			c1,1.1,1.5,2.5,1.5,4.3v9.8h-5.4v-7.8c0-0.8-0.1-1.4-0.2-1.9c-0.1-0.5-0.3-0.8-0.6-1.1c-0.5-0.4-1.1-0.6-1.7-0.6
			c-0.9,0-1.6,0.3-2.1,0.8c-0.5,0.6-0.7,1.3-0.7,2.4v8.2h-5.4V350.5z"/>
		<path class="st18" d="M850.7,360h5.5v15.4h-5.5v-1.7c-1.2,1.5-2.7,2.2-4.7,2.2c-1.1,0-2.2-0.2-3.1-0.6c-0.9-0.4-1.8-1-2.5-1.7
			c-0.7-0.7-1.2-1.6-1.6-2.6c-0.4-1-0.6-2.1-0.6-3.3c0-1.1,0.2-2.1,0.6-3.1s0.9-1.9,1.6-2.6s1.5-1.3,2.4-1.8c0.9-0.4,2-0.6,3.1-0.6
			c1.9,0,3.5,0.7,4.8,2V360z M843.8,367.7c0,0.5,0.1,1,0.3,1.4c0.2,0.4,0.4,0.8,0.7,1.1c0.3,0.3,0.7,0.6,1.1,0.8
			c0.4,0.2,0.9,0.3,1.4,0.3c0.5,0,0.9-0.1,1.4-0.3c0.4-0.2,0.8-0.4,1.1-0.8c0.3-0.3,0.6-0.7,0.8-1.1c0.2-0.4,0.3-0.9,0.3-1.3
			c0-0.5-0.1-0.9-0.3-1.4c-0.2-0.4-0.4-0.8-0.8-1.1c-0.3-0.3-0.7-0.6-1.1-0.8c-0.4-0.2-0.9-0.3-1.4-0.3c-0.5,0-1,0.1-1.4,0.3
			c-0.4,0.2-0.8,0.4-1.1,0.8c-0.3,0.3-0.6,0.7-0.7,1.1C843.9,366.7,843.8,367.2,843.8,367.7z"/>
		<path class="st18" d="M865.9,364.5v10.9h-5.4v-10.9h-1.8V360h1.8v-4.6h5.4v4.6h3.1v4.5H865.9z"/>
	</g>
	<g class="st27">
		<path class="st18" d="M885.4,360l3.7,8.1l3.8-8.1h3.4l3.8,8.3l3.9-8.3h6l-8,15.4h-3.6l-3.8-8.4l-3.7,8.4h-3.7l-7.9-15.4H885.4z"/>
	</g>
	<g class="st27">
		<path class="st18" d="M923.1,360h5.5v15.4h-5.5v-1.7c-1.2,1.5-2.7,2.2-4.7,2.2c-1.1,0-2.1-0.2-3.1-0.6c-0.9-0.4-1.8-1-2.5-1.7
			c-0.7-0.7-1.2-1.6-1.6-2.6c-0.4-1-0.6-2.1-0.6-3.3c0-1.1,0.2-2.1,0.6-3.1c0.4-1,0.9-1.9,1.6-2.6c0.7-0.7,1.5-1.3,2.4-1.8
			c0.9-0.4,2-0.6,3.1-0.6c1.9,0,3.5,0.7,4.8,2V360z M916.3,367.7c0,0.5,0.1,1,0.3,1.4c0.2,0.4,0.4,0.8,0.7,1.1s0.7,0.6,1.1,0.8
			c0.4,0.2,0.9,0.3,1.4,0.3c0.5,0,0.9-0.1,1.4-0.3c0.4-0.2,0.8-0.4,1.1-0.8s0.6-0.7,0.8-1.1s0.3-0.9,0.3-1.3c0-0.5-0.1-0.9-0.3-1.4
			c-0.2-0.4-0.4-0.8-0.8-1.1c-0.3-0.3-0.7-0.6-1.1-0.8s-0.9-0.3-1.4-0.3c-0.5,0-1,0.1-1.4,0.3c-0.4,0.2-0.8,0.4-1.1,0.8
			c-0.3,0.3-0.6,0.7-0.7,1.1C916.4,366.7,916.3,367.2,916.3,367.7z"/>
		<path class="st18" d="M942.5,364c-1-0.5-2-0.8-2.9-0.8c-0.5,0-0.9,0.1-1.2,0.3c-0.3,0.2-0.5,0.5-0.5,0.8c0,0.2,0,0.3,0.1,0.4
			c0,0.1,0.2,0.2,0.3,0.3c0.2,0.1,0.4,0.2,0.8,0.3c0.3,0.1,0.8,0.2,1.3,0.3c1.5,0.3,2.6,0.8,3.4,1.6s1.1,1.8,1.1,3
			c0,0.9-0.2,1.7-0.5,2.4s-0.9,1.3-1.5,1.8c-0.6,0.5-1.4,0.9-2.3,1.1c-0.9,0.3-1.9,0.4-3,0.4c-2.1,0-4.1-0.6-6.1-1.8l2-3.8
			c1.5,1,3,1.6,4.3,1.6c0.5,0,0.9-0.1,1.2-0.3c0.3-0.2,0.5-0.5,0.5-0.8c0-0.2,0-0.4-0.1-0.5c-0.1-0.1-0.2-0.2-0.3-0.4
			c-0.2-0.1-0.4-0.2-0.7-0.3s-0.7-0.2-1.2-0.3c-1.7-0.3-2.9-0.8-3.5-1.5c-0.7-0.7-1-1.6-1-2.8c0-0.9,0.2-1.6,0.5-2.3
			c0.3-0.7,0.8-1.3,1.4-1.8c0.6-0.5,1.3-0.8,2.2-1.1c0.9-0.3,1.8-0.4,2.8-0.4c1.7,0,3.3,0.3,5,1L942.5,364z"/>
		<path class="st18" d="M957.4,354.1c0-0.4,0.1-0.8,0.2-1.2c0.2-0.4,0.4-0.7,0.7-1c0.3-0.3,0.6-0.5,1-0.7c0.4-0.2,0.8-0.2,1.2-0.2
			s0.8,0.1,1.2,0.2c0.4,0.2,0.7,0.4,1,0.7s0.5,0.6,0.7,1c0.2,0.4,0.2,0.8,0.2,1.2s-0.1,0.8-0.2,1.2c-0.2,0.4-0.4,0.7-0.7,1
			s-0.6,0.5-1,0.7c-0.4,0.2-0.8,0.2-1.2,0.2s-0.8-0.1-1.2-0.2c-0.4-0.2-0.7-0.4-1-0.7c-0.3-0.3-0.5-0.6-0.7-1
			C957.4,354.9,957.4,354.5,957.4,354.1z M963.2,360v15.4h-5.4V360H963.2z"/>
	</g>
	<g class="st27">
		<path class="st18" d="M966.9,360h5.4v1.9c1.5-1.4,3.1-2.1,5-2.1c2.3,0,4,1,5.2,2.9c1.2-1.9,3-2.9,5.2-2.9c0.7,0,1.4,0.1,2,0.3
			c0.6,0.2,1.2,0.5,1.7,1c0.5,0.5,0.8,1,1.1,1.8c0.3,0.7,0.4,1.6,0.4,2.6v10h-5.4v-7.6c0-0.8-0.1-1.4-0.2-1.9
			c-0.1-0.5-0.3-0.9-0.5-1.2c-0.2-0.3-0.5-0.5-0.7-0.6c-0.3-0.1-0.6-0.2-0.9-0.2c-1.7,0-2.6,1.3-2.6,3.8v7.6h-5.4v-7.6
			c0-0.8-0.1-1.4-0.2-1.9c-0.1-0.5-0.2-0.9-0.4-1.2s-0.4-0.5-0.7-0.6c-0.3-0.1-0.7-0.2-1-0.2c-0.3,0-0.7,0-1,0.1
			c-0.3,0.1-0.6,0.3-0.8,0.6c-0.2,0.3-0.4,0.7-0.5,1.2s-0.2,1.2-0.2,2v7.6h-5.4V360z"/>
	</g>
	<g class="st27">
		<path class="st18" d="M1002.6,383.1h-5.4V360h5.4v1.7c1.2-1.5,2.7-2.2,4.7-2.2c1.1,0,2.1,0.2,3.1,0.6c1,0.4,1.8,1,2.5,1.8
			c0.7,0.7,1.2,1.6,1.6,2.6c0.4,1,0.6,2.1,0.6,3.2c0,1.1-0.2,2.2-0.6,3.2s-0.9,1.8-1.6,2.6s-1.5,1.3-2.4,1.7s-2,0.6-3.1,0.6
			c-1.9,0-3.5-0.7-4.8-2V383.1z M1009.5,367.8c0-0.5-0.1-0.9-0.3-1.4c-0.2-0.4-0.4-0.8-0.7-1.1c-0.3-0.3-0.7-0.6-1.1-0.8
			c-0.4-0.2-0.9-0.3-1.4-0.3c-0.5,0-0.9,0.1-1.4,0.3s-0.8,0.4-1.1,0.8c-0.3,0.3-0.6,0.7-0.8,1.1c-0.2,0.4-0.3,0.9-0.3,1.4
			c0,0.5,0.1,0.9,0.3,1.3c0.2,0.4,0.4,0.8,0.8,1.1c0.3,0.3,0.7,0.6,1.1,0.8c0.4,0.2,0.9,0.3,1.4,0.3c0.5,0,0.9-0.1,1.4-0.3
			c0.4-0.2,0.8-0.4,1.1-0.8c0.3-0.3,0.6-0.7,0.8-1.1C1009.4,368.7,1009.5,368.2,1009.5,367.8z"/>
	</g>
	<g class="st27">
		<path class="st18" d="M1018.2,360h5.4v2.5c0.6-0.9,1.3-1.6,2.1-2.1c0.8-0.5,1.8-0.7,2.9-0.7c0.1,0,0.3,0,0.5,0s0.4,0,0.6,0.1v5.2
			c-0.7-0.4-1.5-0.5-2.3-0.5c-1.3,0-2.2,0.4-2.8,1.1s-0.9,1.8-0.9,3.3v6.6h-5.4V360z"/>
	</g>
	<g class="st27">
		<path class="st18" d="M1037.3,368.6c0,2.3,1.1,3.5,3.3,3.5c1.2,0,2.1-0.5,2.7-1.4h5.2c-1.1,3.5-3.7,5.3-8,5.3
			c-1.3,0-2.5-0.2-3.6-0.6c-1.1-0.4-2-0.9-2.8-1.7c-0.8-0.7-1.4-1.6-1.8-2.6s-0.6-2.1-0.6-3.4c0-1.3,0.2-2.4,0.6-3.5
			c0.4-1,1-1.9,1.7-2.6c0.7-0.7,1.6-1.3,2.7-1.7c1.1-0.4,2.2-0.6,3.6-0.6c1.3,0,2.5,0.2,3.5,0.6s1.9,1,2.6,1.7
			c0.7,0.7,1.3,1.6,1.7,2.7s0.6,2.3,0.6,3.6v0.6H1037.3z M1043.6,365.5c-0.2-0.8-0.6-1.4-1.1-1.8s-1.2-0.7-2-0.7
			c-0.8,0-1.5,0.2-2.1,0.7c-0.5,0.4-0.9,1.1-1,1.9H1043.6z"/>
		<path class="st18" d="M1062,364c-1-0.5-2-0.8-2.9-0.8c-0.5,0-0.9,0.1-1.2,0.3c-0.3,0.2-0.5,0.5-0.5,0.8c0,0.2,0,0.3,0.1,0.4
			c0,0.1,0.2,0.2,0.3,0.3c0.2,0.1,0.4,0.2,0.8,0.3s0.8,0.2,1.3,0.3c1.5,0.3,2.6,0.8,3.4,1.6c0.7,0.8,1.1,1.8,1.1,3
			c0,0.9-0.2,1.7-0.5,2.4c-0.4,0.7-0.9,1.3-1.5,1.8c-0.6,0.5-1.4,0.9-2.3,1.1c-0.9,0.3-1.9,0.4-3,0.4c-2.1,0-4.1-0.6-6.2-1.8l2-3.8
			c1.5,1,3,1.6,4.3,1.6c0.5,0,0.9-0.1,1.2-0.3c0.3-0.2,0.5-0.5,0.5-0.8c0-0.2,0-0.4-0.1-0.5c-0.1-0.1-0.2-0.2-0.3-0.4
			c-0.2-0.1-0.4-0.2-0.7-0.3c-0.3-0.1-0.7-0.2-1.2-0.3c-1.7-0.3-2.9-0.8-3.5-1.5c-0.7-0.7-1-1.6-1-2.8c0-0.9,0.2-1.6,0.5-2.3
			c0.3-0.7,0.8-1.3,1.4-1.8c0.6-0.5,1.3-0.8,2.2-1.1c0.9-0.3,1.8-0.4,2.8-0.4c1.7,0,3.3,0.3,5,1L1062,364z"/>
		<path class="st18" d="M1077.2,364c-1-0.5-2-0.8-2.9-0.8c-0.5,0-0.9,0.1-1.2,0.3c-0.3,0.2-0.5,0.5-0.5,0.8c0,0.2,0,0.3,0.1,0.4
			c0,0.1,0.2,0.2,0.3,0.3c0.2,0.1,0.4,0.2,0.8,0.3s0.8,0.2,1.3,0.3c1.5,0.3,2.6,0.8,3.4,1.6c0.7,0.8,1.1,1.8,1.1,3
			c0,0.9-0.2,1.7-0.5,2.4c-0.4,0.7-0.9,1.3-1.5,1.8c-0.6,0.5-1.4,0.9-2.3,1.1c-0.9,0.3-1.9,0.4-3,0.4c-2.1,0-4.1-0.6-6.2-1.8l2-3.8
			c1.5,1,3,1.6,4.3,1.6c0.5,0,0.9-0.1,1.2-0.3c0.3-0.2,0.5-0.5,0.5-0.8c0-0.2,0-0.4-0.1-0.5c-0.1-0.1-0.2-0.2-0.3-0.4
			c-0.2-0.1-0.4-0.2-0.7-0.3c-0.3-0.1-0.7-0.2-1.2-0.3c-1.7-0.3-2.9-0.8-3.5-1.5c-0.7-0.7-1-1.6-1-2.8c0-0.9,0.2-1.6,0.5-2.3
			c0.3-0.7,0.8-1.3,1.4-1.8c0.6-0.5,1.3-0.8,2.2-1.1c0.9-0.3,1.8-0.4,2.8-0.4c1.7,0,3.3,0.3,5,1L1077.2,364z"/>
	</g>
	<g class="st27">
		<path class="st18" d="M1082,354.1c0-0.4,0.1-0.8,0.2-1.2c0.2-0.4,0.4-0.7,0.7-1s0.6-0.5,1-0.7c0.4-0.2,0.8-0.2,1.2-0.2
			s0.8,0.1,1.2,0.2c0.4,0.2,0.7,0.4,1,0.7s0.5,0.6,0.7,1c0.2,0.4,0.2,0.8,0.2,1.2s-0.1,0.8-0.2,1.2c-0.2,0.4-0.4,0.7-0.7,1
			s-0.6,0.5-1,0.7c-0.4,0.2-0.8,0.2-1.2,0.2s-0.8-0.1-1.2-0.2c-0.4-0.2-0.7-0.4-1-0.7s-0.5-0.6-0.7-1
			C1082,354.9,1082,354.5,1082,354.1z M1087.7,360v15.4h-5.4V360H1087.7z"/>
	</g>
	<g class="st27">
		<path class="st18" d="M1096,360l3.7,7.9l3.7-7.9h6.1l-8,15.4h-3.6l-7.9-15.4H1096z"/>
	</g>
	<g class="st27">
		<path class="st18" d="M1115.5,368.6c0,2.3,1.1,3.5,3.3,3.5c1.2,0,2.1-0.5,2.7-1.4h5.2c-1.1,3.5-3.7,5.3-8,5.3
			c-1.3,0-2.5-0.2-3.6-0.6c-1.1-0.4-2-0.9-2.8-1.7c-0.8-0.7-1.4-1.6-1.8-2.6s-0.6-2.1-0.6-3.4c0-1.3,0.2-2.4,0.6-3.5s1-1.9,1.7-2.6
			c0.7-0.7,1.6-1.3,2.7-1.7s2.2-0.6,3.6-0.6c1.3,0,2.5,0.2,3.5,0.6s1.9,1,2.6,1.7s1.3,1.6,1.6,2.7s0.6,2.3,0.6,3.6v0.6H1115.5z
			 M1121.8,365.5c-0.2-0.8-0.5-1.4-1.1-1.8c-0.6-0.5-1.2-0.7-2-0.7c-0.8,0-1.5,0.2-2.1,0.7c-0.5,0.4-0.9,1.1-1,1.9H1121.8z"/>
		<path class="st18" d="M1129.7,372.5c0-0.5,0.1-0.9,0.3-1.4c0.2-0.4,0.4-0.8,0.8-1.1c0.3-0.3,0.7-0.6,1.1-0.8
			c0.4-0.2,0.9-0.3,1.4-0.3c0.5,0,0.9,0.1,1.4,0.3c0.4,0.2,0.8,0.4,1.1,0.8c0.3,0.3,0.6,0.7,0.8,1.1c0.2,0.4,0.3,0.9,0.3,1.4
			c0,0.5-0.1,0.9-0.3,1.4c-0.2,0.4-0.4,0.8-0.8,1.1c-0.3,0.3-0.7,0.6-1.1,0.8c-0.4,0.2-0.9,0.3-1.4,0.3c-0.5,0-0.9-0.1-1.4-0.3
			c-0.4-0.2-0.8-0.4-1.1-0.8c-0.3-0.3-0.6-0.7-0.8-1.1C1129.8,373.5,1129.7,373,1129.7,372.5z"/>
	</g>
	<g class="st27">
		<path class="st18" d="M701.4,388.8v22.6h-5.9v-22.6H701.4z"/>
		<path class="st18" d="M727.7,386.5h5.5v24.9h-5.5v-1.7c-1.2,1.5-2.7,2.2-4.7,2.2c-1.1,0-2.1-0.2-3.1-0.6c-0.9-0.4-1.8-1-2.5-1.7
			c-0.7-0.7-1.2-1.6-1.6-2.6c-0.4-1-0.6-2.1-0.6-3.2c0-1.1,0.2-2.1,0.6-3.1s0.9-1.9,1.6-2.6c0.7-0.7,1.5-1.3,2.4-1.8
			c0.9-0.4,2-0.6,3.1-0.6c1.9,0,3.5,0.7,4.8,2V386.5z M720.9,403.7c0,0.5,0.1,1,0.3,1.4c0.2,0.4,0.4,0.8,0.7,1.1s0.7,0.6,1.1,0.8
			c0.4,0.2,0.9,0.3,1.4,0.3c0.5,0,0.9-0.1,1.4-0.3c0.4-0.2,0.8-0.4,1.1-0.8s0.6-0.7,0.8-1.1s0.3-0.9,0.3-1.3c0-0.5-0.1-0.9-0.3-1.4
			c-0.2-0.4-0.4-0.8-0.8-1.1c-0.3-0.3-0.7-0.6-1.1-0.8s-0.9-0.3-1.4-0.3s-0.9,0.1-1.4,0.3c-0.4,0.2-0.8,0.4-1.1,0.8
			c-0.3,0.3-0.6,0.7-0.8,1.1C721,402.7,720.9,403.2,720.9,403.7z"/>
		<path class="st18" d="M736.5,390.1c0-0.4,0.1-0.8,0.2-1.2c0.2-0.4,0.4-0.7,0.7-1c0.3-0.3,0.6-0.5,1-0.7c0.4-0.2,0.8-0.2,1.2-0.2
			s0.8,0.1,1.2,0.2c0.4,0.2,0.7,0.4,1,0.7c0.3,0.3,0.5,0.6,0.7,1c0.2,0.4,0.2,0.8,0.2,1.2s-0.1,0.8-0.2,1.2c-0.2,0.4-0.4,0.7-0.7,1
			c-0.3,0.3-0.6,0.5-1,0.7c-0.4,0.2-0.8,0.2-1.2,0.2s-0.8-0.1-1.2-0.2c-0.4-0.2-0.7-0.4-1-0.7c-0.3-0.3-0.5-0.6-0.7-1
			C736.6,390.9,736.5,390.5,736.5,390.1z M742.3,396v15.4h-5.4V396H742.3z"/>
		<path class="st18" d="M757.9,386.5h5.5v24.9h-5.5v-1.7c-1.2,1.5-2.7,2.2-4.7,2.2c-1.1,0-2.1-0.2-3.1-0.6c-0.9-0.4-1.8-1-2.5-1.7
			c-0.7-0.7-1.2-1.6-1.6-2.6c-0.4-1-0.6-2.1-0.6-3.2c0-1.1,0.2-2.1,0.6-3.1s0.9-1.9,1.6-2.6c0.7-0.7,1.5-1.3,2.4-1.8
			c0.9-0.4,2-0.6,3.1-0.6c1.9,0,3.5,0.7,4.8,2V386.5z M751,403.7c0,0.5,0.1,1,0.3,1.4c0.2,0.4,0.4,0.8,0.7,1.1s0.7,0.6,1.1,0.8
			c0.4,0.2,0.9,0.3,1.4,0.3c0.5,0,0.9-0.1,1.4-0.3c0.4-0.2,0.8-0.4,1.1-0.8s0.6-0.7,0.8-1.1s0.3-0.9,0.3-1.3c0-0.5-0.1-0.9-0.3-1.4
			c-0.2-0.4-0.4-0.8-0.8-1.1c-0.3-0.3-0.7-0.6-1.1-0.8s-0.9-0.3-1.4-0.3s-0.9,0.1-1.4,0.3c-0.4,0.2-0.8,0.4-1.1,0.8
			c-0.3,0.3-0.6,0.7-0.8,1.1C751.1,402.7,751,403.2,751,403.7z"/>
	</g>
	<g class="st27">
		<path class="st18" d="M767,396h5.4v1.9c0.7-0.9,1.5-1.5,2.2-1.8c0.8-0.3,1.6-0.5,2.7-0.5c1.1,0,2,0.2,2.8,0.5
			c0.8,0.4,1.4,0.8,2,1.5c0.4,0.5,0.7,1.1,0.9,1.7c0.2,0.6,0.2,1.4,0.2,2.2v9.8h-5.4v-7.8c0-0.8-0.1-1.4-0.2-1.8
			c-0.1-0.5-0.3-0.8-0.6-1.1c-0.2-0.2-0.5-0.4-0.8-0.5c-0.3-0.1-0.6-0.2-1-0.2c-0.9,0-1.6,0.3-2.1,0.8c-0.5,0.6-0.7,1.3-0.7,2.4v8.2
			H767V396z"/>
	</g>
	<g class="st27">
		<path class="st18" d="M790.6,388.8h5.1l-5.5,10h-3.5L790.6,388.8z"/>
	</g>
	<g class="st27">
		<path class="st18" d="M805.6,400.5v10.9h-5.4v-10.9h-1.8V396h1.8v-4.6h5.4v4.6h3.1v4.5H805.6z"/>
	</g>
	<g class="st27">
		<path class="st18" d="M827,400.5v10.9h-5.4v-10.9h-1.8V396h1.8v-4.6h5.4v4.6h3.1v4.5H827z"/>
	</g>
	<g class="st27">
		<path class="st18" d="M832.8,386.5h5.4V398c0.7-0.9,1.5-1.5,2.2-1.8c0.8-0.3,1.6-0.5,2.7-0.5c1.9,0,3.4,0.5,4.4,1.6
			c1,1.1,1.5,2.5,1.5,4.3v9.8h-5.4v-7.8c0-0.8-0.1-1.4-0.2-1.9c-0.1-0.5-0.3-0.8-0.6-1.1c-0.5-0.4-1.1-0.6-1.7-0.6
			c-0.9,0-1.6,0.3-2.1,0.8c-0.5,0.6-0.7,1.3-0.7,2.4v8.2h-5.4V386.5z"/>
		<path class="st18" d="M852.3,390.1c0-0.4,0.1-0.8,0.2-1.2c0.2-0.4,0.4-0.7,0.7-1c0.3-0.3,0.6-0.5,1-0.7c0.4-0.2,0.8-0.2,1.2-0.2
			s0.8,0.1,1.2,0.2c0.4,0.2,0.7,0.4,1,0.7c0.3,0.3,0.5,0.6,0.7,1c0.2,0.4,0.2,0.8,0.2,1.2s-0.1,0.8-0.2,1.2c-0.2,0.4-0.4,0.7-0.7,1
			c-0.3,0.3-0.6,0.5-1,0.7c-0.4,0.2-0.8,0.2-1.2,0.2s-0.8-0.1-1.2-0.2c-0.4-0.2-0.7-0.4-1-0.7c-0.3-0.3-0.5-0.6-0.7-1
			C852.4,390.9,852.3,390.5,852.3,390.1z M858.1,396v15.4h-5.4V396H858.1z"/>
		<path class="st18" d="M861.9,396h5.4v1.9c0.7-0.9,1.5-1.5,2.2-1.8c0.8-0.3,1.6-0.5,2.7-0.5c1.1,0,2,0.2,2.8,0.5
			c0.8,0.4,1.4,0.8,2,1.5c0.4,0.5,0.7,1.1,0.9,1.7c0.2,0.6,0.2,1.4,0.2,2.2v9.8h-5.4v-7.8c0-0.8-0.1-1.4-0.2-1.8
			c-0.1-0.5-0.3-0.8-0.6-1.1c-0.2-0.2-0.5-0.4-0.8-0.5c-0.3-0.1-0.6-0.2-1-0.2c-0.9,0-1.6,0.3-2.1,0.8c-0.5,0.6-0.7,1.3-0.7,2.4v8.2
			h-5.4V396z"/>
		<path class="st18" d="M887.2,386.5v15.1l5.7-5.5h7.4l-7.7,7.1l8.2,8.3h-7.6l-6-6.3v6.3h-5.4v-24.9H887.2z"/>
		<path class="st18" d="M912.6,390.1c0-0.4,0.1-0.8,0.2-1.2c0.2-0.4,0.4-0.7,0.7-1c0.3-0.3,0.6-0.5,1-0.7c0.4-0.2,0.8-0.2,1.2-0.2
			s0.8,0.1,1.2,0.2c0.4,0.2,0.7,0.4,1,0.7c0.3,0.3,0.5,0.6,0.7,1c0.2,0.4,0.2,0.8,0.2,1.2s-0.1,0.8-0.2,1.2c-0.2,0.4-0.4,0.7-0.7,1
			c-0.3,0.3-0.6,0.5-1,0.7c-0.4,0.2-0.8,0.2-1.2,0.2s-0.8-0.1-1.2-0.2c-0.4-0.2-0.7-0.4-1-0.7c-0.3-0.3-0.5-0.6-0.7-1
			C912.6,390.9,912.6,390.5,912.6,390.1z M918.3,396v15.4h-5.4V396H918.3z"/>
		<path class="st18" d="M928.1,400.5v10.9h-5.4v-10.9h-1.8V396h1.8v-4.6h5.4v4.6h3.1v4.5H928.1z"/>
	</g>
	<g class="st27">
		<path class="st18" d="M947.7,396l3.7,8.1l3.8-8.1h3.4l3.8,8.3l3.9-8.3h6l-8,15.4h-3.6l-3.8-8.4l-3.7,8.4h-3.7l-7.9-15.4H947.7z"/>
	</g>
	<g class="st27">
		<path class="st18" d="M972.8,403.6c0-1.1,0.2-2.2,0.7-3.2c0.5-1,1.1-1.8,1.9-2.6c0.8-0.7,1.8-1.3,2.9-1.7s2.4-0.6,3.7-0.6
			c1.3,0,2.5,0.2,3.7,0.6s2.1,1,2.9,1.7c0.8,0.7,1.5,1.6,1.9,2.6c0.5,1,0.7,2.1,0.7,3.3s-0.2,2.3-0.7,3.3c-0.5,1-1.1,1.9-1.9,2.6
			c-0.8,0.7-1.8,1.3-3,1.7c-1.2,0.4-2.4,0.6-3.7,0.6c-1.3,0-2.5-0.2-3.7-0.6c-1.1-0.4-2.1-1-2.9-1.7c-0.8-0.7-1.4-1.6-1.9-2.7
			C973.1,406,972.8,404.8,972.8,403.6z M978.6,403.6c0,0.5,0.1,1,0.3,1.4s0.4,0.8,0.8,1.1c0.3,0.3,0.7,0.6,1.1,0.8
			c0.4,0.2,0.9,0.3,1.4,0.3c0.5,0,0.9-0.1,1.4-0.3c0.4-0.2,0.8-0.4,1.1-0.8c0.3-0.3,0.6-0.7,0.8-1.1s0.3-0.9,0.3-1.4
			c0-0.5-0.1-0.9-0.3-1.4c-0.2-0.4-0.4-0.8-0.8-1.1c-0.3-0.3-0.7-0.6-1.1-0.8c-0.4-0.2-0.9-0.3-1.4-0.3c-0.5,0-0.9,0.1-1.4,0.3
			c-0.4,0.2-0.8,0.4-1.1,0.8c-0.3,0.3-0.6,0.7-0.8,1.1S978.6,403.2,978.6,403.6z"/>
		<path class="st18" d="M999.9,396v8.7c0,1.9,0.9,2.8,2.8,2.8c1.8,0,2.8-0.9,2.8-2.8V396h5.4v9.7c0,2.1-0.7,3.6-2.1,4.7
			c-1.4,1-3.4,1.6-6.1,1.6s-4.8-0.5-6.1-1.6c-1.4-1-2.1-2.6-2.1-4.7V396H999.9z"/>
		<path class="st18" d="M1019.9,386.5v24.9h-5.4v-24.9H1019.9z"/>
		<path class="st18" d="M1035.5,386.5h5.5v24.9h-5.5v-1.7c-1.2,1.5-2.7,2.2-4.7,2.2c-1.1,0-2.2-0.2-3.1-0.6c-0.9-0.4-1.8-1-2.5-1.7
			c-0.7-0.7-1.2-1.6-1.6-2.6c-0.4-1-0.6-2.1-0.6-3.2c0-1.1,0.2-2.1,0.6-3.1s0.9-1.9,1.6-2.6c0.7-0.7,1.5-1.3,2.4-1.8
			c1-0.4,2-0.6,3.1-0.6c1.9,0,3.5,0.7,4.8,2V386.5z M1028.7,403.7c0,0.5,0.1,1,0.3,1.4c0.2,0.4,0.4,0.8,0.7,1.1
			c0.3,0.3,0.7,0.6,1.1,0.8c0.4,0.2,0.9,0.3,1.4,0.3c0.5,0,0.9-0.1,1.4-0.3c0.4-0.2,0.8-0.4,1.1-0.8c0.3-0.3,0.6-0.7,0.8-1.1
			c0.2-0.4,0.3-0.9,0.3-1.3c0-0.5-0.1-0.9-0.3-1.4c-0.2-0.4-0.4-0.8-0.8-1.1c-0.3-0.3-0.7-0.6-1.1-0.8c-0.4-0.2-0.9-0.3-1.4-0.3
			c-0.5,0-0.9,0.1-1.4,0.3s-0.8,0.4-1.1,0.8c-0.3,0.3-0.6,0.7-0.8,1.1C1028.8,402.7,1028.7,403.2,1028.7,403.7z"/>
		<path class="st18" d="M1060.3,386.5v11c1.3-1.3,2.9-2,4.8-2c1.1,0,2.2,0.2,3.1,0.6c1,0.4,1.8,1,2.4,1.7c0.7,0.7,1.2,1.6,1.6,2.6
			c0.4,1,0.6,2,0.6,3.2c0,1.1-0.2,2.2-0.6,3.2c-0.4,1-0.9,1.9-1.6,2.6c-0.7,0.7-1.5,1.3-2.5,1.8s-2,0.6-3.1,0.6
			c-2,0-3.6-0.7-4.7-2.2v1.7h-5.4v-24.9H1060.3z M1067.1,403.8c0-0.5-0.1-0.9-0.3-1.4c-0.2-0.4-0.4-0.8-0.8-1.1
			c-0.3-0.3-0.7-0.6-1.1-0.8c-0.4-0.2-0.9-0.3-1.4-0.3c-0.5,0-0.9,0.1-1.4,0.3s-0.8,0.4-1.1,0.8c-0.3,0.3-0.6,0.7-0.8,1.1
			c-0.2,0.4-0.3,0.9-0.3,1.4c0,0.5,0.1,0.9,0.3,1.3c0.2,0.4,0.4,0.8,0.8,1.1c0.3,0.3,0.7,0.6,1.1,0.8c0.4,0.2,0.9,0.3,1.4,0.3
			c0.5,0,0.9-0.1,1.4-0.3c0.4-0.2,0.8-0.4,1.1-0.8c0.3-0.3,0.6-0.7,0.8-1.1C1067.1,404.7,1067.1,404.2,1067.1,403.8z"/>
		<path class="st18" d="M1080.8,404.6c0,2.3,1.1,3.5,3.3,3.5c1.2,0,2.1-0.5,2.7-1.4h5.2c-1.1,3.5-3.7,5.3-8,5.3
			c-1.3,0-2.5-0.2-3.6-0.6c-1.1-0.4-2-0.9-2.8-1.7c-0.8-0.7-1.4-1.6-1.8-2.6s-0.6-2.1-0.6-3.4c0-1.3,0.2-2.4,0.6-3.5s1-1.9,1.7-2.6
			c0.7-0.7,1.6-1.3,2.7-1.7s2.2-0.6,3.6-0.6c1.3,0,2.5,0.2,3.5,0.6s1.9,1,2.6,1.7s1.3,1.6,1.6,2.7s0.6,2.3,0.6,3.6v0.6H1080.8z
			 M1087.2,401.5c-0.2-0.8-0.5-1.4-1.1-1.8c-0.6-0.5-1.2-0.7-2-0.7c-0.8,0-1.5,0.2-2.1,0.7c-0.5,0.4-0.9,1.1-1,1.9H1087.2z"/>
	</g>
	<g class="st27">
		<path class="st18" d="M1111.6,400.5v10.9h-5.4v-10.9h-1.8V396h1.8v-4.6h5.4v4.6h3.1v4.5H1111.6z"/>
	</g>
	<g class="st27">
		<path class="st18" d="M1117.4,386.5h5.4V398c0.7-0.9,1.5-1.5,2.2-1.8c0.8-0.3,1.7-0.5,2.7-0.5c1.9,0,3.4,0.5,4.4,1.6
			c1,1.1,1.5,2.5,1.5,4.3v9.8h-5.4v-7.8c0-0.8-0.1-1.4-0.2-1.9c-0.1-0.5-0.3-0.8-0.6-1.1c-0.5-0.4-1.1-0.6-1.7-0.6
			c-0.9,0-1.6,0.3-2.1,0.8c-0.5,0.6-0.7,1.3-0.7,2.4v8.2h-5.4V386.5z"/>
		<path class="st18" d="M1137,390.1c0-0.4,0.1-0.8,0.2-1.2c0.2-0.4,0.4-0.7,0.7-1c0.3-0.3,0.6-0.5,1-0.7c0.4-0.2,0.8-0.2,1.2-0.2
			s0.8,0.1,1.2,0.2c0.4,0.2,0.7,0.4,1,0.7c0.3,0.3,0.5,0.6,0.7,1c0.2,0.4,0.2,0.8,0.2,1.2s-0.1,0.8-0.2,1.2c-0.2,0.4-0.4,0.7-0.7,1
			c-0.3,0.3-0.6,0.5-1,0.7c-0.4,0.2-0.8,0.2-1.2,0.2s-0.8-0.1-1.2-0.2c-0.4-0.2-0.7-0.4-1-0.7c-0.3-0.3-0.5-0.6-0.7-1
			C1137,390.9,1137,390.5,1137,390.1z M1142.8,396v15.4h-5.4V396H1142.8z"/>
		<path class="st18" d="M1156.7,400c-1-0.5-2-0.8-2.9-0.8c-0.5,0-0.9,0.1-1.2,0.3c-0.3,0.2-0.5,0.5-0.5,0.8c0,0.2,0,0.3,0.1,0.4
			c0,0.1,0.2,0.2,0.3,0.3c0.2,0.1,0.4,0.2,0.8,0.3c0.3,0.1,0.8,0.2,1.3,0.3c1.5,0.3,2.6,0.8,3.4,1.6s1.1,1.8,1.1,3
			c0,0.9-0.2,1.7-0.5,2.4s-0.9,1.3-1.5,1.8c-0.6,0.5-1.4,0.9-2.3,1.1c-0.9,0.3-1.9,0.4-3,0.4c-2.1,0-4.1-0.6-6.1-1.8l2-3.8
			c1.5,1,3,1.6,4.3,1.6c0.5,0,0.9-0.1,1.2-0.3c0.3-0.2,0.5-0.5,0.5-0.8c0-0.2,0-0.4-0.1-0.5s-0.2-0.2-0.3-0.4
			c-0.2-0.1-0.4-0.2-0.7-0.3c-0.3-0.1-0.7-0.2-1.2-0.3c-1.7-0.3-2.9-0.8-3.5-1.5c-0.7-0.7-1-1.6-1-2.8c0-0.9,0.2-1.6,0.5-2.3
			c0.3-0.7,0.8-1.3,1.4-1.8c0.6-0.5,1.3-0.8,2.2-1.1c0.8-0.3,1.8-0.4,2.8-0.4c1.7,0,3.3,0.3,5,1L1156.7,400z"/>
		<path class="st18" d="M1171.9,386.5h5.4V398c0.7-0.9,1.5-1.5,2.2-1.8c0.8-0.3,1.7-0.5,2.7-0.5c1.9,0,3.4,0.5,4.4,1.6
			c1,1.1,1.5,2.5,1.5,4.3v9.8h-5.4v-7.8c0-0.8-0.1-1.4-0.2-1.9c-0.1-0.5-0.3-0.8-0.6-1.1c-0.5-0.4-1.1-0.6-1.7-0.6
			c-0.9,0-1.6,0.3-2.1,0.8c-0.5,0.6-0.7,1.3-0.7,2.4v8.2h-5.4V386.5z"/>
		<path class="st18" d="M1203.7,396h5.5v15.4h-5.5v-1.7c-1.2,1.5-2.7,2.2-4.7,2.2c-1.1,0-2.1-0.2-3.1-0.6c-0.9-0.4-1.8-1-2.5-1.7
			c-0.7-0.7-1.2-1.6-1.6-2.6c-0.4-1-0.6-2.1-0.6-3.3c0-1.1,0.2-2.1,0.6-3.1s0.9-1.9,1.6-2.6s1.5-1.3,2.4-1.8c0.9-0.4,2-0.6,3.1-0.6
			c1.9,0,3.5,0.7,4.8,2V396z M1196.9,403.7c0,0.5,0.1,1,0.3,1.4c0.2,0.4,0.4,0.8,0.7,1.1s0.7,0.6,1.1,0.8c0.4,0.2,0.9,0.3,1.4,0.3
			c0.5,0,0.9-0.1,1.4-0.3c0.4-0.2,0.8-0.4,1.1-0.8c0.3-0.3,0.6-0.7,0.8-1.1c0.2-0.4,0.3-0.9,0.3-1.3c0-0.5-0.1-0.9-0.3-1.4
			c-0.2-0.4-0.4-0.8-0.8-1.1c-0.3-0.3-0.7-0.6-1.1-0.8s-0.9-0.3-1.4-0.3c-0.5,0-1,0.1-1.4,0.3c-0.4,0.2-0.8,0.4-1.1,0.8
			c-0.3,0.3-0.6,0.7-0.7,1.1C1197,402.7,1196.9,403.2,1196.9,403.7z"/>
	</g>
	<g class="st27">
		<path class="st18" d="M1212.9,396h5.4v2.5c0.6-0.9,1.3-1.6,2.1-2.1c0.8-0.5,1.8-0.7,2.9-0.7c0.1,0,0.3,0,0.5,0
			c0.2,0,0.4,0,0.6,0.1v5.2c-0.7-0.4-1.5-0.5-2.3-0.5c-1.3,0-2.2,0.4-2.8,1.1c-0.6,0.8-0.9,1.8-0.9,3.3v6.6h-5.4V396z"/>
	</g>
	<g class="st27">
		<path class="st18" d="M1238.9,386.5h5.5v24.9h-5.5v-1.7c-1.2,1.5-2.7,2.2-4.7,2.2c-1.1,0-2.1-0.2-3.1-0.6s-1.8-1-2.5-1.7
			c-0.7-0.7-1.2-1.6-1.6-2.6c-0.4-1-0.6-2.1-0.6-3.2c0-1.1,0.2-2.1,0.6-3.1s0.9-1.9,1.6-2.6s1.5-1.3,2.4-1.8c0.9-0.4,2-0.6,3.1-0.6
			c1.9,0,3.5,0.7,4.8,2V386.5z M1232.1,403.7c0,0.5,0.1,1,0.3,1.4c0.2,0.4,0.4,0.8,0.7,1.1s0.7,0.6,1.1,0.8c0.4,0.2,0.9,0.3,1.4,0.3
			c0.5,0,0.9-0.1,1.4-0.3c0.4-0.2,0.8-0.4,1.1-0.8c0.3-0.3,0.6-0.7,0.8-1.1c0.2-0.4,0.3-0.9,0.3-1.3c0-0.5-0.1-0.9-0.3-1.4
			c-0.2-0.4-0.4-0.8-0.8-1.1c-0.3-0.3-0.7-0.6-1.1-0.8s-0.9-0.3-1.4-0.3c-0.5,0-0.9,0.1-1.4,0.3s-0.8,0.4-1.1,0.8
			c-0.3,0.3-0.6,0.7-0.8,1.1C1232.2,402.7,1232.1,403.2,1232.1,403.7z"/>
	</g>
	<g class="st27">
		<path class="st18" d="M734.2,436.5v10.9h-5.4v-10.9h-1.8V432h1.8v-4.6h5.4v4.6h3.1v4.5H734.2z"/>
	</g>
	<g class="st27">
		<path class="st18" d="M739,439.6c0-1.1,0.2-2.2,0.7-3.2c0.5-1,1.1-1.8,1.9-2.6c0.8-0.7,1.8-1.3,2.9-1.7s2.4-0.6,3.7-0.6
			c1.3,0,2.5,0.2,3.7,0.6s2.1,1,2.9,1.7c0.8,0.7,1.5,1.6,1.9,2.6c0.5,1,0.7,2.1,0.7,3.3s-0.2,2.3-0.7,3.3c-0.5,1-1.1,1.9-1.9,2.6
			c-0.8,0.7-1.8,1.3-3,1.7c-1.2,0.4-2.4,0.6-3.7,0.6c-1.3,0-2.5-0.2-3.7-0.6c-1.1-0.4-2.1-1-2.9-1.7c-0.8-0.7-1.4-1.6-1.9-2.7
			C739.2,442,739,440.8,739,439.6z M744.7,439.6c0,0.5,0.1,1,0.3,1.4c0.2,0.4,0.4,0.8,0.8,1.1s0.7,0.6,1.1,0.8
			c0.4,0.2,0.9,0.3,1.4,0.3s0.9-0.1,1.4-0.3c0.4-0.2,0.8-0.4,1.1-0.8c0.3-0.3,0.6-0.7,0.8-1.1c0.2-0.4,0.3-0.9,0.3-1.4
			c0-0.5-0.1-0.9-0.3-1.4c-0.2-0.4-0.4-0.8-0.8-1.1c-0.3-0.3-0.7-0.6-1.1-0.8c-0.4-0.2-0.9-0.3-1.4-0.3s-0.9,0.1-1.4,0.3
			c-0.4,0.2-0.8,0.4-1.1,0.8c-0.3,0.3-0.6,0.7-0.8,1.1C744.8,438.7,744.7,439.2,744.7,439.6z"/>
		<path class="st18" d="M782.4,437c-0.9-0.6-1.9-1-2.9-1c-0.5,0-1,0.1-1.5,0.3c-0.5,0.2-0.8,0.4-1.2,0.8c-0.3,0.3-0.6,0.7-0.8,1.2
			c-0.2,0.5-0.3,1-0.3,1.5c0,0.5,0.1,1,0.3,1.5c0.2,0.5,0.4,0.8,0.8,1.2s0.7,0.6,1.2,0.8c0.5,0.2,0.9,0.3,1.5,0.3c1,0,2-0.3,2.9-1
			v4.6c-1.3,0.6-2.6,0.9-3.8,0.9c-1.1,0-2.2-0.2-3.2-0.6s-1.9-0.9-2.7-1.6c-0.8-0.7-1.4-1.6-1.8-2.6c-0.5-1-0.7-2.1-0.7-3.3
			s0.2-2.3,0.7-3.3s1-1.9,1.8-2.6c0.8-0.7,1.7-1.3,2.7-1.7c1-0.4,2.2-0.6,3.4-0.6c1.3,0,2.5,0.3,3.7,0.8V437z"/>
		<path class="st18" d="M784.9,439.6c0-1.1,0.2-2.2,0.7-3.2c0.5-1,1.1-1.8,1.9-2.6c0.8-0.7,1.8-1.3,2.9-1.7s2.4-0.6,3.7-0.6
			c1.3,0,2.5,0.2,3.7,0.6s2.1,1,2.9,1.7c0.8,0.7,1.5,1.6,1.9,2.6c0.5,1,0.7,2.1,0.7,3.3s-0.2,2.3-0.7,3.3c-0.5,1-1.1,1.9-1.9,2.6
			c-0.8,0.7-1.8,1.3-3,1.7c-1.2,0.4-2.4,0.6-3.7,0.6c-1.3,0-2.5-0.2-3.7-0.6c-1.1-0.4-2.1-1-2.9-1.7c-0.8-0.7-1.4-1.6-1.9-2.7
			C785.1,442,784.9,440.8,784.9,439.6z M790.6,439.6c0,0.5,0.1,1,0.3,1.4c0.2,0.4,0.4,0.8,0.8,1.1s0.7,0.6,1.1,0.8
			c0.4,0.2,0.9,0.3,1.4,0.3s0.9-0.1,1.4-0.3c0.4-0.2,0.8-0.4,1.1-0.8c0.3-0.3,0.6-0.7,0.8-1.1c0.2-0.4,0.3-0.9,0.3-1.4
			c0-0.5-0.1-0.9-0.3-1.4c-0.2-0.4-0.4-0.8-0.8-1.1c-0.3-0.3-0.7-0.6-1.1-0.8c-0.4-0.2-0.9-0.3-1.4-0.3s-0.9,0.1-1.4,0.3
			c-0.4,0.2-0.8,0.4-1.1,0.8c-0.3,0.3-0.6,0.7-0.8,1.1C790.7,438.7,790.6,439.2,790.6,439.6z"/>
	</g>
	<g class="st27">
		<path class="st18" d="M806.5,432h5.4v1.9c1.5-1.4,3.1-2.1,5-2.1c2.3,0,4,1,5.2,2.9c1.2-1.9,3-2.9,5.2-2.9c0.7,0,1.4,0.1,2,0.3
			c0.6,0.2,1.2,0.5,1.6,1c0.5,0.5,0.8,1,1.1,1.8c0.3,0.7,0.4,1.6,0.4,2.6v10h-5.4v-7.6c0-0.8-0.1-1.4-0.2-1.9
			c-0.1-0.5-0.3-0.9-0.5-1.2s-0.5-0.5-0.7-0.6c-0.3-0.1-0.6-0.2-0.9-0.2c-1.7,0-2.6,1.3-2.6,3.8v7.6h-5.4v-7.6
			c0-0.8-0.1-1.4-0.1-1.9c-0.1-0.5-0.2-0.9-0.4-1.2c-0.2-0.3-0.4-0.5-0.7-0.6c-0.3-0.1-0.7-0.2-1.1-0.2c-0.3,0-0.7,0-1,0.1
			c-0.3,0.1-0.6,0.3-0.8,0.6c-0.2,0.3-0.4,0.7-0.5,1.2c-0.1,0.5-0.2,1.2-0.2,2v7.6h-5.4V432z"/>
	</g>
	<g class="st27">
		<path class="st18" d="M842.2,455.1h-5.4V432h5.4v1.7c1.2-1.5,2.7-2.2,4.7-2.2c1.1,0,2.1,0.2,3.1,0.6c0.9,0.4,1.8,1,2.5,1.8
			c0.7,0.7,1.2,1.6,1.6,2.6c0.4,1,0.6,2.1,0.6,3.2c0,1.1-0.2,2.2-0.6,3.2c-0.4,1-0.9,1.8-1.6,2.6c-0.7,0.7-1.5,1.3-2.4,1.7
			c-0.9,0.4-2,0.6-3.1,0.6c-1.9,0-3.5-0.7-4.8-2V455.1z M849,439.8c0-0.5-0.1-0.9-0.3-1.4c-0.2-0.4-0.4-0.8-0.7-1.1
			c-0.3-0.3-0.7-0.6-1.1-0.8c-0.4-0.2-0.9-0.3-1.4-0.3c-0.5,0-0.9,0.1-1.4,0.3s-0.8,0.4-1.1,0.8c-0.3,0.3-0.6,0.7-0.8,1.1
			c-0.2,0.4-0.3,0.9-0.3,1.4c0,0.5,0.1,0.9,0.3,1.3c0.2,0.4,0.4,0.8,0.8,1.1c0.3,0.3,0.7,0.6,1.1,0.8c0.4,0.2,0.9,0.3,1.4,0.3
			s0.9-0.1,1.4-0.3c0.4-0.2,0.8-0.4,1.1-0.8c0.3-0.3,0.6-0.7,0.8-1.1C848.9,440.7,849,440.2,849,439.8z"/>
		<path class="st18" d="M863.2,422.5v24.9h-5.4v-24.9H863.2z"/>
	</g>
	<g class="st27">
		<path class="st18" d="M871.8,440.6c0,2.3,1.1,3.5,3.3,3.5c1.2,0,2.1-0.5,2.7-1.4h5.2c-1.1,3.5-3.7,5.3-8,5.3
			c-1.3,0-2.5-0.2-3.6-0.6c-1.1-0.4-2-0.9-2.8-1.7c-0.8-0.7-1.4-1.6-1.8-2.6s-0.6-2.1-0.6-3.4c0-1.3,0.2-2.4,0.6-3.5
			c0.4-1,1-1.9,1.7-2.6s1.6-1.3,2.7-1.7c1.1-0.4,2.2-0.6,3.6-0.6c1.3,0,2.5,0.2,3.5,0.6s1.9,1,2.6,1.7c0.7,0.7,1.3,1.6,1.6,2.7
			s0.6,2.3,0.6,3.6v0.6H871.8z M878.2,437.5c-0.2-0.8-0.6-1.4-1.1-1.8c-0.6-0.5-1.2-0.7-2-0.7c-0.8,0-1.5,0.2-2.1,0.7
			c-0.5,0.4-0.9,1.1-1,1.9H878.2z"/>
	</g>
	<g class="st27">
		<path class="st18" d="M892.6,436.5v10.9h-5.4v-10.9h-1.8V432h1.8v-4.6h5.4v4.6h3.1v4.5H892.6z"/>
	</g>
	<g class="st27">
		<path class="st18" d="M902.9,440.6c0,2.3,1.1,3.5,3.3,3.5c1.2,0,2.1-0.5,2.7-1.4h5.2c-1.1,3.5-3.7,5.3-8,5.3
			c-1.3,0-2.5-0.2-3.6-0.6c-1.1-0.4-2-0.9-2.8-1.7c-0.8-0.7-1.4-1.6-1.8-2.6s-0.6-2.1-0.6-3.4c0-1.3,0.2-2.4,0.6-3.5
			c0.4-1,1-1.9,1.7-2.6s1.6-1.3,2.7-1.7c1.1-0.4,2.2-0.6,3.6-0.6c1.3,0,2.5,0.2,3.5,0.6s1.9,1,2.6,1.7c0.7,0.7,1.3,1.6,1.6,2.7
			s0.6,2.3,0.6,3.6v0.6H902.9z M909.3,437.5c-0.2-0.8-0.6-1.4-1.1-1.8c-0.6-0.5-1.2-0.7-2-0.7c-0.8,0-1.5,0.2-2.1,0.7
			c-0.5,0.4-0.9,1.1-1,1.9H909.3z"/>
		<path class="st18" d="M937.8,436c-1-0.5-2-0.8-2.9-0.8c-0.5,0-0.9,0.1-1.2,0.3c-0.3,0.2-0.5,0.5-0.5,0.8c0,0.2,0,0.3,0.1,0.4
			c0,0.1,0.2,0.2,0.3,0.3c0.2,0.1,0.4,0.2,0.8,0.3c0.3,0.1,0.8,0.2,1.3,0.3c1.5,0.3,2.6,0.8,3.4,1.6s1.1,1.8,1.1,3
			c0,0.9-0.2,1.7-0.5,2.4s-0.9,1.3-1.5,1.8c-0.6,0.5-1.4,0.9-2.3,1.1c-0.9,0.3-1.9,0.4-3,0.4c-2.1,0-4.1-0.6-6.1-1.8l2-3.8
			c1.5,1,3,1.6,4.3,1.6c0.5,0,0.9-0.1,1.2-0.3c0.3-0.2,0.5-0.5,0.5-0.8c0-0.2,0-0.4-0.1-0.5c-0.1-0.1-0.2-0.2-0.3-0.4
			c-0.2-0.1-0.4-0.2-0.7-0.3s-0.7-0.2-1.2-0.3c-1.7-0.3-2.9-0.8-3.5-1.5c-0.7-0.7-1-1.6-1-2.8c0-0.9,0.2-1.6,0.5-2.3
			c0.3-0.7,0.8-1.3,1.4-1.8c0.6-0.5,1.3-0.8,2.2-1.1c0.9-0.3,1.8-0.4,2.8-0.4c1.7,0,3.3,0.3,5,1L937.8,436z"/>
		<path class="st18" d="M948.3,432v8.7c0,1.9,0.9,2.8,2.8,2.8c1.8,0,2.8-0.9,2.8-2.8V432h5.4v9.7c0,2.1-0.7,3.6-2.1,4.7
			c-1.4,1-3.4,1.6-6.1,1.6s-4.8-0.5-6.1-1.6c-1.4-1-2.1-2.6-2.1-4.7V432H948.3z"/>
	</g>
	<g class="st27">
		<path class="st18" d="M974.6,437c-0.9-0.6-1.9-1-2.9-1c-0.5,0-1,0.1-1.5,0.3c-0.5,0.2-0.8,0.4-1.2,0.8c-0.3,0.3-0.6,0.7-0.8,1.2
			c-0.2,0.5-0.3,1-0.3,1.5c0,0.5,0.1,1,0.3,1.5c0.2,0.5,0.4,0.8,0.8,1.2s0.7,0.6,1.2,0.8c0.5,0.2,0.9,0.3,1.5,0.3c1,0,2-0.3,2.9-1
			v4.6c-1.3,0.6-2.6,0.9-3.8,0.9c-1.1,0-2.2-0.2-3.2-0.6s-1.9-0.9-2.7-1.6s-1.4-1.6-1.8-2.6c-0.5-1-0.7-2.1-0.7-3.3s0.2-2.3,0.7-3.3
			c0.4-1,1-1.9,1.8-2.6c0.8-0.7,1.7-1.3,2.7-1.7c1-0.4,2.2-0.6,3.4-0.6c1.3,0,2.5,0.3,3.7,0.8V437z"/>
	</g>
	<g class="st27">
		<path class="st18" d="M978.4,422.5h5.4V434c0.7-0.9,1.5-1.5,2.2-1.8c0.8-0.3,1.6-0.5,2.7-0.5c1.9,0,3.4,0.5,4.4,1.6
			c1,1.1,1.5,2.5,1.5,4.3v9.8h-5.4v-7.8c0-0.8-0.1-1.4-0.2-1.9c-0.1-0.5-0.3-0.8-0.6-1.1c-0.5-0.4-1.1-0.6-1.7-0.6
			c-0.9,0-1.6,0.3-2.1,0.8c-0.5,0.6-0.7,1.3-0.7,2.4v8.2h-5.4V422.5z"/>
		<path class="st18" d="M1020.4,432h5.5v15.4h-5.5v-1.7c-1.2,1.5-2.7,2.2-4.7,2.2c-1.1,0-2.2-0.2-3.1-0.6c-0.9-0.4-1.8-1-2.5-1.7
			c-0.7-0.7-1.2-1.6-1.6-2.6c-0.4-1-0.6-2.1-0.6-3.3c0-1.1,0.2-2.1,0.6-3.1s0.9-1.9,1.6-2.6s1.5-1.3,2.4-1.8c0.9-0.4,2-0.6,3.1-0.6
			c1.9,0,3.5,0.7,4.8,2V432z M1013.6,439.7c0,0.5,0.1,1,0.3,1.4c0.2,0.4,0.4,0.8,0.7,1.1c0.3,0.3,0.7,0.6,1.1,0.8
			c0.4,0.2,0.9,0.3,1.4,0.3c0.5,0,0.9-0.1,1.4-0.3c0.4-0.2,0.8-0.4,1.1-0.8c0.3-0.3,0.6-0.7,0.8-1.1c0.2-0.4,0.3-0.9,0.3-1.3
			c0-0.5-0.1-0.9-0.3-1.4c-0.2-0.4-0.4-0.8-0.8-1.1c-0.3-0.3-0.7-0.6-1.1-0.8c-0.4-0.2-0.9-0.3-1.4-0.3c-0.5,0-1,0.1-1.4,0.3
			c-0.4,0.2-0.8,0.4-1.1,0.8c-0.3,0.3-0.6,0.7-0.7,1.1C1013.7,438.7,1013.6,439.2,1013.6,439.7z"/>
		<path class="st18" d="M1029.6,432h5.4v1.9c0.7-0.9,1.5-1.5,2.2-1.8c0.8-0.3,1.7-0.5,2.7-0.5c1.1,0,2,0.2,2.8,0.5
			c0.8,0.4,1.4,0.8,2,1.5c0.4,0.5,0.7,1.1,0.9,1.7c0.2,0.6,0.2,1.4,0.2,2.2v9.8h-5.4v-7.8c0-0.8-0.1-1.4-0.2-1.8
			c-0.1-0.5-0.3-0.8-0.6-1.1c-0.2-0.2-0.5-0.4-0.8-0.5c-0.3-0.1-0.6-0.2-1-0.2c-0.9,0-1.6,0.3-2.1,0.8c-0.5,0.6-0.7,1.3-0.7,2.4v8.2
			h-5.4V432z"/>
		<path class="st18" d="M1064.6,440.6c0,2.3,1.1,3.5,3.3,3.5c1.2,0,2.1-0.5,2.7-1.4h5.2c-1.1,3.5-3.7,5.3-8,5.3
			c-1.3,0-2.5-0.2-3.6-0.6c-1.1-0.4-2-0.9-2.8-1.7c-0.8-0.7-1.4-1.6-1.8-2.6s-0.6-2.1-0.6-3.4c0-1.3,0.2-2.4,0.6-3.5s1-1.9,1.7-2.6
			c0.7-0.7,1.6-1.3,2.7-1.7s2.2-0.6,3.6-0.6c1.3,0,2.5,0.2,3.5,0.6s1.9,1,2.6,1.7s1.3,1.6,1.6,2.7s0.6,2.3,0.6,3.6v0.6H1064.6z
			 M1071,437.5c-0.2-0.8-0.5-1.4-1.1-1.8c-0.6-0.5-1.2-0.7-2-0.7c-0.8,0-1.5,0.2-2.1,0.7c-0.5,0.4-0.9,1.1-1,1.9H1071z"/>
		<path class="st18" d="M1091,432h5.5v15.4h-5.5v-1.7c-1.2,1.5-2.7,2.2-4.7,2.2c-1.1,0-2.2-0.2-3.1-0.6c-0.9-0.4-1.8-1-2.5-1.7
			c-0.7-0.7-1.2-1.6-1.6-2.6c-0.4-1-0.6-2.1-0.6-3.3c0-1.1,0.2-2.1,0.6-3.1s0.9-1.9,1.6-2.6s1.5-1.3,2.4-1.8c0.9-0.4,2-0.6,3.1-0.6
			c1.9,0,3.5,0.7,4.8,2V432z M1084.2,439.7c0,0.5,0.1,1,0.3,1.4c0.2,0.4,0.4,0.8,0.7,1.1c0.3,0.3,0.7,0.6,1.1,0.8
			c0.4,0.2,0.9,0.3,1.4,0.3c0.5,0,0.9-0.1,1.4-0.3c0.4-0.2,0.8-0.4,1.1-0.8c0.3-0.3,0.6-0.7,0.8-1.1c0.2-0.4,0.3-0.9,0.3-1.3
			c0-0.5-0.1-0.9-0.3-1.4c-0.2-0.4-0.4-0.8-0.8-1.1c-0.3-0.3-0.7-0.6-1.1-0.8c-0.4-0.2-0.9-0.3-1.4-0.3c-0.5,0-1,0.1-1.4,0.3
			c-0.4,0.2-0.8,0.4-1.1,0.8c-0.3,0.3-0.6,0.7-0.7,1.1C1084.2,438.7,1084.2,439.2,1084.2,439.7z"/>
		<path class="st18" d="M1110.3,436c-1-0.5-2-0.8-2.9-0.8c-0.5,0-0.9,0.1-1.2,0.3c-0.3,0.2-0.5,0.5-0.5,0.8c0,0.2,0,0.3,0.1,0.4
			c0,0.1,0.2,0.2,0.3,0.3c0.2,0.1,0.4,0.2,0.8,0.3s0.8,0.2,1.3,0.3c1.5,0.3,2.6,0.8,3.4,1.6c0.7,0.8,1.1,1.8,1.1,3
			c0,0.9-0.2,1.7-0.5,2.4c-0.4,0.7-0.9,1.3-1.5,1.8c-0.6,0.5-1.4,0.9-2.3,1.1c-0.9,0.3-1.9,0.4-3,0.4c-2.1,0-4.1-0.6-6.2-1.8l2-3.8
			c1.5,1,3,1.6,4.3,1.6c0.5,0,0.9-0.1,1.2-0.3c0.3-0.2,0.5-0.5,0.5-0.8c0-0.2,0-0.4-0.1-0.5c-0.1-0.1-0.2-0.2-0.3-0.4
			c-0.2-0.1-0.4-0.2-0.7-0.3c-0.3-0.1-0.7-0.2-1.2-0.3c-1.7-0.3-2.9-0.8-3.5-1.5c-0.7-0.7-1-1.6-1-2.8c0-0.9,0.2-1.6,0.5-2.3
			c0.3-0.7,0.8-1.3,1.4-1.8c0.6-0.5,1.3-0.8,2.2-1.1c0.9-0.3,1.8-0.4,2.8-0.4c1.7,0,3.3,0.3,5,1L1110.3,436z"/>
		<path class="st18" d="M1121,445.3l-7.4-13.3h6.3l4.1,7.9l4-7.9h6.2l-12.4,23.1h-6.1L1121,445.3z"/>
	</g>
	<g class="st27">
		<path class="st18" d="M1152.3,436.5v10.9h-5.4v-10.9h-1.8V432h1.8v-4.6h5.4v4.6h3.1v4.5H1152.3z"/>
	</g>
	<g class="st27">
		<path class="st18" d="M1169.6,432h5.5v15.4h-5.5v-1.7c-1.2,1.5-2.7,2.2-4.7,2.2c-1.1,0-2.2-0.2-3.1-0.6c-0.9-0.4-1.8-1-2.5-1.7
			c-0.7-0.7-1.2-1.6-1.6-2.6c-0.4-1-0.6-2.1-0.6-3.3c0-1.1,0.2-2.1,0.6-3.1s0.9-1.9,1.6-2.6s1.5-1.3,2.4-1.8c0.9-0.4,2-0.6,3.1-0.6
			c1.9,0,3.5,0.7,4.8,2V432z M1162.8,439.7c0,0.5,0.1,1,0.3,1.4c0.2,0.4,0.4,0.8,0.7,1.1c0.3,0.3,0.7,0.6,1.1,0.8
			c0.4,0.2,0.9,0.3,1.4,0.3c0.5,0,0.9-0.1,1.4-0.3c0.4-0.2,0.8-0.4,1.1-0.8c0.3-0.3,0.6-0.7,0.8-1.1c0.2-0.4,0.3-0.9,0.3-1.3
			c0-0.5-0.1-0.9-0.3-1.4c-0.2-0.4-0.4-0.8-0.8-1.1c-0.3-0.3-0.7-0.6-1.1-0.8c-0.4-0.2-0.9-0.3-1.4-0.3c-0.5,0-1,0.1-1.4,0.3
			c-0.4,0.2-0.8,0.4-1.1,0.8c-0.3,0.3-0.6,0.7-0.7,1.1C1162.9,438.7,1162.8,439.2,1162.8,439.7z"/>
		<path class="st18" d="M1189,436c-1-0.5-2-0.8-2.9-0.8c-0.5,0-0.9,0.1-1.2,0.3c-0.3,0.2-0.5,0.5-0.5,0.8c0,0.2,0,0.3,0.1,0.4
			c0,0.1,0.2,0.2,0.3,0.3c0.2,0.1,0.4,0.2,0.8,0.3s0.8,0.2,1.3,0.3c1.5,0.3,2.6,0.8,3.4,1.6c0.7,0.8,1.1,1.8,1.1,3
			c0,0.9-0.2,1.7-0.5,2.4c-0.4,0.7-0.9,1.3-1.5,1.8c-0.6,0.5-1.4,0.9-2.3,1.1c-0.9,0.3-1.9,0.4-3,0.4c-2.1,0-4.1-0.6-6.2-1.8l2-3.8
			c1.5,1,3,1.6,4.3,1.6c0.5,0,0.9-0.1,1.2-0.3c0.3-0.2,0.5-0.5,0.5-0.8c0-0.2,0-0.4-0.1-0.5c-0.1-0.1-0.2-0.2-0.3-0.4
			c-0.2-0.1-0.4-0.2-0.7-0.3c-0.3-0.1-0.7-0.2-1.2-0.3c-1.7-0.3-2.9-0.8-3.5-1.5c-0.7-0.7-1-1.6-1-2.8c0-0.9,0.2-1.6,0.5-2.3
			c0.3-0.7,0.8-1.3,1.4-1.8c0.6-0.5,1.3-0.8,2.2-1.1c0.9-0.3,1.8-0.4,2.8-0.4c1.7,0,3.3,0.3,5,1L1189,436z"/>
		<path class="st18" d="M1199.5,422.5v15.1l5.7-5.5h7.4l-7.7,7.1l8.2,8.3h-7.6l-6-6.3v6.3h-5.4v-24.9H1199.5z"/>
	</g>
	<g class="st27">
		<path class="st18" d="M708.2,458.5v11c1.3-1.3,2.9-2,4.8-2c1.1,0,2.2,0.2,3.1,0.6c0.9,0.4,1.8,1,2.4,1.7c0.7,0.7,1.2,1.6,1.6,2.6
			c0.4,1,0.6,2,0.6,3.2c0,1.1-0.2,2.2-0.6,3.2c-0.4,1-0.9,1.9-1.6,2.6c-0.7,0.7-1.5,1.3-2.5,1.8c-1,0.4-2,0.6-3.1,0.6
			c-2,0-3.6-0.7-4.7-2.2v1.7h-5.4v-24.9H708.2z M715,475.8c0-0.5-0.1-0.9-0.3-1.4c-0.2-0.4-0.4-0.8-0.8-1.1
			c-0.3-0.3-0.7-0.6-1.1-0.8c-0.4-0.2-0.9-0.3-1.4-0.3c-0.5,0-0.9,0.1-1.4,0.3s-0.8,0.4-1.1,0.8c-0.3,0.3-0.6,0.7-0.8,1.1
			c-0.2,0.4-0.3,0.9-0.3,1.4c0,0.5,0.1,0.9,0.3,1.3c0.2,0.4,0.4,0.8,0.8,1.1c0.3,0.3,0.7,0.6,1.1,0.8c0.4,0.2,0.9,0.3,1.4,0.3
			s0.9-0.1,1.4-0.3c0.4-0.2,0.8-0.4,1.1-0.8c0.3-0.3,0.6-0.7,0.8-1.1C714.9,476.7,715,476.2,715,475.8z"/>
		<path class="st18" d="M729.2,468v8.7c0,1.9,0.9,2.8,2.8,2.8c1.8,0,2.8-0.9,2.8-2.8V468h5.4v9.7c0,2.1-0.7,3.6-2.1,4.7
			c-1.4,1-3.4,1.6-6.1,1.6s-4.8-0.5-6.1-1.6c-1.4-1-2.1-2.6-2.1-4.7V468H729.2z"/>
		<path class="st18" d="M749.9,472.5v10.9h-5.4v-10.9h-1.8V468h1.8v-4.6h5.4v4.6h3.1v4.5H749.9z"/>
	</g>
	<g class="st27">
		<path class="st18" d="M770.8,481.3l-7.4-13.3h6.3l4.1,7.9l4-7.9h6.2l-12.4,23.1h-6.1L770.8,481.3z"/>
	</g>
	<g class="st27">
		<path class="st18" d="M784.4,475.6c0-1.1,0.2-2.2,0.7-3.2c0.5-1,1.1-1.8,1.9-2.6c0.8-0.7,1.8-1.3,2.9-1.7s2.4-0.6,3.7-0.6
			c1.3,0,2.5,0.2,3.7,0.6s2.1,1,2.9,1.7c0.8,0.7,1.5,1.6,1.9,2.6c0.5,1,0.7,2.1,0.7,3.3s-0.2,2.3-0.7,3.3c-0.5,1-1.1,1.9-1.9,2.6
			c-0.8,0.7-1.8,1.3-3,1.7c-1.2,0.4-2.4,0.6-3.7,0.6c-1.3,0-2.5-0.2-3.7-0.6c-1.1-0.4-2.1-1-2.9-1.7c-0.8-0.7-1.4-1.6-1.9-2.7
			C784.7,478,784.4,476.8,784.4,475.6z M790.2,475.6c0,0.5,0.1,1,0.3,1.4c0.2,0.4,0.4,0.8,0.8,1.1s0.7,0.6,1.1,0.8
			c0.4,0.2,0.9,0.3,1.4,0.3s0.9-0.1,1.4-0.3c0.4-0.2,0.8-0.4,1.1-0.8c0.3-0.3,0.6-0.7,0.8-1.1c0.2-0.4,0.3-0.9,0.3-1.4
			c0-0.5-0.1-0.9-0.3-1.4c-0.2-0.4-0.4-0.8-0.8-1.1c-0.3-0.3-0.7-0.6-1.1-0.8c-0.4-0.2-0.9-0.3-1.4-0.3s-0.9,0.1-1.4,0.3
			c-0.4,0.2-0.8,0.4-1.1,0.8c-0.3,0.3-0.6,0.7-0.8,1.1C790.3,474.7,790.2,475.2,790.2,475.6z"/>
		<path class="st18" d="M811.5,468v8.7c0,1.9,0.9,2.8,2.8,2.8c1.8,0,2.8-0.9,2.8-2.8V468h5.4v9.7c0,2.1-0.7,3.6-2.1,4.7
			c-1.4,1-3.4,1.6-6.1,1.6s-4.8-0.5-6.1-1.6c-1.4-1-2.1-2.6-2.1-4.7V468H811.5z"/>
		<path class="st18" d="M836.3,468h5.4v1.9c1.5-1.4,3.1-2.1,5-2.1c2.3,0,4,1,5.2,2.9c1.2-1.9,3-2.9,5.2-2.9c0.7,0,1.4,0.1,2,0.3
			c0.6,0.2,1.2,0.5,1.6,1c0.5,0.5,0.8,1,1.1,1.8c0.3,0.7,0.4,1.6,0.4,2.6v10h-5.4v-7.6c0-0.8-0.1-1.4-0.2-1.9
			c-0.1-0.5-0.3-0.9-0.5-1.2s-0.5-0.5-0.7-0.6c-0.3-0.1-0.6-0.2-0.9-0.2c-1.7,0-2.6,1.3-2.6,3.8v7.6h-5.4v-7.6
			c0-0.8-0.1-1.4-0.1-1.9c-0.1-0.5-0.2-0.9-0.4-1.2c-0.2-0.3-0.4-0.5-0.7-0.6c-0.3-0.1-0.7-0.2-1.1-0.2c-0.3,0-0.7,0-1,0.1
			c-0.3,0.1-0.6,0.3-0.8,0.6c-0.2,0.3-0.4,0.7-0.5,1.2c-0.1,0.5-0.2,1.2-0.2,2v7.6h-5.4V468z"/>
		<path class="st18" d="M878,468h5.5v15.4H878v-1.7c-1.2,1.5-2.7,2.2-4.7,2.2c-1.1,0-2.1-0.2-3.1-0.6c-0.9-0.4-1.8-1-2.5-1.7
			c-0.7-0.7-1.2-1.6-1.6-2.6c-0.4-1-0.6-2.1-0.6-3.3c0-1.1,0.2-2.1,0.6-3.1c0.4-1,0.9-1.9,1.6-2.6c0.7-0.7,1.5-1.3,2.4-1.8
			c0.9-0.4,2-0.6,3.1-0.6c1.9,0,3.5,0.7,4.8,2V468z M871.1,475.7c0,0.5,0.1,1,0.3,1.4c0.2,0.4,0.4,0.8,0.7,1.1s0.7,0.6,1.1,0.8
			c0.4,0.2,0.9,0.3,1.4,0.3c0.5,0,0.9-0.1,1.4-0.3c0.4-0.2,0.8-0.4,1.1-0.8s0.6-0.7,0.8-1.1s0.3-0.9,0.3-1.3c0-0.5-0.1-0.9-0.3-1.4
			c-0.2-0.4-0.4-0.8-0.8-1.1c-0.3-0.3-0.7-0.6-1.1-0.8s-0.9-0.3-1.4-0.3c-0.5,0-1,0.1-1.4,0.3c-0.4,0.2-0.8,0.4-1.1,0.8
			c-0.3,0.3-0.6,0.7-0.7,1.1C871.2,474.7,871.1,475.2,871.1,475.7z"/>
		<path class="st18" d="M887.1,468h5.4v1.9c0.7-0.9,1.5-1.5,2.2-1.8c0.8-0.3,1.6-0.5,2.7-0.5c1.1,0,2,0.2,2.8,0.5
			c0.8,0.4,1.4,0.8,2,1.5c0.4,0.5,0.7,1.1,0.9,1.7c0.2,0.6,0.2,1.4,0.2,2.2v9.8h-5.4v-7.8c0-0.8-0.1-1.4-0.2-1.8
			c-0.1-0.5-0.3-0.8-0.6-1.1c-0.2-0.2-0.5-0.4-0.8-0.5c-0.3-0.1-0.6-0.2-1-0.2c-0.9,0-1.6,0.3-2.1,0.8c-0.5,0.6-0.7,1.3-0.7,2.4v8.2
			h-5.4V468z"/>
		<path class="st18" d="M918.9,468h5.5v15.4h-5.5v-1.7c-1.2,1.5-2.7,2.2-4.7,2.2c-1.1,0-2.1-0.2-3.1-0.6c-0.9-0.4-1.8-1-2.5-1.7
			c-0.7-0.7-1.2-1.6-1.6-2.6c-0.4-1-0.6-2.1-0.6-3.3c0-1.1,0.2-2.1,0.6-3.1c0.4-1,0.9-1.9,1.6-2.6c0.7-0.7,1.5-1.3,2.4-1.8
			c0.9-0.4,2-0.6,3.1-0.6c1.9,0,3.5,0.7,4.8,2V468z M912.1,475.7c0,0.5,0.1,1,0.3,1.4c0.2,0.4,0.4,0.8,0.7,1.1s0.7,0.6,1.1,0.8
			c0.4,0.2,0.9,0.3,1.4,0.3c0.5,0,0.9-0.1,1.4-0.3c0.4-0.2,0.8-0.4,1.1-0.8s0.6-0.7,0.8-1.1s0.3-0.9,0.3-1.3c0-0.5-0.1-0.9-0.3-1.4
			c-0.2-0.4-0.4-0.8-0.8-1.1c-0.3-0.3-0.7-0.6-1.1-0.8s-0.9-0.3-1.4-0.3c-0.5,0-1,0.1-1.4,0.3c-0.4,0.2-0.8,0.4-1.1,0.8
			c-0.3,0.3-0.6,0.7-0.7,1.1C912.2,474.7,912.1,475.2,912.1,475.7z"/>
	</g>
	<g class="st27">
		<path class="st18" d="M945.3,468v14.3c0,0.9-0.1,1.6-0.1,2.3c-0.1,0.7-0.2,1.3-0.4,1.8c-0.2,0.7-0.6,1.3-1.1,1.8
			c-0.5,0.6-1.1,1.1-1.8,1.5c-0.7,0.4-1.5,0.8-2.4,1c-0.9,0.2-1.9,0.4-3,0.4c-1.2,0-2.3-0.2-3.3-0.5s-1.9-0.7-2.6-1.2
			c-0.8-0.5-1.4-1.2-1.8-1.9s-0.8-1.5-1-2.3h6.1c0.4,1,1.2,1.5,2.6,1.5c1.1,0,2-0.3,2.6-1c0.6-0.6,0.9-1.5,0.9-2.7v-1.5
			c-0.4,0.4-0.8,0.7-1.2,0.9c-0.4,0.2-0.7,0.5-1.1,0.6c-0.4,0.2-0.8,0.3-1.2,0.3c-0.4,0.1-0.9,0.1-1.4,0.1c-1.1,0-2.1-0.2-3-0.6
			c-0.9-0.4-1.7-0.9-2.4-1.6c-0.7-0.7-1.2-1.5-1.6-2.4s-0.6-2-0.6-3.2c0-1.2,0.2-2.3,0.6-3.3c0.4-1,0.9-1.9,1.6-2.6s1.5-1.3,2.5-1.8
			c0.9-0.4,2-0.6,3.1-0.6c1.8,0,3.3,0.7,4.6,2V468H945.3z M933.1,475.6c0,0.5,0.1,1,0.3,1.4c0.2,0.4,0.4,0.8,0.7,1.1
			c0.3,0.3,0.7,0.6,1.1,0.8c0.4,0.2,0.9,0.3,1.4,0.3c0.5,0,0.9-0.1,1.4-0.3s0.8-0.4,1.1-0.8c0.3-0.3,0.6-0.7,0.8-1.1
			c0.2-0.4,0.3-0.9,0.3-1.4c0-0.5-0.1-1-0.3-1.4s-0.4-0.8-0.8-1.1c-0.3-0.3-0.7-0.6-1.1-0.8c-0.4-0.2-0.9-0.3-1.3-0.3
			c-0.5,0-0.9,0.1-1.4,0.3s-0.8,0.4-1.1,0.8c-0.3,0.3-0.6,0.7-0.8,1.1C933.2,474.7,933.1,475.2,933.1,475.6z"/>
	</g>
	<g class="st27">
		<path class="st18" d="M954.2,476.6c0,2.3,1.1,3.5,3.3,3.5c1.2,0,2.1-0.5,2.7-1.4h5.2c-1.1,3.5-3.7,5.3-8,5.3
			c-1.3,0-2.5-0.2-3.6-0.6c-1.1-0.4-2-0.9-2.8-1.7c-0.8-0.7-1.4-1.6-1.8-2.6s-0.6-2.1-0.6-3.4c0-1.3,0.2-2.4,0.6-3.5
			c0.4-1,1-1.9,1.7-2.6s1.6-1.3,2.7-1.7c1.1-0.4,2.2-0.6,3.6-0.6c1.3,0,2.5,0.2,3.5,0.6s1.9,1,2.6,1.7c0.7,0.7,1.3,1.6,1.7,2.7
			s0.6,2.3,0.6,3.6v0.6H954.2z M960.6,473.5c-0.2-0.8-0.6-1.4-1.1-1.8c-0.6-0.5-1.2-0.7-2-0.7c-0.8,0-1.5,0.2-2.1,0.7
			c-0.5,0.4-0.9,1.1-1,1.9H960.6z"/>
		<path class="st18" d="M980.6,458.5h5.5v24.9h-5.5v-1.7c-1.2,1.5-2.7,2.2-4.7,2.2c-1.1,0-2.1-0.2-3.1-0.6s-1.8-1-2.5-1.7
			s-1.2-1.6-1.6-2.6s-0.6-2.1-0.6-3.2c0-1.1,0.2-2.1,0.6-3.1s0.9-1.9,1.6-2.6s1.5-1.3,2.4-1.8c0.9-0.4,2-0.6,3.1-0.6
			c1.9,0,3.5,0.7,4.8,2V458.5z M973.8,475.7c0,0.5,0.1,1,0.3,1.4s0.4,0.8,0.7,1.1c0.3,0.3,0.7,0.6,1.1,0.8c0.4,0.2,0.9,0.3,1.4,0.3
			c0.5,0,0.9-0.1,1.4-0.3c0.4-0.2,0.8-0.4,1.1-0.8c0.3-0.3,0.6-0.7,0.8-1.1c0.2-0.4,0.3-0.9,0.3-1.3c0-0.5-0.1-0.9-0.3-1.4
			c-0.2-0.4-0.4-0.8-0.8-1.1c-0.3-0.3-0.7-0.6-1.1-0.8c-0.4-0.2-0.9-0.3-1.4-0.3c-0.5,0-0.9,0.1-1.4,0.3c-0.4,0.2-0.8,0.4-1.1,0.8
			c-0.3,0.3-0.6,0.7-0.8,1.1C973.9,474.7,973.8,475.2,973.8,475.7z"/>
	</g>
	<g class="st27">
		<path class="st18" d="M1006,472.5v10.9h-5.4v-10.9h-1.8V468h1.8v-4.6h5.4v4.6h3.1v4.5H1006z"/>
	</g>
	<g class="st27">
		<path class="st18" d="M1010.8,475.6c0-1.1,0.2-2.2,0.7-3.2c0.5-1,1.1-1.8,1.9-2.6c0.8-0.7,1.8-1.3,2.9-1.7s2.4-0.6,3.7-0.6
			c1.3,0,2.5,0.2,3.7,0.6s2.1,1,2.9,1.7c0.8,0.7,1.5,1.6,1.9,2.6c0.5,1,0.7,2.1,0.7,3.3s-0.2,2.3-0.7,3.3c-0.5,1-1.1,1.9-1.9,2.6
			c-0.8,0.7-1.8,1.3-3,1.7c-1.2,0.4-2.4,0.6-3.7,0.6c-1.3,0-2.5-0.2-3.7-0.6c-1.1-0.4-2.1-1-2.9-1.7c-0.8-0.7-1.4-1.6-1.9-2.7
			C1011.1,478,1010.8,476.8,1010.8,475.6z M1016.6,475.6c0,0.5,0.1,1,0.3,1.4s0.4,0.8,0.8,1.1c0.3,0.3,0.7,0.6,1.1,0.8
			c0.4,0.2,0.9,0.3,1.4,0.3c0.5,0,0.9-0.1,1.4-0.3c0.4-0.2,0.8-0.4,1.1-0.8c0.3-0.3,0.6-0.7,0.8-1.1s0.3-0.9,0.3-1.4
			c0-0.5-0.1-0.9-0.3-1.4c-0.2-0.4-0.4-0.8-0.8-1.1c-0.3-0.3-0.7-0.6-1.1-0.8c-0.4-0.2-0.9-0.3-1.4-0.3c-0.5,0-0.9,0.1-1.4,0.3
			c-0.4,0.2-0.8,0.4-1.1,0.8c-0.3,0.3-0.6,0.7-0.8,1.1S1016.6,475.2,1016.6,475.6z"/>
		<path class="st18" d="M1052.8,472c-1-0.5-2-0.8-2.9-0.8c-0.5,0-0.9,0.1-1.2,0.3c-0.3,0.2-0.5,0.5-0.5,0.8c0,0.2,0,0.3,0.1,0.4
			c0,0.1,0.2,0.2,0.3,0.3c0.2,0.1,0.4,0.2,0.8,0.3c0.3,0.1,0.8,0.2,1.3,0.3c1.5,0.3,2.6,0.8,3.4,1.6c0.7,0.8,1.1,1.8,1.1,3
			c0,0.9-0.2,1.7-0.5,2.4c-0.4,0.7-0.9,1.3-1.5,1.8c-0.6,0.5-1.4,0.9-2.3,1.1c-0.9,0.3-1.9,0.4-3,0.4c-2.1,0-4.1-0.6-6.1-1.8l2-3.8
			c1.5,1,3,1.6,4.3,1.6c0.5,0,0.9-0.1,1.2-0.3c0.3-0.2,0.5-0.5,0.5-0.8c0-0.2,0-0.4-0.1-0.5s-0.2-0.2-0.3-0.4
			c-0.2-0.1-0.4-0.2-0.7-0.3c-0.3-0.1-0.7-0.2-1.2-0.3c-1.7-0.3-2.9-0.8-3.5-1.5c-0.7-0.7-1-1.6-1-2.8c0-0.9,0.2-1.6,0.5-2.3
			c0.3-0.7,0.8-1.3,1.4-1.8c0.6-0.5,1.3-0.8,2.2-1.1c0.8-0.3,1.8-0.4,2.8-0.4c1.7,0,3.3,0.3,5,1L1052.8,472z"/>
		<path class="st18" d="M1063.3,468v8.7c0,1.9,0.9,2.8,2.8,2.8s2.8-0.9,2.8-2.8V468h5.4v9.7c0,2.1-0.7,3.6-2.1,4.7
			c-1.4,1-3.4,1.6-6.1,1.6s-4.8-0.5-6.1-1.6c-1.4-1-2.1-2.6-2.1-4.7V468H1063.3z"/>
	</g>
	<g class="st27">
		<path class="st18" d="M1078,468h5.4v2.5c0.6-0.9,1.3-1.6,2.1-2.1c0.8-0.5,1.8-0.7,2.9-0.7c0.1,0,0.3,0,0.5,0c0.2,0,0.4,0,0.6,0.1
			v5.2c-0.7-0.4-1.5-0.5-2.3-0.5c-1.3,0-2.2,0.4-2.8,1.1c-0.6,0.8-0.9,1.8-0.9,3.3v6.6h-5.4V468z"/>
	</g>
	<g class="st27">
		<path class="st18" d="M1097.4,491.1h-5.4V468h5.4v1.7c1.2-1.5,2.7-2.2,4.7-2.2c1.1,0,2.1,0.2,3.1,0.6c0.9,0.4,1.8,1,2.5,1.8
			s1.2,1.6,1.6,2.6c0.4,1,0.6,2.1,0.6,3.2c0,1.1-0.2,2.2-0.6,3.2c-0.4,1-0.9,1.8-1.6,2.6c-0.7,0.7-1.5,1.3-2.4,1.7
			c-0.9,0.4-2,0.6-3.1,0.6c-1.9,0-3.5-0.7-4.8-2V491.1z M1104.2,475.8c0-0.5-0.1-0.9-0.3-1.4c-0.2-0.4-0.4-0.8-0.7-1.1
			c-0.3-0.3-0.7-0.6-1.1-0.8c-0.4-0.2-0.9-0.3-1.4-0.3c-0.5,0-0.9,0.1-1.3,0.3s-0.8,0.4-1.1,0.8c-0.3,0.3-0.6,0.7-0.8,1.1
			c-0.2,0.4-0.3,0.9-0.3,1.4c0,0.5,0.1,0.9,0.3,1.3s0.4,0.8,0.8,1.1c0.3,0.3,0.7,0.6,1.1,0.8c0.4,0.2,0.9,0.3,1.4,0.3
			c0.5,0,0.9-0.1,1.3-0.3c0.4-0.2,0.8-0.4,1.1-0.8c0.3-0.3,0.6-0.7,0.8-1.1C1104.1,476.7,1104.2,476.2,1104.2,475.8z"/>
	</g>
	<g class="st27">
		<path class="st18" d="M1113,468h5.4v2.5c0.6-0.9,1.3-1.6,2.1-2.1c0.8-0.5,1.8-0.7,2.9-0.7c0.1,0,0.3,0,0.5,0c0.2,0,0.4,0,0.6,0.1
			v5.2c-0.7-0.4-1.5-0.5-2.3-0.5c-1.3,0-2.2,0.4-2.8,1.1c-0.6,0.8-0.9,1.8-0.9,3.3v6.6h-5.4V468z"/>
	</g>
	<g class="st27">
		<path class="st18" d="M1126.6,462.1c0-0.4,0.1-0.8,0.2-1.2c0.2-0.4,0.4-0.7,0.7-1c0.3-0.3,0.6-0.5,1-0.7s0.8-0.2,1.2-0.2
			s0.8,0.1,1.2,0.2s0.7,0.4,1,0.7c0.3,0.3,0.5,0.6,0.7,1c0.2,0.4,0.2,0.8,0.2,1.2s-0.1,0.8-0.2,1.2c-0.2,0.4-0.4,0.7-0.7,1
			c-0.3,0.3-0.6,0.5-1,0.7c-0.4,0.2-0.8,0.2-1.2,0.2s-0.8-0.1-1.2-0.2c-0.4-0.2-0.7-0.4-1-0.7c-0.3-0.3-0.5-0.6-0.7-1
			C1126.7,462.9,1126.6,462.5,1126.6,462.1z M1132.4,468v15.4h-5.4V468H1132.4z"/>
		<path class="st18" d="M1146.3,472c-1-0.5-2-0.8-2.9-0.8c-0.5,0-0.9,0.1-1.2,0.3c-0.3,0.2-0.5,0.5-0.5,0.8c0,0.2,0,0.3,0.1,0.4
			c0,0.1,0.2,0.2,0.3,0.3c0.2,0.1,0.4,0.2,0.8,0.3s0.8,0.2,1.3,0.3c1.5,0.3,2.6,0.8,3.4,1.6c0.7,0.8,1.1,1.8,1.1,3
			c0,0.9-0.2,1.7-0.5,2.4c-0.4,0.7-0.9,1.3-1.5,1.8c-0.6,0.5-1.4,0.9-2.3,1.1c-0.9,0.3-1.9,0.4-3,0.4c-2.1,0-4.1-0.6-6.2-1.8l2-3.8
			c1.5,1,3,1.6,4.3,1.6c0.5,0,0.9-0.1,1.2-0.3c0.3-0.2,0.5-0.5,0.5-0.8c0-0.2,0-0.4-0.1-0.5c-0.1-0.1-0.2-0.2-0.3-0.4
			c-0.2-0.1-0.4-0.2-0.7-0.3c-0.3-0.1-0.7-0.2-1.2-0.3c-1.7-0.3-2.9-0.8-3.5-1.5c-0.7-0.7-1-1.6-1-2.8c0-0.9,0.2-1.6,0.5-2.3
			c0.3-0.7,0.8-1.3,1.4-1.8c0.6-0.5,1.3-0.8,2.2-1.1c0.9-0.3,1.8-0.4,2.8-0.4c1.7,0,3.3,0.3,5,1L1146.3,472z"/>
		<path class="st18" d="M1156.3,476.6c0,2.3,1.1,3.5,3.3,3.5c1.2,0,2.1-0.5,2.7-1.4h5.2c-1.1,3.5-3.7,5.3-8,5.3
			c-1.3,0-2.5-0.2-3.6-0.6c-1.1-0.4-2-0.9-2.8-1.7c-0.8-0.7-1.4-1.6-1.8-2.6s-0.6-2.1-0.6-3.4c0-1.3,0.2-2.4,0.6-3.5s1-1.9,1.7-2.6
			c0.7-0.7,1.6-1.3,2.7-1.7s2.2-0.6,3.6-0.6c1.3,0,2.5,0.2,3.5,0.6s1.9,1,2.6,1.7s1.3,1.6,1.6,2.7s0.6,2.3,0.6,3.6v0.6H1156.3z
			 M1162.6,473.5c-0.2-0.8-0.5-1.4-1.1-1.8c-0.6-0.5-1.2-0.7-2-0.7c-0.8,0-1.5,0.2-2.1,0.7c-0.5,0.4-0.9,1.1-1,1.9H1162.6z"/>
		<path class="st18" d="M1181,468h5.4v1.9c1.5-1.4,3.1-2.1,5-2.1c2.3,0,4,1,5.2,2.9c1.2-1.9,3-2.9,5.2-2.9c0.7,0,1.4,0.1,2,0.3
			c0.6,0.2,1.2,0.5,1.6,1c0.5,0.5,0.8,1,1.1,1.8c0.3,0.7,0.4,1.6,0.4,2.6v10h-5.4v-7.6c0-0.8-0.1-1.4-0.2-1.9
			c-0.1-0.5-0.3-0.9-0.5-1.2s-0.5-0.5-0.7-0.6c-0.3-0.1-0.6-0.2-0.9-0.2c-1.7,0-2.6,1.3-2.6,3.8v7.6h-5.4v-7.6c0-0.8,0-1.4-0.1-1.9
			c-0.1-0.5-0.2-0.9-0.4-1.2s-0.4-0.5-0.7-0.6c-0.3-0.1-0.7-0.2-1.1-0.2c-0.3,0-0.7,0-1,0.1c-0.3,0.1-0.6,0.3-0.8,0.6
			c-0.2,0.3-0.4,0.7-0.5,1.2s-0.2,1.2-0.2,2v7.6h-5.4V468z"/>
		<path class="st18" d="M1215.6,476.6c0,2.3,1.1,3.5,3.3,3.5c1.2,0,2.1-0.5,2.7-1.4h5.2c-1.1,3.5-3.7,5.3-8,5.3
			c-1.3,0-2.5-0.2-3.6-0.6c-1.1-0.4-2-0.9-2.8-1.7c-0.8-0.7-1.4-1.6-1.8-2.6s-0.6-2.1-0.6-3.4c0-1.3,0.2-2.4,0.6-3.5s1-1.9,1.7-2.6
			c0.7-0.7,1.6-1.3,2.7-1.7s2.2-0.6,3.6-0.6c1.3,0,2.5,0.2,3.5,0.6s1.9,1,2.6,1.7s1.3,1.6,1.6,2.7s0.6,2.3,0.6,3.6v0.6H1215.6z
			 M1222,473.5c-0.2-0.8-0.5-1.4-1.1-1.8c-0.6-0.5-1.2-0.7-2-0.7c-0.8,0-1.5,0.2-2.1,0.7c-0.5,0.4-0.9,1.1-1,1.9H1222z"/>
		<path class="st18" d="M1229.9,480.5c0-0.5,0.1-0.9,0.3-1.4c0.2-0.4,0.4-0.8,0.8-1.1c0.3-0.3,0.7-0.6,1.1-0.8
			c0.4-0.2,0.9-0.3,1.4-0.3c0.5,0,0.9,0.1,1.4,0.3c0.4,0.2,0.8,0.4,1.1,0.8c0.3,0.3,0.6,0.7,0.8,1.1c0.2,0.4,0.3,0.9,0.3,1.4
			c0,0.5-0.1,0.9-0.3,1.4c-0.2,0.4-0.4,0.8-0.8,1.1c-0.3,0.3-0.7,0.6-1.1,0.8c-0.4,0.2-0.9,0.3-1.4,0.3c-0.5,0-0.9-0.1-1.4-0.3
			c-0.4-0.2-0.8-0.4-1.1-0.8c-0.3-0.3-0.6-0.7-0.8-1.1C1230,481.5,1229.9,481,1229.9,480.5z"/>
	</g>
	<g class="st27">
		<path class="st18" d="M737.6,508.5l-8.2-11.8h7l4.2,6.2l4.2-6.2h7l-8.3,11.8v10.9h-5.9V508.5z"/>
	</g>
	<g class="st27">
		<path class="st18" d="M750.2,511.6c0-1.1,0.2-2.2,0.7-3.2c0.5-1,1.1-1.8,1.9-2.6c0.8-0.7,1.8-1.3,2.9-1.7s2.4-0.6,3.7-0.6
			c1.3,0,2.5,0.2,3.7,0.6s2.1,1,2.9,1.7c0.8,0.7,1.5,1.6,1.9,2.6c0.5,1,0.7,2.1,0.7,3.3s-0.2,2.3-0.7,3.3c-0.5,1-1.1,1.9-1.9,2.6
			c-0.8,0.7-1.8,1.3-3,1.7c-1.2,0.4-2.4,0.6-3.7,0.6c-1.3,0-2.5-0.2-3.7-0.6c-1.1-0.4-2.1-1-2.9-1.7c-0.8-0.7-1.4-1.6-1.9-2.7
			C750.4,514,750.2,512.8,750.2,511.6z M755.9,511.6c0,0.5,0.1,1,0.3,1.4c0.2,0.4,0.4,0.8,0.8,1.1s0.7,0.6,1.1,0.8
			c0.4,0.2,0.9,0.3,1.4,0.3s0.9-0.1,1.4-0.3c0.4-0.2,0.8-0.4,1.1-0.8c0.3-0.3,0.6-0.7,0.8-1.1c0.2-0.4,0.3-0.9,0.3-1.4
			c0-0.5-0.1-0.9-0.3-1.4c-0.2-0.4-0.4-0.8-0.8-1.1c-0.3-0.3-0.7-0.6-1.1-0.8c-0.4-0.2-0.9-0.3-1.4-0.3s-0.9,0.1-1.4,0.3
			c-0.4,0.2-0.8,0.4-1.1,0.8c-0.3,0.3-0.6,0.7-0.8,1.1C756,510.7,755.9,511.2,755.9,511.6z"/>
		<path class="st18" d="M777.2,504v8.7c0,1.9,0.9,2.8,2.8,2.8c1.8,0,2.8-0.9,2.8-2.8V504h5.4v9.7c0,2.1-0.7,3.6-2.1,4.7
			c-1.4,1-3.4,1.6-6.1,1.6s-4.8-0.5-6.1-1.6c-1.4-1-2.1-2.6-2.1-4.7V504H777.2z"/>
		<path class="st18" d="M813.7,509c-0.9-0.6-1.9-1-2.9-1c-0.5,0-1,0.1-1.5,0.3c-0.5,0.2-0.8,0.4-1.2,0.8c-0.3,0.3-0.6,0.7-0.8,1.2
			c-0.2,0.5-0.3,1-0.3,1.5c0,0.5,0.1,1,0.3,1.5c0.2,0.5,0.4,0.8,0.8,1.2s0.7,0.6,1.2,0.8c0.5,0.2,0.9,0.3,1.5,0.3c1,0,2-0.3,2.9-1
			v4.6c-1.3,0.6-2.6,0.9-3.8,0.9c-1.1,0-2.2-0.2-3.2-0.6s-1.9-0.9-2.7-1.6c-0.8-0.7-1.4-1.6-1.8-2.6c-0.5-1-0.7-2.1-0.7-3.3
			s0.2-2.3,0.7-3.3s1-1.9,1.8-2.6c0.8-0.7,1.7-1.3,2.7-1.7c1-0.4,2.2-0.6,3.4-0.6c1.3,0,2.5,0.3,3.7,0.8V509z"/>
		<path class="st18" d="M828.7,504h5.5v15.4h-5.5v-1.7c-1.2,1.5-2.7,2.2-4.7,2.2c-1.1,0-2.1-0.2-3.1-0.6c-0.9-0.4-1.8-1-2.5-1.7
			c-0.7-0.7-1.2-1.6-1.6-2.6c-0.4-1-0.6-2.1-0.6-3.3c0-1.1,0.2-2.1,0.6-3.1c0.4-1,0.9-1.9,1.6-2.6c0.7-0.7,1.5-1.3,2.4-1.8
			c0.9-0.4,2-0.6,3.1-0.6c1.9,0,3.5,0.7,4.8,2V504z M821.8,511.7c0,0.5,0.1,1,0.3,1.4c0.2,0.4,0.4,0.8,0.7,1.1s0.7,0.6,1.1,0.8
			c0.4,0.2,0.9,0.3,1.4,0.3c0.5,0,0.9-0.1,1.4-0.3c0.4-0.2,0.8-0.4,1.1-0.8s0.6-0.7,0.8-1.1s0.3-0.9,0.3-1.3c0-0.5-0.1-0.9-0.3-1.4
			c-0.2-0.4-0.4-0.8-0.8-1.1c-0.3-0.3-0.7-0.6-1.1-0.8s-0.9-0.3-1.4-0.3c-0.5,0-1,0.1-1.4,0.3c-0.4,0.2-0.8,0.4-1.1,0.8
			c-0.3,0.3-0.6,0.7-0.7,1.1C821.9,510.7,821.8,511.2,821.8,511.7z"/>
		<path class="st18" d="M837.8,504h5.4v1.9c0.7-0.9,1.5-1.5,2.2-1.8c0.8-0.3,1.6-0.5,2.7-0.5c1.1,0,2,0.2,2.8,0.5
			c0.8,0.4,1.4,0.8,2,1.5c0.4,0.5,0.7,1.1,0.9,1.7c0.2,0.6,0.2,1.4,0.2,2.2v9.8h-5.4v-7.8c0-0.8-0.1-1.4-0.2-1.8
			c-0.1-0.5-0.3-0.8-0.6-1.1c-0.2-0.2-0.5-0.4-0.8-0.5c-0.3-0.1-0.6-0.2-1-0.2c-0.9,0-1.6,0.3-2.1,0.8c-0.5,0.6-0.7,1.3-0.7,2.4v8.2
			h-5.4V504z"/>
		<path class="st18" d="M874,508.5v10.9h-5.4v-10.9h-1.8V504h1.8v-4.6h5.4v4.6h3.1v4.5H874z"/>
	</g>
	<g class="st27">
		<path class="st18" d="M879.1,504h5.4v2.5c0.6-0.9,1.3-1.6,2.1-2.1c0.8-0.5,1.8-0.7,2.9-0.7c0.1,0,0.3,0,0.5,0c0.2,0,0.4,0,0.6,0.1
			v5.2c-0.7-0.4-1.5-0.5-2.3-0.5c-1.3,0-2.2,0.4-2.8,1.1c-0.6,0.8-0.9,1.8-0.9,3.3v6.6h-5.4V504z"/>
	</g>
	<g class="st27">
		<path class="st18" d="M899.6,517.3l-7.4-13.3h6.3l4.1,7.9l4-7.9h6.2l-12.4,23.1h-6.1L899.6,517.3z"/>
		<path class="st18" d="M936.7,504h5.5v15.4h-5.5v-1.7c-1.2,1.5-2.7,2.2-4.7,2.2c-1.1,0-2.1-0.2-3.1-0.6c-0.9-0.4-1.8-1-2.5-1.7
			c-0.7-0.7-1.2-1.6-1.6-2.6c-0.4-1-0.6-2.1-0.6-3.3c0-1.1,0.2-2.1,0.6-3.1c0.4-1,0.9-1.9,1.6-2.6c0.7-0.7,1.5-1.3,2.4-1.8
			c0.9-0.4,2-0.6,3.1-0.6c1.9,0,3.5,0.7,4.8,2V504z M929.9,511.7c0,0.5,0.1,1,0.3,1.4c0.2,0.4,0.4,0.8,0.7,1.1s0.7,0.6,1.1,0.8
			c0.4,0.2,0.9,0.3,1.4,0.3c0.5,0,0.9-0.1,1.4-0.3c0.4-0.2,0.8-0.4,1.1-0.8s0.6-0.7,0.8-1.1s0.3-0.9,0.3-1.3c0-0.5-0.1-0.9-0.3-1.4
			c-0.2-0.4-0.4-0.8-0.8-1.1c-0.3-0.3-0.7-0.6-1.1-0.8s-0.9-0.3-1.4-0.3c-0.5,0-1,0.1-1.4,0.3c-0.4,0.2-0.8,0.4-1.1,0.8
			c-0.3,0.3-0.6,0.7-0.7,1.1C930,510.7,929.9,511.2,929.9,511.7z"/>
	</g>
	<g class="st27">
		<path class="st18" d="M963.1,504v14.3c0,0.9-0.1,1.6-0.2,2.3c-0.1,0.7-0.2,1.3-0.4,1.8c-0.2,0.7-0.6,1.3-1.1,1.8
			c-0.5,0.6-1.1,1.1-1.8,1.5c-0.7,0.4-1.5,0.8-2.4,1s-1.9,0.4-3,0.4c-1.2,0-2.3-0.2-3.3-0.5s-1.9-0.7-2.6-1.2
			c-0.8-0.5-1.4-1.2-1.8-1.9c-0.5-0.7-0.8-1.5-1-2.3h6.1c0.4,1,1.2,1.5,2.6,1.5c1.1,0,2-0.3,2.6-1c0.6-0.6,0.9-1.5,0.9-2.7v-1.5
			c-0.4,0.4-0.8,0.7-1.2,0.9c-0.4,0.2-0.7,0.5-1.1,0.6c-0.4,0.2-0.8,0.3-1.2,0.3c-0.4,0.1-0.9,0.1-1.4,0.1c-1.1,0-2.1-0.2-3-0.6
			c-0.9-0.4-1.7-0.9-2.4-1.6c-0.7-0.7-1.2-1.5-1.6-2.4s-0.6-2-0.6-3.2c0-1.2,0.2-2.3,0.6-3.3s0.9-1.9,1.6-2.6
			c0.7-0.8,1.5-1.3,2.5-1.8c0.9-0.4,2-0.6,3.1-0.6c1.8,0,3.3,0.7,4.6,2V504H963.1z M950.9,511.6c0,0.5,0.1,1,0.3,1.4
			c0.2,0.4,0.4,0.8,0.7,1.1c0.3,0.3,0.7,0.6,1.1,0.8c0.4,0.2,0.9,0.3,1.4,0.3c0.5,0,0.9-0.1,1.4-0.3c0.4-0.2,0.8-0.4,1.1-0.8
			c0.3-0.3,0.6-0.7,0.8-1.1c0.2-0.4,0.3-0.9,0.3-1.4c0-0.5-0.1-1-0.3-1.4c-0.2-0.4-0.4-0.8-0.8-1.1c-0.3-0.3-0.7-0.6-1.1-0.8
			c-0.4-0.2-0.9-0.3-1.3-0.3c-0.5,0-0.9,0.1-1.4,0.3s-0.8,0.4-1.1,0.8c-0.3,0.3-0.6,0.7-0.8,1.1S950.9,511.2,950.9,511.6z"/>
	</g>
	<g class="st27">
		<path class="st18" d="M979,504h5.5v15.4H979v-1.7c-1.2,1.5-2.7,2.2-4.7,2.2c-1.1,0-2.1-0.2-3.1-0.6c-0.9-0.4-1.8-1-2.5-1.7
			c-0.7-0.7-1.2-1.6-1.6-2.6c-0.4-1-0.6-2.1-0.6-3.3c0-1.1,0.2-2.1,0.6-3.1s0.9-1.9,1.6-2.6s1.5-1.3,2.4-1.8c0.9-0.4,2-0.6,3.1-0.6
			c1.9,0,3.5,0.7,4.8,2V504z M972.2,511.7c0,0.5,0.1,1,0.3,1.4c0.2,0.4,0.4,0.8,0.7,1.1s0.7,0.6,1.1,0.8c0.4,0.2,0.9,0.3,1.4,0.3
			c0.5,0,0.9-0.1,1.4-0.3c0.4-0.2,0.8-0.4,1.1-0.8c0.3-0.3,0.6-0.7,0.8-1.1c0.2-0.4,0.3-0.9,0.3-1.3c0-0.5-0.1-0.9-0.3-1.4
			c-0.2-0.4-0.4-0.8-0.8-1.1c-0.3-0.3-0.7-0.6-1.1-0.8s-0.9-0.3-1.4-0.3c-0.5,0-1,0.1-1.4,0.3c-0.4,0.2-0.8,0.4-1.1,0.8
			c-0.3,0.3-0.6,0.7-0.7,1.1C972.3,510.7,972.2,511.2,972.2,511.7z"/>
		<path class="st18" d="M987.8,498.1c0-0.4,0.1-0.8,0.2-1.2c0.2-0.4,0.4-0.7,0.7-1c0.3-0.3,0.6-0.5,1-0.7s0.8-0.2,1.2-0.2
			s0.8,0.1,1.2,0.2c0.4,0.2,0.7,0.4,1,0.7s0.5,0.6,0.7,1c0.2,0.4,0.2,0.8,0.2,1.2s-0.1,0.8-0.2,1.2c-0.2,0.4-0.4,0.7-0.7,1
			s-0.6,0.5-1,0.7c-0.4,0.2-0.8,0.2-1.2,0.2s-0.8-0.1-1.2-0.2c-0.4-0.2-0.7-0.4-1-0.7c-0.3-0.3-0.5-0.6-0.7-1
			C987.9,498.9,987.8,498.5,987.8,498.1z M993.6,504v15.4h-5.4V504H993.6z"/>
		<path class="st18" d="M997.3,504h5.4v1.9c0.7-0.9,1.5-1.5,2.2-1.8c0.8-0.3,1.6-0.5,2.7-0.5c1.1,0,2,0.2,2.8,0.5
			c0.8,0.4,1.4,0.8,2,1.5c0.4,0.5,0.7,1.1,0.9,1.7c0.2,0.6,0.2,1.4,0.2,2.2v9.8h-5.4v-7.8c0-0.8-0.1-1.4-0.2-1.8
			c-0.1-0.5-0.3-0.8-0.6-1.1c-0.2-0.2-0.5-0.4-0.8-0.5c-0.3-0.1-0.6-0.2-1-0.2c-0.9,0-1.6,0.3-2.1,0.8c-0.5,0.6-0.7,1.3-0.7,2.4v8.2
			h-5.4V504z"/>
		<path class="st18" d="M1027.1,498.1c0-0.4,0.1-0.8,0.2-1.2c0.2-0.4,0.4-0.7,0.7-1c0.3-0.3,0.6-0.5,1-0.7c0.4-0.2,0.8-0.2,1.2-0.2
			s0.8,0.1,1.2,0.2c0.4,0.2,0.7,0.4,1,0.7c0.3,0.3,0.5,0.6,0.7,1c0.2,0.4,0.2,0.8,0.2,1.2s-0.1,0.8-0.2,1.2c-0.2,0.4-0.4,0.7-0.7,1
			c-0.3,0.3-0.6,0.5-1,0.7c-0.4,0.2-0.8,0.2-1.2,0.2s-0.8-0.1-1.2-0.2c-0.4-0.2-0.7-0.4-1-0.7c-0.3-0.3-0.5-0.6-0.7-1
			C1027.1,498.9,1027.1,498.5,1027.1,498.1z M1032.9,504v15.4h-5.4V504H1032.9z"/>
		<path class="st18" d="M1042.5,508.5v10.9h-5.4v-10.9h-2V504h2v-2.3c0-1.3,0.1-2.3,0.4-3.1c0.2-0.6,0.5-1.2,1-1.8s1-1,1.5-1.4
			s1.2-0.7,1.9-0.9c0.7-0.2,1.3-0.3,2-0.3c0.5,0,0.9,0.1,1.3,0.2c0.4,0.1,0.8,0.2,1.2,0.4v4.7c-0.4-0.2-0.7-0.3-1-0.4
			s-0.6-0.1-1-0.1c-0.2,0-0.4,0-0.7,0.1c-0.2,0.1-0.4,0.2-0.6,0.4c-0.2,0.2-0.3,0.5-0.4,0.9c-0.1,0.4-0.1,1-0.1,1.7v1.9h3.8v4.5
			H1042.5z"/>
	</g>
	<g class="st27">
		<path class="st18" d="M1064.1,517.3l-7.4-13.3h6.3l4.1,7.9l4-7.9h6.2l-12.4,23.1h-6.1L1064.1,517.3z"/>
	</g>
	<g class="st27">
		<path class="st18" d="M1077.7,511.6c0-1.1,0.2-2.2,0.7-3.2c0.5-1,1.1-1.8,1.9-2.6c0.8-0.7,1.8-1.3,2.9-1.7
			c1.1-0.4,2.4-0.6,3.7-0.6c1.3,0,2.5,0.2,3.7,0.6c1.1,0.4,2.1,1,2.9,1.7c0.8,0.7,1.5,1.6,1.9,2.6c0.5,1,0.7,2.1,0.7,3.3
			s-0.2,2.3-0.7,3.3c-0.5,1-1.1,1.9-1.9,2.6c-0.8,0.7-1.8,1.3-3,1.7c-1.2,0.4-2.4,0.6-3.7,0.6c-1.3,0-2.5-0.2-3.7-0.6
			c-1.1-0.4-2.1-1-2.9-1.7c-0.8-0.7-1.4-1.6-1.9-2.7S1077.7,512.8,1077.7,511.6z M1083.5,511.6c0,0.5,0.1,1,0.3,1.4s0.4,0.8,0.8,1.1
			s0.7,0.6,1.1,0.8c0.4,0.2,0.9,0.3,1.4,0.3c0.5,0,0.9-0.1,1.4-0.3c0.4-0.2,0.8-0.4,1.1-0.8c0.3-0.3,0.6-0.7,0.8-1.1
			c0.2-0.4,0.3-0.9,0.3-1.4c0-0.5-0.1-0.9-0.3-1.4c-0.2-0.4-0.4-0.8-0.8-1.1c-0.3-0.3-0.7-0.6-1.1-0.8c-0.4-0.2-0.9-0.3-1.4-0.3
			c-0.5,0-0.9,0.1-1.4,0.3c-0.4,0.2-0.8,0.4-1.1,0.8c-0.3,0.3-0.6,0.7-0.8,1.1S1083.5,511.2,1083.5,511.6z"/>
		<path class="st18" d="M1104.8,504v8.7c0,1.9,0.9,2.8,2.8,2.8s2.8-0.9,2.8-2.8V504h5.4v9.7c0,2.1-0.7,3.6-2.1,4.7
			c-1.4,1-3.4,1.6-6.1,1.6c-2.7,0-4.8-0.5-6.1-1.6c-1.4-1-2.1-2.6-2.1-4.7V504H1104.8z"/>
	</g>
	<g class="st27">
		<path class="st18" d="M1135.7,508.5v10.9h-5.4v-10.9h-1.8V504h1.8v-4.6h5.4v4.6h3.1v4.5H1135.7z"/>
	</g>
	<g class="st27">
		<path class="st18" d="M1141.5,494.5h5.4V506c0.7-0.9,1.5-1.5,2.2-1.8c0.8-0.3,1.7-0.5,2.7-0.5c1.9,0,3.4,0.5,4.4,1.6
			c1,1.1,1.5,2.5,1.5,4.3v9.8h-5.4v-7.8c0-0.8-0.1-1.4-0.2-1.9c-0.1-0.5-0.3-0.8-0.6-1.1c-0.5-0.4-1.1-0.6-1.7-0.6
			c-0.9,0-1.6,0.3-2.1,0.8c-0.5,0.6-0.7,1.3-0.7,2.4v8.2h-5.4V494.5z"/>
		<path class="st18" d="M1161,498.1c0-0.4,0.1-0.8,0.2-1.2c0.2-0.4,0.4-0.7,0.7-1s0.6-0.5,1-0.7c0.4-0.2,0.8-0.2,1.2-0.2
			s0.8,0.1,1.2,0.2c0.4,0.2,0.7,0.4,1,0.7s0.5,0.6,0.7,1c0.2,0.4,0.2,0.8,0.2,1.2s-0.1,0.8-0.2,1.2c-0.2,0.4-0.4,0.7-0.7,1
			s-0.6,0.5-1,0.7c-0.4,0.2-0.8,0.2-1.2,0.2s-0.8-0.1-1.2-0.2c-0.4-0.2-0.7-0.4-1-0.7s-0.5-0.6-0.7-1
			C1161.1,498.9,1161,498.5,1161,498.1z M1166.8,504v15.4h-5.4V504H1166.8z"/>
		<path class="st18" d="M1170.6,504h5.4v1.9c0.7-0.9,1.5-1.5,2.2-1.8c0.8-0.3,1.7-0.5,2.7-0.5c1.1,0,2,0.2,2.8,0.5
			c0.8,0.4,1.4,0.8,2,1.5c0.4,0.5,0.7,1.1,0.9,1.7c0.2,0.6,0.2,1.4,0.2,2.2v9.8h-5.4v-7.8c0-0.8-0.1-1.4-0.2-1.8
			c-0.1-0.5-0.3-0.8-0.6-1.1c-0.2-0.2-0.5-0.4-0.8-0.5c-0.3-0.1-0.6-0.2-1-0.2c-0.9,0-1.6,0.3-2.1,0.8c-0.5,0.6-0.7,1.3-0.7,2.4v8.2
			h-5.4V504z"/>
		<path class="st18" d="M1195.9,494.5v15.1l5.7-5.5h7.4l-7.7,7.1l8.2,8.3h-7.6l-6-6.3v6.3h-5.4v-24.9H1195.9z"/>
	</g>
	<g class="st27">
		<path class="st18" d="M824.5,553.3l-7.4-13.3h6.3l4.1,7.9l4-7.9h6.2l-12.4,23.1h-6.1L824.5,553.3z"/>
	</g>
	<g class="st27">
		<path class="st18" d="M838.2,547.6c0-1.1,0.2-2.2,0.7-3.2c0.5-1,1.1-1.8,1.9-2.6c0.8-0.7,1.8-1.3,2.9-1.7s2.4-0.6,3.7-0.6
			c1.3,0,2.5,0.2,3.7,0.6s2.1,1,2.9,1.7c0.8,0.7,1.5,1.6,1.9,2.6c0.5,1,0.7,2.1,0.7,3.3s-0.2,2.3-0.7,3.3c-0.5,1-1.1,1.9-1.9,2.6
			c-0.8,0.7-1.8,1.3-3,1.7c-1.2,0.4-2.4,0.6-3.7,0.6c-1.3,0-2.5-0.2-3.7-0.6c-1.1-0.4-2.1-1-2.9-1.7c-0.8-0.7-1.4-1.6-1.9-2.7
			C838.4,550,838.2,548.8,838.2,547.6z M843.9,547.6c0,0.5,0.1,1,0.3,1.4c0.2,0.4,0.4,0.8,0.8,1.1s0.7,0.6,1.1,0.8
			c0.4,0.2,0.9,0.3,1.4,0.3s0.9-0.1,1.4-0.3c0.4-0.2,0.8-0.4,1.1-0.8c0.3-0.3,0.6-0.7,0.8-1.1c0.2-0.4,0.3-0.9,0.3-1.4
			c0-0.5-0.1-0.9-0.3-1.4c-0.2-0.4-0.4-0.8-0.8-1.1c-0.3-0.3-0.7-0.6-1.1-0.8c-0.4-0.2-0.9-0.3-1.4-0.3s-0.9,0.1-1.4,0.3
			c-0.4,0.2-0.8,0.4-1.1,0.8c-0.3,0.3-0.6,0.7-0.8,1.1C844,546.7,843.9,547.2,843.9,547.6z"/>
		<path class="st18" d="M865.2,540v8.7c0,1.9,0.9,2.8,2.8,2.8c1.8,0,2.8-0.9,2.8-2.8V540h5.4v9.7c0,2.1-0.7,3.6-2.1,4.7
			c-1.4,1-3.4,1.6-6.1,1.6s-4.8-0.5-6.1-1.6c-1.4-1-2.1-2.6-2.1-4.7V540H865.2z"/>
		<path class="st18" d="M901.6,545c-0.9-0.6-1.9-1-2.9-1c-0.5,0-1,0.1-1.5,0.3c-0.5,0.2-0.8,0.4-1.2,0.8c-0.3,0.3-0.6,0.7-0.8,1.2
			c-0.2,0.5-0.3,1-0.3,1.5c0,0.5,0.1,1,0.3,1.5c0.2,0.5,0.4,0.8,0.8,1.2s0.7,0.6,1.2,0.8c0.5,0.2,0.9,0.3,1.5,0.3c1,0,2-0.3,2.9-1
			v4.6c-1.3,0.6-2.6,0.9-3.8,0.9c-1.1,0-2.2-0.2-3.2-0.6s-1.9-0.9-2.7-1.6c-0.8-0.7-1.4-1.6-1.8-2.6c-0.5-1-0.7-2.1-0.7-3.3
			s0.2-2.3,0.7-3.3s1-1.9,1.8-2.6c0.8-0.7,1.7-1.3,2.7-1.7c1-0.4,2.2-0.6,3.4-0.6c1.3,0,2.5,0.3,3.7,0.8V545z"/>
		<path class="st18" d="M916.6,540h5.5v15.4h-5.5v-1.7c-1.2,1.5-2.7,2.2-4.7,2.2c-1.1,0-2.1-0.2-3.1-0.6c-0.9-0.4-1.8-1-2.5-1.7
			c-0.7-0.7-1.2-1.6-1.6-2.6c-0.4-1-0.6-2.1-0.6-3.3c0-1.1,0.2-2.1,0.6-3.1c0.4-1,0.9-1.9,1.6-2.6c0.7-0.7,1.5-1.3,2.4-1.8
			c0.9-0.4,2-0.6,3.1-0.6c1.9,0,3.5,0.7,4.8,2V540z M909.8,547.7c0,0.5,0.1,1,0.3,1.4c0.2,0.4,0.4,0.8,0.7,1.1s0.7,0.6,1.1,0.8
			c0.4,0.2,0.9,0.3,1.4,0.3c0.5,0,0.9-0.1,1.4-0.3c0.4-0.2,0.8-0.4,1.1-0.8s0.6-0.7,0.8-1.1s0.3-0.9,0.3-1.3c0-0.5-0.1-0.9-0.3-1.4
			c-0.2-0.4-0.4-0.8-0.8-1.1c-0.3-0.3-0.7-0.6-1.1-0.8s-0.9-0.3-1.4-0.3c-0.5,0-1,0.1-1.4,0.3c-0.4,0.2-0.8,0.4-1.1,0.8
			c-0.3,0.3-0.6,0.7-0.7,1.1C909.9,546.7,909.8,547.2,909.8,547.7z"/>
		<path class="st18" d="M925.8,540h5.4v1.9c0.7-0.9,1.5-1.5,2.2-1.8c0.8-0.3,1.6-0.5,2.7-0.5c1.1,0,2,0.2,2.8,0.5
			c0.8,0.4,1.4,0.8,2,1.5c0.4,0.5,0.7,1.1,0.9,1.7c0.2,0.6,0.2,1.4,0.2,2.2v9.8h-5.4v-7.8c0-0.8-0.1-1.4-0.2-1.8
			c-0.1-0.5-0.3-0.8-0.6-1.1c-0.2-0.2-0.5-0.4-0.8-0.5c-0.3-0.1-0.6-0.2-1-0.2c-0.9,0-1.6,0.3-2.1,0.8c-0.5,0.6-0.7,1.3-0.7,2.4v8.2
			h-5.4V540z"/>
		<path class="st18" d="M967.8,530.5h5.5v24.9h-5.5v-1.7c-1.2,1.5-2.7,2.2-4.7,2.2c-1.1,0-2.1-0.2-3.1-0.6c-0.9-0.4-1.8-1-2.5-1.7
			c-0.7-0.7-1.2-1.6-1.6-2.6c-0.4-1-0.6-2.1-0.6-3.2c0-1.1,0.2-2.1,0.6-3.1s0.9-1.9,1.6-2.6c0.7-0.7,1.5-1.3,2.4-1.8
			c0.9-0.4,2-0.6,3.1-0.6c1.9,0,3.5,0.7,4.8,2V530.5z M960.9,547.7c0,0.5,0.1,1,0.3,1.4s0.4,0.8,0.7,1.1c0.3,0.3,0.7,0.6,1.1,0.8
			c0.4,0.2,0.9,0.3,1.4,0.3c0.5,0,0.9-0.1,1.4-0.3c0.4-0.2,0.8-0.4,1.1-0.8c0.3-0.3,0.6-0.7,0.8-1.1c0.2-0.4,0.3-0.9,0.3-1.3
			c0-0.5-0.1-0.9-0.3-1.4c-0.2-0.4-0.4-0.8-0.8-1.1c-0.3-0.3-0.7-0.6-1.1-0.8c-0.4-0.2-0.9-0.3-1.4-0.3c-0.5,0-0.9,0.1-1.4,0.3
			c-0.4,0.2-0.8,0.4-1.1,0.8c-0.3,0.3-0.6,0.7-0.8,1.1C961,546.7,960.9,547.2,960.9,547.7z"/>
		<path class="st18" d="M976.3,547.6c0-1.1,0.2-2.2,0.7-3.2c0.5-1,1.1-1.8,1.9-2.6c0.8-0.7,1.8-1.3,2.9-1.7s2.4-0.6,3.7-0.6
			c1.3,0,2.5,0.2,3.7,0.6s2.1,1,2.9,1.7s1.5,1.6,1.9,2.6c0.5,1,0.7,2.1,0.7,3.3s-0.2,2.3-0.7,3.3s-1.1,1.9-1.9,2.6
			c-0.8,0.7-1.8,1.3-3,1.7c-1.2,0.4-2.4,0.6-3.7,0.6c-1.3,0-2.5-0.2-3.7-0.6c-1.1-0.4-2.1-1-2.9-1.7c-0.8-0.7-1.4-1.6-1.9-2.7
			S976.3,548.8,976.3,547.6z M982,547.6c0,0.5,0.1,1,0.3,1.4c0.2,0.4,0.4,0.8,0.8,1.1c0.3,0.3,0.7,0.6,1.1,0.8
			c0.4,0.2,0.9,0.3,1.4,0.3c0.5,0,0.9-0.1,1.4-0.3c0.4-0.2,0.8-0.4,1.1-0.8c0.3-0.3,0.6-0.7,0.8-1.1c0.2-0.4,0.3-0.9,0.3-1.4
			c0-0.5-0.1-0.9-0.3-1.4c-0.2-0.4-0.4-0.8-0.8-1.1c-0.3-0.3-0.7-0.6-1.1-0.8c-0.4-0.2-0.9-0.3-1.4-0.3c-0.5,0-0.9,0.1-1.4,0.3
			c-0.4,0.2-0.8,0.4-1.1,0.8c-0.3,0.3-0.6,0.7-0.8,1.1C982.1,546.7,982,547.2,982,547.6z"/>
		<path class="st18" d="M1013.5,530.5v11c1.3-1.3,2.9-2,4.8-2c1.1,0,2.2,0.2,3.1,0.6c1,0.4,1.8,1,2.4,1.7c0.7,0.7,1.2,1.6,1.6,2.6
			c0.4,1,0.6,2,0.6,3.2c0,1.1-0.2,2.2-0.6,3.2c-0.4,1-0.9,1.9-1.6,2.6c-0.7,0.7-1.5,1.3-2.5,1.8s-2,0.6-3.1,0.6
			c-2,0-3.6-0.7-4.7-2.2v1.7h-5.4v-24.9H1013.5z M1020.4,547.8c0-0.5-0.1-0.9-0.3-1.4c-0.2-0.4-0.4-0.8-0.8-1.1
			c-0.3-0.3-0.7-0.6-1.1-0.8c-0.4-0.2-0.9-0.3-1.4-0.3c-0.5,0-0.9,0.1-1.4,0.3s-0.8,0.4-1.1,0.8c-0.3,0.3-0.6,0.7-0.8,1.1
			c-0.2,0.4-0.3,0.9-0.3,1.4c0,0.5,0.1,0.9,0.3,1.3c0.2,0.4,0.4,0.8,0.8,1.1c0.3,0.3,0.7,0.6,1.1,0.8c0.4,0.2,0.9,0.3,1.4,0.3
			c0.5,0,0.9-0.1,1.4-0.3c0.4-0.2,0.8-0.4,1.1-0.8c0.3-0.3,0.6-0.7,0.8-1.1C1020.3,548.7,1020.4,548.2,1020.4,547.8z"/>
	</g>
	<g class="st27">
		<path class="st18" d="M1034,548.6c0,2.3,1.1,3.5,3.3,3.5c1.2,0,2.1-0.5,2.7-1.4h5.2c-1.1,3.5-3.7,5.3-8,5.3
			c-1.3,0-2.5-0.2-3.6-0.6c-1.1-0.4-2-0.9-2.8-1.7c-0.8-0.7-1.4-1.6-1.8-2.6s-0.6-2.1-0.6-3.4c0-1.3,0.2-2.4,0.6-3.5s1-1.9,1.7-2.6
			c0.7-0.7,1.6-1.3,2.7-1.7s2.2-0.6,3.6-0.6c1.3,0,2.5,0.2,3.5,0.6s1.9,1,2.6,1.7s1.3,1.6,1.6,2.7s0.6,2.3,0.6,3.6v0.6H1034z
			 M1040.4,545.5c-0.2-0.8-0.5-1.4-1.1-1.8c-0.6-0.5-1.2-0.7-2-0.7c-0.8,0-1.5,0.2-2.1,0.7c-0.5,0.4-0.9,1.1-1,1.9H1040.4z"/>
	</g>
	<g class="st27">
		<path class="st18" d="M1054.8,544.5v10.9h-5.4v-10.9h-1.8V540h1.8v-4.6h5.4v4.6h3.1v4.5H1054.8z"/>
	</g>
	<g class="st27">
		<path class="st18" d="M1066.8,544.5v10.9h-5.4v-10.9h-1.8V540h1.8v-4.6h5.4v4.6h3.1v4.5H1066.8z"/>
	</g>
	<g class="st27">
		<path class="st18" d="M1077.1,548.6c0,2.3,1.1,3.5,3.3,3.5c1.2,0,2.1-0.5,2.7-1.4h5.2c-1.1,3.5-3.7,5.3-8,5.3
			c-1.3,0-2.5-0.2-3.6-0.6c-1.1-0.4-2-0.9-2.8-1.7c-0.8-0.7-1.4-1.6-1.8-2.6s-0.6-2.1-0.6-3.4c0-1.3,0.2-2.4,0.6-3.5
			c0.4-1,1-1.9,1.7-2.6c0.7-0.7,1.6-1.3,2.7-1.7c1.1-0.4,2.2-0.6,3.6-0.6c1.3,0,2.5,0.2,3.5,0.6s1.9,1,2.6,1.7
			c0.7,0.7,1.3,1.6,1.7,2.7s0.6,2.3,0.6,3.6v0.6H1077.1z M1083.5,545.5c-0.2-0.8-0.6-1.4-1.1-1.8s-1.2-0.7-2-0.7
			c-0.8,0-1.5,0.2-2.1,0.7c-0.5,0.4-0.9,1.1-1,1.9H1083.5z"/>
	</g>
	<g class="st27">
		<path class="st18" d="M1091.7,540h5.4v2.5c0.6-0.9,1.3-1.6,2.1-2.1c0.8-0.5,1.8-0.7,2.9-0.7c0.1,0,0.3,0,0.5,0s0.4,0,0.6,0.1v5.2
			c-0.7-0.4-1.5-0.5-2.3-0.5c-1.3,0-2.2,0.4-2.8,1.1s-0.9,1.8-0.9,3.3v6.6h-5.4V540z"/>
	</g>
	<g class="st27">
		<path class="st18" d="M1103.5,552.5c0-0.5,0.1-0.9,0.3-1.4c0.2-0.4,0.4-0.8,0.8-1.1c0.3-0.3,0.7-0.6,1.1-0.8
			c0.4-0.2,0.9-0.3,1.4-0.3c0.5,0,0.9,0.1,1.4,0.3c0.4,0.2,0.8,0.4,1.1,0.8c0.3,0.3,0.6,0.7,0.8,1.1c0.2,0.4,0.3,0.9,0.3,1.4
			c0,0.5-0.1,0.9-0.3,1.4c-0.2,0.4-0.4,0.8-0.8,1.1c-0.3,0.3-0.7,0.6-1.1,0.8c-0.4,0.2-0.9,0.3-1.4,0.3c-0.5,0-0.9-0.1-1.4-0.3
			c-0.4-0.2-0.8-0.4-1.1-0.8c-0.3-0.3-0.6-0.7-0.8-1.1C1103.6,553.5,1103.5,553,1103.5,552.5z"/>
	</g>
</g>
</svg>
