<?xml version="1.0" encoding="utf-8"?>
<!-- Generator: Adobe Illustrator 26.0.1, SVG Export Plug-In . SVG Version: 6.00 Build 0)  -->
<svg version="1.1" id="Layer_1" xmlns="http://www.w3.org/2000/svg" xmlns:xlink="http://www.w3.org/1999/xlink" x="0px" y="0px"
	 viewBox="0 0 65 65.6" style="enable-background:new 0 0 65 65.6;" xml:space="preserve">
<style type="text/css">
	.st0{fill:#FE997B;}
	.st1{enable-background:new    ;}
	.st2{fill:#F7C74F;}
</style>
<g id="Layer_2_00000178916853722960169980000011013439033057734329_">
	<g id="Layer_1-2">
		<ellipse class="st0" cx="32.5" cy="32.8" rx="32.5" ry="32.8"/>
		<g class="st1">
			<path class="st2" d="M20.1,38.2h11.4v7h-21v-4.8c0-5.2,3-7.2,5.5-8.5c2.3-1.2,6.1-1.5,6.1-3.9c0-0.9-0.5-1.3-1.3-1.3
				c-1.1,0-1.5,0.7-1.5,2.1c0,0-5.6,0-8.5,0c0-6.4,5.2-8.7,10.1-8.7c3.9,0,10.3,0.8,10.5,7.2C31.9,37.5,21,35.4,20.1,38.2z"/>
		</g>
		<g class="st1">
			<path class="st2" d="M44.6,45.9c-5,0-10.4-2.1-10.4-8.6c2.9,0,8.6,0,8.6,0c0,1.4,0.5,2.1,1.6,2.1c1.2,0,2.1-1.1,2.1-4.7h-0.2
				c-1.5,1.4-4,2.1-6.9,1.6c-3.4-0.6-5.8-3.5-5.8-7.2c0-6.7,4-9.1,10.2-9.1c6.2,0,10.8,3.6,11,9.8C55.5,44.8,48.6,45.9,44.6,45.9z
				 M46.3,28.4c0-1.2-0.9-2.2-2.2-2.2c-1.2,0-2.2,1-2.2,2.2s0.8,2.2,2.2,2.2S46.3,29.6,46.3,28.4z"/>
		</g>
	</g>
</g>
</svg>
