<?xml version="1.0" encoding="utf-8"?>
<!-- Generator: Adobe Illustrator 26.0.1, SVG Export Plug-In . SVG Version: 6.00 Build 0)  -->
<svg version="1.1" id="Layer_1" xmlns="http://www.w3.org/2000/svg" xmlns:xlink="http://www.w3.org/1999/xlink" x="0px" y="0px"
	 viewBox="0 0 65 65.1" style="enable-background:new 0 0 65 65.1;" xml:space="preserve">
<style type="text/css">
	.st0{fill:#FE997B;}
	.st1{enable-background:new    ;}
	.st2{fill:#F7C74F;}
</style>
<g id="Layer_2_00000134245162559070107680000016755182828698364291_">
	<g id="Layer_1-2">
		<ellipse class="st0" cx="32.5" cy="32.5" rx="32.5" ry="32.5"/>
		<g class="st1">
			<path class="st2" d="M27.5,21.5V46h-8.3V28.8H14v-5l5.5-2.3H27.5z"/>
			<path class="st2" d="M41,46.6c-5,0-10.4-2.1-10.4-8.6c2.9,0,8.6,0,8.6,0c0,1.4,0.5,2.1,1.6,2.1c1.2,0,2.1-1.1,2.1-4.7h-0.2
				c-1.5,1.4-4,2.1-6.9,1.6c-3.4-0.6-5.8-3.5-5.8-7.2c0-6.7,4-9.1,10.2-9.1c6.2,0,10.8,3.6,11,9.8C51.9,45.6,45,46.6,41,46.6z
				 M42.7,29.2c0-1.2-0.9-2.2-2.2-2.2c-1.2,0-2.2,1-2.2,2.2s0.8,2.2,2.2,2.2S42.7,30.4,42.7,29.2z"/>
		</g>
	</g>
</g>
</svg>
