<?xml version="1.0" encoding="utf-8"?>
<!-- Generator: Adobe Illustrator 26.0.1, SVG Export Plug-In . SVG Version: 6.00 Build 0)  -->
<svg version="1.1" id="Layer_1" xmlns="http://www.w3.org/2000/svg" xmlns:xlink="http://www.w3.org/1999/xlink" x="0px" y="0px"
	 viewBox="0 0 65 65.6" style="enable-background:new 0 0 65 65.6;" xml:space="preserve">
<style type="text/css">
	.st0{fill:#FE997B;}
	.st1{enable-background:new    ;}
	.st2{fill:#F7C74F;}
</style>
<g id="Layer_2_00000108994700919915404500000010148224132142351510_">
	<g id="Layer_1-2">
		<ellipse class="st0" cx="32.5" cy="32.8" rx="32.5" ry="32.8"/>
		<g class="st1">
			<path class="st2" d="M31.5,38.5c-0.8,6.5-5.6,8.2-10.6,8.2c-4.9,0-10.1-2.4-10.1-8.8c2.8,0,8.4,0,8.4,0c0,1.4,0.4,2.2,1.5,2.2
				c0.9,0,1.3-0.7,1.3-2c0-1.4-0.5-2-2.6-2c-2.2,0-7.3,0-7.3,0l0.7-14.6h16.8v7h-8.9l-0.1,2.6c0,0,0.2,0,0.2,0
				c1.9-0.6,4.3-0.6,6-0.2C30.1,31.8,32,34.8,31.5,38.5z"/>
			<path class="st2" d="M54.3,39.5c-0.5,6.2-6.2,7.2-10.5,7.2c-4.9,0-10.1-2.4-10.1-8.8c2.8,0,8.4,0,8.4,0c0,1.4,0.4,2.2,1.5,2.2
				c0.9,0,1.3-0.7,1.3-2c0-1.4-0.5-2-2.6-2c-2.2,0-4.4,0-4.4,0v-4.2l5.8-3.1v-0.2H35v-7h18.2v7.5l-6.6,3.2v0.2
				C50.1,32.3,54.9,33,54.3,39.5z"/>
		</g>
	</g>
</g>
</svg>
