<?xml version="1.0" encoding="utf-8"?>
<!-- Generator: Adobe Illustrator 26.0.1, SVG Export Plug-In . SVG Version: 6.00 Build 0)  -->
<svg version="1.1" id="Layer_1" xmlns="http://www.w3.org/2000/svg" xmlns:xlink="http://www.w3.org/1999/xlink" x="0px" y="0px"
	 viewBox="0 0 65 65" style="enable-background:new 0 0 65 65;" xml:space="preserve">
<style type="text/css">
	.st0{fill:#FE997B;}
	.st1{enable-background:new    ;}
	.st2{fill:#F7C74F;}
</style>
<g id="Layer_2_00000129166586437637970120000009586389856626267838_">
	<g id="Layer_1-2">
		<circle class="st0" cx="32.5" cy="32.5" r="32.5"/>
		<g class="st1">
			<path class="st2" d="M31.8,37.8C31,44.4,26.2,46,21.1,46C16.2,46,11,43.6,11,37.2c2.8,0,8.5,0,8.5,0c0,1.4,0.4,2.2,1.5,2.2
				c0.9,0,1.3-0.7,1.3-2c0-1.4-0.5-2-2.7-2c-2.2,0-7.4,0-7.4,0l0.7-14.6h17v7h-9l-0.1,2.6c0,0,0.2,0,0.2,0c1.9-0.6,4.3-0.6,6-0.2
				C30.4,31.1,32.3,34.1,31.8,37.8z"/>
		</g>
		<g class="st1">
			<path class="st2" d="M44.6,46c-5.1,0-10.5-2.1-10.5-8.6c2.9,0,8.7,0,8.7,0c0,1.4,0.5,2.1,1.6,2.1c1.2,0,2.1-1.1,2.2-4.7h-0.2
				c-1.5,1.4-4.1,2.1-7,1.6c-3.5-0.6-5.8-3.5-5.8-7.2c0-6.7,4-9.1,10.3-9.1S54.8,23.8,55,30C55.7,45,48.7,46,44.6,46z M46.3,28.6
				c0-1.2-1-2.2-2.2-2.2c-1.2,0-2.2,1-2.2,2.2s0.8,2.2,2.2,2.2C45.5,30.8,46.3,29.8,46.3,28.6z"/>
		</g>
	</g>
</g>
</svg>
