<?xml version="1.0" encoding="utf-8"?>
<!-- Generator: Adobe Illustrator 26.0.1, SVG Export Plug-In . SVG Version: 6.00 Build 0)  -->
<svg version="1.1" id="Layer_1" xmlns="http://www.w3.org/2000/svg" xmlns:xlink="http://www.w3.org/1999/xlink" x="0px" y="0px"
	 viewBox="0 0 1920 1080" style="enable-background:new 0 0 1920 1080;" xml:space="preserve">
<style type="text/css">
	.st0{fill:url(#SVGID_1_);}
	.st1{fill:url(#SVGID_00000127031727836360207750000016178526608537983647_);}
	.st2{fill:url(#SVGID_00000007397170679771419250000017211987947150507443_);}
	.st3{fill:url(#SVGID_00000113313907368213816110000015701658783637871271_);}
	.st4{fill:url(#SVGID_00000087385713136422926970000009808228944005085080_);}
	.st5{fill:url(#SVGID_00000155844318877495642790000008559952994185315214_);}
	.st6{fill:#F4D5A9;}
	.st7{fill:#FE997B;}
	.st8{fill:none;stroke:#ED6336;stroke-width:3;stroke-miterlimit:10;}
	.st9{fill:#F7D7AE;}
	.st10{fill:url(#SVGID_00000109009272525648562990000007843993039000020113_);}
	.st11{fill:#754C24;}
	.st12{fill:url(#SVGID_00000011020868964569726030000014109282255202392469_);}
	.st13{fill:url(#SVGID_00000054238605012512431210000006315572779649339576_);}
	.st14{fill:url(#SVGID_00000111167781601189932040000009845786151609287341_);}
	.st15{fill:#CA8C1F;}
	.st16{fill:#E44616;}
	.st17{fill:#42210B;}
	.st18{fill:#5D6F83;}
	.st19{fill:url(#SVGID_00000100369374203421905430000015481557241937450935_);}
	.st20{fill:url(#SVGID_00000075140528473968092740000004891935788751217563_);}
	.st21{fill:url(#SVGID_00000177445100140676655440000014794206305253601923_);}
	.st22{fill:#BC391B;}
	.st23{fill:#A2BFC5;}
	.st24{fill:#8DB5AD;}
	.st25{fill:#F7C74F;}
	.st26{enable-background:new    ;}
</style>
<g id="Layer_3">
	
		<radialGradient id="SVGID_1_" cx="936.6484" cy="214.0992" r="1004.903" gradientTransform="matrix(0.99 3.000000e-02 -2.000000e-02 0.51 37 402.71)" gradientUnits="userSpaceOnUse">
		<stop  offset="0" style="stop-color:#C8C9AB"/>
		<stop  offset="0.21" style="stop-color:#C4C7AA"/>
		<stop  offset="0.42" style="stop-color:#B9C2A7"/>
		<stop  offset="0.62" style="stop-color:#A5B9A1"/>
		<stop  offset="0.82" style="stop-color:#8AAC9A"/>
		<stop  offset="1" style="stop-color:#6B9D91"/>
	</radialGradient>
	<rect class="st0" width="1920" height="1080"/>
</g>
<g id="Layer_4">
	
		<radialGradient id="SVGID_00000106837764511710471600000002739689997348503215_" cx="936.4022" cy="837.8571" r="700.85" gradientTransform="matrix(0.98 0 0 0.79 45.38 317.1199)" gradientUnits="userSpaceOnUse">
		<stop  offset="0" style="stop-color:#FE997B"/>
		<stop  offset="0.35" style="stop-color:#FB9375"/>
		<stop  offset="0.83" style="stop-color:#F18364"/>
		<stop  offset="1" style="stop-color:#EC7B5C"/>
	</radialGradient>
	<rect y="877.1" style="fill:url(#SVGID_00000106837764511710471600000002739689997348503215_);" width="1920" height="202.9"/>
</g>
<g id="Layer_1-2">
	
		<linearGradient id="SVGID_00000054228523084881313450000014180466565198403498_" gradientUnits="userSpaceOnUse" x1="949.445" y1="947.49" x2="949.445" y2="750.32" gradientTransform="matrix(1 0 0 1 0 80)">
		<stop  offset="0" style="stop-color:#CA8C1F"/>
		<stop  offset="0.38" style="stop-color:#C8891F"/>
		<stop  offset="0.64" style="stop-color:#C2801F"/>
		<stop  offset="0.86" style="stop-color:#B7711F"/>
		<stop  offset="1" style="stop-color:#AD631F"/>
	</linearGradient>
	<polygon style="fill:url(#SVGID_00000054228523084881313450000014180466565198403498_);" points="946.2,1027.5 893.5,1027.5 
		893.5,830.3 1005.4,830.3 	"/>
	
		<linearGradient id="SVGID_00000154394883735329588880000000547933740361444498_" gradientUnits="userSpaceOnUse" x1="1511.3" y1="947.78" x2="1511.3" y2="750.61" gradientTransform="matrix(1 0 0 1 0 80)">
		<stop  offset="0" style="stop-color:#CA8C1F"/>
		<stop  offset="0.38" style="stop-color:#C8891F"/>
		<stop  offset="0.64" style="stop-color:#C2801F"/>
		<stop  offset="0.86" style="stop-color:#B7711F"/>
		<stop  offset="1" style="stop-color:#AD631F"/>
	</linearGradient>
	<polygon style="fill:url(#SVGID_00000154394883735329588880000000547933740361444498_);" points="1514.5,1027.8 1567.3,1027.8 
		1567.3,830.6 1455.3,830.6 	"/>
	
		<linearGradient id="SVGID_00000030447569247519636540000003710787304680669080_" gradientUnits="userSpaceOnUse" x1="1229.75" y1="750.79" x2="1229.75" y2="43.9" gradientTransform="matrix(1 0 0 1 0 80)">
		<stop  offset="0" style="stop-color:#E44616"/>
		<stop  offset="0.47" style="stop-color:#E14416"/>
		<stop  offset="0.75" style="stop-color:#D93F16"/>
		<stop  offset="0.99" style="stop-color:#CA3616"/>
		<stop  offset="1" style="stop-color:#CA3616"/>
	</linearGradient>
	
		<rect x="742.8" y="123.9" style="fill:url(#SVGID_00000030447569247519636540000003710787304680669080_);" width="973.9" height="706.9"/>
	
		<linearGradient id="SVGID_00000017498420876304704240000016731798543996979361_" gradientUnits="userSpaceOnUse" x1="1642.23" y1="750.82" x2="1642.23" y2="43.88" gradientTransform="matrix(1 0 0 1 0 80)">
		<stop  offset="0" style="stop-color:#F7C74F"/>
		<stop  offset="0.59" style="stop-color:#F5C64E"/>
		<stop  offset="0.81" style="stop-color:#EEC149"/>
		<stop  offset="0.96" style="stop-color:#E3B841"/>
		<stop  offset="1" style="stop-color:#DEB53E"/>
	</linearGradient>
	
		<rect x="1567.3" y="123.9" style="fill:url(#SVGID_00000017498420876304704240000016731798543996979361_);" width="149.8" height="706.9"/>
	<circle class="st6" cx="1640.9" cy="223.1" r="52.6"/>
	<circle class="st7" cx="1641.2" cy="223.8" r="41"/>
	<line class="st8" x1="1567.2" y1="617.9" x2="1717.1" y2="617.8"/>
	<line class="st8" x1="1567.1" y1="689.3" x2="1717.1" y2="689.2"/>
	<line class="st8" x1="1567.1" y1="760.3" x2="1717.1" y2="760.2"/>
	<line class="st8" x1="1567.1" y1="547.2" x2="1717.1" y2="547.1"/>
	<line class="st8" x1="1567.1" y1="476.1" x2="1717.1" y2="476"/>
	<circle class="st7" cx="1641.4" cy="363.1" r="52.6"/>
	<circle class="st6" cx="1641.7" cy="363.7" r="41"/>
	
		<image style="overflow:visible;enable-background:new    ;" width="846" height="741" xlink:href="45F6DFD818D375F6.png"  transform="matrix(1 0 0 1 729 109)">
	</image>
	<path class="st9" d="M813.5,181.5h676.5c6.6,0,12,5.4,12,12v571.1c0,6.6-5.4,12-12,12H813.5c-6.6,0-12-5.4-12-12V193.5
		C801.5,186.9,806.8,181.5,813.5,181.5z"/>
</g>
<g id="Layer_2_00000004547054389692565810000008993495462094859419_">
	
		<linearGradient id="SVGID_00000163047091407622716890000011963889256532303234_" gradientUnits="userSpaceOnUse" x1="301.1176" y1="921.67" x2="301.1176" y2="640.7073" gradientTransform="matrix(1 0 0 1 0 80)">
		<stop  offset="0" style="stop-color:#754C24"/>
		<stop  offset="0.62" style="stop-color:#CA8C1F"/>
		<stop  offset="0.99" style="stop-color:#EDC796"/>
	</linearGradient>
	<path style="fill:url(#SVGID_00000163047091407622716890000011963889256532303234_);" d="M349.8,721.8
		c-52.3,76.5,10.2,279.8-4.5,279.8s-67.8-85.8-67.1-97.8c2.7-45.6-37.9-44.4-21.9-127.5C269.3,708.1,349.8,721.8,349.8,721.8z"/>
	<path class="st11" d="M578.5,901.3c0,60.6-43,109.8-96,109.8s-97-45.3-80.7-103.7c17-61.2,27.7-115.9,80.7-115.9
		S578.5,840.6,578.5,901.3z"/>
	<path class="st11" d="M578.6,915.8c-8,33.9-10.9,40.3-17.3,56c-2.9,7.2,108.1,10.5,100.5,40.1c-0.5,2-127.1-0.6-133-5.8
		c-15.1-13.4,20.5-58,20.5-92.9c0-51.2-32.8-115.9-21.5-115.9c5.6,0,58.8,30.4,62.5,47.2S586,884.6,578.6,915.8z"/>
	
		<linearGradient id="SVGID_00000140726638728197459680000014608741571706758299_" gradientUnits="userSpaceOnUse" x1="610.5538" y1="614.73" x2="610.5538" y2="951.7801" gradientTransform="matrix(1 0 0 1 0 80)">
		<stop  offset="0" style="stop-color:#CA8C1F"/>
		<stop  offset="0.42" style="stop-color:#C88B1F"/>
		<stop  offset="0.58" style="stop-color:#C1851E"/>
		<stop  offset="0.68" style="stop-color:#B67C1C"/>
		<stop  offset="0.77" style="stop-color:#A56F1A"/>
		<stop  offset="0.85" style="stop-color:#8F5D16"/>
		<stop  offset="0.91" style="stop-color:#734812"/>
		<stop  offset="0.97" style="stop-color:#542F0E"/>
		<stop  offset="1" style="stop-color:#42210B"/>
	</linearGradient>
	<path style="fill:url(#SVGID_00000140726638728197459680000014608741571706758299_);" d="M617,863c-19.7,60.8-6.5,88.8-12.9,117.3
		c-2.9,13,35.5,23.7,31,46.4c-0.7,3.5-43.5,10.6-46.5-2.7c-6.3-28.7-0.9-102.3-0.9-165.8c0-92.9-2.4-163.5,8.9-163.5
		c5.6,0,28.4,8.3,32.1,38.7S633.3,812.7,617,863z"/>
	
		<linearGradient id="SVGID_00000155860220371898357430000009128957519224388527_" gradientUnits="userSpaceOnUse" x1="568.395" y1="315.7446" x2="568.395" y2="555.7706" gradientTransform="matrix(1 0 0 1 0 80)">
		<stop  offset="0" style="stop-color:#8C6239"/>
		<stop  offset="0.21" style="stop-color:#A17030"/>
		<stop  offset="0.49" style="stop-color:#B88027"/>
		<stop  offset="0.76" style="stop-color:#C58921"/>
		<stop  offset="1" style="stop-color:#CA8C1F"/>
	</linearGradient>
	<path style="fill:url(#SVGID_00000155860220371898357430000009128957519224388527_);" d="M657.8,503.5c0,62-55.1,128.4-104.5,128.4
		c-27.4,0-73,14.4-57.1-12.5c20.3-34.4-17.3-88.3-17.3-115.9c0-62,38.3-109.8,87.7-107.7c81.9,3.5,40.1,51.6,56.3,71.9
		S657.8,472.5,657.8,503.5z"/>
	
		<linearGradient id="SVGID_00000067212538410033346510000014354278801867033235_" gradientUnits="userSpaceOnUse" x1="469.907" y1="931.5292" x2="469.907" y2="530.8342" gradientTransform="matrix(1 0 0 1 0 80)">
		<stop  offset="0" style="stop-color:#8C6239"/>
		<stop  offset="5.000000e-02" style="stop-color:#936736"/>
		<stop  offset="0.26" style="stop-color:#AB772C"/>
		<stop  offset="0.48" style="stop-color:#BD8325"/>
		<stop  offset="0.71" style="stop-color:#C78A20"/>
		<stop  offset="1" style="stop-color:#CA8C1F"/>
	</linearGradient>
	<path style="fill:url(#SVGID_00000067212538410033346510000014354278801867033235_);" d="M606.9,758.7
		c7.8,155-56.1,95.8-125.8,206.3c-46.6,73.9-175.4,55.2-143.9-24.2c40.3-101.7,89-331.3,141-330
		C564.4,613.1,601.4,650.6,606.9,758.7z"/>
	<path class="st9" d="M642.9,623.5l-27.4,16.5c-9.3,0-68.3-19.9-68.3-29.2V500.5c0-9.3,34.3-19.6,43.6-19.6l5.5-69.5l22.8,64
		c9.3,0,68.6,15.4,68.6,24.7l-15.5,126.1C672.1,635.5,652.2,623.5,642.9,623.5z"/>
	<path class="st15" d="M509.2,527.1l-6.2-1.6c-7.3-1.5-4.6-0.1-10.3-8.8c0,0-20-44.9-3.3-50.9c7-2.5,39.8-32.8,38.2-25.5
		C527.6,440.3,519.7,517,509.2,527.1z"/>
	<polygon class="st16" points="621.4,427 545.6,429.5 476.7,491.5 469.2,475.9 481.7,400.1 515.5,364.4 583.8,368.1 620.1,405.1 	
		"/>
	<polygon class="st17" points="654.8,540.4 674.9,506.8 634.7,506.8 	"/>
	<circle class="st18" cx="577.4" cy="468.7" r="28.2"/>
	<circle class="st18" cx="635.9" cy="460.2" r="23.3"/>
	
		<linearGradient id="SVGID_00000122704665623363200030000000618644966698128040_" gradientUnits="userSpaceOnUse" x1="417.7956" y1="957.24" x2="417.7956" y2="737.68" gradientTransform="matrix(1 0 0 1 0 80)">
		<stop  offset="0" style="stop-color:#754C24"/>
		<stop  offset="6.000000e-02" style="stop-color:#835623"/>
		<stop  offset="0.21" style="stop-color:#A26E21"/>
		<stop  offset="0.36" style="stop-color:#B87E20"/>
		<stop  offset="0.5" style="stop-color:#C5891F"/>
		<stop  offset="0.62" style="stop-color:#CA8C1F"/>
	</linearGradient>
	<path style="fill:url(#SVGID_00000122704665623363200030000000618644966698128040_);" d="M507.9,927.5c0,60.6-43,109.8-96,109.8
		s-97-45.3-80.7-103.7c17-61.2,27.7-115.9,80.7-115.9S507.9,866.8,507.9,927.5z"/>
	
		<linearGradient id="SVGID_00000039100148767675769520000011709638202879199628_" gradientUnits="userSpaceOnUse" x1="563.0775" y1="346.0152" x2="563.0775" y2="208.4425" gradientTransform="matrix(0.99 -0.16 0.12 0.72 -72.88 640.32)">
		<stop  offset="0" style="stop-color:#8C6239"/>
		<stop  offset="1.000000e-02" style="stop-color:#8F6438"/>
		<stop  offset="0.1" style="stop-color:#A5732F"/>
		<stop  offset="0.2" style="stop-color:#B67E28"/>
		<stop  offset="0.33" style="stop-color:#C18623"/>
		<stop  offset="0.5" style="stop-color:#C88B20"/>
		<stop  offset="1" style="stop-color:#CA8C1F"/>
	</linearGradient>
	<path style="fill:url(#SVGID_00000039100148767675769520000011709638202879199628_);" d="M565.9,738.1c3.1,19.2-11,54.1-37,60.1
		c-56.1,13-57-24.4-60.1-43.6s33.8-53.5,60.2-57.8C555.4,692.5,562.8,718.9,565.9,738.1z"/>
	
		<linearGradient id="SVGID_00000097499979899294338280000001003461245550205333_" gradientUnits="userSpaceOnUse" x1="524.6947" y1="752.67" x2="524.6947" y2="967.9667" gradientTransform="matrix(1 0 0 1 0 80)">
		<stop  offset="2.000000e-02" style="stop-color:#CA8C1F"/>
		<stop  offset="0.34" style="stop-color:#CA8C1F"/>
		<stop  offset="0.63" style="stop-color:#C88B1F"/>
		<stop  offset="0.74" style="stop-color:#C1851E"/>
		<stop  offset="0.81" style="stop-color:#B67C1D"/>
		<stop  offset="0.87" style="stop-color:#A56E1B"/>
		<stop  offset="0.93" style="stop-color:#8F5D18"/>
		<stop  offset="0.97" style="stop-color:#744815"/>
		<stop  offset="1" style="stop-color:#603813"/>
	</linearGradient>
	<path style="fill:url(#SVGID_00000097499979899294338280000001003461245550205333_);" d="M509.6,951.2c-8,33.9-10.9,40.3-17.3,56
		c-2.9,7.2,108,10.5,100.5,40.1c-0.5,2-127.1-0.6-133-5.8c-15.1-13.4,20.5-58,20.5-92.9c0-51.2-32.8-115.9-21.5-115.9
		c5.6,0,58.8,30.4,62.5,47.2S517,919.9,509.6,951.2z"/>
	<polygon class="st22" points="621.6,427.3 545.8,429.8 476.9,491.8 469.4,476.2 533.1,407.3 620.4,405.4 	"/>
	<path class="st23" d="M583.8,496.2c-3.3,0.8-6.7,1-10,0.5c-0.3,0,9.7-54.5,9.8-55.5c0-0.3,7.5,1.9,9.2,3.8
		C593.8,446.1,584.4,496,583.8,496.2z"/>
	<path class="st23" d="M640.8,483c-2.7,0.7-5.5,0.8-8.3,0.4c-0.2,0,8-45.2,8.2-46c0-0.2,6.2,1.6,7.7,3.2
		C649.1,441.4,641.3,482.8,640.8,483z"/>
</g>
<g id="Layer_7">
	<path class="st24" d="M949.7,350.2c-9.4,1.6-18.9,3.2-28.2,5c-6.1-32.1-12.2-64.2-18.4-96.3c16.2-3.1,32.3-5.9,48.6-8.3
		c13.2-2,23.8-0.6,31.5,4.2c7.7,4.8,12.2,12.4,13.4,22.7s-1.2,18.7-7.2,25.3s-15.2,10.7-27.8,12.6c-5.7,0.9-11.5,1.8-17.2,2.8
		C946.2,328.8,947.9,339.5,949.7,350.2z M941,297.9c3.3-0.5,6.5-1.1,9.8-1.6c10.8-1.7,15.7-6.5,14.5-14.6s-7.3-11.3-18.3-9.6
		c-3.3,0.5-6.7,1.1-10,1.6C938.3,281.8,939.7,289.9,941,297.9z"/>
	<path class="st24" d="M1110.8,334c-11.9,0.4-23.7,1-35.6,1.8c-9.9-12-20-23.8-30.4-35.5c1.1,12.5,2.1,25,3.2,37.6
		c-9.5,0.8-19,1.7-28.5,2.8c-3.5-32.5-7.1-65-10.6-97.4c15.9-1.7,31.9-3.2,47.8-4.4c5.8-0.5,11.7-0.1,17.4,1.3
		c4.5,1.1,8.8,3.1,12.5,5.9c3.2,2.5,5.8,5.6,7.6,9.3c1.8,3.6,2.8,7.6,2.9,11.6c0.3,7.4-1.5,13.6-5.5,18.4s-10,8.3-18,10.4
		C1086.4,308.2,1098.8,321,1110.8,334z M1043.4,283.8l5.6-0.5c5.9-0.5,10.3-1.8,13.3-4.1c2.9-2.1,4.5-5.7,4.1-9.3
		c-0.1-3.6-2.2-6.9-5.4-8.6c-3.3-1.8-8-2.5-14-2.1c-1.9,0.1-3.8,0.3-5.7,0.5L1043.4,283.8z"/>
	<path class="st24" d="M1151.1,235.2c0.1,32.7,0.1,65.3,0.2,98c-9.5,0-19.1,0.1-28.6,0.4l-2.5-98
		C1130.5,235.4,1140.8,235.3,1151.1,235.2z"/>
	<path class="st24" d="M1169.4,333.4c6.6-32.6,13.7-65.1,21.3-97.6c10.2,0.3,20.4,0.7,30.5,1.2c7,17.8,13.8,35.6,20.2,53.5
		c8.7-16.9,17.8-33.6,27.1-50.3c10.2,0.9,20.3,1.9,30.4,3c3.1,33.2,5.8,66.4,8,99.6c-9.4-1.2-18.9-2.2-28.3-3.2
		c-1.3-19-2.7-38.1-4.2-57.1c-10.8,17.9-21.1,35.9-31.1,54c-3.8-0.3-7.6-0.5-11.3-0.8c-7-19.3-14.4-38.5-22.2-57.7
		c-4.1,18.7-8.1,37.3-11.9,56C1188.4,333.7,1178.9,333.5,1169.4,333.4z"/>
	<path class="st24" d="M1401.2,280.2c-11.9-2.3-23.8-4.4-35.7-6.3c-0.9,5.4-1.8,10.8-2.6,16.2c11.1,1.8,22.2,3.7,33.3,5.8
		c-1.3,7.1-2.7,14.1-4,21.2c-10.9-2.1-21.8-4-32.7-5.8c-0.9,5.6-1.8,11.1-2.7,16.7c11.4,1.9,22.8,3.9,34.2,6l-4.1,21.2
		c-20.6-3.9-41.2-7.3-61.9-10.2l13.5-97c22.3,3.1,44.6,6.8,66.8,11C1403.9,266.1,1402.5,273.1,1401.2,280.2z"/>
	<path class="st24" d="M1053.8,391.1c2.2,25.4,4.3,50.8,6.5,76.2c-8.5,0.7-17,1.5-25.5,2.5l-8.2-76c-7.5,0.8-14.9,1.7-22.3,2.6
		c-0.9-7.1-1.8-14.3-2.7-21.4c24.4-3.1,48.8-5.5,73.3-7.1l1.4,21.5C1068.7,389.9,1061.3,390.4,1053.8,391.1z"/>
	<path class="st24" d="M1115,365.9l3.2,98c-8.5,0.3-17.1,0.7-25.6,1.1l-5.4-97.9C1096.4,366.6,1105.7,366.2,1115,365.9z"/>
	<path class="st24" d="M1134.3,463.4c5-32.8,10.5-65.5,16.4-98.2c9.2,0,18.4,0.1,27.6,0.2c6.8,17.6,13.3,35.2,19.5,52.8
		c7.4-17.1,15.2-34.2,23.3-51.2c9.2,0.5,18.4,1.1,27.5,1.8c3.5,33,6.5,66.1,9,99.1c-8.5-0.8-16.9-1.5-25.4-2.1
		c-1.5-19-3.1-37.9-4.9-56.9c-9.3,18.3-18.2,36.6-26.8,55.1c-3.4-0.1-6.8-0.3-10.2-0.4c-6.7-19-13.8-38-21.3-56.9
		c-3.2,18.8-6.3,37.5-9.2,56.3C1151.3,463.2,1142.8,463.3,1134.3,463.4z"/>
	<path class="st24" d="M1341.4,401.7c-10.7-1.7-21.5-3.3-32.3-4.7c-0.7,5.4-1.4,10.8-2.1,16.2c10,1.3,20,2.8,30,4.4
		c-1.1,7.1-2.2,14.2-3.4,21.3c-9.8-1.6-19.6-3-29.5-4.3c-0.7,5.6-1.5,11.2-2.2,16.8c10.3,1.3,20.5,2.8,30.8,4.5
		c-1.1,7.1-2.3,14.2-3.4,21.3c-18.5-3-37-5.4-55.6-7.5c3.5-32.5,7-65,10.5-97.5c20.2,2.2,40.4,4.9,60.6,8.1
		C1343.7,387.5,1342.6,394.6,1341.4,401.7z"/>
</g>
<rect x="118.7" y="128.8" class="st25" width="303.7" height="377"/>
<g class="st26">
	<path class="st16" d="M177.8,157.8v23.8h-6.2v-23.8H177.8z"/>
	<path class="st16" d="M181.7,181.6l4-23.8h6.1l4.8,12.7l4.7-12.7h6.1l4,23.8h-6.2l-2.1-13.7l-5.6,13.7h-2.5l-5.3-13.7l-2.1,13.7
		H181.7z"/>
	<path class="st16" d="M221.6,181.6h-6.2v-23.8h9.8c2.7,0,4.7,0.7,6.1,2.1c1.4,1.4,2.1,3.3,2.1,5.9c0,2.5-0.7,4.5-2.1,5.9
		c-1.4,1.4-3.5,2.1-6.1,2.1h-3.7V181.6z M221.6,168.7h2.1c2.3,0,3.4-1,3.4-3s-1.1-3-3.4-3h-2.1V168.7z"/>
	<path class="st16" d="M235.8,169.7c0-1.8,0.3-3.4,1-4.9c0.7-1.5,1.6-2.9,2.7-4c1.2-1.1,2.5-2,4.1-2.7c1.6-0.6,3.4-1,5.3-1
		c1.9,0,3.7,0.3,5.3,1c1.6,0.6,3,1.5,4.2,2.7c1.2,1.1,2.1,2.5,2.7,4c0.7,1.5,1,3.2,1,4.9c0,1.8-0.3,3.4-1,4.9
		c-0.7,1.5-1.6,2.9-2.7,4c-1.2,1.1-2.6,2-4.2,2.7c-1.6,0.6-3.4,1-5.3,1c-1.9,0-3.7-0.3-5.3-1c-1.6-0.6-3-1.5-4.1-2.7
		c-1.2-1.1-2.1-2.5-2.7-4C236.1,173.1,235.8,171.5,235.8,169.7z M242.2,169.7c0,0.9,0.2,1.8,0.5,2.6c0.4,0.8,0.8,1.5,1.5,2.1
		c0.6,0.6,1.3,1,2.1,1.4c0.8,0.3,1.7,0.5,2.6,0.5s1.8-0.2,2.6-0.5c0.8-0.3,1.5-0.8,2.1-1.4s1.1-1.3,1.5-2.1c0.4-0.8,0.5-1.7,0.5-2.6
		c0-0.9-0.2-1.8-0.5-2.6c-0.4-0.8-0.8-1.5-1.5-2.1s-1.3-1-2.1-1.4c-0.8-0.3-1.7-0.5-2.6-0.5s-1.8,0.2-2.6,0.5
		c-0.8,0.3-1.5,0.8-2.1,1.4c-0.6,0.6-1.1,1.3-1.5,2.1C242.4,167.9,242.2,168.8,242.2,169.7z"/>
</g>
<g class="st26">
	<path class="st16" d="M285.8,181.6h-7.7l-5.9-9.2v9.2H266v-23.8h9.6c1.3,0,2.5,0.2,3.5,0.6c1,0.4,1.8,0.9,2.4,1.6
		c0.6,0.7,1.1,1.5,1.5,2.3c0.3,0.9,0.5,1.8,0.5,2.8c0,1.8-0.4,3.3-1.3,4.4c-0.9,1.1-2.2,1.9-3.9,2.3L285.8,181.6z M272.2,168.4h1.2
		c1.2,0,2.2-0.3,2.8-0.8c0.7-0.5,1-1.2,1-2.2c0-0.9-0.3-1.7-1-2.2c-0.7-0.5-1.6-0.8-2.8-0.8h-1.2V168.4z"/>
</g>
<g class="st26">
	<path class="st16" d="M297.5,163v18.6h-6.2V163h-5.1v-5.2h16.3v5.2H297.5z"/>
</g>
<g class="st26">
	<path class="st16" d="M318.8,177.5h-8.8l-1.4,4.1h-6.6l9.1-23.8h6.8l9.1,23.8h-6.6L318.8,177.5z M317.1,172.8l-2.8-7.9l-2.8,7.9
		H317.1z"/>
	<path class="st16" d="M329.5,181.6v-23.8h6.2l11.4,14.5v-14.5h6.2v23.8h-6.2l-11.4-14.5v14.5H329.5z"/>
	<path class="st16" d="M367.3,163v18.6h-6.2V163H356v-5.2h16.3v5.2H367.3z"/>
</g>
<g class="st26">
	<path class="st16" d="M155.9,200.9v18.6h-6.2v-18.6h-5.1v-5.2H161v5.2H155.9z"/>
	<path class="st16" d="M169.9,204.9h8.9v-9.2h6.2v23.8h-6.2v-9.8h-8.9v9.8h-6.2v-23.8h6.2V204.9z"/>
	<path class="st16" d="M196.2,195.7v23.8H190v-23.8H196.2z"/>
</g>
<g class="st26">
	<path class="st16" d="M201.2,219.5v-23.8h6.2l11.4,14.5v-14.5h6.2v23.8h-6.2l-11.4-14.5v14.5H201.2z"/>
</g>
<g class="st26">
	<path class="st16" d="M242,206.2h12.3c0,1.3-0.1,2.4-0.2,3.4c-0.1,1-0.3,2-0.6,2.9c-0.4,1.2-1,2.3-1.8,3.3s-1.6,1.8-2.7,2.4
		s-2.1,1.1-3.4,1.5c-1.2,0.3-2.5,0.5-3.9,0.5c-1.9,0-3.5-0.3-5.1-0.9c-1.5-0.6-2.8-1.5-3.9-2.6c-1.1-1.1-1.9-2.4-2.6-4
		c-0.6-1.5-0.9-3.3-0.9-5.1c0-1.9,0.3-3.6,0.9-5.1c0.6-1.5,1.5-2.9,2.6-4s2.4-1.9,4-2.6c1.6-0.6,3.3-0.9,5.2-0.9
		c2.5,0,4.7,0.5,6.5,1.6c1.9,1.1,3.4,2.7,4.4,5l-5.9,2.4c-0.5-1.3-1.3-2.2-2.1-2.8c-0.9-0.6-1.9-0.9-3-0.9c-0.9,0-1.8,0.2-2.5,0.5
		c-0.8,0.3-1.4,0.8-1.9,1.5c-0.5,0.6-1,1.4-1.3,2.3c-0.3,0.9-0.5,1.9-0.5,3c0,1,0.1,1.9,0.4,2.8c0.3,0.9,0.7,1.6,1.2,2.2
		c0.5,0.6,1.2,1.1,2,1.5c0.8,0.3,1.7,0.5,2.7,0.5c0.6,0,1.2-0.1,1.8-0.2s1.1-0.4,1.5-0.7c0.5-0.3,0.8-0.7,1.1-1.2
		c0.3-0.5,0.5-1.1,0.6-1.8H242V206.2z"/>
	<path class="st16" d="M271.2,201.8c-0.7-0.5-1.3-1-2-1.2s-1.3-0.4-2-0.4c-0.8,0-1.5,0.2-2,0.6c-0.5,0.4-0.8,0.9-0.8,1.5
		c0,0.4,0.1,0.8,0.4,1s0.6,0.5,1,0.7s0.9,0.4,1.4,0.5c0.5,0.1,1,0.3,1.5,0.5c2,0.7,3.5,1.6,4.4,2.7c0.9,1.1,1.4,2.6,1.4,4.4
		c0,1.2-0.2,2.3-0.6,3.3s-1,1.8-1.8,2.5c-0.8,0.7-1.8,1.3-2.9,1.6c-1.1,0.4-2.4,0.6-3.9,0.6c-3,0-5.8-0.9-8.4-2.7l2.7-5
		c0.9,0.8,1.8,1.4,2.7,1.8c0.9,0.4,1.8,0.6,2.7,0.6c1,0,1.8-0.2,2.3-0.7s0.7-1,0.7-1.6c0-0.4-0.1-0.7-0.2-0.9
		c-0.1-0.3-0.3-0.5-0.6-0.7c-0.3-0.2-0.7-0.4-1.2-0.6c-0.5-0.2-1-0.4-1.7-0.6c-0.8-0.3-1.6-0.5-2.4-0.8c-0.8-0.3-1.5-0.7-2.1-1.2
		s-1.1-1.1-1.5-1.9c-0.4-0.8-0.6-1.7-0.6-2.9s0.2-2.2,0.6-3.2c0.4-1,0.9-1.8,1.6-2.5c0.7-0.7,1.6-1.2,2.6-1.6s2.2-0.6,3.4-0.6
		c1.2,0,2.4,0.2,3.7,0.5c1.3,0.3,2.5,0.8,3.7,1.4L271.2,201.8z"/>
</g>
<g class="st26">
	<path class="st16" d="M298.3,200.9v18.6h-6.2v-18.6H287v-5.2h16.3v5.2H298.3z"/>
</g>
<g class="st26">
	<path class="st16" d="M304.8,207.6c0-1.8,0.3-3.4,1-4.9c0.7-1.5,1.6-2.9,2.7-4c1.2-1.1,2.5-2,4.1-2.7c1.6-0.6,3.4-1,5.3-1
		c1.9,0,3.7,0.3,5.3,1c1.6,0.6,3,1.5,4.2,2.7c1.2,1.1,2.1,2.5,2.7,4c0.7,1.5,1,3.2,1,4.9c0,1.8-0.3,3.4-1,4.9
		c-0.7,1.5-1.6,2.9-2.7,4c-1.2,1.1-2.6,2-4.2,2.7c-1.6,0.6-3.4,1-5.3,1c-1.9,0-3.7-0.3-5.3-1c-1.6-0.6-3-1.5-4.1-2.7
		c-1.2-1.1-2.1-2.5-2.7-4C305.2,211,304.8,209.3,304.8,207.6z M311.3,207.6c0,0.9,0.2,1.8,0.5,2.6c0.4,0.8,0.8,1.5,1.5,2.1
		c0.6,0.6,1.3,1,2.1,1.4c0.8,0.3,1.7,0.5,2.6,0.5s1.8-0.2,2.6-0.5c0.8-0.3,1.5-0.8,2.1-1.4s1.1-1.3,1.5-2.1c0.4-0.8,0.5-1.7,0.5-2.6
		c0-0.9-0.2-1.8-0.5-2.6c-0.4-0.8-0.8-1.5-1.5-2.1s-1.3-1-2.1-1.4c-0.8-0.3-1.7-0.5-2.6-0.5s-1.8,0.2-2.6,0.5
		c-0.8,0.3-1.5,0.8-2.1,1.4c-0.6,0.6-1.1,1.3-1.5,2.1C311.5,205.8,311.3,206.6,311.3,207.6z"/>
	<path class="st16" d="M345.8,195.7h9.2c1.6,0,3.1,0.3,4.6,1c1.4,0.7,2.7,1.5,3.7,2.6c1.1,1.1,1.9,2.3,2.5,3.8s0.9,3,0.9,4.5
		c0,1.6-0.3,3.1-0.9,4.5s-1.4,2.7-2.5,3.8c-1.1,1.1-2.3,2-3.7,2.6c-1.4,0.7-3,1-4.6,1h-9.2V195.7z M352,214.2h1.4
		c1.1,0,2-0.2,2.9-0.5c0.8-0.3,1.6-0.8,2.1-1.4c0.6-0.6,1-1.3,1.3-2.1c0.3-0.8,0.5-1.7,0.5-2.7c0-0.9-0.2-1.8-0.5-2.7
		c-0.3-0.8-0.8-1.5-1.3-2.1c-0.6-0.6-1.3-1.1-2.1-1.4c-0.8-0.3-1.8-0.5-2.8-0.5H352V214.2z"/>
	<path class="st16" d="M369.6,207.6c0-1.8,0.3-3.4,1-4.9c0.7-1.5,1.6-2.9,2.7-4c1.2-1.1,2.5-2,4.1-2.7c1.6-0.6,3.4-1,5.3-1
		c1.9,0,3.7,0.3,5.3,1c1.6,0.6,3,1.5,4.2,2.7c1.2,1.1,2.1,2.5,2.7,4c0.7,1.5,1,3.2,1,4.9c0,1.8-0.3,3.4-1,4.9
		c-0.7,1.5-1.6,2.9-2.7,4c-1.2,1.1-2.6,2-4.2,2.7c-1.6,0.6-3.4,1-5.3,1c-1.9,0-3.7-0.3-5.3-1c-1.6-0.6-3-1.5-4.1-2.7
		c-1.2-1.1-2.1-2.5-2.7-4C369.9,211,369.6,209.3,369.6,207.6z M376,207.6c0,0.9,0.2,1.8,0.5,2.6c0.4,0.8,0.8,1.5,1.5,2.1
		c0.6,0.6,1.3,1,2.1,1.4c0.8,0.3,1.7,0.5,2.6,0.5s1.8-0.2,2.6-0.5c0.8-0.3,1.5-0.8,2.1-1.4s1.1-1.3,1.5-2.1c0.4-0.8,0.5-1.7,0.5-2.6
		c0-0.9-0.2-1.8-0.5-2.6c-0.4-0.8-0.8-1.5-1.5-2.1s-1.3-1-2.1-1.4c-0.8-0.3-1.7-0.5-2.6-0.5s-1.8,0.2-2.6,0.5
		c-0.8,0.3-1.5,0.8-2.1,1.4c-0.6,0.6-1.1,1.3-1.5,2.1C376.2,205.8,376,206.6,376,207.6z"/>
</g>
<g class="st26">
	<path d="M185.9,258.9h-2.3v-3.5h6.4v15.8h-4.1V258.9z"/>
</g>
<g class="st26">
	<path d="M194.8,269.3c0-0.3,0.1-0.7,0.2-1c0.1-0.3,0.3-0.6,0.5-0.8c0.2-0.2,0.5-0.4,0.8-0.5c0.3-0.1,0.6-0.2,1-0.2s0.7,0.1,1,0.2
		c0.3,0.1,0.6,0.3,0.8,0.5c0.2,0.2,0.4,0.5,0.5,0.8c0.1,0.3,0.2,0.6,0.2,1s-0.1,0.7-0.2,1s-0.3,0.6-0.5,0.8
		c-0.2,0.2-0.5,0.4-0.8,0.5c-0.3,0.1-0.6,0.2-1,0.2s-0.7-0.1-1-0.2c-0.3-0.1-0.6-0.3-0.8-0.5c-0.2-0.2-0.4-0.5-0.5-0.8
		C194.9,269.9,194.8,269.6,194.8,269.3z"/>
	<path d="M221.1,260.7c-1-1.2-2.1-1.7-3.5-1.7c-0.6,0-1.2,0.1-1.7,0.3c-0.5,0.2-1,0.5-1.4,0.9c-0.4,0.4-0.7,0.8-0.9,1.4
		c-0.2,0.5-0.3,1.1-0.3,1.7c0,0.6,0.1,1.2,0.3,1.7c0.2,0.5,0.5,1,0.9,1.4c0.4,0.4,0.8,0.7,1.4,0.9c0.5,0.2,1.1,0.3,1.7,0.3
		c1.3,0,2.5-0.6,3.5-1.7v4.9l-0.4,0.1c-0.6,0.2-1.2,0.4-1.8,0.5c-0.5,0.1-1.1,0.2-1.6,0.2c-1.1,0-2.1-0.2-3.1-0.6
		c-1-0.4-1.9-1-2.6-1.7c-0.8-0.7-1.4-1.6-1.8-2.7c-0.5-1-0.7-2.2-0.7-3.4s0.2-2.3,0.7-3.3c0.5-1,1.1-1.9,1.8-2.6
		c0.8-0.7,1.6-1.3,2.7-1.7c1-0.4,2.1-0.6,3.2-0.6c0.6,0,1.2,0.1,1.9,0.2s1.2,0.3,1.9,0.6V260.7z"/>
	<path d="M227.8,255.4v12.3h4.9v3.5h-9.1v-15.8H227.8z"/>
	<path d="M239,255.4v15.8h-4.1v-15.8H239z"/>
</g>
<g class="st26">
	<path d="M253.7,260.7c-1-1.2-2.1-1.7-3.5-1.7c-0.6,0-1.2,0.1-1.7,0.3c-0.5,0.2-1,0.5-1.4,0.9c-0.4,0.4-0.7,0.8-0.9,1.4
		c-0.2,0.5-0.3,1.1-0.3,1.7c0,0.6,0.1,1.2,0.3,1.7c0.2,0.5,0.5,1,0.9,1.4c0.4,0.4,0.8,0.7,1.4,0.9c0.5,0.2,1.1,0.3,1.7,0.3
		c1.3,0,2.5-0.6,3.5-1.7v4.9l-0.4,0.1c-0.6,0.2-1.2,0.4-1.8,0.5c-0.5,0.1-1.1,0.2-1.6,0.2c-1.1,0-2.1-0.2-3.1-0.6
		c-1-0.4-1.9-1-2.6-1.7c-0.8-0.7-1.4-1.6-1.8-2.7c-0.5-1-0.7-2.2-0.7-3.4s0.2-2.3,0.7-3.3c0.5-1,1.1-1.9,1.8-2.6
		c0.8-0.7,1.6-1.3,2.7-1.7c1-0.4,2.1-0.6,3.2-0.6c0.6,0,1.2,0.1,1.9,0.2s1.2,0.3,1.9,0.6V260.7z"/>
</g>
<g class="st26">
	<path d="M261.1,262l5-6.5h5.1l-6.3,7.5l6.9,8.3h-5.3l-5.4-6.9v6.9H257v-15.8h4.1V262z"/>
	<path d="M277.7,255.4v15.8h-4.1v-15.8H277.7z"/>
</g>
<g class="st26">
	<path d="M281,271.3v-15.8h4.1l7.6,9.7v-9.7h4.1v15.8h-4.1l-7.6-9.7v9.7H281z"/>
</g>
<g class="st26">
	<path d="M308.2,262.4h8.2c0,0.8,0,1.6-0.1,2.3c-0.1,0.7-0.2,1.3-0.4,1.9c-0.3,0.8-0.7,1.6-1.2,2.2c-0.5,0.6-1.1,1.2-1.8,1.6
		c-0.7,0.4-1.4,0.8-2.2,1c-0.8,0.2-1.7,0.3-2.6,0.3c-1.2,0-2.4-0.2-3.4-0.6c-1-0.4-1.9-1-2.6-1.7c-0.7-0.7-1.3-1.6-1.7-2.6
		c-0.4-1-0.6-2.2-0.6-3.4c0-1.2,0.2-2.4,0.6-3.4c0.4-1,1-1.9,1.7-2.6c0.7-0.7,1.6-1.3,2.7-1.7s2.2-0.6,3.5-0.6
		c1.7,0,3.1,0.4,4.3,1.1s2.2,1.8,3,3.3l-3.9,1.6c-0.4-0.9-0.8-1.5-1.4-1.9c-0.6-0.4-1.2-0.6-2-0.6c-0.6,0-1.2,0.1-1.7,0.3
		c-0.5,0.2-0.9,0.6-1.3,1c-0.4,0.4-0.6,0.9-0.8,1.5c-0.2,0.6-0.3,1.3-0.3,2c0,0.7,0.1,1.3,0.3,1.9c0.2,0.6,0.4,1.1,0.8,1.5
		s0.8,0.7,1.3,1c0.5,0.2,1.1,0.3,1.8,0.3c0.4,0,0.8,0,1.2-0.1c0.4-0.1,0.7-0.2,1-0.4c0.3-0.2,0.5-0.5,0.7-0.8
		c0.2-0.3,0.3-0.7,0.4-1.2h-3.4V262.4z"/>
	<path d="M325.4,263.4c0-1.2,0.2-2.3,0.7-3.3c0.4-1,1-1.9,1.8-2.7c0.8-0.8,1.7-1.3,2.8-1.8c1.1-0.4,2.2-0.6,3.5-0.6
		c1.3,0,2.4,0.2,3.5,0.6c1.1,0.4,2,1,2.8,1.8c0.8,0.8,1.4,1.6,1.8,2.7c0.4,1,0.7,2.1,0.7,3.3s-0.2,2.3-0.7,3.3c-0.4,1-1,1.9-1.8,2.7
		c-0.8,0.8-1.7,1.3-2.8,1.8s-2.3,0.6-3.5,0.6c-1.3,0-2.5-0.2-3.5-0.6c-1.1-0.4-2-1-2.8-1.8c-0.8-0.8-1.4-1.6-1.8-2.7
		C325.6,265.6,325.4,264.5,325.4,263.4z M329.7,263.4c0,0.6,0.1,1.2,0.4,1.7c0.2,0.5,0.6,1,1,1.4c0.4,0.4,0.9,0.7,1.4,0.9
		c0.5,0.2,1.1,0.3,1.7,0.3c0.6,0,1.2-0.1,1.7-0.3c0.5-0.2,1-0.5,1.4-0.9c0.4-0.4,0.7-0.9,1-1.4c0.2-0.5,0.4-1.1,0.4-1.7
		s-0.1-1.2-0.4-1.7c-0.2-0.5-0.6-1-1-1.4s-0.9-0.7-1.4-0.9c-0.5-0.2-1.1-0.3-1.7-0.3c-0.6,0-1.2,0.1-1.7,0.3c-0.5,0.2-1,0.5-1.4,0.9
		c-0.4,0.4-0.7,0.9-1,1.4C329.8,262.1,329.7,262.7,329.7,263.4z"/>
	<path d="M345.5,271.3v-15.8h4.1l7.6,9.7v-9.7h4.1v15.8h-4.1l-7.6-9.7v9.7H345.5z"/>
</g>
<g class="st26">
	<path d="M175.1,296.5H171v-15.8h6.6c1.8,0,3.1,0.5,4.1,1.4c0.9,0.9,1.4,2.2,1.4,3.9s-0.5,3-1.4,3.9c-0.9,0.9-2.3,1.4-4.1,1.4h-2.4
		V296.5z M175.1,287.9h1.4c1.5,0,2.3-0.7,2.3-2c0-1.3-0.8-2-2.3-2h-1.4V287.9z"/>
	<path d="M198.4,296.5h-5.1l-3.9-6.1v6.1h-4.1v-15.8h6.4c0.9,0,1.7,0.1,2.3,0.4c0.7,0.3,1.2,0.6,1.6,1.1c0.4,0.4,0.7,1,1,1.6
		c0.2,0.6,0.3,1.2,0.3,1.9c0,1.2-0.3,2.2-0.9,2.9s-1.4,1.3-2.6,1.5L198.4,296.5z M189.4,287.7h0.8c0.8,0,1.4-0.2,1.9-0.5
		s0.7-0.8,0.7-1.4s-0.2-1.1-0.7-1.4s-1.1-0.5-1.9-0.5h-0.8V287.7z"/>
	<path d="M204.3,280.6v15.8h-4.1v-15.8H204.3z"/>
	<path d="M206.9,296.5l2.7-15.8h4.1l3.2,8.4l3.1-8.4h4.1l2.7,15.8h-4.1l-1.4-9.1l-3.7,9.1h-1.6l-3.5-9.1l-1.4,9.1H206.9z"/>
	<path d="M238.3,284.1h-4.9v2.6h4.6v3.5h-4.6v2.7h4.9v3.5h-9v-15.8h9V284.1z"/>
	<path d="M248.4,296.5v-15.8h4.1l7.6,9.7v-9.7h4.1v15.8h-4.1l-7.6-9.7v9.7H248.4z"/>
	<path d="M271.7,280.6v8.6c0,0.5,0,0.9,0.1,1.4c0,0.5,0.1,0.9,0.3,1.3c0.2,0.4,0.5,0.7,0.8,1s0.9,0.4,1.6,0.4s1.2-0.1,1.6-0.4
		s0.6-0.6,0.8-1c0.2-0.4,0.3-0.8,0.3-1.3c0-0.5,0.1-1,0.1-1.4v-8.6h4.1v9.2c0,2.5-0.6,4.3-1.7,5.4c-1.1,1.1-2.9,1.7-5.2,1.7
		s-4.1-0.6-5.2-1.7c-1.1-1.1-1.7-2.9-1.7-5.4v-9.2H271.7z"/>
	<path d="M284,296.5l2.7-15.8h4.1l3.2,8.4l3.1-8.4h4.1l2.7,15.8h-4.1l-1.4-9.1l-3.7,9.1H293l-3.5-9.1l-1.4,9.1H284z"/>
	<path d="M306.4,280.6h6.1c1.5,0,2.6,0.3,3.3,1c0.8,0.7,1.1,1.7,1.1,3c0,0.8-0.1,1.5-0.4,2c-0.3,0.5-0.7,1-1.3,1.3
		c0.6,0.1,1.1,0.3,1.5,0.5c0.4,0.2,0.7,0.5,1,0.9c0.3,0.3,0.4,0.7,0.6,1.1c0.1,0.4,0.2,0.9,0.2,1.3c0,0.7-0.1,1.4-0.4,2
		c-0.3,0.6-0.6,1.1-1.1,1.4c-0.5,0.4-1,0.7-1.7,0.9s-1.4,0.3-2.3,0.3h-6.6V280.6z M310.5,286.9h0.8c1.3,0,1.9-0.5,1.9-1.5
		c0-1-0.6-1.5-1.9-1.5h-0.8V286.9z M310.5,293.3h0.9c1,0,1.8-0.1,2.2-0.4s0.7-0.7,0.7-1.3s-0.2-1-0.7-1.3c-0.4-0.3-1.2-0.4-2.2-0.4
		h-0.9V293.3z"/>
	<path d="M329.9,284.1h-4.9v2.6h4.6v3.5h-4.6v2.7h4.9v3.5h-9v-15.8h9V284.1z"/>
	<path d="M346.1,296.5h-5.1l-3.9-6.1v6.1h-4.1v-15.8h6.4c0.9,0,1.7,0.1,2.3,0.4c0.7,0.3,1.2,0.6,1.6,1.1c0.4,0.4,0.7,1,1,1.6
		c0.2,0.6,0.3,1.2,0.3,1.9c0,1.2-0.3,2.2-0.9,2.9s-1.4,1.3-2.6,1.5L346.1,296.5z M337,287.7h0.8c0.8,0,1.4-0.2,1.9-0.5
		s0.7-0.8,0.7-1.4s-0.2-1.1-0.7-1.4s-1.1-0.5-1.9-0.5H337V287.7z"/>
	<path d="M356.5,284.7c-0.4-0.4-0.9-0.6-1.3-0.8c-0.4-0.2-0.9-0.3-1.3-0.3c-0.5,0-1,0.1-1.3,0.4c-0.3,0.3-0.5,0.6-0.5,1
		c0,0.3,0.1,0.5,0.3,0.7s0.4,0.3,0.7,0.5s0.6,0.2,0.9,0.3c0.3,0.1,0.7,0.2,1,0.3c1.3,0.4,2.3,1,3,1.8c0.6,0.7,0.9,1.7,0.9,2.9
		c0,0.8-0.1,1.5-0.4,2.2c-0.3,0.7-0.7,1.2-1.2,1.7c-0.5,0.5-1.2,0.8-1.9,1.1c-0.8,0.3-1.6,0.4-2.6,0.4c-2,0-3.9-0.6-5.6-1.8l1.8-3.3
		c0.6,0.5,1.2,1,1.8,1.2c0.6,0.3,1.2,0.4,1.8,0.4c0.7,0,1.2-0.2,1.5-0.5s0.5-0.7,0.5-1c0-0.2,0-0.4-0.1-0.6
		c-0.1-0.2-0.2-0.3-0.4-0.5c-0.2-0.1-0.5-0.3-0.8-0.4s-0.7-0.3-1.1-0.4c-0.5-0.2-1.1-0.4-1.6-0.6c-0.5-0.2-1-0.5-1.4-0.8
		c-0.4-0.3-0.7-0.8-1-1.3c-0.2-0.5-0.4-1.2-0.4-1.9c0-0.8,0.1-1.5,0.4-2.1c0.3-0.6,0.6-1.2,1.1-1.6c0.5-0.5,1-0.8,1.7-1.1
		c0.7-0.3,1.4-0.4,2.3-0.4c0.8,0,1.6,0.1,2.5,0.3c0.9,0.2,1.7,0.5,2.5,1L356.5,284.7z"/>
	<path d="M365.9,279h1.9l-0.4,2.9l2.6-1.2l0.6,1.8l-2.9,0.5l2,2.1l-1.5,1.1l-1.4-2.5l-1.4,2.5l-1.5-1.1l2-2.1l-2.8-0.5l0.6-1.8
		l2.6,1.2L365.9,279z"/>
</g>
<g class="st26">
	<path d="M164.8,346.9H152l3.9-4.1c1-1.1,1.8-2,2.4-2.7c0.6-0.7,1-1.4,1.3-1.9c0.3-0.5,0.5-0.9,0.5-1.3s0.1-0.6,0.1-0.8
		c0-0.2,0-0.5-0.1-0.7c-0.1-0.2-0.2-0.4-0.3-0.6c-0.2-0.2-0.3-0.3-0.6-0.4c-0.2-0.1-0.5-0.2-0.8-0.2c-0.6,0-1,0.2-1.3,0.5
		c-0.3,0.4-0.5,0.8-0.5,1.4c0,0.2,0,0.4,0.1,0.7h-4.5c0-0.9,0.2-1.8,0.5-2.5c0.3-0.8,0.7-1.4,1.3-2s1.2-1,1.9-1.3
		c0.7-0.3,1.6-0.4,2.5-0.4c0.9,0,1.7,0.1,2.4,0.4s1.4,0.7,1.9,1.2c0.5,0.5,1,1.1,1.3,1.8c0.3,0.7,0.5,1.4,0.5,2.3
		c0,0.9-0.2,1.7-0.6,2.4c-0.4,0.7-1,1.5-1.8,2.3l-2.6,2.5h5.1V346.9z"/>
	<path d="M166.8,344.9c0-0.3,0.1-0.7,0.2-1c0.1-0.3,0.3-0.6,0.5-0.8c0.2-0.2,0.5-0.4,0.8-0.5c0.3-0.1,0.6-0.2,1-0.2s0.7,0.1,1,0.2
		c0.3,0.1,0.6,0.3,0.8,0.5c0.2,0.2,0.4,0.5,0.5,0.8c0.1,0.3,0.2,0.6,0.2,1s-0.1,0.7-0.2,1s-0.3,0.6-0.5,0.8
		c-0.2,0.2-0.5,0.4-0.8,0.5c-0.3,0.1-0.6,0.2-1,0.2s-0.7-0.1-1-0.2c-0.3-0.1-0.6-0.3-0.8-0.5c-0.2-0.2-0.4-0.5-0.5-0.8
		C166.9,345.5,166.8,345.2,166.8,344.9z"/>
</g>
<g class="st26">
	<path d="M181.7,346.9V331h4.1l7.6,9.7V331h4.1v15.8h-4.1l-7.6-9.7v9.7H181.7z"/>
</g>
<g class="st26">
	<path d="M200.3,339c0-1.2,0.2-2.3,0.7-3.3c0.4-1,1-1.9,1.8-2.7c0.8-0.8,1.7-1.3,2.8-1.8c1.1-0.4,2.2-0.6,3.5-0.6
		c1.3,0,2.4,0.2,3.5,0.6c1.1,0.4,2,1,2.8,1.8c0.8,0.8,1.4,1.6,1.8,2.7c0.4,1,0.7,2.1,0.7,3.3s-0.2,2.3-0.7,3.3c-0.4,1-1,1.9-1.8,2.7
		c-0.8,0.8-1.7,1.3-2.8,1.8s-2.3,0.6-3.5,0.6c-1.3,0-2.5-0.2-3.5-0.6c-1.1-0.4-2-1-2.8-1.8c-0.8-0.8-1.4-1.6-1.8-2.7
		C200.5,341.2,200.3,340.1,200.3,339z M204.6,339c0,0.6,0.1,1.2,0.4,1.7c0.2,0.5,0.6,1,1,1.4c0.4,0.4,0.9,0.7,1.4,0.9
		c0.5,0.2,1.1,0.3,1.7,0.3c0.6,0,1.2-0.1,1.7-0.3c0.5-0.2,1-0.5,1.4-0.9c0.4-0.4,0.7-0.9,1-1.4c0.2-0.5,0.4-1.1,0.4-1.7
		s-0.1-1.2-0.4-1.7c-0.2-0.5-0.6-1-1-1.4s-0.9-0.7-1.4-0.9c-0.5-0.2-1.1-0.3-1.7-0.3c-0.6,0-1.2,0.1-1.7,0.3c-0.5,0.2-1,0.5-1.4,0.9
		c-0.4,0.4-0.7,0.9-1,1.4C204.7,337.7,204.6,338.3,204.6,339z"/>
</g>
<g class="st26">
	<path d="M226.2,334.5v12.3h-4.1v-12.3h-3.4V331h10.9v3.5H226.2z"/>
	<path d="M250,336.3c-1-1.2-2.1-1.7-3.5-1.7c-0.6,0-1.2,0.1-1.7,0.3c-0.5,0.2-1,0.5-1.4,0.9c-0.4,0.4-0.7,0.8-0.9,1.4
		c-0.2,0.5-0.3,1.1-0.3,1.7c0,0.6,0.1,1.2,0.3,1.7c0.2,0.5,0.5,1,0.9,1.4c0.4,0.4,0.8,0.7,1.4,0.9c0.5,0.2,1.1,0.3,1.7,0.3
		c1.3,0,2.5-0.6,3.5-1.7v4.9l-0.4,0.1c-0.6,0.2-1.2,0.4-1.8,0.5c-0.5,0.1-1.1,0.2-1.6,0.2c-1.1,0-2.1-0.2-3.1-0.6
		c-1-0.4-1.9-1-2.6-1.7c-0.8-0.7-1.4-1.6-1.8-2.7c-0.5-1-0.7-2.2-0.7-3.4s0.2-2.3,0.7-3.3c0.5-1,1.1-1.9,1.8-2.6
		c0.8-0.7,1.6-1.3,2.7-1.7c1-0.4,2.1-0.6,3.2-0.6c0.6,0,1.2,0.1,1.9,0.2s1.2,0.3,1.9,0.6V336.3z"/>
	<path d="M256.7,331v12.3h4.9v3.5h-9.1V331H256.7z"/>
	<path d="M267.9,331v15.8h-4.1V331H267.9z"/>
</g>
<g class="st26">
	<path d="M282.6,336.3c-1-1.2-2.1-1.7-3.5-1.7c-0.6,0-1.2,0.1-1.7,0.3c-0.5,0.2-1,0.5-1.4,0.9c-0.4,0.4-0.7,0.8-0.9,1.4
		c-0.2,0.5-0.3,1.1-0.3,1.7c0,0.6,0.1,1.2,0.3,1.7c0.2,0.5,0.5,1,0.9,1.4c0.4,0.4,0.8,0.7,1.4,0.9c0.5,0.2,1.1,0.3,1.7,0.3
		c1.3,0,2.5-0.6,3.5-1.7v4.9l-0.4,0.1c-0.6,0.2-1.2,0.4-1.8,0.5c-0.5,0.1-1.1,0.2-1.6,0.2c-1.1,0-2.1-0.2-3.1-0.6
		c-1-0.4-1.9-1-2.6-1.7c-0.8-0.7-1.4-1.6-1.8-2.7c-0.5-1-0.7-2.2-0.7-3.4s0.2-2.3,0.7-3.3c0.5-1,1.1-1.9,1.8-2.6
		c0.8-0.7,1.6-1.3,2.7-1.7c1-0.4,2.1-0.6,3.2-0.6c0.6,0,1.2,0.1,1.9,0.2s1.2,0.3,1.9,0.6V336.3z"/>
</g>
<g class="st26">
	<path d="M290,337.6l5-6.5h5.1l-6.3,7.5l6.9,8.3h-5.3L290,340v6.9h-4.1V331h4.1V337.6z"/>
	<path d="M306.6,331v15.8h-4.1V331H306.6z"/>
</g>
<g class="st26">
	<path d="M309.9,346.9V331h4.1l7.6,9.7V331h4.1v15.8h-4.1l-7.6-9.7v9.7H309.9z"/>
</g>
<g class="st26">
	<path d="M337.1,338h8.2c0,0.8,0,1.6-0.1,2.3c-0.1,0.7-0.2,1.3-0.4,1.9c-0.3,0.8-0.7,1.6-1.2,2.2c-0.5,0.6-1.1,1.2-1.8,1.6
		c-0.7,0.4-1.4,0.8-2.2,1c-0.8,0.2-1.7,0.3-2.6,0.3c-1.2,0-2.4-0.2-3.4-0.6c-1-0.4-1.9-1-2.6-1.7c-0.7-0.7-1.3-1.6-1.7-2.6
		c-0.4-1-0.6-2.2-0.6-3.4c0-1.2,0.2-2.4,0.6-3.4c0.4-1,1-1.9,1.7-2.6c0.7-0.7,1.6-1.3,2.7-1.7s2.2-0.6,3.5-0.6
		c1.7,0,3.1,0.4,4.3,1.1s2.2,1.8,3,3.3l-3.9,1.6c-0.4-0.9-0.8-1.5-1.4-1.9c-0.6-0.4-1.2-0.6-2-0.6c-0.6,0-1.2,0.1-1.7,0.3
		c-0.5,0.2-0.9,0.6-1.3,1c-0.4,0.4-0.6,0.9-0.8,1.5c-0.2,0.6-0.3,1.3-0.3,2c0,0.7,0.1,1.3,0.3,1.9c0.2,0.6,0.4,1.1,0.8,1.5
		s0.8,0.7,1.3,1c0.5,0.2,1.1,0.3,1.8,0.3c0.4,0,0.8,0,1.2-0.1c0.4-0.1,0.7-0.2,1-0.4c0.3-0.2,0.5-0.5,0.7-0.8
		c0.2-0.3,0.3-0.7,0.4-1.2h-3.4V338z"/>
	<path d="M354.3,339c0-1.2,0.2-2.3,0.7-3.3c0.4-1,1-1.9,1.8-2.7c0.8-0.8,1.7-1.3,2.8-1.8c1.1-0.4,2.2-0.6,3.5-0.6
		c1.3,0,2.4,0.2,3.5,0.6c1.1,0.4,2,1,2.8,1.8c0.8,0.8,1.4,1.6,1.8,2.7c0.4,1,0.7,2.1,0.7,3.3s-0.2,2.3-0.7,3.3c-0.4,1-1,1.9-1.8,2.7
		c-0.8,0.8-1.7,1.3-2.8,1.8s-2.3,0.6-3.5,0.6c-1.3,0-2.5-0.2-3.5-0.6c-1.1-0.4-2-1-2.8-1.8c-0.8-0.8-1.4-1.6-1.8-2.7
		C354.5,341.2,354.3,340.1,354.3,339z M358.6,339c0,0.6,0.1,1.2,0.4,1.7c0.2,0.5,0.6,1,1,1.4c0.4,0.4,0.9,0.7,1.4,0.9
		c0.5,0.2,1.1,0.3,1.7,0.3c0.6,0,1.2-0.1,1.7-0.3c0.5-0.2,1-0.5,1.4-0.9c0.4-0.4,0.7-0.9,1-1.4c0.2-0.5,0.4-1.1,0.4-1.7
		s-0.1-1.2-0.4-1.7c-0.2-0.5-0.6-1-1-1.4s-0.9-0.7-1.4-0.9c-0.5-0.2-1.1-0.3-1.7-0.3c-0.6,0-1.2,0.1-1.7,0.3c-0.5,0.2-1,0.5-1.4,0.9
		c-0.4,0.4-0.7,0.9-1,1.4C358.7,337.7,358.6,338.3,358.6,339z"/>
	<path d="M374.4,346.9V331h4.1l7.6,9.7V331h4.1v15.8h-4.1l-7.6-9.7v9.7H374.4z"/>
</g>
<g class="st26">
	<path d="M175.2,364.2c0-1.2,0.2-2.3,0.7-3.3c0.4-1,1-1.9,1.8-2.7c0.8-0.8,1.7-1.3,2.8-1.8c1.1-0.4,2.2-0.6,3.5-0.6
		c1.3,0,2.4,0.2,3.5,0.6c1.1,0.4,2,1,2.8,1.8c0.8,0.8,1.4,1.6,1.8,2.7c0.4,1,0.7,2.1,0.7,3.3s-0.2,2.3-0.7,3.3c-0.4,1-1,1.9-1.8,2.7
		c-0.8,0.8-1.7,1.3-2.8,1.8s-2.3,0.6-3.5,0.6c-1.3,0-2.5-0.2-3.5-0.6c-1.1-0.4-2-1-2.8-1.8c-0.8-0.8-1.4-1.6-1.8-2.7
		C175.4,366.4,175.2,365.3,175.2,364.2z M179.5,364.2c0,0.6,0.1,1.2,0.4,1.7c0.2,0.5,0.6,1,1,1.4c0.4,0.4,0.9,0.7,1.4,0.9
		c0.5,0.2,1.1,0.3,1.7,0.3c0.6,0,1.2-0.1,1.7-0.3c0.5-0.2,1-0.5,1.4-0.9c0.4-0.4,0.7-0.9,1-1.4c0.2-0.5,0.4-1.1,0.4-1.7
		s-0.1-1.2-0.4-1.7c-0.2-0.5-0.6-1-1-1.4s-0.9-0.7-1.4-0.9c-0.5-0.2-1.1-0.3-1.7-0.3c-0.6,0-1.2,0.1-1.7,0.3c-0.5,0.2-1,0.5-1.4,0.9
		c-0.4,0.4-0.7,0.9-1,1.4C179.6,362.9,179.5,363.5,179.5,364.2z"/>
</g>
<g class="st26">
	<path d="M201.1,359.7v12.3H197v-12.3h-3.4v-3.5h10.9v3.5H201.1z"/>
	<path d="M210.5,362.3h5.9v-6.1h4.1v15.8h-4.1v-6.5h-5.9v6.5h-4.1v-15.8h4.1V362.3z"/>
	<path d="M232.8,359.7H228v2.6h4.6v3.5H228v2.7h4.9v3.5h-9v-15.8h9V359.7z"/>
	<path d="M249,372.1h-5.1l-3.9-6.1v6.1h-4.1v-15.8h6.4c0.9,0,1.7,0.1,2.3,0.4c0.7,0.3,1.2,0.6,1.6,1.1c0.4,0.4,0.7,1,1,1.6
		c0.2,0.6,0.3,1.2,0.3,1.9c0,1.2-0.3,2.2-0.9,2.9s-1.4,1.3-2.6,1.5L249,372.1z M239.9,363.3h0.8c0.8,0,1.4-0.2,1.9-0.5
		s0.7-0.8,0.7-1.4s-0.2-1.1-0.7-1.4s-1.1-0.5-1.9-0.5h-0.8V363.3z"/>
	<path d="M257.8,372.1v-15.8h4.1l7.6,9.7v-9.7h4.1v15.8h-4.1l-7.6-9.7v9.7H257.8z"/>
	<path d="M281.1,356.2v8.6c0,0.5,0,0.9,0.1,1.4c0,0.5,0.1,0.9,0.3,1.3c0.2,0.4,0.5,0.7,0.8,1s0.9,0.4,1.6,0.4s1.2-0.1,1.6-0.4
		s0.6-0.6,0.8-1c0.2-0.4,0.3-0.8,0.3-1.3c0-0.5,0.1-1,0.1-1.4v-8.6h4.1v9.2c0,2.5-0.6,4.3-1.7,5.4c-1.1,1.1-2.9,1.7-5.2,1.7
		s-4.1-0.6-5.2-1.7c-1.1-1.1-1.7-2.9-1.7-5.4v-9.2H281.1z"/>
	<path d="M293.4,372.1l2.7-15.8h4.1l3.2,8.4l3.1-8.4h4.1l2.7,15.8h-4.1l-1.4-9.1l-3.7,9.1h-1.6l-3.5-9.1l-1.4,9.1H293.4z"/>
	<path d="M315.8,356.2h6.1c1.5,0,2.6,0.3,3.3,1c0.8,0.7,1.1,1.7,1.1,3c0,0.8-0.1,1.5-0.4,2c-0.3,0.5-0.7,1-1.3,1.3
		c0.6,0.1,1.1,0.3,1.5,0.5c0.4,0.2,0.7,0.5,1,0.9c0.3,0.3,0.4,0.7,0.6,1.1c0.1,0.4,0.2,0.9,0.2,1.3c0,0.7-0.1,1.4-0.4,2
		c-0.3,0.6-0.6,1.1-1.1,1.4c-0.5,0.4-1,0.7-1.7,0.9s-1.4,0.3-2.3,0.3h-6.6V356.2z M319.9,362.5h0.8c1.3,0,1.9-0.5,1.9-1.5
		c0-1-0.6-1.5-1.9-1.5h-0.8V362.5z M319.9,368.9h0.9c1,0,1.8-0.1,2.2-0.4s0.7-0.7,0.7-1.3s-0.2-1-0.7-1.3c-0.4-0.3-1.2-0.4-2.2-0.4
		h-0.9V368.9z"/>
	<path d="M339.4,359.7h-4.9v2.6h4.6v3.5h-4.6v2.7h4.9v3.5h-9v-15.8h9V359.7z"/>
	<path d="M355.5,372.1h-5.1l-3.9-6.1v6.1h-4.1v-15.8h6.4c0.9,0,1.7,0.1,2.3,0.4c0.7,0.3,1.2,0.6,1.6,1.1c0.4,0.4,0.7,1,1,1.6
		c0.2,0.6,0.3,1.2,0.3,1.9c0,1.2-0.3,2.2-0.9,2.9s-1.4,1.3-2.6,1.5L355.5,372.1z M346.4,363.3h0.8c0.8,0,1.4-0.2,1.9-0.5
		s0.7-0.8,0.7-1.4s-0.2-1.1-0.7-1.4s-1.1-0.5-1.9-0.5h-0.8V363.3z"/>
	<path d="M365.9,360.3c-0.4-0.4-0.9-0.6-1.3-0.8c-0.4-0.2-0.9-0.3-1.3-0.3c-0.5,0-1,0.1-1.3,0.4c-0.3,0.3-0.5,0.6-0.5,1
		c0,0.3,0.1,0.5,0.3,0.7s0.4,0.3,0.7,0.5s0.6,0.2,0.9,0.3c0.3,0.1,0.7,0.2,1,0.3c1.3,0.4,2.3,1,3,1.8c0.6,0.7,0.9,1.7,0.9,2.9
		c0,0.8-0.1,1.5-0.4,2.2c-0.3,0.7-0.7,1.2-1.2,1.7c-0.5,0.5-1.2,0.8-1.9,1.1c-0.8,0.3-1.6,0.4-2.6,0.4c-2,0-3.9-0.6-5.6-1.8l1.8-3.3
		c0.6,0.5,1.2,1,1.8,1.2c0.6,0.3,1.2,0.4,1.8,0.4c0.7,0,1.2-0.2,1.5-0.5s0.5-0.7,0.5-1c0-0.2,0-0.4-0.1-0.6
		c-0.1-0.2-0.2-0.3-0.4-0.5c-0.2-0.1-0.5-0.3-0.8-0.4s-0.7-0.3-1.1-0.4c-0.5-0.2-1.1-0.4-1.6-0.6c-0.5-0.2-1-0.5-1.4-0.8
		c-0.4-0.3-0.7-0.8-1-1.3c-0.2-0.5-0.4-1.2-0.4-1.9c0-0.8,0.1-1.5,0.4-2.1c0.3-0.6,0.6-1.2,1.1-1.6c0.5-0.5,1-0.8,1.7-1.1
		c0.7-0.3,1.4-0.4,2.3-0.4c0.8,0,1.6,0.1,2.5,0.3c0.9,0.2,1.7,0.5,2.5,1L365.9,360.3z"/>
</g>
<g class="st26">
	<path d="M204,435.8h1.1l-0.2,1.6l1.5-0.7l0.3,1l-1.6,0.3l1.1,1.2l-0.9,0.6l-0.8-1.5l-0.8,1.5l-0.9-0.6l1.1-1.2l-1.6-0.3l0.3-1
		l1.5,0.7L204,435.8z"/>
	<path d="M212,436.7v9h-2.4v-9H212z"/>
	<path d="M219,438.7h-2.8v1.5h2.6v2h-2.6v3.6h-2.4v-9h5.2V438.7z"/>
</g>
<g class="st26">
	<path d="M226.7,441.4l-3.3-4.7h2.8l1.7,2.5l1.7-2.5h2.8l-3.3,4.7v4.3h-2.4V441.4z"/>
</g>
<g class="st26">
	<path d="M232.1,441.2c0-0.7,0.1-1.3,0.4-1.9c0.2-0.6,0.6-1.1,1-1.5s1-0.8,1.6-1s1.3-0.4,2-0.4c0.7,0,1.4,0.1,2,0.4
		c0.6,0.2,1.1,0.6,1.6,1c0.4,0.4,0.8,0.9,1,1.5s0.4,1.2,0.4,1.9c0,0.7-0.1,1.3-0.4,1.9c-0.2,0.6-0.6,1.1-1,1.5c-0.4,0.4-1,0.8-1.6,1
		c-0.6,0.2-1.3,0.4-2,0.4c-0.7,0-1.4-0.1-2-0.4s-1.1-0.6-1.6-1s-0.8-0.9-1-1.5C232.3,442.5,232.1,441.9,232.1,441.2z M234.6,441.2
		c0,0.4,0.1,0.7,0.2,1c0.1,0.3,0.3,0.6,0.6,0.8c0.2,0.2,0.5,0.4,0.8,0.5s0.6,0.2,1,0.2c0.3,0,0.7-0.1,1-0.2s0.6-0.3,0.8-0.5
		c0.2-0.2,0.4-0.5,0.6-0.8c0.1-0.3,0.2-0.6,0.2-1c0-0.4-0.1-0.7-0.2-1c-0.1-0.3-0.3-0.6-0.6-0.8c-0.2-0.2-0.5-0.4-0.8-0.5
		s-0.6-0.2-1-0.2c-0.3,0-0.7,0.1-1,0.2s-0.6,0.3-0.8,0.5c-0.2,0.2-0.4,0.5-0.6,0.8C234.7,440.5,234.6,440.9,234.6,441.2z"/>
	<path d="M246,436.7v4.9c0,0.3,0,0.5,0,0.8c0,0.3,0.1,0.5,0.2,0.8c0.1,0.2,0.3,0.4,0.5,0.5c0.2,0.1,0.5,0.2,0.9,0.2s0.7-0.1,0.9-0.2
		c0.2-0.1,0.4-0.3,0.5-0.5c0.1-0.2,0.2-0.5,0.2-0.8c0-0.3,0-0.5,0-0.8v-4.9h2.3v5.2c0,1.4-0.3,2.4-1,3.1c-0.6,0.6-1.6,1-3,1
		s-2.3-0.3-3-1c-0.6-0.6-1-1.7-1-3.1v-5.2H246z"/>
	<path d="M257.5,436.7h3.5c0.6,0,1.2,0.1,1.7,0.4s1,0.6,1.4,1c0.4,0.4,0.7,0.9,1,1.4c0.2,0.5,0.3,1.1,0.3,1.7c0,0.6-0.1,1.2-0.3,1.7
		c-0.2,0.5-0.5,1-0.9,1.4s-0.9,0.7-1.4,1s-1.1,0.4-1.7,0.4h-3.5V436.7z M259.8,443.7h0.5c0.4,0,0.8-0.1,1.1-0.2
		c0.3-0.1,0.6-0.3,0.8-0.5c0.2-0.2,0.4-0.5,0.5-0.8c0.1-0.3,0.2-0.6,0.2-1c0-0.4-0.1-0.7-0.2-1c-0.1-0.3-0.3-0.6-0.5-0.8
		c-0.2-0.2-0.5-0.4-0.8-0.5s-0.7-0.2-1.1-0.2h-0.5V443.7z"/>
	<path d="M266.5,441.2c0-0.7,0.1-1.3,0.4-1.9c0.2-0.6,0.6-1.1,1-1.5s1-0.8,1.6-1s1.3-0.4,2-0.4c0.7,0,1.4,0.1,2,0.4
		c0.6,0.2,1.1,0.6,1.6,1c0.4,0.4,0.8,0.9,1,1.5s0.4,1.2,0.4,1.9c0,0.7-0.1,1.3-0.4,1.9c-0.2,0.6-0.6,1.1-1,1.5c-0.4,0.4-1,0.8-1.6,1
		c-0.6,0.2-1.3,0.4-2,0.4c-0.7,0-1.4-0.1-2-0.4s-1.1-0.6-1.6-1s-0.8-0.9-1-1.5C266.6,442.5,266.5,441.9,266.5,441.2z M269,441.2
		c0,0.4,0.1,0.7,0.2,1c0.1,0.3,0.3,0.6,0.6,0.8c0.2,0.2,0.5,0.4,0.8,0.5s0.6,0.2,1,0.2c0.3,0,0.7-0.1,1-0.2s0.6-0.3,0.8-0.5
		c0.2-0.2,0.4-0.5,0.6-0.8c0.1-0.3,0.2-0.6,0.2-1c0-0.4-0.1-0.7-0.2-1c-0.1-0.3-0.3-0.6-0.6-0.8c-0.2-0.2-0.5-0.4-0.8-0.5
		s-0.6-0.2-1-0.2c-0.3,0-0.7,0.1-1,0.2s-0.6,0.3-0.8,0.5c-0.2,0.2-0.4,0.5-0.6,0.8C269,440.5,269,440.9,269,441.2z"/>
	<path d="M278,445.7v-9h2.4l4.3,5.5v-5.5h2.3v9h-2.3l-4.3-5.5v5.5H278z"/>
</g>
<g class="st26">
	<path d="M290,436.7h2.1l-2.2,4h-1.4L290,436.7z"/>
</g>
<g class="st26">
	<path d="M297.5,438.7v7.1h-2.4v-7.1h-1.9v-2h6.2v2H297.5z"/>
	<path d="M306.9,440.4l2.9-3.7h2.9l-3.6,4.3l3.9,4.8h-3l-3.1-3.9v3.9h-2.4v-9h2.4V440.4z"/>
</g>
<g class="st26">
	<path d="M314,445.7v-9h2.4l4.3,5.5v-5.5h2.3v9h-2.3l-4.3-5.5v5.5H314z"/>
</g>
<g class="st26">
	<path d="M324.7,441.2c0-0.7,0.1-1.3,0.4-1.9c0.2-0.6,0.6-1.1,1-1.5s1-0.8,1.6-1s1.3-0.4,2-0.4c0.7,0,1.4,0.1,2,0.4
		c0.6,0.2,1.1,0.6,1.6,1c0.4,0.4,0.8,0.9,1,1.5s0.4,1.2,0.4,1.9c0,0.7-0.1,1.3-0.4,1.9c-0.2,0.6-0.6,1.1-1,1.5c-0.4,0.4-1,0.8-1.6,1
		c-0.6,0.2-1.3,0.4-2,0.4c-0.7,0-1.4-0.1-2-0.4s-1.1-0.6-1.6-1s-0.8-0.9-1-1.5C324.8,442.5,324.7,441.9,324.7,441.2z M327.1,441.2
		c0,0.4,0.1,0.7,0.2,1c0.1,0.3,0.3,0.6,0.6,0.8c0.2,0.2,0.5,0.4,0.8,0.5s0.6,0.2,1,0.2c0.3,0,0.7-0.1,1-0.2s0.6-0.3,0.8-0.5
		c0.2-0.2,0.4-0.5,0.6-0.8c0.1-0.3,0.2-0.6,0.2-1c0-0.4-0.1-0.7-0.2-1c-0.1-0.3-0.3-0.6-0.6-0.8c-0.2-0.2-0.5-0.4-0.8-0.5
		s-0.6-0.2-1-0.2c-0.3,0-0.7,0.1-1,0.2s-0.6,0.3-0.8,0.5c-0.2,0.2-0.4,0.5-0.6,0.8C327.2,440.5,327.1,440.9,327.1,441.2z"/>
</g>
<g class="st26">
	<path d="M337.5,436.7l1.6,5.8l1.9-5.8h1.9l1.9,5.8l1.6-5.8h2.5l-2.7,9h-2.4l-1.8-5.2l-1.8,5.2h-2.4l-2.7-9H337.5z"/>
</g>
<g class="st26">
	<path d="M219.8,451.1l1.6,5.8l1.9-5.8h1.9l1.9,5.8l1.6-5.8h2.5l-2.7,9H226l-1.8-5.2l-1.8,5.2h-2.4l-2.7-9H219.8z"/>
	<path d="M234.4,454.6h3.4v-3.5h2.4v9h-2.4v-3.7h-3.4v3.7h-2.4v-9h2.4V454.6z"/>
</g>
<g class="st26">
	<path d="M247.6,458.6h-3.4l-0.5,1.6h-2.5l3.4-9h2.6l3.4,9h-2.5L247.6,458.6z M247,456.8l-1.1-3l-1.1,3H247z"/>
</g>
<g class="st26">
	<path d="M254.7,453.1v7.1h-2.4v-7.1h-1.9v-2h6.2v2H254.7z"/>
	<path d="M265.2,453.1v7.1h-2.4v-7.1h-1.9v-2h6.2v2H265.2z"/>
	<path d="M270.5,454.6h3.4v-3.5h2.4v9h-2.4v-3.7h-3.4v3.7h-2.4v-9h2.4V454.6z"/>
	<path d="M277.8,455.6c0-0.7,0.1-1.3,0.4-1.9c0.2-0.6,0.6-1.1,1-1.5s1-0.8,1.6-1s1.3-0.4,2-0.4c0.7,0,1.4,0.1,2,0.4
		c0.6,0.2,1.1,0.6,1.6,1c0.4,0.4,0.8,0.9,1,1.5s0.4,1.2,0.4,1.9c0,0.7-0.1,1.3-0.4,1.9c-0.2,0.6-0.6,1.1-1,1.5c-0.4,0.4-1,0.8-1.6,1
		c-0.6,0.2-1.3,0.4-2,0.4c-0.7,0-1.4-0.1-2-0.4s-1.1-0.6-1.6-1s-0.8-0.9-1-1.5C277.9,456.9,277.8,456.3,277.8,455.6z M280.2,455.6
		c0,0.4,0.1,0.7,0.2,1c0.1,0.3,0.3,0.6,0.6,0.8c0.2,0.2,0.5,0.4,0.8,0.5s0.6,0.2,1,0.2c0.3,0,0.7-0.1,1-0.2s0.6-0.3,0.8-0.5
		c0.2-0.2,0.4-0.5,0.6-0.8c0.1-0.3,0.2-0.6,0.2-1c0-0.4-0.1-0.7-0.2-1c-0.1-0.3-0.3-0.6-0.6-0.8c-0.2-0.2-0.5-0.4-0.8-0.5
		s-0.6-0.2-1-0.2c-0.3,0-0.7,0.1-1,0.2s-0.6,0.3-0.8,0.5c-0.2,0.2-0.4,0.5-0.6,0.8C280.3,454.9,280.2,455.3,280.2,455.6z"/>
	<path d="M294.2,453.4c-0.3-0.2-0.5-0.4-0.8-0.5c-0.3-0.1-0.5-0.1-0.7-0.1c-0.3,0-0.6,0.1-0.7,0.2c-0.2,0.1-0.3,0.3-0.3,0.6
		c0,0.2,0,0.3,0.1,0.4c0.1,0.1,0.2,0.2,0.4,0.3c0.2,0.1,0.3,0.1,0.5,0.2c0.2,0.1,0.4,0.1,0.6,0.2c0.8,0.3,1.3,0.6,1.7,1
		s0.5,1,0.5,1.7c0,0.5-0.1,0.9-0.2,1.3c-0.2,0.4-0.4,0.7-0.7,1c-0.3,0.3-0.7,0.5-1.1,0.6c-0.4,0.1-0.9,0.2-1.5,0.2
		c-1.1,0-2.2-0.3-3.2-1l1-1.9c0.4,0.3,0.7,0.5,1,0.7c0.3,0.2,0.7,0.2,1,0.2c0.4,0,0.7-0.1,0.9-0.3c0.2-0.2,0.3-0.4,0.3-0.6
		c0-0.1,0-0.3-0.1-0.4c0-0.1-0.1-0.2-0.2-0.3c-0.1-0.1-0.3-0.2-0.4-0.2c-0.2-0.1-0.4-0.2-0.7-0.2c-0.3-0.1-0.6-0.2-0.9-0.3
		c-0.3-0.1-0.6-0.3-0.8-0.5c-0.2-0.2-0.4-0.4-0.6-0.7c-0.1-0.3-0.2-0.7-0.2-1.1c0-0.4,0.1-0.9,0.2-1.2s0.4-0.7,0.6-0.9
		c0.3-0.3,0.6-0.5,1-0.6c0.4-0.1,0.8-0.2,1.3-0.2c0.4,0,0.9,0.1,1.4,0.2c0.5,0.1,1,0.3,1.4,0.5L294.2,453.4z"/>
	<path d="M302.2,453.1h-2.8v1.5h2.6v2h-2.6v1.6h2.8v2H297v-9h5.1V453.1z"/>
	<path d="M313.5,458.6h-3.4l-0.5,1.6h-2.5l3.4-9h2.6l3.4,9H314L313.5,458.6z M312.9,456.8l-1.1-3l-1.1,3H312.9z"/>
	<path d="M325.1,460.1h-2.9l-2.2-3.5v3.5h-2.4v-9h3.7c0.5,0,0.9,0.1,1.3,0.2c0.4,0.1,0.7,0.4,0.9,0.6s0.4,0.6,0.6,0.9
		c0.1,0.3,0.2,0.7,0.2,1.1c0,0.7-0.2,1.2-0.5,1.7c-0.3,0.4-0.8,0.7-1.5,0.9L325.1,460.1z M319.9,455.1h0.4c0.5,0,0.8-0.1,1.1-0.3
		s0.4-0.5,0.4-0.8s-0.1-0.6-0.4-0.8c-0.2-0.2-0.6-0.3-1.1-0.3h-0.4V455.1z"/>
	<path d="M331.2,453.1h-2.8v1.5h2.6v2h-2.6v1.6h2.8v2h-5.1v-9h5.1V453.1z"/>
</g>
<g class="st26">
	<path d="M203.3,468.5c-0.5-0.7-1.2-1-2-1c-0.4,0-0.7,0.1-1,0.2c-0.3,0.1-0.6,0.3-0.8,0.5c-0.2,0.2-0.4,0.5-0.5,0.8
		c-0.1,0.3-0.2,0.6-0.2,1c0,0.4,0.1,0.7,0.2,1s0.3,0.6,0.5,0.8c0.2,0.2,0.5,0.4,0.8,0.5s0.6,0.2,1,0.2c0.8,0,1.4-0.3,2-1v2.8
		l-0.2,0.1c-0.4,0.1-0.7,0.2-1,0.3c-0.3,0.1-0.6,0.1-0.9,0.1c-0.6,0-1.2-0.1-1.8-0.4c-0.6-0.2-1.1-0.6-1.5-1s-0.8-0.9-1-1.5
		s-0.4-1.2-0.4-1.9s0.1-1.3,0.4-1.9c0.3-0.6,0.6-1.1,1-1.5s0.9-0.7,1.5-1c0.6-0.2,1.2-0.4,1.8-0.4c0.4,0,0.7,0,1.1,0.1
		c0.3,0.1,0.7,0.2,1.1,0.4V468.5z"/>
	<path d="M207.1,465.5v7.1h2.8v2h-5.2v-9H207.1z"/>
	<path d="M213.5,465.5v9h-2.4v-9H213.5z"/>
</g>
<g class="st26">
	<path d="M221.9,468.5c-0.5-0.7-1.2-1-2-1c-0.4,0-0.7,0.1-1,0.2c-0.3,0.1-0.6,0.3-0.8,0.5c-0.2,0.2-0.4,0.5-0.5,0.8
		c-0.1,0.3-0.2,0.6-0.2,1c0,0.4,0.1,0.7,0.2,1s0.3,0.6,0.5,0.8c0.2,0.2,0.5,0.4,0.8,0.5s0.6,0.2,1,0.2c0.8,0,1.4-0.3,2-1v2.8
		l-0.2,0.1c-0.4,0.1-0.7,0.2-1,0.3c-0.3,0.1-0.6,0.1-0.9,0.1c-0.6,0-1.2-0.1-1.8-0.4c-0.6-0.2-1.1-0.6-1.5-1s-0.8-0.9-1-1.5
		s-0.4-1.2-0.4-1.9s0.1-1.3,0.4-1.9c0.3-0.6,0.6-1.1,1-1.5s0.9-0.7,1.5-1c0.6-0.2,1.2-0.4,1.8-0.4c0.4,0,0.7,0,1.1,0.1
		c0.3,0.1,0.7,0.2,1.1,0.4V468.5z"/>
</g>
<g class="st26">
	<path d="M226.1,469.2l2.9-3.7h2.9l-3.6,4.3l3.9,4.8h-3l-3.1-3.9v3.9h-2.4v-9h2.4V469.2z"/>
	<path d="M240.8,467.5v7.1h-2.4v-7.1h-1.9v-2h6.2v2H240.8z"/>
	<path d="M246.1,469h3.4v-3.5h2.4v9h-2.4v-3.7h-3.4v3.7h-2.4v-9h2.4V469z"/>
	<path d="M258.9,467.5h-2.8v1.5h2.6v2h-2.6v1.6h2.8v2h-5.1v-9h5.1V467.5z"/>
	<path d="M267,465.5v9h-2.4v-9H267z"/>
	<path d="M268.9,474.5v-9h2.4l4.3,5.5v-5.5h2.3v9h-2.3l-4.3-5.5v5.5H268.9z"/>
</g>
<g class="st26">
	<path d="M285.1,467.5h-2.8v1.5h2.6v2h-2.6v3.6h-2.4v-9h5.2V467.5z"/>
</g>
<g class="st26">
	<path d="M286,470c0-0.7,0.1-1.3,0.4-1.9c0.2-0.6,0.6-1.1,1-1.5s1-0.8,1.6-1s1.3-0.4,2-0.4c0.7,0,1.4,0.1,2,0.4
		c0.6,0.2,1.1,0.6,1.6,1c0.4,0.4,0.8,0.9,1,1.5s0.4,1.2,0.4,1.9c0,0.7-0.1,1.3-0.4,1.9c-0.2,0.6-0.6,1.1-1,1.5c-0.4,0.4-1,0.8-1.6,1
		c-0.6,0.2-1.3,0.4-2,0.4c-0.7,0-1.4-0.1-2-0.4s-1.1-0.6-1.6-1s-0.8-0.9-1-1.5C286.2,471.3,286,470.7,286,470z M288.5,470
		c0,0.4,0.1,0.7,0.2,1c0.1,0.3,0.3,0.6,0.6,0.8c0.2,0.2,0.5,0.4,0.8,0.5s0.6,0.2,1,0.2c0.3,0,0.7-0.1,1-0.2s0.6-0.3,0.8-0.5
		c0.2-0.2,0.4-0.5,0.6-0.8c0.1-0.3,0.2-0.6,0.2-1c0-0.4-0.1-0.7-0.2-1c-0.1-0.3-0.3-0.6-0.6-0.8c-0.2-0.2-0.5-0.4-0.8-0.5
		s-0.6-0.2-1-0.2c-0.3,0-0.7,0.1-1,0.2s-0.6,0.3-0.8,0.5c-0.2,0.2-0.4,0.5-0.6,0.8C288.6,469.3,288.5,469.7,288.5,470z"/>
	<path d="M301.6,465.5h3.5c0.8,0,1.5,0.2,1.9,0.6c0.4,0.4,0.6,1,0.6,1.7c0,0.5-0.1,0.8-0.2,1.1s-0.4,0.6-0.8,0.8
		c0.3,0.1,0.6,0.2,0.9,0.3s0.4,0.3,0.6,0.5c0.1,0.2,0.3,0.4,0.3,0.6c0.1,0.2,0.1,0.5,0.1,0.8c0,0.4-0.1,0.8-0.2,1.1
		s-0.4,0.6-0.6,0.8s-0.6,0.4-1,0.5c-0.4,0.1-0.8,0.2-1.3,0.2h-3.8V465.5z M304,469h0.4c0.7,0,1.1-0.3,1.1-0.9s-0.4-0.9-1.1-0.9H304
		V469z M304,472.7h0.5c0.6,0,1-0.1,1.3-0.2c0.3-0.2,0.4-0.4,0.4-0.7s-0.1-0.6-0.4-0.7c-0.3-0.2-0.7-0.2-1.3-0.2H304V472.7z"/>
	<path d="M312.3,465.5v4.9c0,0.3,0,0.5,0,0.8c0,0.3,0.1,0.5,0.2,0.8c0.1,0.2,0.3,0.4,0.5,0.5c0.2,0.1,0.5,0.2,0.9,0.2
		s0.7-0.1,0.9-0.2c0.2-0.1,0.4-0.3,0.5-0.5c0.1-0.2,0.2-0.5,0.2-0.8c0-0.3,0-0.5,0-0.8v-4.9h2.3v5.2c0,1.4-0.3,2.4-1,3.1
		c-0.6,0.6-1.6,1-3,1s-2.3-0.3-3-1c-0.6-0.6-1-1.7-1-3.1v-5.2H312.3z"/>
	<path d="M323.1,467.5v7.1h-2.4v-7.1h-1.9v-2h6.2v2H323.1z"/>
</g>
<g class="st26">
	<path d="M329.5,467.5v7.1h-2.4v-7.1h-1.9v-2h6.2v2H329.5z"/>
</g>
<g class="st26">
	<path d="M332,470c0-0.7,0.1-1.3,0.4-1.9c0.2-0.6,0.6-1.1,1-1.5c0.4-0.4,1-0.8,1.6-1c0.6-0.2,1.3-0.4,2-0.4c0.7,0,1.4,0.1,2,0.4
		s1.1,0.6,1.6,1c0.4,0.4,0.8,0.9,1,1.5s0.4,1.2,0.4,1.9c0,0.7-0.1,1.3-0.4,1.9c-0.2,0.6-0.6,1.1-1,1.5c-0.4,0.4-1,0.8-1.6,1
		s-1.3,0.4-2,0.4c-0.7,0-1.4-0.1-2-0.4c-0.6-0.2-1.1-0.6-1.6-1c-0.4-0.4-0.8-0.9-1-1.5C332.2,471.3,332,470.7,332,470z M334.5,470
		c0,0.4,0.1,0.7,0.2,1c0.1,0.3,0.3,0.6,0.6,0.8c0.2,0.2,0.5,0.4,0.8,0.5c0.3,0.1,0.6,0.2,1,0.2c0.3,0,0.7-0.1,1-0.2
		c0.3-0.1,0.6-0.3,0.8-0.5c0.2-0.2,0.4-0.5,0.6-0.8c0.1-0.3,0.2-0.6,0.2-1c0-0.4-0.1-0.7-0.2-1c-0.1-0.3-0.3-0.6-0.6-0.8
		c-0.2-0.2-0.5-0.4-0.8-0.5c-0.3-0.1-0.6-0.2-1-0.2c-0.3,0-0.7,0.1-1,0.2c-0.3,0.1-0.6,0.3-0.8,0.5c-0.2,0.2-0.4,0.5-0.6,0.8
		C334.6,469.3,334.5,469.7,334.5,470z"/>
	<path d="M343.5,474.5v-9h2.4l4.3,5.5v-5.5h2.3v9h-2.3l-4.3-5.5v5.5H343.5z"/>
</g>
<g class="st26">
	<path d="M240.2,520.4c0.2,0,0.4,0.1,0.5,0.2c0.2,0.1,0.2,0.3,0.2,0.5c0,0.2,0,0.4-0.2,0.5l-0.1,0.2c-0.1,0.1-0.2,0.2-0.3,0.4
		c-0.1,0.1-0.2,0.3-0.3,0.5c-0.1,0.3-0.2,0.5-0.2,0.6c0,0.1-0.1,0.3-0.2,0.6c-0.1,0.3-0.1,0.6-0.2,0.9c-0.1,0.4-0.1,0.6-0.1,0.8
		c0,0.1-0.1,0.4-0.1,0.7c0,0.3,0,0.6,0,0.9c0,0.3,0,0.6,0.1,0.9c0,0.3,0.1,0.5,0.1,0.6c0,0.1,0.1,0.4,0.2,0.7
		c0.1,0.3,0.2,0.6,0.3,0.8c0.1,0.2,0.2,0.5,0.4,0.7c0.2,0.3,0.3,0.5,0.5,0.7c0.2,0.2,0.3,0.4,0.4,0.5c0.1,0.1,0.2,0.3,0.4,0.4
		c0.1,0.2,0.3,0.3,0.4,0.4c0.2,0.1,0.3,0.3,0.5,0.4c0.2,0.1,0.4,0.2,0.5,0.4c0.2,0.1,0.3,0.2,0.5,0.3c0.2,0.1,0.3,0.2,0.5,0.2
		c0.1,0.1,0.2,0.1,0.3,0.1l0.1,0.1c0.2,0.1,0.3,0.2,0.4,0.4c0.1,0.2,0,0.4,0,0.6c-0.1,0.2-0.2,0.3-0.4,0.4c-0.2,0.1-0.4,0-0.6,0
		l-0.1-0.1c-0.1-0.1-0.2-0.1-0.3-0.2c-0.1,0-0.2-0.1-0.4-0.2c-0.2-0.1-0.4-0.2-0.6-0.3c-0.2-0.1-0.4-0.3-0.6-0.4
		c-0.2-0.1-0.4-0.3-0.6-0.5c-0.2-0.2-0.4-0.4-0.6-0.6c-0.2-0.2-0.3-0.4-0.4-0.5c-0.1-0.1-0.2-0.3-0.4-0.6c-0.2-0.3-0.4-0.5-0.6-0.8
		c-0.2-0.3-0.4-0.6-0.5-0.9c-0.1-0.3-0.2-0.6-0.3-0.9c-0.1-0.3-0.2-0.6-0.2-0.7c0-0.2-0.1-0.4-0.2-0.8c-0.1-0.3-0.1-0.7-0.1-1.1
		c0-0.4,0-0.7,0-1.1c0-0.3,0.1-0.6,0.1-0.8c0-0.2,0.1-0.4,0.1-0.8c0.1-0.4,0.1-0.7,0.2-1.1c0.1-0.4,0.2-0.6,0.3-0.8
		c0-0.1,0.1-0.3,0.2-0.6c0.1-0.3,0.3-0.6,0.4-0.8c0.1-0.2,0.3-0.4,0.4-0.5l0.1-0.2C239.9,520.5,240,520.4,240.2,520.4z"/>
	<path d="M246.3,518.5c0.2,0,0.4,0,0.5,0.1c0.2,0.1,0.3,0.3,0.3,0.4c0,0,0,0,0,0c0.2,0.1,0.5,0.4,0.8,0.6c0.3,0.2,0.5,0.5,0.8,0.8
		c0.3,0.3,0.5,0.6,0.8,1c0.2,0.3,0.4,0.6,0.7,0.9c0.3,0.3,0.5,0.6,0.7,0.9c0.2,0.3,0.5,0.6,0.7,0.9l0,0c0.2,0,0.4,0.1,0.5,0.3
		c0.1,0.1,0.2,0.3,0.1,0.5c0,0,0,0.1,0.1,0.1c0.2,0.3,0.4,0.5,0.6,0.8c0.2,0.2,0.4,0.5,0.5,0.7c0.2,0.2,0.4,0.5,0.6,0.7
		c0.2,0.3,0.4,0.5,0.5,0.8c0.1,0.2,0.3,0.4,0.4,0.6c0.1,0.2,0.3,0.4,0.4,0.6c0.1,0.2,0.3,0.4,0.3,0.4c0.1,0.1,0.1,0.2,0.2,0.3
		c0.1,0.1,0.1,0.2,0.2,0.3l0.1,0.1c0.1,0.2,0.2,0.3,0.1,0.5c0,0.2-0.1,0.4-0.3,0.5c-0.2,0.1-0.3,0.2-0.5,0.1c-0.2,0-0.4-0.1-0.5-0.3
		l-0.1-0.1c-0.1-0.1-0.2-0.2-0.2-0.3c-0.1-0.1-0.1-0.2-0.2-0.3c-0.1-0.1-0.2-0.3-0.3-0.5c-0.2-0.2-0.3-0.4-0.4-0.6
		c-0.1-0.2-0.3-0.4-0.4-0.6c-0.1-0.2-0.3-0.5-0.5-0.7c-0.2-0.2-0.3-0.5-0.5-0.7c-0.2-0.2-0.4-0.5-0.6-0.7c-0.2-0.2-0.3-0.4-0.5-0.6
		c-0.2,0.2-0.4,0.3-0.6,0.5c-0.2,0.2-0.5,0.4-0.8,0.6c-0.3,0.2-0.5,0.4-0.8,0.6c-0.3,0.2-0.5,0.4-0.8,0.6c-0.2,0.2-0.4,0.3-0.6,0.5
		c0,0-0.1,0-0.1,0.1c0,0.1,0,0.2,0,0.3c0,0.3,0,0.6,0,1c0,0.4,0,0.7,0,1c0,0.2,0,0.4,0,0.6c0,0.2,0,0.4,0,0.5c0,0.1,0,0.3,0,0.4
		c0,0.2,0,0.3,0,0.4l0,0.1c0,0.2-0.1,0.4-0.2,0.5c-0.1,0.1-0.3,0.2-0.5,0.2c-0.2,0-0.4-0.1-0.5-0.2c-0.2-0.1-0.2-0.3-0.2-0.5l0-0.1
		c0-0.1,0-0.1,0-0.2c0-0.1,0-0.3,0-0.5c0-0.1,0-0.3,0-0.5c0-0.2,0-0.4,0-0.7c0-0.2,0-0.5,0-1s0-0.8,0-1.1c0-0.1,0-0.2,0-0.4
		c-0.1-0.2-0.1-0.3,0-0.5c0,0,0,0,0-0.1c0-0.3,0-0.7,0-1c0-0.4,0-0.7-0.1-1.1c0-0.4,0-0.8,0-1.2c0-0.4,0-0.9,0-1.4
		c0-0.6-0.1-1-0.1-1.3c0-0.3-0.1-0.6-0.1-1c0-0.3-0.1-0.6-0.1-0.9c0,0,0-0.1,0-0.1c-0.2-0.1-0.3-0.3-0.3-0.5c0-0.2,0.1-0.4,0.2-0.6
		C245.8,518.7,246,518.5,246.3,518.5z M250.4,525c-0.2-0.3-0.5-0.6-0.6-0.8c-0.2-0.3-0.4-0.5-0.7-0.8c-0.3-0.3-0.5-0.6-0.7-1
		c-0.2-0.3-0.5-0.6-0.7-0.9c-0.1-0.1-0.2-0.3-0.3-0.4c0,0.3,0,0.6,0.1,0.9c0,0.3,0.1,0.8,0.1,1.4c0,0.6,0,1.1,0,1.5
		c0,0.4,0,0.8,0,1.1c0,0.3,0,0.7,0.1,1c0.2-0.2,0.4-0.3,0.7-0.5c0.3-0.2,0.6-0.4,0.8-0.6s0.5-0.4,0.7-0.5
		C250.1,525.2,250.2,525.1,250.4,525z"/>
	<path d="M255.2,516.1c0.2-0.1,0.4-0.1,0.6,0c0.2,0.1,0.3,0.2,0.4,0.4l0.1,0.1c0,0,0.1,0,0.1,0.1c0.2,0.1,0.5,0.3,0.9,0.6
		c0.4,0.3,0.7,0.6,1.1,0.9s0.8,0.6,1.2,1c0.4,0.3,0.8,0.6,1.1,0.9c0.4,0.3,0.7,0.6,1.1,0.8c0.3,0.3,0.7,0.6,1,0.8
		c0.3,0.3,0.6,0.6,0.9,0.9c0.3,0.3,0.6,0.6,1,1c0.3,0.4,0.6,0.6,0.8,0.8c0.1,0.1,0.2,0.2,0.3,0.3c-0.1-0.2-0.2-0.5-0.2-0.7
		c-0.1-0.4-0.2-0.7-0.3-1c-0.1-0.3-0.2-0.7-0.3-1.1c-0.1-0.4-0.2-0.8-0.3-1.1c-0.1-0.3-0.2-0.7-0.3-1c-0.1-0.3-0.2-0.9-0.4-1.6
		c-0.2-0.7-0.3-1.2-0.4-1.4c-0.1-0.3-0.1-0.5-0.2-0.7l-0.2-0.6c-0.1-0.2-0.1-0.4-0.2-0.6c0-0.2-0.1-0.3-0.1-0.4l0-0.2
		c-0.1-0.2,0-0.4,0.1-0.6c0.1-0.2,0.2-0.3,0.4-0.4c0.2-0.1,0.4,0,0.6,0.1c0.2,0.1,0.3,0.2,0.4,0.4l0,0.2c0,0.1,0.1,0.3,0.1,0.5
		c0,0.2,0.1,0.3,0.1,0.5l0.2,0.6c0.1,0.2,0.1,0.4,0.2,0.7c0.1,0.3,0.2,0.7,0.4,1.4c0.2,0.7,0.3,1.2,0.4,1.5c0.1,0.4,0.2,0.7,0.3,1.1
		c0.1,0.4,0.2,0.7,0.3,1.1c0.1,0.4,0.2,0.7,0.3,1c0.1,0.3,0.2,0.6,0.3,1c0.1,0.4,0.2,0.8,0.4,1.2c0.2,0.5,0.3,0.9,0.3,1.1
		c0.1,0.3,0.1,0.6,0.2,0.8c0,0,0,0.1,0,0.2c0,0.1-0.1,0.2-0.1,0.4c-0.1,0.2-0.2,0.3-0.2,0.4c-0.1,0.1-0.2,0.1-0.4,0.2
		c-0.2,0-0.3-0.1-0.5-0.2c-0.1-0.1-0.2-0.2-0.3-0.3l-0.4-0.4c-0.2-0.2-0.3-0.3-0.4-0.5c-0.1-0.1-0.3-0.3-0.4-0.4
		c-0.2-0.2-0.3-0.3-0.5-0.5c-0.2-0.2-0.5-0.4-0.8-0.8c-0.4-0.4-0.7-0.7-1-1c-0.3-0.3-0.6-0.6-0.9-0.8c-0.3-0.3-0.6-0.5-0.9-0.8
		c-0.3-0.3-0.7-0.5-1.1-0.8c-0.4-0.3-0.7-0.6-1.1-0.9c-0.4-0.3-0.8-0.6-1.2-0.9c-0.2-0.1-0.4-0.3-0.5-0.4c0.1,0.3,0.2,0.6,0.3,0.9
		c0.1,0.5,0.3,0.9,0.3,1.3c0.1,0.4,0.2,0.8,0.3,1.2c0.1,0.4,0.2,0.8,0.3,1.2c0.1,0.4,0.2,0.8,0.3,1.2c0.1,0.4,0.2,0.8,0.4,1.2
		c0.1,0.4,0.2,0.7,0.3,1.1c0.1,0.3,0.2,0.6,0.3,1c0.1,0.3,0.2,0.5,0.2,0.6c0,0.1,0.1,0.2,0.1,0.3l0,0.1c0.1,0.2,0,0.4-0.1,0.6
		c-0.1,0.2-0.2,0.3-0.4,0.4c-0.2,0.1-0.4,0-0.6-0.1s-0.3-0.3-0.3-0.4l0-0.1c0-0.1,0-0.1-0.1-0.2c0-0.1-0.1-0.3-0.2-0.6
		c-0.1-0.3-0.2-0.7-0.3-1c-0.1-0.3-0.2-0.7-0.3-1.1c-0.1-0.4-0.3-0.8-0.4-1.2c-0.1-0.4-0.2-0.8-0.3-1.3s-0.2-0.8-0.3-1.2
		c-0.1-0.4-0.2-0.8-0.3-1.2c-0.1-0.4-0.2-0.8-0.3-1.3c-0.1-0.5-0.3-0.9-0.4-1.4c-0.1-0.4-0.2-0.8-0.3-1.1c-0.1-0.1-0.3-0.2-0.3-0.3
		c-0.1-0.1-0.1-0.3-0.1-0.5c0-0.1,0.1-0.3,0.2-0.4C254.8,516.4,254.9,516.2,255.2,516.1z"/>
	<path d="M266.8,512.9c0.2-0.1,0.4,0,0.5,0s0.3,0.2,0.4,0.3c0.1,0,0.3,0,0.4,0c0.3,0,0.6,0,1,0.1c0.3,0.1,0.6,0.1,1,0.2
		c0.4,0.1,0.8,0.2,1.3,0.4c0.5,0.2,1,0.4,1.3,0.6c0.3,0.2,0.6,0.4,1,0.6c0.3,0.3,0.7,0.5,0.9,0.8c0.3,0.3,0.5,0.6,0.7,0.8
		c0.2,0.3,0.4,0.5,0.5,0.8c0.2,0.3,0.3,0.5,0.5,0.8c0.1,0.3,0.3,0.6,0.4,0.9c0.1,0.3,0.2,0.6,0.2,0.8c0.1,0.3,0.1,0.5,0.1,0.8
		c0,0.2,0,0.5-0.1,0.7c0,0.2-0.1,0.4-0.1,0.6c-0.1,0.2-0.1,0.4-0.2,0.7c-0.1,0.2-0.2,0.4-0.3,0.6s-0.2,0.3-0.4,0.5
		c-0.1,0.2-0.3,0.3-0.5,0.4c-0.2,0.1-0.3,0.3-0.5,0.4c-0.2,0.1-0.4,0.2-0.6,0.3c-0.2,0.1-0.4,0.2-0.6,0.3c-0.2,0.1-0.5,0.2-0.8,0.2
		c-0.3,0.1-0.6,0.1-0.8,0.1c-0.2,0-0.4,0-0.6,0c-0.2,0-0.4,0-0.6-0.1l0,0c0,0.2,0,0.4-0.2,0.5c-0.1,0.2-0.3,0.3-0.5,0.3
		c-0.2,0-0.4,0-0.5-0.1c-0.2-0.1-0.3-0.3-0.3-0.5l0-0.2c0-0.1,0-0.2-0.1-0.4c0-0.2-0.1-0.5-0.2-0.8c-0.1-0.3-0.2-0.7-0.3-1.1
		c-0.1-0.4-0.2-0.8-0.3-1.2s-0.2-0.9-0.4-1.3c-0.1-0.5-0.3-1-0.4-1.4c-0.1-0.5-0.2-0.9-0.3-1.3s-0.2-0.9-0.3-1.3
		c-0.1-0.4-0.2-0.9-0.3-1.2l-0.3-1c-0.1-0.3-0.1-0.4-0.2-0.5l-0.1-0.1c-0.1-0.2-0.1-0.4,0-0.6S266.6,513,266.8,512.9z M270.7,524.1
		c0.2,0.1,0.4,0.1,0.6,0.1c0.2,0,0.3,0,0.5,0.1c0.1,0,0.3,0,0.5,0c0.2,0,0.3,0,0.6-0.1s0.4-0.1,0.6-0.2c0.1-0.1,0.3-0.1,0.4-0.2
		c0.2-0.1,0.3-0.2,0.4-0.3c0.1-0.1,0.3-0.2,0.4-0.3c0.1-0.1,0.2-0.2,0.4-0.3c0.1-0.1,0.2-0.2,0.2-0.3c0.1-0.1,0.1-0.2,0.2-0.4
		c0.1-0.1,0.1-0.2,0.1-0.4c0-0.2,0.1-0.3,0.1-0.5c0-0.2,0-0.3,0-0.5c0-0.2,0-0.3,0-0.5c0-0.2-0.1-0.4-0.2-0.6
		c-0.1-0.2-0.2-0.5-0.3-0.7c-0.1-0.2-0.2-0.4-0.4-0.7c-0.2-0.2-0.3-0.5-0.5-0.7c-0.2-0.2-0.4-0.5-0.6-0.7c-0.2-0.2-0.5-0.4-0.7-0.6
		c-0.3-0.2-0.6-0.4-0.8-0.5c-0.3-0.1-0.6-0.3-1.1-0.5c-0.5-0.2-0.8-0.3-1.2-0.4c-0.3-0.1-0.6-0.1-0.9-0.2c-0.2,0-0.5-0.1-0.6-0.1
		c0,0-0.1,0-0.1,0l0.1,0.4c0.1,0.4,0.2,0.8,0.4,1.3c0.1,0.4,0.2,0.9,0.3,1.3c0.1,0.4,0.2,0.9,0.3,1.4c0.1,0.5,0.2,0.9,0.4,1.4
		c0.1,0.5,0.3,0.9,0.4,1.3c0.1,0.4,0.2,0.9,0.3,1.3C270.5,523.4,270.6,523.8,270.7,524.1z"/>
	<path d="M284.5,508.1c0.1-0.2,0.2-0.3,0.4-0.4c0.2-0.1,0.4-0.1,0.6,0c0.2,0.1,0.3,0.2,0.4,0.4l0.1,0.3c0.2-0.2,0.3-0.4,0.5-0.6
		c0.2-0.2,0.5-0.4,0.9-0.6c0.4-0.2,0.7-0.3,1.1-0.4c0.4-0.1,0.8-0.1,1.2,0c0.4,0,0.7,0.1,1.1,0.3c0.3,0.1,0.7,0.4,1.1,0.7
		c0.4,0.3,0.7,0.7,0.9,1.1c0.2,0.4,0.3,0.7,0.4,1.1c0.1,0.4,0.1,0.8,0,1.2c0,0.4-0.1,0.7-0.2,1c-0.1,0.3-0.3,0.6-0.5,1
		c0.1,0,0.2,0,0.2,0c0.3,0,0.6,0.1,0.9,0.2c0.3,0.1,0.5,0.3,0.8,0.5c0.3,0.2,0.5,0.5,0.7,0.8c0.2,0.3,0.4,0.7,0.4,1
		c0,0.3,0.1,0.5,0,0.8c0,0.2,0,0.5-0.1,0.8c0,0.3-0.1,0.5-0.2,0.8c-0.1,0.2-0.3,0.5-0.5,0.8c-0.2,0.3-0.5,0.6-0.7,0.7
		c-0.2,0.1-0.6,0.3-1,0.4c-0.4,0.1-0.7,0.2-1,0.2c-0.3,0-0.6,0-0.8,0c-0.3,0-0.6-0.1-1-0.1c-0.2,0-0.5-0.1-0.7-0.1l0.1,0.4
		c0.1,0.2,0,0.4-0.1,0.6c-0.1,0.2-0.2,0.3-0.4,0.3c-0.2,0.1-0.4,0-0.6-0.1c-0.2-0.1-0.3-0.2-0.4-0.4l-0.4-1.5
		c-0.1-0.2-0.1-0.5-0.2-0.8c-0.1-0.3-0.1-0.6-0.2-0.9c-0.1-0.4-0.2-0.9-0.4-1.5c-0.2-0.6-0.3-1.1-0.4-1.5c-0.1-0.4-0.2-0.8-0.4-1.3
		c-0.1-0.4-0.3-0.9-0.4-1.3c-0.1-0.4-0.3-0.8-0.4-1.2c-0.1-0.4-0.2-0.7-0.3-1c-0.1-0.3-0.2-0.6-0.3-0.8l-0.1-0.3
		C284.4,508.5,284.4,508.3,284.5,508.1z M288.2,515.1l0.3-0.8c0.4-0.2,0.8-0.4,1.1-0.5c0.1-0.1,0.2-0.1,0.3-0.1
		c0.1-0.1,0.2-0.2,0.4-0.3c0.1-0.1,0.2-0.1,0.2-0.2c0.2-0.2,0.4-0.4,0.5-0.6c0.2-0.3,0.4-0.6,0.5-0.8c0.1-0.2,0.1-0.5,0.2-0.7
		c0-0.2,0-0.5,0-0.8c0-0.3-0.1-0.5-0.2-0.7c-0.1-0.2-0.3-0.4-0.6-0.6c-0.3-0.2-0.5-0.4-0.7-0.5c-0.2-0.1-0.4-0.1-0.7-0.2
		c-0.2,0-0.5,0-0.7,0c-0.2,0-0.5,0.1-0.7,0.2c-0.2,0.1-0.4,0.2-0.6,0.4c-0.2,0.1-0.3,0.3-0.4,0.5c-0.1,0.1-0.2,0.2-0.2,0.4l-0.1,0.4
		c0,0.1-0.1,0.2-0.1,0.3c0.1,0.3,0.2,0.7,0.3,1c0.1,0.4,0.3,0.9,0.4,1.3c0.2,0.5,0.3,0.9,0.4,1.3C288,514.4,288.1,514.7,288.2,515.1
		z M289,518.2l0.2,0.1c0.1,0.1,0.3,0.1,0.5,0.2c0.2,0.1,0.4,0.1,0.7,0.2c0.3,0,0.6,0.1,0.8,0.1c0.2,0,0.4,0,0.6,0
		c0.2,0,0.4-0.1,0.7-0.2c0.3-0.1,0.5-0.2,0.6-0.2c0.1-0.1,0.2-0.2,0.4-0.4c0.2-0.2,0.3-0.3,0.3-0.5c0.1-0.1,0.1-0.3,0.1-0.4
		c0-0.2,0.1-0.4,0.1-0.5c0-0.2,0-0.3,0-0.5c0-0.1-0.1-0.3-0.2-0.4c-0.1-0.2-0.2-0.3-0.4-0.4c-0.1-0.1-0.3-0.2-0.5-0.3
		c-0.2-0.1-0.4-0.1-0.6-0.1c-0.2,0-0.4,0-0.7,0c-0.1,0-0.3,0-0.4,0.1c-0.1,0-0.2,0.1-0.4,0.1c-0.1,0-0.3,0.1-0.4,0.1
		c-0.1,0.1-0.2,0.1-0.3,0.2c-0.3,0.2-0.5,0.3-0.8,0.4c-0.2,0.1-0.4,0.2-0.5,0.3c-0.2,0.1-0.3,0.1-0.4,0.1c-0.1,0-0.1,0-0.2,0
		c0.1,0.4,0.2,0.8,0.3,1.1c0.1,0.4,0.2,0.7,0.3,1C289,518.1,289,518.2,289,518.2z"/>
	<path d="M298.5,518.4c0-0.1,0-0.3,0-0.4c0,0,0,0,0-0.1l0-0.1c0-0.1-0.1-0.2-0.1-0.3c-0.1-0.1-0.1-0.3-0.2-0.5
		c-0.1-0.2-0.1-0.4-0.2-0.5c0-0.2-0.1-0.4-0.2-0.6c-0.1-0.2-0.2-0.5-0.2-0.9c-0.1-0.3-0.2-0.7-0.3-1c-0.1-0.4-0.3-0.8-0.4-1.4
		c-0.2-0.5-0.3-1-0.5-1.5c-0.1-0.4-0.3-0.9-0.4-1.4c-0.2-0.5-0.3-0.9-0.4-1.3c-0.1-0.4-0.2-0.7-0.3-0.9c-0.1-0.2-0.1-0.4-0.2-0.7
		c-0.1-0.3-0.2-0.5-0.2-0.6l-0.1-0.2c-0.1-0.2-0.1-0.3,0-0.5c0.1-0.2,0.2-0.3,0.3-0.4c0.1-0.2,0.2-0.4,0.4-0.5l0.1,0
		c0.1-0.1,0.3-0.1,0.6-0.2l0.9-0.2c0.3-0.1,0.6-0.2,1-0.3c0.3-0.1,0.7-0.2,1-0.3c0.3-0.1,0.6-0.2,1-0.3c0.3-0.1,0.6-0.2,0.9-0.3
		c0.3-0.1,0.5-0.2,0.7-0.3c0.2-0.1,0.4-0.2,0.6-0.2c0.2-0.1,0.3-0.1,0.4-0.1l0.2,0c0.2-0.1,0.4,0,0.6,0.1c0.2,0.1,0.3,0.2,0.3,0.4
		s0,0.4-0.1,0.6c-0.1,0.2-0.2,0.3-0.5,0.4l-0.2,0c-0.1,0-0.2,0.1-0.4,0.1c-0.2,0-0.3,0.1-0.6,0.2c-0.2,0.1-0.5,0.2-0.7,0.3
		c-0.3,0.1-0.6,0.2-0.9,0.3s-0.7,0.2-1,0.3c-0.3,0.1-0.7,0.2-1,0.3c-0.3,0.1-0.7,0.2-1,0.3l-0.9,0.2c-0.1,0-0.2,0.1-0.3,0.1
		c0,0.1,0.1,0.3,0.2,0.5c0.1,0.3,0.2,0.5,0.2,0.7c0.1,0.2,0.2,0.5,0.3,1c0.1,0.4,0.2,0.8,0.4,1.2c0.1,0.5,0.3,0.9,0.4,1.3
		c0,0.1,0.1,0.2,0.1,0.3c0.2-0.1,0.4-0.1,0.6-0.2c0.3-0.1,0.6-0.2,0.9-0.3c0.4-0.1,0.7-0.3,1-0.4c0.3-0.1,0.6-0.2,0.9-0.3
		c0.3-0.1,0.6-0.2,0.8-0.3c0.2-0.1,0.4-0.1,0.6-0.2l0.2-0.1c0.2-0.1,0.4,0,0.6,0c0.2,0.1,0.3,0.2,0.4,0.4c0.1,0.2,0,0.4,0,0.6
		c-0.1,0.2-0.2,0.3-0.4,0.4l-0.2,0.1c-0.1,0-0.3,0.1-0.5,0.2c-0.2,0.1-0.5,0.2-0.8,0.3c-0.3,0.1-0.6,0.2-0.9,0.4
		c-0.3,0.1-0.7,0.3-1,0.4c-0.4,0.1-0.7,0.2-1,0.4c-0.2,0.1-0.4,0.1-0.6,0.2c0.1,0.4,0.3,0.8,0.4,1.1c0.1,0.4,0.2,0.7,0.3,1.1
		c0.1,0.3,0.2,0.6,0.3,0.8c0.1,0.2,0.1,0.4,0.2,0.6c0,0.2,0.1,0.3,0.1,0.5c0.1,0.2,0.1,0.3,0.2,0.4c0,0.1,0,0.1,0.1,0.2
		c0.1,0,0.1-0.1,0.2-0.1c0.2-0.1,0.5-0.2,0.8-0.3c0.3-0.1,0.6-0.2,0.9-0.3s0.6-0.2,0.9-0.3c0.3-0.1,0.6-0.2,0.9-0.2
		c0.3-0.1,0.6-0.2,0.9-0.3c0.3-0.1,0.6-0.2,1-0.3c0.3-0.1,0.6-0.2,0.7-0.2c0.2-0.1,0.3-0.1,0.4-0.2c0.1,0,0.2-0.1,0.3-0.1l0.1,0
		c0.2-0.1,0.4,0,0.6,0.1c0.2,0.1,0.3,0.2,0.4,0.4c0.1,0.2,0,0.4-0.1,0.6c-0.1,0.2-0.3,0.3-0.4,0.3l-0.1,0c-0.1,0-0.1,0-0.2,0.1
		c-0.1,0-0.2,0.1-0.4,0.1c-0.2,0.1-0.4,0.2-0.8,0.3c-0.4,0.1-0.7,0.2-1,0.3c-0.3,0.1-0.6,0.2-0.8,0.3c-0.3,0.1-0.6,0.2-0.9,0.3
		c-0.3,0.1-0.6,0.2-0.9,0.3c-0.3,0.1-0.6,0.2-0.9,0.3c-0.3,0.1-0.5,0.2-0.8,0.3c-0.2,0.1-0.5,0.2-0.7,0.2l-0.3,0.1
		c-0.2,0.1-0.4,0-0.6,0C298.7,518.7,298.5,518.6,298.5,518.4z"/>
	<path d="M317.5,498.2c0.2,0,0.4,0,0.5,0.1c0.2,0.1,0.3,0.3,0.3,0.4c0,0,0,0,0,0c0.2,0.1,0.5,0.4,0.8,0.6c0.3,0.2,0.5,0.5,0.8,0.8
		c0.3,0.3,0.5,0.6,0.8,1c0.2,0.3,0.4,0.6,0.7,0.9c0.3,0.3,0.5,0.6,0.7,0.9c0.2,0.3,0.5,0.6,0.7,0.9l0,0c0.2,0,0.4,0.1,0.5,0.3
		c0.1,0.1,0.2,0.3,0.1,0.5c0,0,0,0.1,0.1,0.1c0.2,0.3,0.4,0.5,0.6,0.8c0.2,0.2,0.4,0.5,0.5,0.7c0.2,0.2,0.4,0.5,0.6,0.7
		c0.2,0.3,0.4,0.5,0.5,0.8c0.1,0.2,0.3,0.4,0.4,0.6c0.1,0.2,0.3,0.4,0.4,0.6c0.1,0.2,0.3,0.4,0.3,0.4c0.1,0.1,0.1,0.2,0.2,0.3
		c0.1,0.1,0.1,0.2,0.2,0.3l0.1,0.1c0.1,0.2,0.2,0.3,0.1,0.5c0,0.2-0.1,0.4-0.3,0.5c-0.2,0.1-0.3,0.2-0.5,0.1c-0.2,0-0.4-0.1-0.5-0.3
		l-0.1-0.1c-0.1-0.1-0.2-0.2-0.2-0.3c-0.1-0.1-0.1-0.2-0.2-0.3c-0.1-0.1-0.2-0.3-0.3-0.5c-0.2-0.2-0.3-0.4-0.4-0.6
		c-0.1-0.2-0.3-0.4-0.4-0.6c-0.1-0.2-0.3-0.5-0.5-0.7c-0.2-0.2-0.3-0.5-0.5-0.7c-0.2-0.2-0.4-0.5-0.6-0.7c-0.2-0.2-0.3-0.4-0.5-0.6
		c-0.2,0.2-0.4,0.3-0.6,0.5c-0.2,0.2-0.5,0.4-0.8,0.6c-0.3,0.2-0.5,0.4-0.8,0.6c-0.3,0.2-0.5,0.4-0.8,0.6c-0.2,0.2-0.4,0.3-0.6,0.5
		c0,0-0.1,0.1-0.1,0.1c0,0.1,0,0.2,0,0.3c0,0.3,0,0.6,0,1c0,0.4,0,0.7,0,1c0,0.2,0,0.4,0,0.6c0,0.2,0,0.4,0,0.5c0,0.1,0,0.3,0,0.4
		c0,0.2,0,0.3,0,0.4l0,0.1c0,0.2-0.1,0.4-0.2,0.5c-0.1,0.1-0.3,0.2-0.5,0.2c-0.2,0-0.4-0.1-0.5-0.2c-0.2-0.1-0.2-0.3-0.2-0.5l0-0.1
		c0-0.1,0-0.1,0-0.2c0-0.1,0-0.3,0-0.5c0-0.1,0-0.3,0-0.5c0-0.2,0-0.4,0-0.7c0-0.2,0-0.5,0-1c0-0.4,0-0.8,0-1.1c0-0.1,0-0.2,0-0.4
		c-0.1-0.2-0.1-0.3,0-0.5c0,0,0,0,0-0.1c0-0.3,0-0.7,0-1c0-0.4,0-0.7-0.1-1.1c0-0.4,0-0.8,0-1.2c0-0.4,0-0.9,0-1.4
		c0-0.6-0.1-1-0.1-1.3c0-0.3-0.1-0.6-0.1-1c0-0.3-0.1-0.6-0.1-0.9c0,0,0-0.1,0-0.1c-0.2-0.1-0.3-0.3-0.3-0.5c0-0.2,0.1-0.4,0.2-0.6
		C317,498.4,317.2,498.2,317.5,498.2z M321.6,504.7c-0.2-0.3-0.5-0.6-0.6-0.8c-0.2-0.3-0.4-0.5-0.7-0.8c-0.3-0.3-0.5-0.6-0.7-1
		c-0.2-0.3-0.5-0.6-0.7-0.9c-0.1-0.1-0.2-0.3-0.3-0.4c0,0.3,0,0.6,0.1,0.9c0,0.3,0.1,0.8,0.1,1.4c0,0.6,0,1.1,0,1.5
		c0,0.4,0,0.8,0,1.1c0,0.3,0,0.7,0.1,1c0.2-0.2,0.4-0.3,0.7-0.5c0.3-0.2,0.6-0.4,0.8-0.6s0.5-0.4,0.7-0.5
		C321.3,504.9,321.4,504.8,321.6,504.7z"/>
	<path d="M333.1,494.7c0.1,0.2,0.1,0.4,0.1,0.6c-0.1,0.2-0.2,0.3-0.3,0.4c-0.2,0.1-0.4,0.1-0.6,0.1l-0.1,0c0,0-0.1,0-0.2,0
		c-0.1,0-0.3,0.1-0.6,0.2c-0.2,0.1-0.5,0.2-0.7,0.3c-0.3,0.1-0.5,0.3-0.7,0.5c-0.2,0.2-0.4,0.4-0.6,0.6c-0.2,0.2-0.4,0.5-0.5,0.8
		c-0.1,0.3-0.3,0.5-0.3,0.8c-0.1,0.2-0.1,0.4-0.1,0.6c0,0.2,0.1,0.3,0.1,0.5c0.1,0.1,0.1,0.2,0.2,0.3c0.1,0.1,0.3,0.2,0.6,0.2
		c0.3,0.1,0.7,0.1,1,0.2c0.4,0,0.8,0,1.2,0c0.4,0,0.8,0,1.2,0.1c0.4,0,0.9,0.1,1.4,0.3c0.5,0.2,0.9,0.4,1.3,0.6
		c0.3,0.2,0.5,0.4,0.7,0.5c0.2,0.2,0.4,0.4,0.6,0.7c0.3,0.3,0.5,0.6,0.6,1c0.1,0.3,0.2,0.7,0.3,1c0,0.3,0,0.6-0.1,0.8
		c-0.1,0.2-0.2,0.5-0.3,0.7c-0.1,0.2-0.3,0.4-0.5,0.7c-0.2,0.2-0.5,0.4-0.8,0.6c-0.3,0.2-0.6,0.4-1,0.5c-0.3,0.1-0.7,0.2-1,0.3
		c-0.4,0.1-0.7,0.1-1.1,0.1c-0.3,0-0.7,0-1.1,0c-0.4,0-0.8-0.2-1.4-0.3c-0.5-0.2-0.9-0.3-1.1-0.4c-0.2-0.1-0.4-0.2-0.5-0.3l-0.1-0.1
		c-0.2-0.1-0.3-0.3-0.3-0.5c0-0.2,0-0.4,0.1-0.6c0.1-0.2,0.3-0.3,0.5-0.3c0.2,0,0.4,0,0.5,0.1l0.1,0.1c0.1,0,0.2,0.1,0.3,0.2
		c0.2,0.1,0.4,0.2,0.9,0.3c0.4,0.1,0.7,0.2,1,0.3c0.3,0,0.6,0,0.9,0c0.3,0,0.5,0,0.8-0.1c0.3-0.1,0.5-0.1,0.8-0.2
		c0.2-0.1,0.5-0.2,0.7-0.4c0.2-0.2,0.4-0.3,0.6-0.5c0.1-0.1,0.2-0.2,0.3-0.4c0.1-0.1,0.1-0.2,0.1-0.3c0-0.1,0-0.2,0-0.4
		c0-0.1-0.1-0.3-0.1-0.5c-0.1-0.2-0.2-0.4-0.4-0.6c-0.2-0.2-0.3-0.4-0.4-0.5c-0.1-0.1-0.3-0.3-0.6-0.5c-0.2-0.2-0.6-0.3-1-0.5
		c-0.4-0.1-0.7-0.2-1-0.3c-0.3,0-0.7,0-1,0c-0.4,0-0.8,0-1.2,0c-0.5,0-0.9-0.1-1.3-0.2c-0.4-0.1-0.8-0.3-1.1-0.4
		c-0.3-0.2-0.5-0.5-0.7-0.8c-0.2-0.3-0.3-0.7-0.3-1c0-0.4,0-0.7,0.1-1.2c0.1-0.4,0.2-0.7,0.4-1.1c0.2-0.4,0.4-0.7,0.7-1
		c0.3-0.3,0.5-0.6,0.8-0.8c0.2-0.2,0.5-0.4,0.9-0.6c0.3-0.2,0.7-0.4,1-0.5c0.3-0.1,0.6-0.2,0.9-0.2c0.3,0,0.5,0,0.7,0l0.1,0
		C332.9,494.4,333,494.5,333.1,494.7z"/>
	<path d="M342.4,491.4c0.1-0.2,0.2-0.3,0.4-0.4s0.4,0,0.6,0.1c0.2,0.1,0.3,0.2,0.4,0.4l0,0.1c0,0.1,0.1,0.2,0.1,0.4
		c0.1,0.2,0.1,0.4,0.2,0.7c0.1,0.3,0.2,0.6,0.3,1c0.1,0.4,0.2,0.7,0.3,1.1l0.6,2.1c0.1,0.3,0.2,0.8,0.4,1.3s0.3,1,0.4,1.3
		c0.1,0.3,0.2,0.6,0.2,0.8c0.1,0.3,0.2,0.6,0.2,0.8c0.1,0.2,0.1,0.4,0.2,0.7l0.6,2c0.1,0.2,0,0.4-0.1,0.6c-0.1,0.2-0.2,0.3-0.4,0.4
		s-0.4,0-0.6-0.1c-0.2-0.1-0.3-0.2-0.4-0.4l-0.6-2c-0.1-0.2-0.1-0.5-0.2-0.7c-0.1-0.2-0.1-0.5-0.2-0.7c-0.1-0.3-0.1-0.5-0.2-0.9
		c-0.1-0.2-0.1-0.5-0.2-0.8c-0.1,0-0.2,0.1-0.3,0.1c-0.2,0.1-0.5,0.2-0.7,0.3c-0.3,0.1-0.6,0.2-1.1,0.4c-0.5,0.2-0.9,0.3-1.2,0.4
		c-0.3,0.1-0.6,0.2-0.9,0.3c0,0,0,0,0,0c0.1,0.2,0.1,0.4,0.1,0.5c0.1,0.4,0.2,0.8,0.3,1.1c0.1,0.3,0.2,0.6,0.2,0.9
		c0.1,0.2,0.1,0.5,0.2,0.7c0.1,0.2,0.1,0.4,0.1,0.5l0.2,0.8c0.1,0.2,0,0.4-0.1,0.6c-0.1,0.2-0.2,0.3-0.4,0.4s-0.4,0-0.6-0.1
		c-0.2-0.1-0.3-0.3-0.3-0.4l-0.2-0.8c0-0.1-0.1-0.3-0.2-0.6c-0.1-0.2-0.1-0.5-0.2-0.7c-0.1-0.3-0.1-0.5-0.2-0.9
		c-0.1-0.3-0.2-0.7-0.3-1.1c-0.1-0.4-0.2-0.8-0.4-1.3s-0.3-0.9-0.4-1.4c-0.1-0.5-0.3-1-0.4-1.4c-0.1-0.4-0.2-0.8-0.4-1.3
		c-0.1-0.4-0.2-0.9-0.3-1.3c-0.1-0.4-0.2-0.8-0.2-1.1c-0.1-0.3-0.1-0.4-0.1-0.5l0-0.1c0-0.2,0-0.4,0.1-0.6c0.1-0.2,0.3-0.3,0.5-0.3
		c0.2,0,0.4,0,0.6,0.1c0.2,0.1,0.3,0.3,0.3,0.5l0,0.1c0,0.1,0.1,0.2,0.1,0.5c0.1,0.3,0.2,0.6,0.3,1c0.1,0.4,0.2,0.8,0.3,1.3
		c0.1,0.4,0.2,0.9,0.3,1.3c0.1,0.4,0.3,0.9,0.4,1.4c0.1,0.3,0.1,0.5,0.2,0.7c0.3-0.1,0.5-0.2,0.8-0.3c0.3-0.1,0.7-0.2,1.2-0.4
		c0.5-0.2,0.9-0.3,1.2-0.4c0.2-0.1,0.5-0.2,0.7-0.3c0.2-0.1,0.3-0.1,0.4-0.1c0-0.1-0.1-0.3-0.1-0.4l-0.6-2.1
		c-0.1-0.4-0.2-0.8-0.3-1.1c-0.1-0.3-0.2-0.7-0.3-1c-0.1-0.3-0.2-0.5-0.2-0.7c-0.1-0.2-0.1-0.3-0.1-0.4l0-0.1
		C342.3,491.8,342.3,491.6,342.4,491.4z"/>
	<path d="M349.2,489.1c0.2,0,0.4,0,0.5,0.1c0.2,0.1,0.3,0.3,0.3,0.4c0,0,0,0,0,0c0.2,0.1,0.5,0.4,0.8,0.6c0.3,0.2,0.5,0.5,0.8,0.8
		c0.3,0.3,0.5,0.6,0.8,1c0.2,0.3,0.4,0.6,0.7,0.9c0.3,0.3,0.5,0.6,0.7,0.9c0.2,0.3,0.5,0.6,0.7,0.9l0,0c0.2,0,0.4,0.1,0.5,0.3
		c0.1,0.1,0.2,0.3,0.1,0.5c0,0,0,0.1,0.1,0.1c0.2,0.3,0.4,0.5,0.6,0.8c0.2,0.2,0.4,0.5,0.5,0.7c0.2,0.2,0.4,0.5,0.6,0.7
		c0.2,0.3,0.4,0.5,0.5,0.8c0.1,0.2,0.3,0.4,0.4,0.6c0.1,0.2,0.3,0.4,0.4,0.6c0.1,0.2,0.3,0.4,0.3,0.4c0.1,0.1,0.1,0.2,0.2,0.3
		c0.1,0.1,0.1,0.2,0.2,0.3l0.1,0.1c0.1,0.2,0.2,0.3,0.1,0.5c0,0.2-0.1,0.4-0.3,0.5c-0.2,0.1-0.3,0.2-0.5,0.1s-0.4-0.1-0.5-0.3
		l-0.1-0.1c-0.1-0.1-0.2-0.2-0.2-0.3c-0.1-0.1-0.1-0.2-0.2-0.3c-0.1-0.1-0.2-0.3-0.3-0.5c-0.2-0.2-0.3-0.4-0.4-0.6
		c-0.1-0.2-0.3-0.4-0.4-0.6c-0.1-0.2-0.3-0.5-0.5-0.7c-0.2-0.2-0.3-0.5-0.5-0.7c-0.2-0.2-0.4-0.5-0.6-0.7c-0.2-0.2-0.3-0.4-0.5-0.6
		c-0.2,0.2-0.4,0.3-0.6,0.5c-0.2,0.2-0.5,0.4-0.8,0.6c-0.3,0.2-0.5,0.4-0.8,0.6c-0.3,0.2-0.5,0.4-0.8,0.6c-0.2,0.2-0.4,0.3-0.6,0.5
		c0,0-0.1,0-0.1,0.1c0,0.1,0,0.2,0,0.3c0,0.3,0,0.6,0,1c0,0.4,0,0.7,0,1c0,0.2,0,0.4,0,0.6c0,0.2,0,0.4,0,0.5c0,0.1,0,0.3,0,0.4
		c0,0.2,0,0.3,0,0.4l0,0.1c0,0.2-0.1,0.4-0.2,0.5c-0.1,0.1-0.3,0.2-0.5,0.2c-0.2,0-0.4-0.1-0.5-0.2c-0.2-0.1-0.2-0.3-0.2-0.5l0-0.1
		c0-0.1,0-0.1,0-0.2c0-0.1,0-0.3,0-0.5c0-0.1,0-0.3,0-0.5c0-0.2,0-0.4,0-0.7c0-0.2,0-0.5,0-1s0-0.8,0-1.1c0-0.1,0-0.2,0-0.4
		c-0.1-0.2-0.1-0.3,0-0.5c0,0,0,0,0-0.1c0-0.3,0-0.7,0-1c0-0.4,0-0.7-0.1-1.1c0-0.4,0-0.8,0-1.2c0-0.4,0-0.9,0-1.4
		c0-0.6-0.1-1-0.1-1.3c0-0.3-0.1-0.6-0.1-1c0-0.3-0.1-0.6-0.1-0.9c0,0,0-0.1,0-0.1c-0.2-0.1-0.3-0.3-0.3-0.5c0-0.2,0.1-0.4,0.2-0.6
		C348.6,489.4,348.8,489.2,349.2,489.1z M353.2,495.6c-0.2-0.3-0.5-0.6-0.6-0.8c-0.2-0.3-0.4-0.5-0.7-0.8c-0.3-0.3-0.5-0.6-0.7-1
		c-0.2-0.3-0.5-0.6-0.7-0.9c-0.1-0.1-0.2-0.3-0.3-0.4c0,0.3,0,0.6,0.1,0.9c0,0.3,0.1,0.8,0.1,1.4c0,0.6,0,1.1,0,1.5
		c0,0.4,0,0.8,0,1.1c0,0.3,0,0.7,0.1,1c0.2-0.2,0.4-0.3,0.7-0.5c0.3-0.2,0.6-0.4,0.8-0.6c0.3-0.2,0.5-0.4,0.7-0.5
		C352.9,495.9,353.1,495.8,353.2,495.6z"/>
	<path d="M359.6,489.1c0.1,0.2,0.1,0.5,0.2,0.7c0.1,0.4,0.3,0.9,0.4,1.3c0.1,0.5,0.3,1,0.4,1.7c0.1,0.6,0.2,1.1,0.3,1.5
		c0.1,0.4,0.2,0.8,0.3,1.2c0.1,0.4,0.2,0.8,0.3,1.1c0.1,0.3,0.2,0.7,0.2,1c0.1,0.3,0.2,0.7,0.3,1l0.2,0.7c0,0.1,0.1,0.2,0.1,0.3
		l0,0.1c0,0.2,0,0.4-0.1,0.6c-0.1,0.2-0.3,0.3-0.5,0.3c-0.2,0-0.4,0-0.6-0.1c-0.2-0.1-0.3-0.3-0.3-0.5l0-0.1c0-0.1,0-0.1-0.1-0.2
		l-0.2-0.7c-0.1-0.4-0.2-0.7-0.3-1.1c-0.1-0.3-0.2-0.7-0.3-1c-0.1-0.4-0.2-0.7-0.3-1.2c-0.1-0.4-0.2-0.8-0.3-1.2
		c-0.1-0.4-0.2-0.9-0.3-1.5c-0.1-0.6-0.3-1.1-0.4-1.6c-0.1-0.5-0.3-0.9-0.4-1.3c-0.1-0.4-0.2-0.8-0.4-1.2c-0.1-0.4-0.2-0.7-0.3-1.1
		c-0.1-0.3-0.2-0.5-0.2-0.6l0-0.1c-0.1-0.2,0-0.4,0.1-0.6c0.1-0.2,0.3-0.3,0.4-0.3c0.2,0,0.3,0,0.5,0c0.2,0.1,0.3,0.2,0.4,0.3l0,0
		c0.1,0.1,0.2,0.2,0.4,0.3c0.2,0.1,0.5,0.3,0.8,0.6c0.3,0.2,0.7,0.6,1.1,1c0.5,0.4,0.8,0.8,1.1,1c0.3,0.3,0.5,0.5,0.7,0.8
		c0.2,0.3,0.5,0.5,0.7,0.8c0.1,0.1,0.3,0.3,0.4,0.5c0,0,0,0,0,0c0-0.3,0.1-0.6,0.1-0.9c0-0.3,0.1-0.7,0.1-1.2c0-0.5,0.1-0.8,0.1-1.1
		c0-0.3,0.1-0.7,0.1-1.1c0.1-0.4,0.1-0.7,0.2-0.9c0-0.2,0.1-0.3,0.1-0.5c0-0.1,0-0.3,0-0.3c0-0.1,0-0.2,0-0.3c0-0.1,0-0.2,0-0.2
		c0-0.3,0.1-0.5,0.3-0.6c0.2-0.1,0.5-0.1,0.7,0c0.2,0.1,0.4,0.1,0.4,0.1c0.1,0.1,0.2,0.3,0.3,0.6c0.1,0.3,0.3,0.6,0.5,1
		c0.2,0.4,0.4,0.9,0.6,1.5c0.2,0.6,0.5,1.2,0.8,1.8c0.3,0.6,0.5,1.1,0.7,1.6c0.2,0.4,0.4,0.9,0.6,1.4c0.3,0.6,0.5,1,0.6,1.3
		c0.2,0.3,0.3,0.6,0.4,0.8c0.1,0.3,0.2,0.5,0.3,0.8c0.1,0.3,0.2,0.5,0.4,0.8c0.1,0.3,0.2,0.4,0.2,0.5c0.1,0.1,0.1,0.2,0.1,0.3l0,0.1
		c0.1,0.2,0,0.4-0.1,0.6c-0.1,0.2-0.2,0.3-0.4,0.4c-0.2,0.1-0.4,0-0.6-0.1s-0.3-0.2-0.4-0.4l0-0.1c0,0,0-0.1-0.1-0.1
		c0-0.1-0.1-0.3-0.2-0.5c-0.1-0.3-0.2-0.5-0.4-0.8c-0.1-0.3-0.2-0.5-0.3-0.8c-0.1-0.2-0.2-0.5-0.4-0.8c-0.1-0.3-0.3-0.8-0.6-1.3
		c-0.3-0.6-0.5-1.1-0.6-1.5c-0.2-0.4-0.4-0.9-0.6-1.5c-0.3-0.6-0.5-1.2-0.8-1.9c-0.1-0.3-0.2-0.5-0.3-0.7c-0.1,0.3-0.1,0.6-0.1,0.9
		c0,0.3-0.1,0.7-0.1,1.2c-0.1,0.5-0.1,0.9-0.2,1.1c0,0.3-0.1,0.6-0.1,0.8c0,0.3-0.1,0.6-0.1,1c-0.1,0.4-0.2,0.7-0.2,0.8
		c0,0-0.1,0.1-0.2,0.2c-0.1,0.1-0.2,0.2-0.4,0.3c-0.2,0.1-0.3,0.1-0.5,0.1c-0.2,0-0.3-0.2-0.4-0.3c0-0.1-0.1-0.2-0.2-0.3
		c-0.1-0.1-0.2-0.3-0.4-0.6c-0.2-0.3-0.4-0.5-0.6-0.7c-0.2-0.2-0.4-0.5-0.6-0.7s-0.5-0.5-0.7-0.8c-0.2-0.3-0.6-0.6-1-1
		C360,489.4,359.8,489.3,359.6,489.1z"/>
	<path d="M374,496.8c0-0.1,0-0.3,0-0.4c0,0,0,0,0-0.1l0-0.1c0-0.1-0.1-0.2-0.1-0.3c-0.1-0.1-0.1-0.3-0.2-0.5
		c-0.1-0.2-0.1-0.4-0.2-0.5c0-0.2-0.1-0.4-0.2-0.6c-0.1-0.2-0.1-0.5-0.2-0.9c-0.1-0.3-0.2-0.7-0.3-1c-0.1-0.4-0.3-0.8-0.4-1.4
		c-0.2-0.5-0.3-1-0.5-1.5c-0.1-0.4-0.3-0.9-0.4-1.4c-0.2-0.5-0.3-0.9-0.4-1.3c-0.1-0.4-0.2-0.7-0.3-0.9c-0.1-0.2-0.1-0.4-0.2-0.7
		c-0.1-0.3-0.2-0.5-0.2-0.6l-0.1-0.2c-0.1-0.2-0.1-0.3,0-0.5c0.1-0.2,0.2-0.3,0.3-0.4c0.1-0.2,0.2-0.4,0.4-0.5l0.1,0
		c0.1-0.1,0.3-0.1,0.6-0.2l0.9-0.2c0.3-0.1,0.6-0.2,1-0.3s0.7-0.2,1-0.3c0.3-0.1,0.6-0.2,1-0.3c0.3-0.1,0.6-0.2,0.9-0.3
		c0.3-0.1,0.5-0.2,0.7-0.3c0.2-0.1,0.4-0.2,0.6-0.2c0.2-0.1,0.3-0.1,0.4-0.1l0.2,0c0.2-0.1,0.4,0,0.6,0.1c0.2,0.1,0.3,0.2,0.3,0.4
		c0.1,0.2,0,0.4-0.1,0.6c-0.1,0.2-0.2,0.3-0.5,0.4l-0.2,0c-0.1,0-0.2,0.1-0.4,0.1c-0.2,0-0.3,0.1-0.6,0.2c-0.2,0.1-0.5,0.2-0.7,0.3
		c-0.3,0.1-0.6,0.2-0.9,0.3c-0.3,0.1-0.7,0.2-1,0.3c-0.3,0.1-0.7,0.2-1,0.3c-0.3,0.1-0.7,0.2-1,0.3l-0.9,0.2c-0.1,0-0.2,0.1-0.3,0.1
		c0,0.1,0.1,0.3,0.2,0.5c0.1,0.3,0.2,0.5,0.2,0.7c0.1,0.2,0.2,0.5,0.3,1c0.1,0.4,0.2,0.8,0.4,1.2c0.1,0.5,0.3,0.9,0.4,1.3
		c0,0.1,0.1,0.2,0.1,0.3c0.2-0.1,0.4-0.1,0.6-0.2c0.3-0.1,0.6-0.2,0.9-0.3c0.4-0.1,0.7-0.3,1-0.4c0.3-0.1,0.6-0.2,0.9-0.3
		c0.3-0.1,0.6-0.2,0.8-0.3c0.2-0.1,0.4-0.1,0.6-0.2l0.2-0.1c0.2-0.1,0.4,0,0.6,0c0.2,0.1,0.3,0.2,0.4,0.4c0.1,0.2,0,0.4,0,0.6
		c-0.1,0.2-0.2,0.3-0.4,0.4l-0.2,0.1c-0.1,0-0.3,0.1-0.5,0.2c-0.2,0.1-0.5,0.2-0.8,0.3c-0.3,0.1-0.6,0.2-0.9,0.4
		c-0.3,0.1-0.7,0.3-1,0.4c-0.4,0.1-0.7,0.2-1,0.4c-0.2,0.1-0.4,0.1-0.6,0.2c0.1,0.4,0.3,0.8,0.4,1.1c0.1,0.4,0.2,0.7,0.3,1.1
		c0.1,0.3,0.2,0.6,0.3,0.8c0.1,0.2,0.1,0.4,0.2,0.6c0,0.2,0.1,0.3,0.1,0.5c0.1,0.2,0.1,0.3,0.2,0.4c0,0.1,0,0.1,0.1,0.2
		c0.1,0,0.1-0.1,0.2-0.1c0.2-0.1,0.5-0.2,0.8-0.3c0.3-0.1,0.6-0.2,0.9-0.3c0.3-0.1,0.6-0.2,0.9-0.3c0.3-0.1,0.6-0.2,0.9-0.2
		c0.3-0.1,0.6-0.2,0.9-0.3c0.3-0.1,0.6-0.2,1-0.3c0.3-0.1,0.6-0.2,0.7-0.2c0.2-0.1,0.3-0.1,0.4-0.2c0.1,0,0.2-0.1,0.3-0.1l0.1,0
		c0.2-0.1,0.4,0,0.6,0.1c0.2,0.1,0.3,0.2,0.4,0.4s0,0.4-0.1,0.6c-0.1,0.2-0.3,0.3-0.4,0.3l-0.1,0c-0.1,0-0.1,0-0.2,0.1
		c-0.1,0-0.2,0.1-0.4,0.1c-0.2,0.1-0.4,0.2-0.8,0.3c-0.4,0.1-0.7,0.2-1,0.3c-0.3,0.1-0.6,0.2-0.9,0.3c-0.3,0.1-0.6,0.2-0.9,0.3
		c-0.3,0.1-0.6,0.2-0.9,0.3c-0.3,0.1-0.6,0.2-0.9,0.3c-0.3,0.1-0.5,0.2-0.8,0.3c-0.2,0.1-0.5,0.2-0.7,0.2l-0.3,0.1
		c-0.2,0.1-0.4,0-0.6,0C374.2,497.2,374.1,497,374,496.8z"/>
	<path d="M382.2,480c0.2-0.1,0.4,0,0.5,0s0.3,0.2,0.4,0.3c0.1,0,0.3,0,0.4,0c0.3,0,0.6,0,1,0.1c0.3,0.1,0.6,0.1,1,0.2
		c0.4,0.1,0.8,0.2,1.3,0.4c0.5,0.2,1,0.4,1.3,0.6c0.3,0.2,0.6,0.4,1,0.6c0.3,0.3,0.7,0.5,0.9,0.8c0.3,0.3,0.5,0.6,0.7,0.8
		c0.2,0.3,0.4,0.5,0.5,0.8c0.2,0.3,0.3,0.5,0.5,0.8c0.1,0.3,0.3,0.6,0.4,0.9c0.1,0.3,0.2,0.6,0.2,0.8c0.1,0.3,0.1,0.5,0.1,0.8
		c0,0.2,0,0.5-0.1,0.7c0,0.2-0.1,0.4-0.1,0.6c-0.1,0.2-0.1,0.4-0.2,0.7c-0.1,0.2-0.2,0.4-0.3,0.6c-0.1,0.2-0.2,0.3-0.4,0.5
		c-0.1,0.2-0.3,0.3-0.5,0.4c-0.2,0.1-0.3,0.3-0.5,0.4c-0.2,0.1-0.4,0.2-0.6,0.3c-0.2,0.1-0.4,0.2-0.6,0.3c-0.2,0.1-0.5,0.2-0.8,0.2
		c-0.3,0.1-0.6,0.1-0.8,0.1c-0.2,0-0.4,0-0.6,0c-0.2,0-0.4,0-0.6-0.1l0,0c0,0.2,0,0.4-0.2,0.5c-0.1,0.2-0.3,0.3-0.5,0.3
		c-0.2,0-0.4,0-0.5-0.1c-0.2-0.1-0.3-0.3-0.3-0.5l0-0.2c0-0.1,0-0.2-0.1-0.4c0-0.2-0.1-0.5-0.2-0.8c-0.1-0.3-0.2-0.7-0.3-1.1
		c-0.1-0.4-0.2-0.8-0.3-1.2s-0.2-0.9-0.4-1.3c-0.1-0.5-0.3-1-0.4-1.4c-0.1-0.5-0.2-0.9-0.3-1.3s-0.2-0.9-0.3-1.3
		c-0.1-0.4-0.2-0.9-0.3-1.2l-0.3-1c-0.1-0.3-0.1-0.4-0.2-0.5l-0.1-0.1c-0.1-0.2-0.1-0.4,0-0.6C381.8,480.2,382,480.1,382.2,480z
		 M386,491.2c0.2,0.1,0.4,0.1,0.6,0.1c0.2,0,0.3,0,0.5,0.1c0.1,0,0.3,0,0.5,0c0.2,0,0.3,0,0.6-0.1c0.2-0.1,0.4-0.1,0.6-0.2
		c0.1-0.1,0.3-0.1,0.4-0.2c0.2-0.1,0.3-0.2,0.4-0.3c0.1-0.1,0.3-0.2,0.4-0.3c0.1-0.1,0.2-0.2,0.4-0.3c0.1-0.1,0.2-0.2,0.2-0.3
		c0.1-0.1,0.1-0.2,0.2-0.4c0.1-0.1,0.1-0.2,0.1-0.4c0-0.2,0.1-0.3,0.1-0.5c0-0.2,0-0.3,0-0.5c0-0.2,0-0.3,0-0.5
		c0-0.2-0.1-0.4-0.2-0.6c-0.1-0.2-0.2-0.5-0.3-0.7c-0.1-0.2-0.2-0.4-0.4-0.7c-0.2-0.2-0.3-0.5-0.5-0.7c-0.2-0.2-0.4-0.5-0.6-0.7
		c-0.2-0.2-0.5-0.4-0.7-0.6c-0.3-0.2-0.6-0.4-0.8-0.5c-0.3-0.1-0.6-0.3-1.1-0.5c-0.5-0.2-0.8-0.3-1.2-0.4c-0.3-0.1-0.6-0.1-0.9-0.2
		c-0.2,0-0.5-0.1-0.6-0.1c0,0-0.1,0-0.1,0l0.1,0.4c0.1,0.4,0.2,0.8,0.4,1.3c0.1,0.4,0.2,0.9,0.3,1.3c0.1,0.4,0.2,0.9,0.3,1.4
		c0.1,0.5,0.2,0.9,0.4,1.4c0.1,0.5,0.3,0.9,0.4,1.3c0.1,0.4,0.2,0.9,0.3,1.3C385.9,490.5,385.9,490.9,386,491.2z"/>
	<path d="M391.7,478c-0.1-0.2-0.1-0.4,0-0.6c0.1-0.2,0.2-0.3,0.4-0.4c0.2-0.1,0.4-0.1,0.6,0l0.2,0.1c0.2,0.1,0.3,0.2,0.5,0.2
		c0.2,0.1,0.3,0.2,0.4,0.2c0.1,0.1,0.3,0.2,0.5,0.4c0.2,0.2,0.4,0.4,0.6,0.6c0.2,0.2,0.4,0.4,0.5,0.6c0.2,0.2,0.3,0.4,0.4,0.5
		c0.1,0.1,0.2,0.3,0.4,0.6c0.2,0.3,0.3,0.6,0.5,0.8c0.2,0.3,0.3,0.6,0.4,0.9c0.1,0.3,0.2,0.5,0.3,0.7c0.1,0.2,0.2,0.4,0.3,0.7
		c0.1,0.3,0.2,0.6,0.3,0.9c0.1,0.3,0.2,0.6,0.3,1c0.1,0.3,0.1,0.7,0.2,1c0,0.3,0.1,0.6,0.1,0.8c0,0.2,0,0.4,0,0.6c0,0.3,0,0.6,0,0.8
		c0,0.3,0,0.5,0,0.7c0,0.2,0,0.5-0.1,0.7c0,0.2-0.1,0.4-0.1,0.6c0,0.2-0.1,0.4-0.2,0.7c-0.1,0.2-0.1,0.4-0.2,0.5
		c0,0.2-0.1,0.3-0.1,0.4l-0.1,0.1c-0.1,0.2-0.2,0.3-0.4,0.4c-0.2,0.1-0.4,0.1-0.6,0c-0.2-0.1-0.3-0.2-0.4-0.4
		c-0.1-0.2-0.1-0.4,0-0.6l0.1-0.1c0-0.1,0-0.2,0.1-0.3c0-0.1,0.1-0.3,0.2-0.6c0.1-0.2,0.1-0.3,0.1-0.5c0-0.2,0.1-0.3,0.1-0.5
		c0-0.2,0-0.4,0-0.6c0-0.2,0-0.4,0-0.7c0-0.2,0-0.5,0-0.7c0-0.3,0-0.5,0-0.6c0-0.1,0-0.3-0.1-0.6c0-0.3-0.1-0.6-0.2-0.9
		c-0.1-0.3-0.2-0.6-0.2-0.9c-0.1-0.3-0.2-0.6-0.3-0.8c-0.1-0.3-0.2-0.5-0.2-0.6c-0.1-0.1-0.2-0.3-0.3-0.6s-0.3-0.5-0.4-0.8
		c-0.1-0.3-0.3-0.5-0.4-0.7c-0.2-0.3-0.3-0.4-0.4-0.6c-0.1-0.1-0.2-0.3-0.3-0.4c-0.1-0.2-0.3-0.4-0.4-0.5c-0.2-0.2-0.3-0.3-0.4-0.4
		c-0.2-0.1-0.3-0.2-0.4-0.3c-0.1-0.1-0.2-0.1-0.3-0.2c-0.1-0.1-0.3-0.1-0.4-0.2l-0.2-0.1C391.9,478.4,391.8,478.2,391.7,478z"/>
</g>
</svg>
