<?xml version="1.0" encoding="utf-8"?>
<!-- Generator: Adobe Illustrator 26.0.1, SVG Export Plug-In . SVG Version: 6.00 Build 0)  -->
<svg version="1.1" id="Layer_1" xmlns="http://www.w3.org/2000/svg" xmlns:xlink="http://www.w3.org/1999/xlink" x="0px" y="0px"
	 viewBox="0 0 65 65.6" style="enable-background:new 0 0 65 65.6;" xml:space="preserve">
<style type="text/css">
	.st0{fill:#FE997B;}
	.st1{enable-background:new    ;}
	.st2{fill:#F7C74F;}
</style>
<g id="Layer_2_00000178916213403049252380000009168466814739056800_">
	<g id="Layer_1-2">
		<ellipse class="st0" cx="32.5" cy="32.8" rx="32.5" ry="32.8"/>
		<g class="st1">
			<path class="st2" d="M33.5,34.6v7h-2.3v4.1h-8.7v-4.1h-10v-6.3l6.3-14.1h8.3l-5.6,13.4h1.9l2.5-5.7h5.3v5.7H33.5z"/>
		</g>
		<g class="st1">
			<path class="st2" d="M53.2,21.2c0,0,0,5.5,0,7.7c-2.7,1.8-7.2,8.8-7.2,16.8c-1.4,0-6,0-8.6,0c0-8.3,3.8-14,6.7-17.1v-0.4
				c-2.5,0-10.3,0-10.3,0v-7H53.2z"/>
		</g>
	</g>
</g>
</svg>
