<?xml version="1.0" encoding="utf-8"?>
<!-- Generator: Adobe Illustrator 26.0.1, SVG Export Plug-In . SVG Version: 6.00 Build 0)  -->
<svg version="1.1" id="Layer_1" xmlns="http://www.w3.org/2000/svg" xmlns:xlink="http://www.w3.org/1999/xlink" x="0px" y="0px"
	 viewBox="0 0 65.6 65" style="enable-background:new 0 0 65.6 65;" xml:space="preserve">
<style type="text/css">
	.st0{fill:#FE997B;}
	.st1{enable-background:new    ;}
	.st2{fill:#F7C74F;}
</style>
<g id="Layer_2_00000083085242232280619020000009296930048264207016_">
	<g id="Layer_1-2">
		<ellipse class="st0" cx="32.8" cy="32.5" rx="32.8" ry="32.5"/>
		<g class="st1">
			<path class="st2" d="M32.7,39.5c-0.5,6.2-6.2,7.2-10.5,7.2c-4.9,0-10.1-2.4-10.1-8.8c2.8,0,8.4,0,8.4,0c0,1.4,0.4,2.2,1.5,2.2
				c0.9,0,1.3-0.7,1.3-2c0-1.4-0.5-2-2.6-2c-2.2,0-4.4,0-4.4,0v-4.2l5.8-3.1v-0.2h-8.6v-7h18.2v7.5L25,32.2v0.2
				C28.4,32.3,33.2,33,32.7,39.5z"/>
		</g>
		<g class="st1">
			<path class="st2" d="M53.7,21.6c0,0,0,5.5,0,7.7c-2.7,1.8-7.2,8.8-7.2,16.8c-1.4,0-6,0-8.6,0c0-8.3,3.8-14,6.7-17.1v-0.4
				c-2.5,0-10.3,0-10.3,0v-7H53.7z"/>
		</g>
	</g>
</g>
</svg>
