<?xml version="1.0" encoding="utf-8"?>
<!-- Generator: Adobe Illustrator 26.0.1, SVG Export Plug-In . SVG Version: 6.00 Build 0)  -->
<svg version="1.1" id="Layer_1" xmlns="http://www.w3.org/2000/svg" xmlns:xlink="http://www.w3.org/1999/xlink" x="0px" y="0px"
	 viewBox="0 0 65 65.1" style="enable-background:new 0 0 65 65.1;" xml:space="preserve">
<style type="text/css">
	.st0{fill:#FE997B;}
	.st1{enable-background:new    ;}
	.st2{fill:#F7C74F;}
</style>
<g id="Layer_2_00000133487569312267720040000008116922592211384485_">
	<g id="Layer_1-2">
		<ellipse class="st0" cx="32.5" cy="32.5" rx="32.5" ry="32.5"/>
		<g class="st1">
			<path class="st2" d="M33.1,37.1c-0.2,6.7-4,9.1-10.3,9.1c-6.2,0-10.9-3.6-11.1-9.8c-0.6-15,6.4-16.1,10.4-16.1
				c5.1,0,10.5,2.1,10.5,8.6c-2.9,0-8.8,0-8.8,0c0-1.4-0.4-2.1-1.6-2.1s-2.1,1.1-2.2,4.7h0.2c1.5-1.4,4.1-2.1,7-1.6
				C30.9,30.6,33.2,33.5,33.1,37.1z M24.8,37.8c0-1.2-0.8-2.2-2.2-2.2c-1.3,0-2.2,1-2.2,2.2c0,1.2,1,2.2,2.2,2.2
				S24.8,39.1,24.8,37.8z"/>
		</g>
		<g class="st1">
			<path class="st2" d="M54.3,21c0,0,0,5.5,0,7.7c-2.8,1.8-7.2,8.8-7.2,16.8c-1.4,0-6,0-8.7,0c0-8.3,3.8-14,6.8-17.1V28
				c-2.5,0-10.4,0-10.4,0v-7H54.3z"/>
		</g>
	</g>
</g>
</svg>
