<?xml version="1.0" encoding="utf-8"?>
<!-- Generator: Adobe Illustrator 26.0.1, SVG Export Plug-In . SVG Version: 6.00 Build 0)  -->
<svg version="1.1" id="Layer_1" xmlns="http://www.w3.org/2000/svg" xmlns:xlink="http://www.w3.org/1999/xlink" x="0px" y="0px"
	 viewBox="0 0 65 65" style="enable-background:new 0 0 65 65;" xml:space="preserve">
<style type="text/css">
	.st0{fill:#FE997B;}
	.st1{enable-background:new    ;}
	.st2{fill:#F7C74F;}
</style>
<g id="Layer_2_00000064351235275032288580000002099937329282944172_">
	<g id="Layer_1-2">
		<circle class="st0" cx="32.5" cy="32.5" r="32.5"/>
		<g class="st1">
			<path class="st2" d="M42.7,37.5c-0.8,6.5-5.5,8.2-10.5,8.2c-4.9,0-10-2.4-10-8.8c2.8,0,8.4,0,8.4,0c0,1.4,0.3,2.2,1.5,2.2
				c0.9,0,1.3-0.7,1.3-2c0-1.4-0.5-2-2.6-2c-2.2,0-7.2,0-7.2,0l0.7-14.6h16.6v7H32l-0.1,2.6c0,0,0.2,0,0.2,0
				c1.8-0.6,4.3-0.6,5.9-0.2C41.3,30.7,43.2,33.8,42.7,37.5z"/>
		</g>
	</g>
</g>
</svg>
