<svg id="Layer_1" data-name="Layer 1" xmlns="http://www.w3.org/2000/svg" viewBox="0 0 329.84 329.84"><defs><style>.cls-1{fill:#e44616;}.cls-2{fill:#f7c74f;}</style></defs><circle class="cls-1" cx="164.92" cy="164.92" r="164.92"/><path class="cls-2" d="M254.87,326.19c-12-.81-21.75-5.87-50.05-24.8-5.49-3.67-28.32,5.75-41.06-9-7.12-8.25-8.81-6.93-8.81-42.36,0-26.26.3-34,9-42.89,13.2-13.43,35.38-5.2,40.36-8.53,39.13-26.19,44.67-25,51.9-24.74,6.6.27,26.76,5.83,26.76,32.59v88.17C280.94,323.45,261.45,326.63,254.87,326.19Z" transform="translate(-85.08 -85.08)"/><rect class="cls-2" x="314.42" y="217.81" width="12.91" height="63.03" rx="6.46" transform="translate(-167.39 214.84) rotate(-45)"/><rect class="cls-2" x="314.02" y="218.29" width="12.91" height="63.03" rx="6.46" transform="translate(185.42 -238.53) rotate(45)"/></svg>