<svg id="Layer_1" data-name="Layer 1" xmlns="http://www.w3.org/2000/svg" viewBox="0 0 329.84 329.84"><defs><style>.cls-1{fill:#e44616;}.cls-2{fill:#f7c74f;}</style></defs><circle class="cls-1" cx="164.92" cy="164.92" r="164.92"/><path class="cls-2" d="M255,326.19c-12-.81-21.75-5.87-50.06-24.8-5.48-3.67-28.31,5.75-41-9-7.12-8.25-8.81-6.93-8.81-42.36,0-26.26.3-34,9-42.89,13.2-13.43,35.38-5.2,40.35-8.53,39.14-26.19,44.68-25,51.91-24.74,6.59.27,26.76,5.83,26.76,32.59v88.17C281,323.45,261.53,326.63,255,326.19Z" transform="translate(-85.08 -85.08)"/><path class="cls-2" d="M303.63,292.08c-8.09-1.56-7.82-7.54-6.3-9.66,11.5-16.05,10.95-28.92,10.95-32.59,0,0,3.11-12.43-11.51-33.25-1.49-2.12.85-9.22,6.86-8.84,3.67.23,18,14.37,17.79,42.25C321.23,281.21,305.83,292.5,303.63,292.08Z" transform="translate(-85.08 -85.08)"/><path class="cls-2" d="M321.09,314.11c-8.25.07-9.32-7-7.8-9.16,11.49-16.05,19-31.5,18.54-54.56-.52-24.77-4.16-35-18.78-55.86-1.49-2.12,1.41-9.7,7.69-8.8,4.17.59,24.4,26.85,24.23,64.83S324.17,314.09,321.09,314.11Z" transform="translate(-85.08 -85.08)"/></svg>